<svg width="46" height="66" viewBox="0 0 46 66" fill="none" xmlns="http://www.w3.org/2000/svg">
<path fill-rule="evenodd" clip-rule="evenodd" d="M26.2778 19.6783C29.8108 15.5606 32.3308 6.2671 32.3308 2.90298C32.3308 -4.20408 28.0937 4.71474 22.8684 4.71474C17.6349 4.71474 13.4061 -4.29467 13.4061 2.90298C13.4061 6.32474 15.9961 15.8653 19.632 19.88C8.89313 22.9271 0.427246 38.3847 0.427246 51.973C0.427246 63.9883 10.5361 65.8247 23.0002 65.8247C35.4643 65.8247 45.569 63.8236 45.569 51.973C45.569 39.5953 37.3172 22.3218 26.2778 19.6783ZM33.4219 53.723H29.3043V57.7747H25.1867V62.02H20.8137V57.7747H16.6961V53.723L16.7496 53.6571H12.5784V49.2842H16.8896V53.4842L16.9555 53.4018H20.8178V45.4218H16.8237V41.37H12.5125V32.8795H16.8237V28.6959H20.8137V24.4506H25.1867V28.6959H29.3043V32.8136H33.3561V37.1865H29.0449V32.9824L28.979 33.0071H25.1825V41.0489H29.3661V45.2324H33.4178V53.723H33.4219Z" fill="#9C27B0"/>
</svg>
