<svg width="94" height="19" viewBox="0 0 94 19" fill="none" xmlns="http://www.w3.org/2000/svg">
<path d="M4.304 6.792C4.752 6.168 5.352 5.696 6.104 5.376C6.872 5.056 7.752 4.896 8.744 4.896V8.352C8.328 8.32 8.048 8.304 7.904 8.304C6.832 8.304 5.992 8.608 5.384 9.216C4.776 9.808 4.472 10.704 4.472 11.904V18H0.728V5.088H4.304V6.792ZM23.501 11.592C23.501 11.64 23.477 11.976 23.429 12.6H13.661C13.837 13.4 14.253 14.032 14.909 14.496C15.565 14.96 16.381 15.192 17.357 15.192C18.029 15.192 18.621 15.096 19.133 14.904C19.661 14.696 20.149 14.376 20.597 13.944L22.589 16.104C21.373 17.496 19.597 18.192 17.261 18.192C15.805 18.192 14.517 17.912 13.397 17.352C12.277 16.776 11.413 15.984 10.805 14.976C10.197 13.968 9.893 12.824 9.893 11.544C9.893 10.28 10.189 9.144 10.781 8.136C11.389 7.112 12.213 6.32 13.253 5.76C14.309 5.184 15.485 4.896 16.781 4.896C18.045 4.896 19.189 5.168 20.213 5.712C21.237 6.256 22.037 7.04 22.613 8.064C23.205 9.072 23.501 10.248 23.501 11.592ZM16.805 7.728C15.957 7.728 15.245 7.968 14.669 8.448C14.093 8.928 13.741 9.584 13.613 10.416H19.973C19.845 9.6 19.493 8.952 18.917 8.472C18.341 7.976 17.637 7.728 16.805 7.728ZM31.7776 18.288C30.4496 18.288 29.1616 18.112 27.9136 17.76C26.6816 17.392 25.6896 16.92 24.9376 16.344L26.2576 13.416C26.9776 13.944 27.8336 14.368 28.8256 14.688C29.8176 15.008 30.8096 15.168 31.8016 15.168C32.9056 15.168 33.7216 15.008 34.2496 14.688C34.7776 14.352 35.0416 13.912 35.0416 13.368C35.0416 12.968 34.8816 12.64 34.5616 12.384C34.2576 12.112 33.8576 11.896 33.3616 11.736C32.8816 11.576 32.2256 11.4 31.3936 11.208C30.1136 10.904 29.0656 10.6 28.2496 10.296C27.4336 9.992 26.7296 9.504 26.1376 8.832C25.5616 8.16 25.2736 7.264 25.2736 6.144C25.2736 5.168 25.5376 4.288 26.0656 3.504C26.5936 2.704 27.3856 2.072 28.4416 1.608C29.5136 1.144 30.8176 0.912 32.3536 0.912C33.4256 0.912 34.4736 1.04 35.4976 1.296C36.5216 1.552 37.4176 1.92 38.1856 2.4L36.9856 5.352C35.4336 4.472 33.8816 4.032 32.3296 4.032C31.2416 4.032 30.4336 4.208 29.9056 4.56C29.3936 4.912 29.1376 5.376 29.1376 5.952C29.1376 6.528 29.4336 6.96 30.0256 7.248C30.6336 7.52 31.5536 7.792 32.7856 8.064C34.0656 8.368 35.1136 8.672 35.9296 8.976C36.7456 9.28 37.4416 9.76 38.0176 10.416C38.6096 11.072 38.9056 11.96 38.9056 13.08C38.9056 14.04 38.6336 14.92 38.0896 15.72C37.5616 16.504 36.7616 17.128 35.6896 17.592C34.6176 18.056 33.3136 18.288 31.7776 18.288ZM54.5703 14.88V18H41.5623V1.2H54.2583V4.32H45.4263V7.968H53.2263V10.992H45.4263V14.88H54.5703ZM73.0719 1.2V18H69.8799L61.5039 7.8V18H57.6639V1.2H60.8799L69.2319 11.4V1.2H73.0719ZM77.0467 1.2H84.6787C86.5027 1.2 88.1107 1.552 89.5027 2.256C90.9107 2.944 91.9987 3.92 92.7667 5.184C93.5507 6.448 93.9427 7.92 93.9427 9.6C93.9427 11.28 93.5507 12.752 92.7667 14.016C91.9987 15.28 90.9107 16.264 89.5027 16.968C88.1107 17.656 86.5027 18 84.6787 18H77.0467V1.2ZM84.4867 14.808C86.1667 14.808 87.5027 14.344 88.4947 13.416C89.5027 12.472 90.0067 11.2 90.0067 9.6C90.0067 8 89.5027 6.736 88.4947 5.808C87.5027 4.864 86.1667 4.392 84.4867 4.392H80.9347V14.808H84.4867Z" fill="#9C27B0"/>
</svg>
