<svg width="70" height="70" viewBox="0 0 70 70" fill="none" xmlns="http://www.w3.org/2000/svg">
<path d="M33.7575 14.1994L34.4015 14.2694C32.2101 17.5585 31.3332 21.5505 31.9445 25.4554C32.4905 28.9169 35.147 31.0554 37.527 32.0354L48.1775 36.4454C50.5575 37.4324 53.9455 37.7999 56.777 35.7419C59.063 34.0783 60.8584 31.8294 61.9745 29.2319C62.6465 31.2619 63 33.5369 63 36.0779C63 42.2134 61.1275 46.5149 59.185 49.3044C58.2868 50.6037 57.2152 51.7742 56 52.7834V57.7534C56 59.1457 55.4469 60.4811 54.4623 61.4657C53.4777 62.4502 52.1424 63.0034 50.75 63.0034H45.906C43.75 62.9999 42 61.2499 42 59.0904C42.0005 59.0367 41.9903 58.9836 41.9701 58.9339C41.9499 58.8843 41.9201 58.8391 41.8823 58.801C41.8446 58.7629 41.7997 58.7327 41.7502 58.7121C41.7007 58.6915 41.6476 58.6809 41.594 58.6809H35.406C35.3524 58.6809 35.2993 58.6915 35.2498 58.7121C35.2003 58.7327 35.1554 58.7629 35.1177 58.801C35.0799 58.8391 35.0501 58.8843 35.0299 58.9339C35.0097 58.9836 34.9995 59.0367 35 59.0904C35 61.2499 33.25 62.9999 31.094 62.9999H26.25C24.8576 62.9999 23.5223 62.4467 22.5377 61.4622C21.5531 60.4776 21 59.1422 21 57.7499V55.8669C20.832 55.7689 20.65 55.6569 20.4505 55.5274C19.4425 54.8729 18.0355 53.7844 16.254 51.9784C14.484 50.1619 13.0585 48.0392 12.047 45.7134C11.788 45.1149 11.312 44.7614 10.878 44.6879C9.79317 44.5042 8.80846 43.9422 8.09856 43.1016C7.38866 42.261 6.99946 41.1961 7 40.0959V34.8249C7 32.6199 8.5925 30.7369 10.766 30.3729C11.179 30.3029 11.6375 29.9354 11.8405 29.3124C12.376 27.6814 13.4085 25.2699 15.3055 23.3449C16.9794 21.6696 18.8998 20.2603 21 19.1659V11.0669C21 9.83135 21.805 8.95635 22.68 8.60285C23.555 8.25285 24.7135 8.31585 25.5745 9.14535C26.5825 10.1184 27.972 11.3399 29.477 12.3514C31.0205 13.3839 32.515 14.0734 33.7575 14.1994ZM23.625 33.2499C24.3212 33.2499 24.9889 32.9733 25.4812 32.481C25.9734 31.9887 26.25 31.321 26.25 30.6249C26.25 29.9287 25.9734 29.261 25.4812 28.7687C24.9889 28.2764 24.3212 27.9999 23.625 27.9999C22.9288 27.9999 22.2611 28.2764 21.7688 28.7687C21.2766 29.261 21 29.9287 21 30.6249C21 31.321 21.2766 31.9887 21.7688 32.481C22.2611 32.9733 22.9288 33.2499 23.625 33.2499Z" fill="#9C27B0"/>
<path d="M59.6326 24.6224L59.6466 24.6434C59.4247 26.2824 58.8737 27.8596 58.0269 29.2802C57.18 30.7009 56.0547 31.9357 54.7186 32.9104C53.2171 34.0024 51.2291 33.9254 49.5141 33.2149L38.8671 28.8049C37.2221 28.1224 35.8081 26.8519 35.4406 25.1299C35.1266 23.3869 35.1944 21.5965 35.6391 19.8822C36.0839 18.1679 36.8951 16.5704 38.0168 15.1999C39.1385 13.8293 40.5441 12.7183 42.1366 11.9434C43.7291 11.1684 45.4707 10.748 47.2414 10.7112C49.0121 10.6743 50.7697 11.0218 52.3931 11.7297C54.0166 12.4376 55.4672 13.4891 56.645 14.8118C57.8228 16.1344 58.6998 17.6968 59.2156 19.3911C59.7314 21.0854 59.8736 22.8713 59.6326 24.6259V24.6224Z" fill="#9C27B0"/>
</svg>
