<svg width="67" height="66" viewBox="0 0 67 66" fill="none" xmlns="http://www.w3.org/2000/svg">
<path d="M68.5782 26.4097C68.9027 25.6264 68.9875 24.7644 68.8219 23.9329C68.6564 23.1014 68.2479 22.3376 67.6482 21.7383L46.22 0.310059L40.1601 6.36997L54.2727 20.4826H0.333504V29.0539H64.6183C65.4658 29.0541 66.2944 28.803 66.9993 28.3324C67.7041 27.8617 68.2536 27.1926 68.5782 26.4097ZM0.659215 40.2695C0.33477 41.0528 0.249952 41.9147 0.415494 42.7463C0.581036 43.5778 0.989498 44.3415 1.5892 44.9408L23.0175 66.3691L29.0774 60.3092L14.9647 46.1965H68.9039V37.6252H4.61916C3.77147 37.6244 2.94264 37.8753 2.23767 38.3461C1.53271 38.8168 0.983354 39.4862 0.659215 40.2695Z" fill="#9C27B0"/>
</svg>
