<svg width="60" height="57" viewBox="0 0 60 57" fill="none" xmlns="http://www.w3.org/2000/svg">
<path d="M56.8889 47.4074V50.5185C56.8889 52.2963 56.2716 53.8025 55.037 55.037C53.8025 56.2716 52.2963 56.8889 50.5185 56.8889H6.37037C4.59259 56.8889 3.08642 56.2716 1.85185 55.037C0.617284 53.8025 0 52.2963 0 50.5185V6.37037C0 4.59259 0.617284 3.08642 1.85185 1.85185C3.08642 0.617284 4.59259 0 6.37037 0H50.5185C52.2963 0 53.8025 0.617284 55.037 1.85185C56.2716 3.08642 56.8889 4.59259 56.8889 6.37037V9.48148H28.4444C26.6667 9.48148 25.1605 10.0988 23.9259 11.3333C22.6914 12.5679 22.0741 14.0741 22.0741 15.8519V41.037C22.0741 42.8148 22.6914 44.321 23.9259 45.5556C25.1605 46.7901 26.6667 47.4074 28.4444 47.4074H56.8889ZM28.4444 41.037V15.8519H60V41.037H28.4444ZM41.1111 33.1852C42.4444 33.1852 43.5556 32.716 44.4444 31.7778C45.3333 30.8395 45.7778 29.7284 45.7778 28.4444C45.7778 27.1605 45.3333 26.0494 44.4444 25.1111C43.5556 24.1728 42.4444 23.7037 41.1111 23.7037C39.7778 23.7037 38.642 24.1728 37.7037 25.1111C36.7654 26.0494 36.2963 27.1605 36.2963 28.4444C36.2963 29.7284 36.7654 30.8395 37.7037 31.7778C38.642 32.716 39.7778 33.1852 41.1111 33.1852Z" fill="#9C27B0"/>
</svg>
