<svg width="20" height="21" viewBox="0 0 20 21" fill="none" xmlns="http://www.w3.org/2000/svg">
<path d="M10.4707 10.9444C11.9929 10.9444 13.227 9.75528 13.227 8.28836C13.227 6.82145 11.9929 5.63228 10.4707 5.63228C8.94839 5.63228 7.71436 6.82145 7.71436 8.28836C7.71436 9.75528 8.94839 10.9444 10.4707 10.9444Z" stroke="#606060" stroke-width="1.5" stroke-linecap="round" stroke-linejoin="round"/>
<path d="M0.823486 5.63227H2.20164V4.30423C2.20164 3.59979 2.49203 2.92421 3.00894 2.4261C3.52585 1.92798 4.22692 1.64815 4.95794 1.64815H15.9831C16.7142 1.64815 17.4152 1.92798 17.9321 2.4261C18.4491 2.92421 18.7395 3.59979 18.7395 4.30423V17.5847C18.7395 18.2891 18.4491 18.9647 17.9321 19.4628C17.4152 19.9609 16.7142 20.2407 15.9831 20.2407H4.95794C4.22692 20.2407 3.52585 19.9609 3.00894 19.4628C2.49203 18.9647 2.20164 18.2891 2.20164 17.5847V16.2566H0.823486" stroke="#606060" stroke-width="1.5" stroke-linecap="round" stroke-linejoin="round"/>
<path d="M0.823486 10.9444H2.20164" stroke="#606060" stroke-width="1.5" stroke-linecap="round" stroke-linejoin="round"/>
<path d="M0.823486 8.28836H2.20164" stroke="#606060" stroke-width="1.5" stroke-linecap="round" stroke-linejoin="round"/>
<path d="M0.823486 13.6005H2.20164" stroke="#606060" stroke-width="1.5" stroke-linecap="round" stroke-linejoin="round"/>
<path fill-rule="evenodd" clip-rule="evenodd" d="M14.6048 14.9286V13.6005C14.6048 12.8961 14.3144 12.2205 13.7975 11.7224C13.2806 11.2243 12.5796 10.9444 11.8485 10.9444H9.09224C8.36122 10.9444 7.66015 11.2243 7.14324 11.7224C6.62633 12.2205 6.33594 12.8961 6.33594 13.6005V14.9286C6.33594 15.2808 6.48114 15.6186 6.73959 15.8676C6.99804 16.1167 7.34858 16.2566 7.71409 16.2566H13.2267C13.5922 16.2566 13.9427 16.1167 14.2012 15.8676C14.4596 15.6186 14.6048 15.2808 14.6048 14.9286Z" stroke="#606060" stroke-width="1.5" stroke-linecap="round" stroke-linejoin="round"/>
</svg>
