<svg width="120" height="75" viewBox="0 0 120 75" fill="none" xmlns="http://www.w3.org/2000/svg">
<g filter="url(#filter0_b)">
<rect width="120" height="75" rx="5.58209" fill="#2A1359"/>
<rect x="0.17444" y="0.17444" width="119.651" height="74.6511" rx="5.40765" stroke="#891818" stroke-width="0.348881"/>
<rect x="0.17444" y="0.17444" width="119.651" height="74.6511" rx="5.40765" stroke="#658335" stroke-width="0.348881"/>
</g>
<path d="M8.95508 25.4518V31.5756C8.95508 32.1647 9.43267 32.6423 10.0218 32.6423H16.7461C18.3782 32.6423 19.7013 31.3192 19.7013 29.6871V27.3403C19.7013 25.7082 18.3783 24.3851 16.7461 24.3851H10.0218C9.43267 24.3851 8.95508 24.8626 8.95508 25.4518Z" fill="url(#paint0_linear)" stroke="#8D731D" stroke-width="0.246269"/>
<path d="M13.0632 24.4246C12.6286 25.6757 12.0202 29.0708 13.0632 32.6423" stroke="#8D731D" stroke-width="0.246269"/>
<path d="M15.7495 24.4246C16.1841 25.6757 16.7926 29.0708 15.7495 32.6423" stroke="#8D731D" stroke-width="0.246269"/>
<path d="M8.99451 27.2692H12.5503" stroke="#8D731D" stroke-width="0.246269"/>
<path d="M16.3037 27.2296H19.7014" stroke="#8D731D" stroke-width="0.246269"/>
<path d="M8.99451 29.6397H12.5503" stroke="#8D731D" stroke-width="0.246269"/>
<path d="M16.3037 29.6002H19.7014" stroke="#8D731D" stroke-width="0.246269"/>
<path d="M9.98275 67.2054C9.79142 67.2054 9.61175 67.1798 9.44375 67.1284C9.27808 67.0771 9.13692 67.0036 9.02025 66.9079L9.17425 66.5789C9.29558 66.6699 9.42158 66.7376 9.55225 66.7819C9.68525 66.8239 9.82992 66.8449 9.98625 66.8449C10.1589 66.8449 10.2919 66.8146 10.3853 66.7539C10.4809 66.6933 10.5288 66.6081 10.5288 66.4984C10.5288 66.4051 10.4844 66.3339 10.3958 66.2849C10.3094 66.2336 10.1659 66.1858 9.96525 66.1414C9.65258 66.0738 9.42508 65.9863 9.28275 65.8789C9.14042 65.7716 9.06925 65.6153 9.06925 65.4099C9.06925 65.2629 9.10892 65.1323 9.18825 65.0179C9.26758 64.9036 9.37958 64.8138 9.52425 64.7484C9.67125 64.6831 9.84042 64.6504 10.0318 64.6504C10.2068 64.6504 10.3724 64.6773 10.5288 64.7309C10.6874 64.7823 10.8169 64.8546 10.9173 64.9479L10.7668 65.2769C10.5451 65.0996 10.3001 65.0109 10.0318 65.0109C9.87075 65.0109 9.74358 65.0448 9.65025 65.1124C9.55692 65.1778 9.51025 65.2676 9.51025 65.3819C9.51025 65.4799 9.55108 65.5546 9.63275 65.6059C9.71675 65.6573 9.85908 65.7051 10.0598 65.7494C10.2674 65.7984 10.4366 65.8521 10.5673 65.9104C10.6979 65.9664 10.7983 66.0399 10.8683 66.1309C10.9383 66.2196 10.9733 66.3316 10.9733 66.4669C10.9733 66.6163 10.9336 66.7469 10.8543 66.8589C10.7749 66.9686 10.6606 67.0538 10.5113 67.1144C10.3619 67.1751 10.1858 67.2054 9.98275 67.2054ZM12.4207 67.2054C12.0777 67.2054 11.8175 67.1179 11.6402 66.9429C11.4652 66.7656 11.3777 66.5066 11.3777 66.1659V64.6819H11.8222V66.1904C11.8222 66.4051 11.8724 66.5684 11.9727 66.6804C12.073 66.7901 12.2224 66.8449 12.4207 66.8449C12.6144 66.8449 12.7614 66.7889 12.8617 66.6769C12.9644 66.5649 13.0157 66.4028 13.0157 66.1904V64.6819H13.4602V66.1659C13.4602 66.5043 13.3715 66.7621 13.1942 66.9394C13.0169 67.1168 12.759 67.2054 12.4207 67.2054ZM13.9825 64.6819H14.434V66.8029H15.5995V67.1739H13.9825V64.6819ZM15.941 64.6819H17.607V65.0389H16.382V65.7284H17.5335V66.0854H16.382V66.8169H17.607V67.1739H15.941V64.6819ZM20.4516 64.6819V67.1739H20.0526V65.6269L19.3911 67.1739H19.0936L18.4286 65.6444V67.1739H18.0296V64.6819H18.3866L19.2441 66.6314L20.0946 64.6819H20.4516ZM22.6517 66.5894H21.4337L21.1817 67.1739H20.7267L21.8537 64.6819H22.2212L23.3517 67.1739H22.9002L22.6517 66.5894ZM22.5012 66.2394L22.0427 65.1719L21.5842 66.2394H22.5012ZM25.7212 64.6819V67.1739H25.3852L24.0412 65.4274V67.1739H23.6212V64.6819H23.9572L25.2977 66.4249V64.6819H25.7212ZM29.6527 64.6819V67.1739H29.2537V65.6269L28.5922 67.1739H28.2947L27.6297 65.6444V67.1739H27.2307V64.6819H27.5877L28.4452 66.6314L29.2957 64.6819H29.6527ZM31.2264 67.2054C30.8834 67.2054 30.6232 67.1179 30.4459 66.9429C30.2709 66.7656 30.1834 66.5066 30.1834 66.1659V64.6819H30.6279V66.1904C30.6279 66.4051 30.678 66.5684 30.7784 66.6804C30.8787 66.7901 31.028 66.8449 31.2264 66.8449C31.42 66.8449 31.567 66.7889 31.6674 66.6769C31.77 66.5649 31.8214 66.4028 31.8214 66.1904V64.6819H32.2659V66.1659C32.2659 66.5043 32.1772 66.7621 31.9999 66.9394C31.8225 67.1168 31.5647 67.2054 31.2264 67.2054ZM33.6317 67.2054C33.4403 67.2054 33.2607 67.1798 33.0927 67.1284C32.927 67.0771 32.7858 67.0036 32.6692 66.9079L32.8232 66.5789C32.9445 66.6699 33.0705 66.7376 33.2012 66.7819C33.3342 66.8239 33.4788 66.8449 33.6352 66.8449C33.8078 66.8449 33.9408 66.8146 34.0342 66.7539C34.1298 66.6933 34.1777 66.6081 34.1777 66.4984C34.1777 66.4051 34.1333 66.3339 34.0447 66.2849C33.9583 66.2336 33.8148 66.1858 33.6142 66.1414C33.3015 66.0738 33.074 65.9863 32.9317 65.8789C32.7893 65.7716 32.7182 65.6153 32.7182 65.4099C32.7182 65.2629 32.7578 65.1323 32.8372 65.0179C32.9165 64.9036 33.0285 64.8138 33.1732 64.7484C33.3202 64.6831 33.4893 64.6504 33.6807 64.6504C33.8557 64.6504 34.0213 64.6773 34.1777 64.7309C34.3363 64.7823 34.4658 64.8546 34.5662 64.9479L34.4157 65.2769C34.194 65.0996 33.949 65.0109 33.6807 65.0109C33.5197 65.0109 33.3925 65.0448 33.2992 65.1124C33.2058 65.1778 33.1592 65.2676 33.1592 65.3819C33.1592 65.4799 33.2 65.5546 33.2817 65.6059C33.3657 65.6573 33.508 65.7051 33.7087 65.7494C33.9163 65.7984 34.0855 65.8521 34.2162 65.9104C34.3468 65.9664 34.4472 66.0399 34.5172 66.1309C34.5872 66.2196 34.6222 66.3316 34.6222 66.4669C34.6222 66.6163 34.5825 66.7469 34.5032 66.8589C34.4238 66.9686 34.3095 67.0538 34.1602 67.1144C34.0108 67.1751 33.8347 67.2054 33.6317 67.2054ZM36.6722 66.5894H35.4542L35.2022 67.1739H34.7472L35.8742 64.6819H36.2417L37.3722 67.1739H36.9207L36.6722 66.5894ZM36.5217 66.2394L36.0632 65.1719L35.6047 66.2394H36.5217Z" fill="#FAF8F6"/>
<path d="M89.2144 9.31058C89.3797 9.35858 89.5077 9.44258 89.5984 9.56258C89.6891 9.68258 89.7344 9.82924 89.7344 10.0026C89.7344 10.2426 89.6451 10.4332 89.4664 10.5746C89.2877 10.7132 89.0451 10.7826 88.7384 10.7826H87.3864V7.93458H88.6984C88.9944 7.93458 89.2277 8.00124 89.3984 8.13458C89.5717 8.26524 89.6584 8.44524 89.6584 8.67458C89.6584 8.82391 89.6184 8.95458 89.5384 9.06658C89.4611 9.17858 89.3531 9.25991 89.2144 9.31058ZM87.9944 9.09458H88.5944C88.7544 9.09458 88.8731 9.06791 88.9504 9.01458C89.0304 8.95858 89.0704 8.87324 89.0704 8.75858C89.0704 8.64124 89.0304 8.55458 88.9504 8.49858C88.8731 8.44258 88.7544 8.41458 88.5944 8.41458H87.9944V9.09458ZM88.6664 10.3026C88.8344 10.3026 88.9557 10.2746 89.0304 10.2186C89.1077 10.1599 89.1464 10.0679 89.1464 9.94258C89.1464 9.81458 89.1077 9.72124 89.0304 9.66258C88.9557 9.60391 88.8344 9.57458 88.6664 9.57458H87.9944V10.3026H88.6664ZM92.1636 8.75458V10.7826H91.5676V10.4826C91.5062 10.5866 91.4196 10.6679 91.3076 10.7266C91.1956 10.7852 91.0689 10.8146 90.9276 10.8146C90.7516 10.8146 90.5956 10.7719 90.4596 10.6866C90.3262 10.6012 90.2209 10.4799 90.1436 10.3226C90.0689 10.1626 90.0316 9.97858 90.0316 9.77058C90.0316 9.56258 90.0689 9.37724 90.1436 9.21458C90.2209 9.05191 90.3276 8.92658 90.4636 8.83858C90.5996 8.74791 90.7542 8.70258 90.9276 8.70258C91.0689 8.70258 91.1956 8.73324 91.3076 8.79458C91.4196 8.85591 91.5062 8.93858 91.5676 9.04258V8.75458H92.1636ZM91.1036 10.3546C91.2529 10.3546 91.3676 10.3039 91.4476 10.2026C91.5276 10.1012 91.5676 9.95458 91.5676 9.76258C91.5676 9.57058 91.5276 9.42391 91.4476 9.32258C91.3676 9.21858 91.2529 9.16658 91.1036 9.16658C90.9542 9.16658 90.8382 9.21991 90.7556 9.32658C90.6729 9.43324 90.6316 9.58124 90.6316 9.77058C90.6316 9.95991 90.6716 10.1052 90.7516 10.2066C90.8342 10.3052 90.9516 10.3546 91.1036 10.3546ZM93.9031 8.70258C94.3831 8.70258 94.6231 8.98658 94.6231 9.55458V10.7826H94.0191V9.58258C94.0191 9.44124 93.9924 9.33858 93.9391 9.27458C93.8884 9.20791 93.8071 9.17458 93.6951 9.17458C93.5617 9.17458 93.4551 9.21724 93.3751 9.30258C93.2951 9.38791 93.2551 9.50258 93.2551 9.64658V10.7826H92.6511V9.33458C92.6511 9.11858 92.6404 8.92524 92.6191 8.75458H93.1871L93.2271 9.07458C93.2991 8.95458 93.3924 8.86258 93.5071 8.79858C93.6244 8.73458 93.7564 8.70258 93.9031 8.70258ZM96.5042 10.7826L95.7082 9.87458V10.7826H95.1042V7.83858H95.7082V9.62658L96.4682 8.75858H97.1922L96.3322 9.73058L97.2442 10.7826H96.5042ZM101.03 7.93458V10.7826H100.566L99.1462 8.96658V10.7826H98.5622V7.93458H99.0222L100.442 9.74658V7.93458H101.03ZM103.593 8.75458V10.7826H102.997V10.4826C102.936 10.5866 102.849 10.6679 102.737 10.7266C102.625 10.7852 102.499 10.8146 102.357 10.8146C102.181 10.8146 102.025 10.7719 101.889 10.6866C101.756 10.6012 101.651 10.4799 101.573 10.3226C101.499 10.1626 101.461 9.97858 101.461 9.77058C101.461 9.56258 101.499 9.37724 101.573 9.21458C101.651 9.05191 101.757 8.92658 101.893 8.83858C102.029 8.74791 102.184 8.70258 102.357 8.70258C102.499 8.70258 102.625 8.73324 102.737 8.79458C102.849 8.85591 102.936 8.93858 102.997 9.04258V8.75458H103.593ZM102.533 10.3546C102.683 10.3546 102.797 10.3039 102.877 10.2026C102.957 10.1012 102.997 9.95458 102.997 9.76258C102.997 9.57058 102.957 9.42391 102.877 9.32258C102.797 9.21858 102.683 9.16658 102.533 9.16658C102.384 9.16658 102.268 9.21991 102.185 9.32658C102.103 9.43324 102.061 9.58124 102.061 9.77058C102.061 9.95991 102.101 10.1052 102.181 10.2066C102.264 10.3052 102.381 10.3546 102.533 10.3546ZM106.561 8.70258C106.793 8.70258 106.965 8.77324 107.077 8.91458C107.191 9.05324 107.249 9.26658 107.249 9.55458V10.7826H106.645V9.57458C106.645 9.43324 106.622 9.33191 106.577 9.27058C106.531 9.20658 106.457 9.17458 106.353 9.17458C106.23 9.17458 106.135 9.21724 106.069 9.30258C106.002 9.38791 105.969 9.50791 105.969 9.66258V10.7826H105.365V9.57458C105.365 9.43591 105.341 9.33458 105.293 9.27058C105.247 9.20658 105.174 9.17458 105.073 9.17458C104.95 9.17458 104.854 9.21724 104.785 9.30258C104.718 9.38791 104.685 9.50791 104.685 9.66258V10.7826H104.081V9.33458C104.081 9.11858 104.07 8.92524 104.049 8.75458H104.617L104.653 9.05858C104.714 8.94391 104.799 8.85591 104.909 8.79458C105.021 8.73324 105.149 8.70258 105.293 8.70258C105.594 8.70258 105.794 8.82791 105.893 9.07858C105.959 8.96391 106.051 8.87324 106.169 8.80658C106.289 8.73724 106.419 8.70258 106.561 8.70258ZM109.545 9.81858H108.209C108.22 10.0079 108.269 10.1466 108.357 10.2346C108.445 10.3199 108.576 10.3626 108.749 10.3626C108.853 10.3626 108.957 10.3452 109.061 10.3106C109.165 10.2759 109.261 10.2252 109.349 10.1586L109.509 10.5666C109.413 10.6439 109.293 10.7052 109.149 10.7506C109.008 10.7932 108.865 10.8146 108.721 10.8146C108.38 10.8146 108.112 10.7212 107.917 10.5346C107.723 10.3452 107.625 10.0879 107.625 9.76258C107.625 9.55724 107.667 9.37458 107.749 9.21458C107.835 9.05191 107.953 8.92658 108.105 8.83858C108.257 8.74791 108.429 8.70258 108.621 8.70258C108.907 8.70258 109.132 8.79591 109.297 8.98258C109.463 9.16658 109.545 9.41591 109.545 9.73058V9.81858ZM108.637 9.12658C108.523 9.12658 108.429 9.15991 108.357 9.22658C108.288 9.29324 108.243 9.39058 108.221 9.51858H109.025C108.993 9.25724 108.864 9.12658 108.637 9.12658Z" fill="#FAF8F6"/>
<path d="M9.10075 7.64658H9.88675C10.2368 7.64658 10.5078 7.73958 10.6998 7.92558C10.8938 8.11158 10.9908 8.37358 10.9908 8.71158C10.9908 9.05158 10.8938 9.31558 10.6998 9.50358C10.5078 9.68958 10.2368 9.78258 9.88675 9.78258H9.10075V7.64658ZM9.86275 9.46758C10.3548 9.46758 10.6008 9.21558 10.6008 8.71158C10.6008 8.21158 10.3548 7.96158 9.86275 7.96158H9.48775V9.46758H9.86275ZM12.6849 9.04458H11.6409C11.6489 9.20658 11.6889 9.32658 11.7609 9.40458C11.8349 9.48058 11.9439 9.51858 12.0879 9.51858C12.2539 9.51858 12.4079 9.46458 12.5499 9.35658L12.6579 9.61458C12.5859 9.67258 12.4969 9.71958 12.3909 9.75558C12.2869 9.78958 12.1809 9.80658 12.0729 9.80658C11.8249 9.80658 11.6299 9.73658 11.4879 9.59658C11.3459 9.45658 11.2749 9.26458 11.2749 9.02058C11.2749 8.86658 11.3059 8.72958 11.3679 8.60958C11.4299 8.48958 11.5169 8.39658 11.6289 8.33058C11.7409 8.26258 11.8679 8.22858 12.0099 8.22858C12.2179 8.22858 12.3819 8.29658 12.5019 8.43258C12.6239 8.56658 12.6849 8.75158 12.6849 8.98758V9.04458ZM12.0189 8.49858C11.9189 8.49858 11.8369 8.52858 11.7729 8.58858C11.7109 8.64658 11.6709 8.73158 11.6529 8.84358H12.3579C12.3459 8.72958 12.3109 8.64358 12.2529 8.58558C12.1969 8.52758 12.1189 8.49858 12.0189 8.49858ZM13.8665 8.22858C13.9985 8.22858 14.1145 8.26158 14.2145 8.32758C14.3165 8.39158 14.3955 8.48258 14.4515 8.60058C14.5075 8.71858 14.5355 8.85558 14.5355 9.01158C14.5355 9.16758 14.5065 9.30658 14.4485 9.42858C14.3925 9.54858 14.3135 9.64158 14.2115 9.70758C14.1115 9.77358 13.9965 9.80658 13.8665 9.80658C13.7545 9.80658 13.6545 9.78258 13.5665 9.73458C13.4805 9.68658 13.4155 9.61958 13.3715 9.53358V9.78258H13.0025V7.57458H13.3745V8.49558C13.4205 8.41158 13.4865 8.34658 13.5725 8.30058C13.6585 8.25258 13.7565 8.22858 13.8665 8.22858ZM13.7675 9.51258C13.8915 9.51258 13.9875 9.46858 14.0555 9.38058C14.1235 9.29258 14.1575 9.16958 14.1575 9.01158C14.1575 8.85558 14.1235 8.73558 14.0555 8.65158C13.9875 8.56558 13.8905 8.52258 13.7645 8.52258C13.6385 8.52258 13.5415 8.56558 13.4735 8.65158C13.4055 8.73758 13.3715 8.85958 13.3715 9.01758C13.3715 9.17758 13.4055 9.30058 13.4735 9.38658C13.5415 9.47058 13.6395 9.51258 13.7675 9.51258ZM14.8628 8.26758H15.2348V9.78258H14.8628V8.26758ZM15.2558 7.58058V7.94958H14.8388V7.58058H15.2558ZM16.122 8.54958V9.22758C16.122 9.40558 16.205 9.49458 16.371 9.49458C16.417 9.49458 16.467 9.48658 16.521 9.47058V9.76758C16.455 9.79158 16.375 9.80358 16.281 9.80358C16.109 9.80358 15.977 9.75558 15.885 9.65958C15.793 9.56358 15.747 9.42558 15.747 9.24558V8.54958H15.456V8.26758H15.747V7.89858L16.122 7.77258V8.26758H16.524V8.54958H16.122ZM17.2272 9.36258V9.78258H16.8072V9.36258H17.2272Z" fill="#FAF8F6"/>
<circle cx="101.869" cy="63.246" r="3.76778" fill="#F79E1B"/>
<ellipse cx="97.1594" cy="63.2461" rx="3.76779" ry="3.76778" fill="#FE001D"/>
<path d="M94.6624 68.2973C94.777 68.2973 94.8624 68.332 94.9184 68.4013C94.9744 68.4693 95.0024 68.5733 95.0024 68.7133V69.3333H94.7524V68.7213C94.7524 68.6413 94.739 68.584 94.7124 68.5493C94.687 68.5133 94.6444 68.4953 94.5844 68.4953C94.515 68.4953 94.4604 68.52 94.4204 68.5693C94.3817 68.6173 94.3624 68.684 94.3624 68.7693V69.3333H94.1124V68.7213C94.1124 68.6427 94.0984 68.5853 94.0704 68.5493C94.0437 68.5133 94.001 68.4953 93.9424 68.4953C93.873 68.4953 93.8184 68.52 93.7784 68.5693C93.7384 68.6173 93.7184 68.684 93.7184 68.7693V69.3333H93.4704V68.6093C93.4704 68.5027 93.465 68.4073 93.4544 68.3233H93.6884L93.7064 68.4833C93.7357 68.4233 93.7777 68.3773 93.8324 68.3453C93.8884 68.3133 93.9524 68.2973 94.0244 68.2973C94.179 68.2973 94.2797 68.3613 94.3264 68.4893C94.3584 68.4293 94.4037 68.3827 94.4624 68.3493C94.5224 68.3147 94.589 68.2973 94.6624 68.2973ZM96.2352 68.3233V69.3333H95.9892V69.1713C95.9585 69.2273 95.9145 69.2713 95.8572 69.3033C95.7998 69.334 95.7345 69.3493 95.6612 69.3493C95.5732 69.3493 95.4952 69.328 95.4272 69.2853C95.3592 69.2427 95.3065 69.182 95.2692 69.1033C95.2318 69.0247 95.2132 68.9333 95.2132 68.8293C95.2132 68.7253 95.2318 68.6333 95.2692 68.5533C95.3078 68.472 95.3612 68.4093 95.4292 68.3653C95.4972 68.32 95.5745 68.2973 95.6612 68.2973C95.7345 68.2973 95.7998 68.3133 95.8572 68.3453C95.9145 68.376 95.9585 68.4193 95.9892 68.4753V68.3233H96.2352ZM95.7292 69.1533C95.8118 69.1533 95.8758 69.1247 95.9212 69.0673C95.9665 69.01 95.9892 68.9293 95.9892 68.8253C95.9892 68.7187 95.9665 68.6367 95.9212 68.5793C95.8758 68.522 95.8112 68.4933 95.7272 68.4933C95.6445 68.4933 95.5798 68.5233 95.5332 68.5833C95.4878 68.642 95.4652 68.724 95.4652 68.8293C95.4652 68.9333 95.4878 69.0133 95.5332 69.0693C95.5798 69.1253 95.6452 69.1533 95.7292 69.1533ZM96.8775 69.3493C96.6948 69.3493 96.5495 69.3067 96.4415 69.2213L96.5115 69.0453C96.6195 69.1253 96.7428 69.1653 96.8815 69.1653C96.9415 69.1653 96.9875 69.1553 97.0195 69.1353C97.0528 69.1153 97.0695 69.0873 97.0695 69.0513C97.0695 69.0207 97.0581 68.9967 97.0355 68.9793C97.0128 68.9607 96.9741 68.9447 96.9195 68.9313L96.7515 68.8933C96.5675 68.8533 96.4755 68.7593 96.4755 68.6113C96.4755 68.55 96.4928 68.496 96.5275 68.4493C96.5621 68.4013 96.6108 68.364 96.6735 68.3373C96.7361 68.3107 96.8088 68.2973 96.8915 68.2973C96.9635 68.2973 97.0328 68.3087 97.0995 68.3313C97.1661 68.3527 97.2248 68.384 97.2755 68.4253L97.2015 68.5953C97.1001 68.5207 96.9961 68.4833 96.8895 68.4833C96.8321 68.4833 96.7875 68.494 96.7555 68.5153C96.7235 68.5367 96.7075 68.566 96.7075 68.6033C96.7075 68.6327 96.7168 68.656 96.7355 68.6733C96.7555 68.6907 96.7888 68.7053 96.8355 68.7173L97.0075 68.7553C97.1075 68.778 97.1801 68.8133 97.2255 68.8613C97.2721 68.908 97.2955 68.9693 97.2955 69.0453C97.2955 69.1387 97.2581 69.2127 97.1835 69.2673C97.1088 69.322 97.0068 69.3493 96.8775 69.3493ZM97.8176 68.5113V68.9633C97.8176 69.082 97.873 69.1413 97.9836 69.1413C98.0143 69.1413 98.0476 69.136 98.0836 69.1253V69.3233C98.0396 69.3393 97.9863 69.3473 97.9236 69.3473C97.809 69.3473 97.721 69.3153 97.6596 69.2513C97.5983 69.1873 97.5676 69.0953 97.5676 68.9753V68.5113H97.3736V68.3233H97.5676V68.0773L97.8176 67.9933V68.3233H98.0856V68.5113H97.8176ZM99.1415 68.8413H98.4455C98.4508 68.9493 98.4775 69.0293 98.5255 69.0813C98.5748 69.132 98.6475 69.1573 98.7435 69.1573C98.8541 69.1573 98.9568 69.1213 99.0515 69.0493L99.1235 69.2213C99.0755 69.26 99.0161 69.2913 98.9455 69.3153C98.8761 69.338 98.8055 69.3493 98.7335 69.3493C98.5681 69.3493 98.4381 69.3027 98.3435 69.2093C98.2488 69.116 98.2015 68.988 98.2015 68.8253C98.2015 68.7227 98.2221 68.6313 98.2635 68.5513C98.3048 68.4713 98.3628 68.4093 98.4375 68.3653C98.5121 68.32 98.5968 68.2973 98.6915 68.2973C98.8301 68.2973 98.9395 68.3427 99.0195 68.4333C99.1008 68.5227 99.1415 68.646 99.1415 68.8033V68.8413ZM98.6975 68.4773C98.6308 68.4773 98.5761 68.4973 98.5335 68.5373C98.4921 68.576 98.4655 68.6327 98.4535 68.7073H98.9235C98.9155 68.6313 98.8921 68.574 98.8535 68.5353C98.8161 68.4967 98.7641 68.4773 98.6975 68.4773ZM99.8972 68.2993C99.9358 68.2993 99.9692 68.3047 99.9972 68.3153L99.9952 68.5433C99.9525 68.526 99.9085 68.5173 99.8632 68.5173C99.7778 68.5173 99.7125 68.542 99.6672 68.5913C99.6232 68.6407 99.6012 68.706 99.6012 68.7873V69.3333H99.3532V68.6093C99.3532 68.5027 99.3478 68.4073 99.3372 68.3233H99.5712L99.5912 68.5013C99.6165 68.436 99.6565 68.386 99.7112 68.3513C99.7658 68.3167 99.8278 68.2993 99.8972 68.2993ZM100.575 69.3493C100.47 69.3493 100.378 69.328 100.301 69.2853C100.224 69.2427 100.164 69.1827 100.123 69.1053C100.082 69.0267 100.061 68.9347 100.061 68.8293C100.061 68.724 100.082 68.6313 100.125 68.5513C100.169 68.4713 100.23 68.4093 100.309 68.3653C100.389 68.32 100.481 68.2973 100.585 68.2973C100.657 68.2973 100.726 68.3087 100.793 68.3313C100.861 68.354 100.915 68.3853 100.955 68.4253L100.885 68.6013C100.842 68.5667 100.797 68.5407 100.749 68.5233C100.701 68.5047 100.654 68.4953 100.607 68.4953C100.516 68.4953 100.446 68.524 100.395 68.5813C100.344 68.6373 100.319 68.7187 100.319 68.8253C100.319 68.932 100.344 69.0133 100.393 69.0693C100.444 69.1253 100.515 69.1533 100.607 69.1533C100.654 69.1533 100.701 69.144 100.749 69.1253C100.797 69.1067 100.842 69.08 100.885 69.0453L100.955 69.2213C100.912 69.2613 100.857 69.2927 100.789 69.3153C100.721 69.338 100.65 69.3493 100.575 69.3493ZM102.089 68.3233V69.3333H101.843V69.1713C101.812 69.2273 101.768 69.2713 101.711 69.3033C101.653 69.334 101.588 69.3493 101.515 69.3493C101.427 69.3493 101.349 69.328 101.281 69.2853C101.213 69.2427 101.16 69.182 101.123 69.1033C101.085 69.0247 101.067 68.9333 101.067 68.8293C101.067 68.7253 101.085 68.6333 101.123 68.5533C101.161 68.472 101.215 68.4093 101.283 68.3653C101.351 68.32 101.428 68.2973 101.515 68.2973C101.588 68.2973 101.653 68.3133 101.711 68.3453C101.768 68.376 101.812 68.4193 101.843 68.4753V68.3233H102.089ZM101.583 69.1533C101.665 69.1533 101.729 69.1247 101.775 69.0673C101.82 69.01 101.843 68.9293 101.843 68.8253C101.843 68.7187 101.82 68.6367 101.775 68.5793C101.729 68.522 101.665 68.4933 101.581 68.4933C101.498 68.4933 101.433 68.5233 101.387 68.5833C101.341 68.642 101.319 68.724 101.319 68.8293C101.319 68.9333 101.341 69.0133 101.387 69.0693C101.433 69.1253 101.499 69.1533 101.583 69.1533ZM102.905 68.2993C102.944 68.2993 102.977 68.3047 103.005 68.3153L103.003 68.5433C102.96 68.526 102.916 68.5173 102.871 68.5173C102.786 68.5173 102.72 68.542 102.675 68.5913C102.631 68.6407 102.609 68.706 102.609 68.7873V69.3333H102.361V68.6093C102.361 68.5027 102.356 68.4073 102.345 68.3233H102.579L102.599 68.5013C102.624 68.436 102.664 68.386 102.719 68.3513C102.774 68.3167 102.836 68.2993 102.905 68.2993ZM104.091 67.8613V69.3333H103.845V69.1713C103.814 69.2273 103.77 69.2713 103.713 69.3033C103.655 69.334 103.59 69.3493 103.517 69.3493C103.43 69.3493 103.353 69.3273 103.285 69.2833C103.217 69.2393 103.163 69.1773 103.125 69.0973C103.087 69.016 103.069 68.9233 103.069 68.8193C103.069 68.7153 103.087 68.624 103.125 68.5453C103.162 68.4667 103.215 68.406 103.283 68.3633C103.351 68.3193 103.429 68.2973 103.517 68.2973C103.589 68.2973 103.653 68.3127 103.709 68.3433C103.766 68.3727 103.81 68.4147 103.841 68.4693V67.8613H104.091ZM103.583 69.1533C103.665 69.1533 103.729 69.1247 103.775 69.0673C103.821 69.01 103.845 68.9287 103.845 68.8233C103.845 68.718 103.822 68.6367 103.777 68.5793C103.731 68.522 103.667 68.4933 103.585 68.4933C103.501 68.4933 103.435 68.522 103.389 68.5793C103.343 68.6353 103.321 68.7153 103.321 68.8193C103.321 68.9247 103.343 69.0067 103.389 69.0653C103.435 69.124 103.5 69.1533 103.583 69.1533Z" fill="white"/>
<path d="M10.3441 53.6373L9.87312 54.7053H9.74262L9.27162 53.6373H9.43362L9.80862 54.5103L10.1851 53.6373H10.3441ZM11.0665 54.4413H10.5265L10.4125 54.7053H10.255L10.7305 53.6373H10.861L11.338 54.7053H11.1805L11.0665 54.4413ZM11.014 54.3183L10.7965 53.8098L10.579 54.3183H11.014ZM11.4763 53.6373H11.6308V54.5763H12.1498V54.7053H11.4763V53.6373ZM12.3039 53.6373H12.4584V54.7053H12.3039V53.6373ZM12.7068 53.6373H13.0803C13.2533 53.6373 13.3873 53.6838 13.4823 53.7768C13.5773 53.8698 13.6248 54.0008 13.6248 54.1698C13.6248 54.3398 13.5773 54.4718 13.4823 54.5658C13.3873 54.6588 13.2533 54.7053 13.0803 54.7053H12.7068V53.6373ZM13.0713 54.5763C13.3343 54.5763 13.4658 54.4408 13.4658 54.1698C13.4658 53.9008 13.3343 53.7663 13.0713 53.7663H12.8613V54.5763H13.0713ZM9.65562 55.7663H9.29412V55.6373H10.1731V55.7663H9.81162V56.7053H9.65562V55.7663ZM11.2222 55.6373V56.7053H11.0677V56.2268H10.4692V56.7053H10.3162V55.6373H10.4692V56.0993H11.0677V55.6373H11.2222ZM12.3269 56.7053H12.1634L12.0299 56.3498C12.0159 56.3118 11.9954 56.2858 11.9684 56.2718C11.9414 56.2568 11.9044 56.2493 11.8574 56.2493H11.6234V56.7053H11.4704V55.6373H11.9099C12.0269 55.6373 12.1164 55.6633 12.1784 55.7153C12.2414 55.7673 12.2729 55.8418 12.2729 55.9388C12.2729 56.0088 12.2544 56.0683 12.2174 56.1173C12.1804 56.1663 12.1279 56.2008 12.0599 56.2208C12.1219 56.2318 12.1669 56.2758 12.1949 56.3528L12.3269 56.7053ZM11.8919 56.1248C11.9699 56.1248 12.0279 56.1098 12.0659 56.0798C12.1039 56.0488 12.1229 56.0028 12.1229 55.9418C12.1229 55.8808 12.1039 55.8358 12.0659 55.8068C12.0289 55.7768 11.9709 55.7618 11.8919 55.7618H11.6234V56.1248H11.8919ZM12.9438 56.7173C12.8018 56.7173 12.6938 56.6803 12.6198 56.6063C12.5468 56.5323 12.5103 56.4238 12.5103 56.2808V55.6373H12.6618V56.2913C12.6618 56.3903 12.6853 56.4653 12.7323 56.5163C12.7803 56.5663 12.8508 56.5913 12.9438 56.5913C13.0358 56.5913 13.1053 56.5658 13.1523 56.5148C13.2003 56.4638 13.2243 56.3893 13.2243 56.2913V55.6373H13.3773V56.2808C13.3773 56.4238 13.3403 56.5323 13.2663 56.6063C13.1933 56.6803 13.0858 56.7173 12.9438 56.7173Z" fill="#FAF8F6"/>
<path d="M19.2287 55.4503V55.7053H17.9807V55.4503H18.4487V53.9383L18.0137 54.2083V53.9233L18.5807 53.5693H18.7607V55.4503H19.2287ZM21.0515 55.4503V55.7053H19.6505V55.4743L20.3855 54.6673C20.4795 54.5633 20.5475 54.4693 20.5895 54.3853C20.6335 54.2993 20.6555 54.2143 20.6555 54.1303C20.6555 54.0223 20.6245 53.9403 20.5625 53.8843C20.5005 53.8263 20.4105 53.7973 20.2925 53.7973C20.0945 53.7973 19.8965 53.8753 19.6985 54.0313L19.5875 53.8033C19.6715 53.7253 19.7785 53.6633 19.9085 53.6173C20.0385 53.5693 20.1695 53.5453 20.3015 53.5453C20.5055 53.5453 20.6665 53.5963 20.7845 53.6983C20.9045 53.8003 20.9645 53.9383 20.9645 54.1123C20.9645 54.2363 20.9375 54.3543 20.8835 54.4663C20.8295 54.5763 20.7395 54.6993 20.6135 54.8353L20.0435 55.4503H21.0515ZM21.1433 55.8763L21.9173 53.4523H22.1843L21.4073 55.8763H21.1433ZM23.7468 55.4503V55.7053H22.3458V55.4743L23.0808 54.6673C23.1748 54.5633 23.2428 54.4693 23.2848 54.3853C23.3288 54.2993 23.3508 54.2143 23.3508 54.1303C23.3508 54.0223 23.3198 53.9403 23.2578 53.8843C23.1958 53.8263 23.1058 53.7973 22.9878 53.7973C22.7898 53.7973 22.5918 53.8753 22.3938 54.0313L22.2828 53.8033C22.3668 53.7253 22.4738 53.6633 22.6038 53.6173C22.7338 53.5693 22.8648 53.5453 22.9968 53.5453C23.2008 53.5453 23.3618 53.5963 23.4798 53.6983C23.5998 53.8003 23.6598 53.9383 23.6598 54.1123C23.6598 54.2363 23.6328 54.3543 23.5788 54.4663C23.5248 54.5763 23.4348 54.6993 23.3088 54.8353L22.7388 55.4503H23.7468ZM25.6236 55.2613H25.3086V55.7053H25.0026V55.2613H24.0456V55.0303L25.0596 53.5693H25.3086V55.0123H25.6236V55.2613ZM25.0026 55.0123V54.0703L24.3486 55.0123H25.0026Z" fill="#FAF8F6"/>
<path d="M11.6429 39.1371C11.9556 39.1371 12.2286 39.2047 12.4619 39.3401C12.6999 39.4707 12.8819 39.6574 13.0079 39.9001C13.1386 40.1381 13.2039 40.4134 13.2039 40.7261C13.2039 41.0481 13.1316 41.3304 12.9869 41.5731C12.8469 41.8157 12.6439 42.0047 12.3779 42.1401C12.1119 42.2754 11.8016 42.3431 11.4469 42.3431C11.1389 42.3431 10.8356 42.2894 10.5369 42.1821C10.2383 42.0747 9.99093 41.9277 9.79493 41.7411L10.0469 41.2091C10.5089 41.5731 10.9779 41.7551 11.4539 41.7551C11.7853 41.7551 12.0419 41.6664 12.2239 41.4891C12.4106 41.3071 12.5039 41.0574 12.5039 40.7401C12.5039 40.4367 12.4106 40.1917 12.2239 40.0051C12.0419 39.8184 11.7969 39.7251 11.4889 39.7251C11.0409 39.7251 10.6816 39.8954 10.4109 40.2361H9.94193V37.3101H12.9939V37.8911H10.6559V39.4731C10.9219 39.2491 11.2509 39.1371 11.6429 39.1371ZM16.6872 39.7321C16.9765 39.8161 17.1982 39.9607 17.3522 40.1661C17.5062 40.3714 17.5832 40.6304 17.5832 40.9431C17.5832 41.3771 17.4292 41.7201 17.1212 41.9721C16.8179 42.2194 16.4049 42.3431 15.8822 42.3431C15.5509 42.3431 15.2335 42.2917 14.9302 42.1891C14.6315 42.0817 14.3819 41.9324 14.1812 41.7411L14.4402 41.2091C14.8882 41.5731 15.3619 41.7551 15.8612 41.7551C16.5425 41.7551 16.8832 41.4681 16.8832 40.8941C16.8832 40.6141 16.7945 40.4064 16.6172 40.2711C16.4399 40.1311 16.1715 40.0611 15.8122 40.0611H15.2032V39.4731H15.7002C16.0455 39.4731 16.3092 39.4007 16.4912 39.2561C16.6732 39.1114 16.7642 38.9014 16.7642 38.6261C16.7642 38.3741 16.6872 38.1804 16.5332 38.0451C16.3839 37.9097 16.1715 37.8421 15.8962 37.8421C15.4295 37.8421 14.9675 38.0241 14.5102 38.3881L14.2512 37.8561C14.4472 37.6694 14.6945 37.5224 14.9932 37.4151C15.2965 37.3077 15.6092 37.2541 15.9312 37.2541C16.3979 37.2541 16.7689 37.3707 17.0442 37.6041C17.3242 37.8327 17.4642 38.1431 17.4642 38.5351C17.4642 38.8197 17.3965 39.0671 17.2612 39.2771C17.1259 39.4871 16.9345 39.6387 16.6872 39.7321ZM20.7375 39.1371C21.0501 39.1371 21.3231 39.2047 21.5565 39.3401C21.7945 39.4707 21.9765 39.6574 22.1025 39.9001C22.2331 40.1381 22.2985 40.4134 22.2985 40.7261C22.2985 41.0481 22.2261 41.3304 22.0815 41.5731C21.9415 41.8157 21.7385 42.0047 21.4725 42.1401C21.2065 42.2754 20.8961 42.3431 20.5415 42.3431C20.2335 42.3431 19.9301 42.2894 19.6315 42.1821C19.3328 42.0747 19.0855 41.9277 18.8895 41.7411L19.1415 41.2091C19.6035 41.5731 20.0725 41.7551 20.5485 41.7551C20.8798 41.7551 21.1365 41.6664 21.3185 41.4891C21.5051 41.3071 21.5985 41.0574 21.5985 40.7401C21.5985 40.4367 21.5051 40.1917 21.3185 40.0051C21.1365 39.8184 20.8915 39.7251 20.5835 39.7251C20.1355 39.7251 19.7761 39.8954 19.5055 40.2361H19.0365V37.3101H22.0885V37.8911H19.7505V39.4731C20.0165 39.2491 20.3455 39.1371 20.7375 39.1371ZM25.2847 39.1371C25.5974 39.1371 25.8704 39.2047 26.1037 39.3401C26.3417 39.4707 26.5237 39.6574 26.6497 39.9001C26.7804 40.1381 26.8457 40.4134 26.8457 40.7261C26.8457 41.0481 26.7734 41.3304 26.6287 41.5731C26.4887 41.8157 26.2857 42.0047 26.0197 42.1401C25.7537 42.2754 25.4434 42.3431 25.0887 42.3431C24.7807 42.3431 24.4774 42.2894 24.1787 42.1821C23.8801 42.0747 23.6327 41.9277 23.4367 41.7411L23.6887 41.2091C24.1507 41.5731 24.6197 41.7551 25.0957 41.7551C25.4271 41.7551 25.6837 41.6664 25.8657 41.4891C26.0524 41.3071 26.1457 41.0574 26.1457 40.7401C26.1457 40.4367 26.0524 40.1917 25.8657 40.0051C25.6837 39.8184 25.4387 39.7251 25.1307 39.7251C24.6827 39.7251 24.3234 39.8954 24.0527 40.2361H23.5837V37.3101H26.6357V37.8911H24.2977V39.4731C24.5637 39.2491 24.8927 39.1371 25.2847 39.1371ZM36.2426 42.3501C35.664 42.3501 35.223 42.1331 34.9196 41.6991C34.6163 41.2651 34.4646 40.6327 34.4646 39.8021C34.4646 38.9714 34.6163 38.3391 34.9196 37.9051C35.223 37.4711 35.664 37.2541 36.2426 37.2541C36.8213 37.2541 37.2623 37.4711 37.5656 37.9051C37.869 38.3344 38.0206 38.9644 38.0206 39.7951C38.0206 40.6304 37.869 41.2651 37.5656 41.6991C37.2623 42.1331 36.8213 42.3501 36.2426 42.3501ZM36.2426 41.7691C36.602 41.7691 36.8656 41.6104 37.0336 41.2931C37.2063 40.9711 37.2926 40.4717 37.2926 39.7951C37.2926 39.1184 37.2086 38.6237 37.0406 38.3111C36.8726 37.9984 36.6066 37.8421 36.2426 37.8421C35.8833 37.8421 35.6173 38.0007 35.4446 38.3181C35.2766 38.6307 35.1926 39.1231 35.1926 39.7951C35.1926 40.4717 35.2766 40.9711 35.4446 41.2931C35.6173 41.6104 35.8833 41.7691 36.2426 41.7691ZM41.5249 39.7321C41.8142 39.8161 42.0359 39.9607 42.1899 40.1661C42.3439 40.3714 42.4209 40.6304 42.4209 40.9431C42.4209 41.3771 42.2669 41.7201 41.9589 41.9721C41.6556 42.2194 41.2426 42.3431 40.7199 42.3431C40.3886 42.3431 40.0712 42.2917 39.7679 42.1891C39.4692 42.0817 39.2196 41.9324 39.0189 41.7411L39.2779 41.2091C39.7259 41.5731 40.1996 41.7551 40.6989 41.7551C41.3802 41.7551 41.7209 41.4681 41.7209 40.8941C41.7209 40.6141 41.6322 40.4064 41.4549 40.2711C41.2776 40.1311 41.0092 40.0611 40.6499 40.0611H40.0409V39.4731H40.5379C40.8832 39.4731 41.1469 39.4007 41.3289 39.2561C41.5109 39.1114 41.6019 38.9014 41.6019 38.6261C41.6019 38.3741 41.5249 38.1804 41.3709 38.0451C41.2216 37.9097 41.0092 37.8421 40.7339 37.8421C40.2672 37.8421 39.8052 38.0241 39.3479 38.3881L39.0889 37.8561C39.2849 37.6694 39.5322 37.5224 39.8309 37.4151C40.1342 37.3077 40.4469 37.2541 40.7689 37.2541C41.2356 37.2541 41.6066 37.3707 41.8819 37.6041C42.1619 37.8327 42.3019 38.1431 42.3019 38.5351C42.3019 38.8197 42.2342 39.0671 42.0989 39.2771C41.9636 39.4871 41.7722 39.6387 41.5249 39.7321ZM47.2342 41.2581H46.4992V42.2941H45.7852V41.2581H43.5522V40.7191L45.9182 37.3101H46.4992V40.6771H47.2342V41.2581ZM45.7852 40.6771V38.4791L44.2592 40.6771H45.7852ZM50.6824 39.7321C51.0044 39.8207 51.2541 39.9724 51.4314 40.1871C51.6134 40.4017 51.7044 40.6607 51.7044 40.9641C51.7044 41.3934 51.5388 41.7317 51.2074 41.9791C50.8808 42.2217 50.4398 42.3431 49.8844 42.3431C49.3291 42.3431 48.8858 42.2217 48.5544 41.9791C48.2278 41.7317 48.0644 41.3934 48.0644 40.9641C48.0644 40.6561 48.1554 40.3947 48.3374 40.1801C48.5194 39.9654 48.7738 39.8161 49.1004 39.7321C48.8111 39.6387 48.5848 39.4917 48.4214 39.2911C48.2628 39.0904 48.1834 38.8547 48.1834 38.5841C48.1834 38.3181 48.2558 38.0847 48.4004 37.8841C48.5451 37.6834 48.7458 37.5294 49.0024 37.4221C49.2591 37.3101 49.5531 37.2541 49.8844 37.2541C50.2158 37.2541 50.5098 37.3101 50.7664 37.4221C51.0231 37.5294 51.2238 37.6834 51.3684 37.8841C51.5131 38.0847 51.5854 38.3181 51.5854 38.5841C51.5854 38.8547 51.5061 39.0927 51.3474 39.2981C51.1888 39.4987 50.9671 39.6434 50.6824 39.7321ZM48.8764 38.6471C48.8764 38.8897 48.9674 39.0881 49.1494 39.2421C49.3314 39.3914 49.5764 39.4871 49.8844 39.5291C50.1924 39.4871 50.4374 39.3914 50.6194 39.2421C50.8014 39.0881 50.8924 38.8897 50.8924 38.6471C50.8924 38.3904 50.8014 38.1921 50.6194 38.0521C50.4421 37.9074 50.1971 37.8351 49.8844 37.8351C49.5718 37.8351 49.3244 37.9074 49.1424 38.0521C48.9651 38.1921 48.8764 38.3904 48.8764 38.6471ZM49.8844 41.7621C50.2438 41.7621 50.5214 41.6897 50.7174 41.5451C50.9134 41.4004 51.0114 41.1904 51.0114 40.9151C51.0114 40.6584 50.9088 40.4554 50.7034 40.3061C50.5028 40.1521 50.2298 40.0541 49.8844 40.0121C49.5391 40.0541 49.2638 40.1521 49.0584 40.3061C48.8578 40.4554 48.7574 40.6584 48.7574 40.9151C48.7574 41.1904 48.8554 41.4004 49.0514 41.5451C49.2474 41.6897 49.5251 41.7621 49.8844 41.7621ZM61.3183 39.1371C61.631 39.1371 61.904 39.2047 62.1373 39.3401C62.3753 39.4707 62.5573 39.6574 62.6833 39.9001C62.814 40.1381 62.8793 40.4134 62.8793 40.7261C62.8793 41.0481 62.807 41.3304 62.6623 41.5731C62.5223 41.8157 62.3193 42.0047 62.0533 42.1401C61.7873 42.2754 61.477 42.3431 61.1223 42.3431C60.8143 42.3431 60.511 42.2894 60.2123 42.1821C59.9137 42.0747 59.6663 41.9277 59.4703 41.7411L59.7223 41.2091C60.1843 41.5731 60.6533 41.7551 61.1293 41.7551C61.4607 41.7551 61.7173 41.6664 61.8993 41.4891C62.086 41.3071 62.1793 41.0574 62.1793 40.7401C62.1793 40.4367 62.086 40.1917 61.8993 40.0051C61.7173 39.8184 61.4723 39.7251 61.1643 39.7251C60.7163 39.7251 60.357 39.8954 60.0863 40.2361H59.6173V37.3101H62.6693V37.8911H60.3313V39.4731C60.5973 39.2491 60.9263 39.1371 61.3183 39.1371ZM65.4736 37.2541C66.0896 37.2541 66.5633 37.4641 66.8946 37.8841C67.2259 38.3041 67.3916 38.9061 67.3916 39.6901C67.3916 40.2454 67.3123 40.7237 67.1536 41.1251C66.9996 41.5217 66.7733 41.8251 66.4746 42.0351C66.1806 42.2451 65.8283 42.3501 65.4176 42.3501C65.1236 42.3501 64.8389 42.2987 64.5636 42.1961C64.2883 42.0887 64.0479 41.9394 63.8426 41.7481L64.0946 41.2161C64.3279 41.4074 64.5496 41.5474 64.7596 41.6361C64.9743 41.7201 65.1866 41.7621 65.3966 41.7621C65.8026 41.7621 66.1153 41.5847 66.3346 41.2301C66.5586 40.8707 66.6706 40.3621 66.6706 39.7041V39.6831C66.5679 39.9257 66.3999 40.1171 66.1666 40.2571C65.9379 40.3971 65.6743 40.4671 65.3756 40.4671C65.0769 40.4671 64.8109 40.4017 64.5776 40.2711C64.3443 40.1357 64.1623 39.9491 64.0316 39.7111C63.9009 39.4684 63.8356 39.1907 63.8356 38.8781C63.8356 38.5654 63.9056 38.2877 64.0456 38.0451C64.1856 37.7977 64.3793 37.6041 64.6266 37.4641C64.8786 37.3241 65.1609 37.2541 65.4736 37.2541ZM65.5086 39.8791C65.8073 39.8791 66.0499 39.7857 66.2366 39.5991C66.4233 39.4077 66.5166 39.1627 66.5166 38.8641C66.5166 38.5607 66.4233 38.3157 66.2366 38.1291C66.0499 37.9377 65.8073 37.8421 65.5086 37.8421C65.2146 37.8421 64.9789 37.9354 64.8016 38.1221C64.6243 38.3087 64.5356 38.5561 64.5356 38.8641C64.5356 39.1674 64.6243 39.4124 64.8016 39.5991C64.9836 39.7857 65.2193 39.8791 65.5086 39.8791ZM72.0719 41.2581H71.3369V42.2941H70.6229V41.2581H68.3899V40.7191L70.7559 37.3101H71.3369V40.6771H72.0719V41.2581ZM70.6229 40.6771V38.4791L69.0969 40.6771H70.6229ZM74.9601 39.1371C75.2728 39.1371 75.5458 39.2047 75.7791 39.3401C76.0171 39.4707 76.1991 39.6574 76.3251 39.9001C76.4558 40.1381 76.5211 40.4134 76.5211 40.7261C76.5211 41.0481 76.4488 41.3304 76.3041 41.5731C76.1641 41.8157 75.9611 42.0047 75.6951 42.1401C75.4291 42.2754 75.1188 42.3431 74.7641 42.3431C74.4561 42.3431 74.1528 42.2894 73.8541 42.1821C73.5555 42.0747 73.3081 41.9277 73.1121 41.7411L73.3641 41.2091C73.8261 41.5731 74.2951 41.7551 74.7711 41.7551C75.1025 41.7551 75.3591 41.6664 75.5411 41.4891C75.7278 41.3071 75.8211 41.0574 75.8211 40.7401C75.8211 40.4367 75.7278 40.1917 75.5411 40.0051C75.3591 39.8184 75.1141 39.7251 74.8061 39.7251C74.3581 39.7251 73.9988 39.8954 73.7281 40.2361H73.2591V37.3101H76.3111V37.8911H73.9731V39.4731C74.2391 39.2491 74.5681 39.1371 74.9601 39.1371ZM86.156 39.1371C86.4687 39.1371 86.7417 39.2047 86.975 39.3401C87.213 39.4707 87.395 39.6574 87.521 39.9001C87.6517 40.1381 87.717 40.4134 87.717 40.7261C87.717 41.0481 87.6447 41.3304 87.5 41.5731C87.36 41.8157 87.157 42.0047 86.891 42.1401C86.625 42.2754 86.3147 42.3431 85.96 42.3431C85.652 42.3431 85.3487 42.2894 85.05 42.1821C84.7513 42.0747 84.504 41.9277 84.308 41.7411L84.56 41.2091C85.022 41.5731 85.491 41.7551 85.967 41.7551C86.2983 41.7551 86.555 41.6664 86.737 41.4891C86.9237 41.3071 87.017 41.0574 87.017 40.7401C87.017 40.4367 86.9237 40.1917 86.737 40.0051C86.555 39.8184 86.31 39.7251 86.002 39.7251C85.554 39.7251 85.1947 39.8954 84.924 40.2361H84.455V37.3101H87.507V37.8911H85.169V39.4731C85.435 39.2491 85.764 39.1371 86.156 39.1371ZM90.4653 42.3501C89.8866 42.3501 89.4456 42.1331 89.1423 41.6991C88.8389 41.2651 88.6873 40.6327 88.6873 39.8021C88.6873 38.9714 88.8389 38.3391 89.1423 37.9051C89.4456 37.4711 89.8866 37.2541 90.4653 37.2541C91.0439 37.2541 91.4849 37.4711 91.7883 37.9051C92.0916 38.3344 92.2433 38.9644 92.2433 39.7951C92.2433 40.6304 92.0916 41.2651 91.7883 41.6991C91.4849 42.1331 91.0439 42.3501 90.4653 42.3501ZM90.4653 41.7691C90.8246 41.7691 91.0883 41.6104 91.2563 41.2931C91.4289 40.9711 91.5153 40.4717 91.5153 39.7951C91.5153 39.1184 91.4313 38.6237 91.2633 38.3111C91.0953 37.9984 90.8293 37.8421 90.4653 37.8421C90.1059 37.8421 89.8399 38.0007 89.6673 38.3181C89.4993 38.6307 89.4153 39.1231 89.4153 39.7951C89.4153 40.4717 89.4993 40.9711 89.6673 41.2931C89.8399 41.6104 90.1059 41.7691 90.4653 41.7691ZM96.9096 41.2581H96.1746V42.2941H95.4606V41.2581H93.2276V40.7191L95.5936 37.3101H96.1746V40.6771H96.9096V41.2581ZM95.4606 40.6771V38.4791L93.9346 40.6771H95.4606ZM99.7978 39.1371C100.11 39.1371 100.383 39.2047 100.617 39.3401C100.855 39.4707 101.037 39.6574 101.163 39.9001C101.293 40.1381 101.359 40.4134 101.359 40.7261C101.359 41.0481 101.286 41.3304 101.142 41.5731C101.002 41.8157 100.799 42.0047 100.533 42.1401C100.267 42.2754 99.9565 42.3431 99.6018 42.3431C99.2938 42.3431 98.9905 42.2894 98.6918 42.1821C98.3931 42.0747 98.1458 41.9277 97.9498 41.7411L98.2018 41.2091C98.6638 41.5731 99.1328 41.7551 99.6088 41.7551C99.9401 41.7551 100.197 41.6664 100.379 41.4891C100.565 41.3071 100.659 41.0574 100.659 40.7401C100.659 40.4367 100.565 40.1917 100.379 40.0051C100.197 39.8184 99.9518 39.7251 99.6438 39.7251C99.1958 39.7251 98.8365 39.8954 98.5658 40.2361H98.0968V37.3101H101.149V37.8911H98.8108V39.4731C99.0768 39.2491 99.4058 39.1371 99.7978 39.1371Z" fill="#FAF8F6"/>
<defs>
<filter id="filter0_b" x="-17.444" y="-17.444" width="154.888" height="109.888" filterUnits="userSpaceOnUse" color-interpolation-filters="sRGB">
<feFlood flood-opacity="0" result="BackgroundImageFix"/>
<feGaussianBlur in="BackgroundImage" stdDeviation="8.72201"/>
<feComposite in2="SourceAlpha" operator="in" result="effect1_backgroundBlur"/>
<feBlend mode="normal" in="SourceGraphic" in2="effect1_backgroundBlur" result="shape"/>
</filter>
<linearGradient id="paint0_linear" x1="19.572" y1="24.3958" x2="8.98381" y2="32.7381" gradientUnits="userSpaceOnUse">
<stop stop-color="#E7BD61"/>
<stop offset="0.495738" stop-color="#FEE9BA"/>
<stop offset="1" stop-color="#E7BD61"/>
</linearGradient>
</defs>
</svg>
