<svg width="21" height="20" viewBox="0 0 21 20" fill="none" xmlns="http://www.w3.org/2000/svg">
<path d="M19.9599 7.33334H18.6665V4.00001C18.6665 3.8232 18.5963 3.65363 18.4713 3.5286C18.3463 3.40358 18.1767 3.33334 17.9999 3.33334H1.99988C1.82307 3.33334 1.6535 3.2631 1.52847 3.13808C1.40345 3.01306 1.33321 2.84349 1.33321 2.66668C1.33321 2.48986 1.40345 2.3203 1.52847 2.19527C1.6535 2.07025 1.82307 2.00001 1.99988 2.00001H17.7332C17.91 2.00001 18.0796 1.92977 18.2046 1.80475C18.3296 1.67972 18.3999 1.51015 18.3999 1.33334C18.3999 1.15653 18.3296 0.986963 18.2046 0.861938C18.0796 0.736914 17.91 0.666676 17.7332 0.666676H1.99988C1.74247 0.661369 1.48654 0.706828 1.24671 0.800454C1.00688 0.894081 0.787844 1.03404 0.602116 1.21234C0.416388 1.39064 0.267607 1.60378 0.164274 1.8396C0.0609398 2.07541 0.00507751 2.32927 -0.00012207 2.58668V16.5867C0.000750524 16.9488 0.0730539 17.3072 0.212647 17.6414C0.35224 17.9755 0.556381 18.2788 0.813378 18.534C1.07037 18.7891 1.37518 18.9911 1.71033 19.1282C2.04549 19.2654 2.40441 19.3351 2.76654 19.3333H17.9999C18.1767 19.3333 18.3463 19.2631 18.4713 19.1381C18.5963 19.0131 18.6665 18.8435 18.6665 18.6667V15.3333H19.9599C20.044 15.3397 20.1286 15.3288 20.2084 15.3014C20.2882 15.2739 20.3615 15.2305 20.4239 15.1737C20.4863 15.1169 20.5365 15.0479 20.5713 14.9711C20.6062 14.8942 20.625 14.811 20.6265 14.7267V8.06001C20.6287 7.8768 20.561 7.69964 20.4371 7.56463C20.3133 7.42961 20.1426 7.3469 19.9599 7.33334ZM19.3332 14H13.6132C12.93 13.9757 12.2844 13.6812 11.8181 13.1812C11.3519 12.6812 11.1031 12.0166 11.1265 11.3333C11.1031 10.6501 11.3519 9.98549 11.8181 9.4855C12.2844 8.98551 12.93 8.69101 13.6132 8.66667H19.3332V14Z" fill="#01736C"/>
</svg>
