<svg width="22" height="21" viewBox="0 0 22 21" fill="none" xmlns="http://www.w3.org/2000/svg">
<path d="M19.25 10.243C20.0695 9.59468 20.7055 8.74359 21.095 7.77398C21.362 8.55398 21.5 9.42548 21.5 10.402C21.5 12.73 20.678 14.362 19.835 15.412C19.449 15.8948 19 16.3236 18.5 16.687V18.25C18.5 18.8467 18.2629 19.419 17.841 19.841C17.419 20.2629 16.8467 20.5 16.25 20.5H15.5C15.1022 20.5 14.7206 20.3419 14.4393 20.0606C14.158 19.7793 14 19.3978 14 19H11C11 19.3978 10.842 19.7793 10.5607 20.0606C10.2794 20.3419 9.89782 20.5 9.5 20.5H8.75C8.15326 20.5 7.58097 20.2629 7.15901 19.841C6.73705 19.419 6.5 18.8467 6.5 18.25V17.929C5.54213 17.6228 4.67244 17.0897 3.965 16.375C3.0785 15.475 2.5805 14.35 2.33 13.642C2.3006 13.545 2.24875 13.4562 2.17864 13.383C2.10853 13.3098 2.02215 13.2541 1.9265 13.2205C1.51593 13.1043 1.15449 12.8572 0.897039 12.517C0.63959 12.1767 0.50019 11.7617 0.5 11.335V10.144C0.5 9.27998 1.073 8.52098 1.9025 8.28398C2.0585 8.23898 2.2265 8.08898 2.309 7.83848C2.5115 7.22648 2.9 6.32348 3.614 5.60048C4.2284 4.98601 4.93116 4.46677 5.699 4.05998V1.24298C5.69988 1.01499 5.7691 0.792512 5.89772 0.604269C6.02633 0.416026 6.20843 0.27067 6.4205 0.186977C6.62678 0.101326 6.85339 0.0769956 7.07316 0.116904C7.29292 0.156813 7.4965 0.259266 7.6595 0.411978C8.039 0.771977 8.537 1.19948 9.0695 1.54898C9.617 1.90598 10.13 2.13398 10.5485 2.17598H10.556C9.75289 3.36716 9.40277 4.8065 9.569 6.23348C9.7505 7.77548 10.9445 8.70398 11.9465 9.11798L15.5315 10.603C16.532 11.017 18.032 11.2045 19.2515 10.243H19.25ZM6.125 9.24998C6.42337 9.24998 6.70952 9.13145 6.9205 8.92047C7.13147 8.70949 7.25 8.42335 7.25 8.12498C7.25 7.82661 7.13147 7.54046 6.9205 7.32948C6.70952 7.1185 6.42337 6.99998 6.125 6.99998C5.82663 6.99998 5.54048 7.1185 5.3295 7.32948C5.11853 7.54046 5 7.82661 5 8.12498C5 8.42335 5.11853 8.70949 5.3295 8.92047C5.54048 9.13145 5.82663 9.24998 6.125 9.24998Z" fill="#FE7575"/>
<path d="M11.3451 3.87997C11.5994 3.23808 11.998 2.66331 12.51 2.20014C13.022 1.73697 13.6337 1.39782 14.2978 1.20895C14.9619 1.02008 15.6605 0.986541 16.3396 1.11094C17.0187 1.23534 17.6601 1.51433 18.2141 1.92633C18.7682 2.33832 19.2199 2.87228 19.5345 3.48686C19.8491 4.10144 20.0181 4.78016 20.0283 5.4705C20.0386 6.16084 19.8898 6.84429 19.5936 7.46793C19.2974 8.09158 18.8617 8.63871 18.3201 9.06697C17.6961 9.55896 16.8396 9.52147 16.1046 9.21697L12.5196 7.73197C11.7846 7.42747 11.1516 6.84697 11.0586 6.05797C11.0144 5.67641 11.0194 5.29074 11.0736 4.91047L11.3451 3.87847V3.87997Z" fill="#FE7575"/>
<path d="M11.3449 3.87995L11.1409 4.53695C11.192 4.31258 11.2602 4.09244 11.3449 3.87845V3.87995Z" fill="#FE7575"/>
</svg>
