<svg width="23" height="20" viewBox="0 0 23 20" fill="none" xmlns="http://www.w3.org/2000/svg">
<path d="M20.756 8.71375V17.7644L15.6844 12.8772L14.7128 13.8134L19.6948 18.6209H2.60576L7.42929 13.8134L6.43702 12.8904L1.46189 17.8507V6.34984L10.0271 14.5638C10.2853 14.8111 10.6346 14.95 10.9987 14.95C11.3628 14.95 11.7121 14.8111 11.9703 14.5638L18.0548 8.73367C17.5693 8.61155 17.1049 8.42138 16.6767 8.16925L10.9849 13.6209L2.36458 5.34052H14.4234C14.2902 4.9092 14.2183 4.46244 14.2098 4.01248H1.46189C1.09638 4.01248 0.745845 4.1524 0.487391 4.40146C0.228938 4.65051 0.0837402 4.98831 0.0837402 5.34052V18.6209C0.0837402 18.9732 0.228938 19.311 0.487391 19.56C0.745845 19.8091 1.09638 19.949 1.46189 19.949H20.756C21.1215 19.949 21.4721 19.8091 21.7305 19.56C21.989 19.311 22.1342 18.9732 22.1342 18.6209V8.12941C21.7071 8.3884 21.2427 8.5853 20.756 8.71375Z" fill="#706F6F"/>
<path d="M19.0338 7.23945C20.9366 7.23945 22.4791 5.75299 22.4791 3.91935C22.4791 2.08571 20.9366 0.599243 19.0338 0.599243C17.1309 0.599243 15.5884 2.08571 15.5884 3.91935C15.5884 5.75299 17.1309 7.23945 19.0338 7.23945Z" fill="#FC5B5B"/>
</svg>
