<svg width="180" height="113" viewBox="0 0 180 113" fill="none" xmlns="http://www.w3.org/2000/svg">
<g filter="url(#filter0_b)">
<rect width="180" height="112.5" rx="5.58209" fill="#8E6F2E"/>
<rect x="0.17444" y="0.17444" width="179.651" height="112.151" rx="5.40765" stroke="url(#paint0_radial)" stroke-width="0.348881"/>
<rect x="0.17444" y="0.17444" width="179.651" height="112.151" rx="5.40765" stroke="url(#paint1_radial)" stroke-width="0.348881"/>
</g>
<path d="M6.50222 80.455C22.9982 62.0085 76.0538 27.1396 156.308 35.2354" stroke="white" stroke-opacity="0.1"/>
<path d="M9.7565 89.0461C23.9836 68.7982 72.6006 27.9677 153.251 26.629" stroke="white" stroke-opacity="0.1"/>
<path d="M20.8622 106.947C29.1905 83.6437 65.1944 31.3517 142.583 8.60707" stroke="white" stroke-opacity="0.1"/>
<path d="M13.4327 38.1776V47.3633C13.4327 48.247 14.1491 48.9634 15.0328 48.9634H26.5969C28.229 48.9634 29.5521 47.6403 29.5521 46.0082V39.5328C29.5521 37.9006 28.229 36.5775 26.5969 36.5775H15.0328C14.1491 36.5775 13.4327 37.2939 13.4327 38.1776Z" fill="url(#paint2_linear)" stroke="#8D731D" stroke-width="0.246269"/>
<path d="M19.5957 36.6368C18.9438 38.5135 18.0311 43.6061 19.5957 48.9634" stroke="#8D731D" stroke-width="0.246269"/>
<path d="M23.6256 36.6368C24.2775 38.5135 25.1902 43.6061 23.6256 48.9634" stroke="#8D731D" stroke-width="0.246269"/>
<path d="M13.4919 40.9037H18.8256" stroke="#8D731D" stroke-width="0.246269"/>
<path d="M24.4558 40.8444H29.5524" stroke="#8D731D" stroke-width="0.246269"/>
<path d="M13.4919 44.4594H18.8256" stroke="#8D731D" stroke-width="0.246269"/>
<path d="M24.4558 44.4002H29.5524" stroke="#8D731D" stroke-width="0.246269"/>
<path d="M14.8943 102.088C14.621 102.088 14.3643 102.052 14.1243 101.978C13.8877 101.905 13.686 101.8 13.5193 101.663L13.7393 101.193C13.9127 101.323 14.0927 101.42 14.2793 101.483C14.4693 101.543 14.676 101.573 14.8993 101.573C15.146 101.573 15.336 101.53 15.4693 101.443C15.606 101.357 15.6743 101.235 15.6743 101.078C15.6743 100.945 15.611 100.843 15.4843 100.773C15.361 100.7 15.156 100.632 14.8693 100.568C14.4227 100.472 14.0977 100.347 13.8943 100.193C13.691 100.04 13.5893 99.8168 13.5893 99.5235C13.5893 99.3135 13.646 99.1268 13.7593 98.9635C13.8727 98.8001 14.0327 98.6718 14.2393 98.5785C14.4493 98.4851 14.691 98.4385 14.9643 98.4385C15.2143 98.4385 15.451 98.4768 15.6743 98.5535C15.901 98.6268 16.086 98.7301 16.2293 98.8635L16.0143 99.3335C15.6977 99.0801 15.3477 98.9535 14.9643 98.9535C14.7343 98.9535 14.5527 99.0018 14.4193 99.0985C14.286 99.1918 14.2193 99.3201 14.2193 99.4835C14.2193 99.6235 14.2777 99.7301 14.3943 99.8035C14.5143 99.8768 14.7177 99.9451 15.0043 100.008C15.301 100.078 15.5427 100.155 15.7293 100.238C15.916 100.318 16.0593 100.423 16.1593 100.553C16.2593 100.68 16.3093 100.84 16.3093 101.033C16.3093 101.247 16.2527 101.433 16.1393 101.593C16.026 101.75 15.8627 101.872 15.6493 101.958C15.436 102.045 15.1843 102.088 14.8943 102.088ZM18.3771 102.088C17.8871 102.088 17.5154 101.963 17.2621 101.713C17.0121 101.46 16.8871 101.09 16.8871 100.603V98.4835H17.5221V100.638C17.5221 100.945 17.5938 101.178 17.7371 101.338C17.8804 101.495 18.0938 101.573 18.3771 101.573C18.6538 101.573 18.8638 101.493 19.0071 101.333C19.1538 101.173 19.2271 100.942 19.2271 100.638V98.4835H19.8621V100.603C19.8621 101.087 19.7354 101.455 19.4821 101.708C19.2288 101.962 18.8604 102.088 18.3771 102.088ZM20.6083 98.4835H21.2533V101.513H22.9183V102.043H20.6083V98.4835ZM23.4061 98.4835H25.7861V98.9935H24.0361V99.9785H25.6811V100.488H24.0361V101.533H25.7861V102.043H23.4061V98.4835ZM29.8498 98.4835V102.043H29.2798V99.8335L28.3348 102.043H27.9098L26.9598 99.8585V102.043H26.3898V98.4835H26.8998L28.1248 101.268L29.3398 98.4835H29.8498ZM32.9928 101.208H31.2528L30.8928 102.043H30.2428L31.8528 98.4835H32.3778L33.9928 102.043H33.3478L32.9928 101.208ZM32.7778 100.708L32.1228 99.1835L31.4678 100.708H32.7778ZM37.3778 98.4835V102.043H36.8978L34.9778 99.5485V102.043H34.3778V98.4835H34.8578L36.7728 100.973V98.4835H37.3778ZM42.9943 98.4835V102.043H42.4243V99.8335L41.4793 102.043H41.0543L40.1043 99.8585V102.043H39.5343V98.4835H40.0443L41.2693 101.268L42.4843 98.4835H42.9943ZM45.2423 102.088C44.7523 102.088 44.3807 101.963 44.1273 101.713C43.8773 101.46 43.7523 101.09 43.7523 100.603V98.4835H44.3873V100.638C44.3873 100.945 44.459 101.178 44.6023 101.338C44.7457 101.495 44.959 101.573 45.2423 101.573C45.519 101.573 45.729 101.493 45.8723 101.333C46.019 101.173 46.0923 100.942 46.0923 100.638V98.4835H46.7273V100.603C46.7273 101.087 46.6007 101.455 46.3473 101.708C46.094 101.962 45.7257 102.088 45.2423 102.088ZM48.6785 102.088C48.4052 102.088 48.1485 102.052 47.9085 101.978C47.6718 101.905 47.4702 101.8 47.3035 101.663L47.5235 101.193C47.6968 101.323 47.8768 101.42 48.0635 101.483C48.2535 101.543 48.4602 101.573 48.6835 101.573C48.9302 101.573 49.1202 101.53 49.2535 101.443C49.3902 101.357 49.4585 101.235 49.4585 101.078C49.4585 100.945 49.3952 100.843 49.2685 100.773C49.1452 100.7 48.9402 100.632 48.6535 100.568C48.2068 100.472 47.8818 100.347 47.6785 100.193C47.4752 100.04 47.3735 99.8168 47.3735 99.5235C47.3735 99.3135 47.4302 99.1268 47.5435 98.9635C47.6568 98.8001 47.8168 98.6718 48.0235 98.5785C48.2335 98.4851 48.4752 98.4385 48.7485 98.4385C48.9985 98.4385 49.2352 98.4768 49.4585 98.5535C49.6852 98.6268 49.8702 98.7301 50.0135 98.8635L49.7985 99.3335C49.4818 99.0801 49.1318 98.9535 48.7485 98.9535C48.5185 98.9535 48.3368 99.0018 48.2035 99.0985C48.0702 99.1918 48.0035 99.3201 48.0035 99.4835C48.0035 99.6235 48.0618 99.7301 48.1785 99.8035C48.2985 99.8768 48.5018 99.9451 48.7885 100.008C49.0852 100.078 49.3268 100.155 49.5135 100.238C49.7002 100.318 49.8435 100.423 49.9435 100.553C50.0435 100.68 50.0935 100.84 50.0935 101.033C50.0935 101.247 50.0368 101.433 49.9235 101.593C49.8102 101.75 49.6468 101.872 49.4335 101.958C49.2202 102.045 48.9685 102.088 48.6785 102.088ZM53.0221 101.208H51.2821L50.9221 102.043H50.2721L51.8821 98.4835H52.4071L54.0221 102.043H53.3771L53.0221 101.208ZM52.8071 100.708L52.1521 99.1835L51.4971 100.708H52.8071Z" fill="#FFFBFB"/>
<path d="M133.949 10.5084C134.197 10.5804 134.389 10.7064 134.525 10.8864C134.661 11.0664 134.729 11.2864 134.729 11.5464C134.729 11.9064 134.595 12.1924 134.327 12.4044C134.059 12.6124 133.695 12.7164 133.235 12.7164H131.207V8.44443H133.175C133.619 8.44443 133.969 8.54443 134.225 8.74443C134.485 8.94043 134.615 9.21043 134.615 9.55443C134.615 9.77843 134.555 9.97443 134.435 10.1424C134.319 10.3104 134.157 10.4324 133.949 10.5084ZM132.119 10.1844H133.019C133.259 10.1844 133.437 10.1444 133.553 10.0644C133.673 9.98043 133.733 9.85243 133.733 9.68043C133.733 9.50443 133.673 9.37443 133.553 9.29043C133.437 9.20643 133.259 9.16443 133.019 9.16443H132.119V10.1844ZM133.127 11.9964C133.379 11.9964 133.561 11.9544 133.673 11.8704C133.789 11.7824 133.847 11.6444 133.847 11.4564C133.847 11.2644 133.789 11.1244 133.673 11.0364C133.561 10.9484 133.379 10.9044 133.127 10.9044H132.119V11.9964H133.127ZM138.373 9.67443V12.7164H137.479V12.2664C137.387 12.4224 137.257 12.5444 137.089 12.6324C136.921 12.7204 136.731 12.7644 136.519 12.7644C136.255 12.7644 136.021 12.7004 135.817 12.5724C135.617 12.4444 135.459 12.2624 135.343 12.0264C135.231 11.7864 135.175 11.5104 135.175 11.1984C135.175 10.8864 135.231 10.6084 135.343 10.3644C135.459 10.1204 135.619 9.93243 135.823 9.80043C136.027 9.66443 136.259 9.59643 136.519 9.59643C136.731 9.59643 136.921 9.64243 137.089 9.73443C137.257 9.82643 137.387 9.95043 137.479 10.1064V9.67443H138.373ZM136.783 12.0744C137.007 12.0744 137.179 11.9984 137.299 11.8464C137.419 11.6944 137.479 11.4744 137.479 11.1864C137.479 10.8984 137.419 10.6784 137.299 10.5264C137.179 10.3704 137.007 10.2924 136.783 10.2924C136.559 10.2924 136.385 10.3724 136.261 10.5324C136.137 10.6924 136.075 10.9144 136.075 11.1984C136.075 11.4824 136.135 11.7004 136.255 11.8524C136.379 12.0004 136.555 12.0744 136.783 12.0744ZM140.982 9.59643C141.702 9.59643 142.062 10.0224 142.062 10.8744V12.7164H141.156V10.9164C141.156 10.7044 141.116 10.5504 141.036 10.4544C140.96 10.3544 140.838 10.3044 140.67 10.3044C140.47 10.3044 140.31 10.3684 140.19 10.4964C140.07 10.6244 140.01 10.7964 140.01 11.0124V12.7164H139.104V10.5444C139.104 10.2204 139.088 9.93043 139.056 9.67443H139.908L139.968 10.1544C140.076 9.97443 140.216 9.83643 140.388 9.74043C140.564 9.64443 140.762 9.59643 140.982 9.59643ZM144.884 12.7164L143.69 11.3544V12.7164H142.784V8.30043H143.69V10.9824L144.83 9.68043H145.916L144.626 11.1384L145.994 12.7164H144.884ZM151.673 8.44443V12.7164H150.977L148.847 9.99243V12.7164H147.971V8.44443H148.661L150.791 11.1624V8.44443H151.673ZM155.517 9.67443V12.7164H154.623V12.2664C154.531 12.4224 154.401 12.5444 154.233 12.6324C154.065 12.7204 153.875 12.7644 153.663 12.7644C153.399 12.7644 153.165 12.7004 152.961 12.5724C152.761 12.4444 152.603 12.2624 152.487 12.0264C152.375 11.7864 152.319 11.5104 152.319 11.1984C152.319 10.8864 152.375 10.6084 152.487 10.3644C152.603 10.1204 152.763 9.93243 152.967 9.80043C153.171 9.66443 153.403 9.59643 153.663 9.59643C153.875 9.59643 154.065 9.64243 154.233 9.73443C154.401 9.82643 154.531 9.95043 154.623 10.1064V9.67443H155.517ZM153.927 12.0744C154.151 12.0744 154.323 11.9984 154.443 11.8464C154.563 11.6944 154.623 11.4744 154.623 11.1864C154.623 10.8984 154.563 10.6784 154.443 10.5264C154.323 10.3704 154.151 10.2924 153.927 10.2924C153.703 10.2924 153.529 10.3724 153.405 10.5324C153.281 10.6924 153.219 10.9144 153.219 11.1984C153.219 11.4824 153.279 11.7004 153.399 11.8524C153.523 12.0004 153.699 12.0744 153.927 12.0744ZM159.969 9.59643C160.317 9.59643 160.575 9.70243 160.743 9.91443C160.915 10.1224 161.001 10.4424 161.001 10.8744V12.7164H160.095V10.9044C160.095 10.6924 160.061 10.5404 159.993 10.4484C159.925 10.3524 159.813 10.3044 159.657 10.3044C159.473 10.3044 159.331 10.3684 159.231 10.4964C159.131 10.6244 159.081 10.8044 159.081 11.0364V12.7164H158.175V10.9044C158.175 10.6964 158.139 10.5444 158.067 10.4484C157.999 10.3524 157.889 10.3044 157.737 10.3044C157.553 10.3044 157.409 10.3684 157.305 10.4964C157.205 10.6244 157.155 10.8044 157.155 11.0364V12.7164H156.249V10.5444C156.249 10.2204 156.233 9.93043 156.201 9.67443H157.053L157.107 10.1304C157.199 9.95843 157.327 9.82643 157.491 9.73443C157.659 9.64243 157.851 9.59643 158.067 9.59643C158.519 9.59643 158.819 9.78443 158.967 10.1604C159.067 9.98843 159.205 9.85243 159.381 9.75243C159.561 9.64843 159.757 9.59643 159.969 9.59643ZM164.445 11.2704H162.441C162.457 11.5544 162.531 11.7624 162.663 11.8944C162.795 12.0224 162.991 12.0864 163.251 12.0864C163.407 12.0864 163.563 12.0604 163.719 12.0084C163.875 11.9564 164.019 11.8804 164.151 11.7804L164.391 12.3924C164.247 12.5084 164.067 12.6004 163.851 12.6684C163.639 12.7324 163.425 12.7644 163.209 12.7644C162.697 12.7644 162.295 12.6244 162.003 12.3444C161.711 12.0604 161.565 11.6744 161.565 11.1864C161.565 10.8784 161.627 10.6044 161.751 10.3644C161.879 10.1204 162.057 9.93243 162.285 9.80043C162.513 9.66443 162.771 9.59643 163.059 9.59643C163.487 9.59643 163.825 9.73643 164.073 10.0164C164.321 10.2924 164.445 10.6664 164.445 11.1384V11.2704ZM163.083 10.2324C162.911 10.2324 162.771 10.2824 162.663 10.3824C162.559 10.4824 162.491 10.6284 162.459 10.8204H163.665C163.617 10.4284 163.423 10.2324 163.083 10.2324Z" fill="#FFFBFB"/>
<path d="M13.8177 8.15643H15.1277C15.7111 8.15643 16.1627 8.31143 16.4827 8.62143C16.8061 8.93143 16.9677 9.3681 16.9677 9.93143C16.9677 10.4981 16.8061 10.9381 16.4827 11.2514C16.1627 11.5614 15.7111 11.7164 15.1277 11.7164H13.8177V8.15643ZM15.0877 11.1914C15.9077 11.1914 16.3177 10.7714 16.3177 9.93143C16.3177 9.0981 15.9077 8.68143 15.0877 8.68143H14.4627V11.1914H15.0877ZM19.7913 10.4864H18.0513C18.0647 10.7564 18.1313 10.9564 18.2513 11.0864C18.3747 11.2131 18.5563 11.2764 18.7963 11.2764C19.073 11.2764 19.3297 11.1864 19.5663 11.0064L19.7463 11.4364C19.6263 11.5331 19.478 11.6114 19.3013 11.6714C19.128 11.7281 18.9513 11.7564 18.7713 11.7564C18.358 11.7564 18.033 11.6398 17.7963 11.4064C17.5597 11.1731 17.4413 10.8531 17.4413 10.4464C17.4413 10.1898 17.493 9.96143 17.5963 9.76143C17.6997 9.56143 17.8447 9.40643 18.0313 9.29643C18.218 9.1831 18.4297 9.12643 18.6663 9.12643C19.013 9.12643 19.2863 9.23976 19.4863 9.46643C19.6897 9.68976 19.7913 9.9981 19.7913 10.3914V10.4864ZM18.6813 9.57643C18.5147 9.57643 18.378 9.62643 18.2713 9.72643C18.168 9.8231 18.1013 9.96476 18.0713 10.1514H19.2463C19.2263 9.96143 19.168 9.8181 19.0713 9.72143C18.978 9.62476 18.848 9.57643 18.6813 9.57643ZM21.7606 9.12643C21.9806 9.12643 22.1739 9.18143 22.3406 9.29143C22.5106 9.3981 22.6423 9.54976 22.7356 9.74643C22.8289 9.9431 22.8756 10.1714 22.8756 10.4314C22.8756 10.6914 22.8273 10.9231 22.7306 11.1264C22.6373 11.3264 22.5056 11.4814 22.3356 11.5914C22.1689 11.7014 21.9773 11.7564 21.7606 11.7564C21.5739 11.7564 21.4073 11.7164 21.2606 11.6364C21.1173 11.5564 21.0089 11.4448 20.9356 11.3014V11.7164H20.3206V8.03643H20.9406V9.57143C21.0173 9.43143 21.1273 9.3231 21.2706 9.24643C21.4139 9.16643 21.5773 9.12643 21.7606 9.12643ZM21.5956 11.2664C21.8023 11.2664 21.9623 11.1931 22.0756 11.0464C22.1889 10.8998 22.2456 10.6948 22.2456 10.4314C22.2456 10.1714 22.1889 9.97143 22.0756 9.83143C21.9623 9.6881 21.8006 9.61643 21.5906 9.61643C21.3806 9.61643 21.2189 9.6881 21.1056 9.83143C20.9923 9.97476 20.9356 10.1781 20.9356 10.4414C20.9356 10.7081 20.9923 10.9131 21.1056 11.0564C21.2189 11.1964 21.3823 11.2664 21.5956 11.2664ZM23.4212 9.19143H24.0412V11.7164H23.4212V9.19143ZM24.0762 8.04643V8.66143H23.3812V8.04643H24.0762ZM25.5199 9.66143V10.7914C25.5199 11.0881 25.6582 11.2364 25.9349 11.2364C26.0116 11.2364 26.0949 11.2231 26.1849 11.1964V11.6914C26.0749 11.7314 25.9416 11.7514 25.7849 11.7514C25.4982 11.7514 25.2782 11.6714 25.1249 11.5114C24.9716 11.3514 24.8949 11.1214 24.8949 10.8214V9.66143H24.4099V9.19143H24.8949V8.57643L25.5199 8.36643V9.19143H26.1899V9.66143H25.5199ZM27.3618 11.0164V11.7164H26.6618V11.0164H27.3618Z" fill="#FFFBFB"/>
<ellipse cx="154.382" cy="95.0142" rx="6.21418" ry="6.21417" fill="#F79E1B"/>
<circle cx="146.614" cy="95.0142" r="6.21418" fill="url(#paint3_radial)"/>
<path d="M144.883 103.301C145.112 103.301 145.283 103.371 145.395 103.509C145.507 103.645 145.563 103.853 145.563 104.133V105.373H145.063V104.149C145.063 103.989 145.036 103.875 144.983 103.805C144.932 103.733 144.847 103.697 144.727 103.697C144.588 103.697 144.479 103.747 144.399 103.845C144.322 103.941 144.283 104.075 144.283 104.245V105.373H143.783V104.149C143.783 103.992 143.755 103.877 143.699 103.805C143.646 103.733 143.56 103.697 143.443 103.697C143.304 103.697 143.195 103.747 143.115 103.845C143.035 103.941 142.995 104.075 142.995 104.245V105.373H142.499V103.925C142.499 103.712 142.488 103.521 142.467 103.353H142.935L142.971 103.673C143.03 103.553 143.114 103.461 143.223 103.397C143.335 103.333 143.463 103.301 143.607 103.301C143.916 103.301 144.118 103.429 144.211 103.685C144.275 103.565 144.366 103.472 144.483 103.405C144.603 103.336 144.736 103.301 144.883 103.301ZM148.029 103.353V105.373H147.537V105.049C147.475 105.161 147.387 105.249 147.273 105.313C147.158 105.375 147.027 105.405 146.881 105.405C146.705 105.405 146.549 105.363 146.413 105.277C146.277 105.192 146.171 105.071 146.097 104.913C146.022 104.756 145.985 104.573 145.985 104.365C145.985 104.157 146.022 103.973 146.097 103.813C146.174 103.651 146.281 103.525 146.417 103.437C146.553 103.347 146.707 103.301 146.881 103.301C147.027 103.301 147.158 103.333 147.273 103.397C147.387 103.459 147.475 103.545 147.537 103.657V103.353H148.029ZM147.017 105.013C147.182 105.013 147.31 104.956 147.401 104.841C147.491 104.727 147.537 104.565 147.537 104.357C147.537 104.144 147.491 103.98 147.401 103.865C147.31 103.751 147.181 103.693 147.013 103.693C146.847 103.693 146.718 103.753 146.625 103.873C146.534 103.991 146.489 104.155 146.489 104.365C146.489 104.573 146.534 104.733 146.625 104.845C146.718 104.957 146.849 105.013 147.017 105.013ZM149.313 105.405C148.948 105.405 148.657 105.32 148.441 105.149L148.581 104.797C148.797 104.957 149.044 105.037 149.321 105.037C149.441 105.037 149.533 105.017 149.597 104.977C149.664 104.937 149.697 104.881 149.697 104.809C149.697 104.748 149.674 104.7 149.629 104.665C149.584 104.628 149.506 104.596 149.397 104.569L149.061 104.493C148.693 104.413 148.509 104.225 148.509 103.929C148.509 103.807 148.544 103.699 148.613 103.605C148.682 103.509 148.78 103.435 148.905 103.381C149.03 103.328 149.176 103.301 149.341 103.301C149.485 103.301 149.624 103.324 149.757 103.369C149.89 103.412 150.008 103.475 150.109 103.557L149.961 103.897C149.758 103.748 149.55 103.673 149.337 103.673C149.222 103.673 149.133 103.695 149.069 103.737C149.005 103.78 148.973 103.839 148.973 103.913C148.973 103.972 148.992 104.019 149.029 104.053C149.069 104.088 149.136 104.117 149.229 104.141L149.573 104.217C149.773 104.263 149.918 104.333 150.009 104.429C150.102 104.523 150.149 104.645 150.149 104.797C150.149 104.984 150.074 105.132 149.925 105.241C149.776 105.351 149.572 105.405 149.313 105.405ZM151.194 103.729V104.633C151.194 104.871 151.304 104.989 151.526 104.989C151.587 104.989 151.654 104.979 151.726 104.957V105.353C151.638 105.385 151.531 105.401 151.406 105.401C151.176 105.401 151 105.337 150.878 105.209C150.755 105.081 150.694 104.897 150.694 104.657V103.729H150.306V103.353H150.694V102.861L151.194 102.693V103.353H151.73V103.729H151.194ZM153.841 104.389H152.449C152.46 104.605 152.513 104.765 152.609 104.869C152.708 104.971 152.853 105.021 153.045 105.021C153.266 105.021 153.472 104.949 153.661 104.805L153.805 105.149C153.709 105.227 153.59 105.289 153.449 105.337C153.31 105.383 153.169 105.405 153.025 105.405C152.694 105.405 152.434 105.312 152.245 105.125C152.056 104.939 151.961 104.683 151.961 104.357C151.961 104.152 152.002 103.969 152.085 103.809C152.168 103.649 152.284 103.525 152.433 103.437C152.582 103.347 152.752 103.301 152.941 103.301C153.218 103.301 153.437 103.392 153.597 103.573C153.76 103.752 153.841 103.999 153.841 104.313V104.389ZM152.953 103.661C152.82 103.661 152.71 103.701 152.625 103.781C152.542 103.859 152.489 103.972 152.465 104.121H153.405C153.389 103.969 153.342 103.855 153.265 103.777C153.19 103.7 153.086 103.661 152.953 103.661ZM155.353 103.305C155.43 103.305 155.497 103.316 155.553 103.337L155.549 103.793C155.463 103.759 155.375 103.741 155.285 103.741C155.114 103.741 154.983 103.791 154.893 103.889C154.805 103.988 154.761 104.119 154.761 104.281V105.373H154.265V103.925C154.265 103.712 154.254 103.521 154.233 103.353H154.701L154.741 103.709C154.791 103.579 154.871 103.479 154.981 103.409C155.09 103.34 155.214 103.305 155.353 103.305ZM156.708 105.405C156.497 105.405 156.315 105.363 156.16 105.277C156.005 105.192 155.887 105.072 155.804 104.917C155.721 104.76 155.68 104.576 155.68 104.365C155.68 104.155 155.723 103.969 155.808 103.809C155.896 103.649 156.019 103.525 156.176 103.437C156.336 103.347 156.52 103.301 156.728 103.301C156.872 103.301 157.011 103.324 157.144 103.369C157.28 103.415 157.388 103.477 157.468 103.557L157.328 103.909C157.243 103.84 157.152 103.788 157.056 103.753C156.96 103.716 156.865 103.697 156.772 103.697C156.591 103.697 156.449 103.755 156.348 103.869C156.247 103.981 156.196 104.144 156.196 104.357C156.196 104.571 156.245 104.733 156.344 104.845C156.445 104.957 156.588 105.013 156.772 105.013C156.865 105.013 156.96 104.995 157.056 104.957C157.152 104.92 157.243 104.867 157.328 104.797L157.468 105.149C157.383 105.229 157.272 105.292 157.136 105.337C157 105.383 156.857 105.405 156.708 105.405ZM159.736 103.353V105.373H159.244V105.049C159.182 105.161 159.094 105.249 158.98 105.313C158.865 105.375 158.734 105.405 158.588 105.405C158.412 105.405 158.256 105.363 158.12 105.277C157.984 105.192 157.878 105.071 157.804 104.913C157.729 104.756 157.692 104.573 157.692 104.365C157.692 104.157 157.729 103.973 157.804 103.813C157.881 103.651 157.988 103.525 158.124 103.437C158.26 103.347 158.414 103.301 158.588 103.301C158.734 103.301 158.865 103.333 158.98 103.397C159.094 103.459 159.182 103.545 159.244 103.657V103.353H159.736ZM158.724 105.013C158.889 105.013 159.017 104.956 159.108 104.841C159.198 104.727 159.244 104.565 159.244 104.357C159.244 104.144 159.198 103.98 159.108 103.865C159.017 103.751 158.888 103.693 158.72 103.693C158.554 103.693 158.425 103.753 158.332 103.873C158.241 103.991 158.196 104.155 158.196 104.365C158.196 104.573 158.241 104.733 158.332 104.845C158.425 104.957 158.556 105.013 158.724 105.013ZM161.368 103.305C161.446 103.305 161.512 103.316 161.568 103.337L161.564 103.793C161.479 103.759 161.391 103.741 161.3 103.741C161.13 103.741 160.999 103.791 160.908 103.889C160.82 103.988 160.776 104.119 160.776 104.281V105.373H160.28V103.925C160.28 103.712 160.27 103.521 160.248 103.353H160.716L160.756 103.709C160.807 103.579 160.887 103.479 160.996 103.409C161.106 103.34 161.23 103.305 161.368 103.305ZM163.74 102.429V105.373H163.248V105.049C163.186 105.161 163.098 105.249 162.984 105.313C162.869 105.375 162.738 105.405 162.592 105.405C162.418 105.405 162.264 105.361 162.128 105.273C161.992 105.185 161.885 105.061 161.808 104.901C161.733 104.739 161.696 104.553 161.696 104.345C161.696 104.137 161.733 103.955 161.808 103.797C161.882 103.64 161.988 103.519 162.124 103.433C162.26 103.345 162.416 103.301 162.592 103.301C162.736 103.301 162.864 103.332 162.976 103.393C163.09 103.452 163.178 103.536 163.24 103.645V102.429H163.74ZM162.724 105.013C162.889 105.013 163.017 104.956 163.108 104.841C163.201 104.727 163.248 104.564 163.248 104.353C163.248 104.143 163.202 103.98 163.112 103.865C163.021 103.751 162.893 103.693 162.728 103.693C162.56 103.693 162.429 103.751 162.336 103.865C162.245 103.977 162.2 104.137 162.2 104.345C162.2 104.556 162.245 104.72 162.336 104.837C162.429 104.955 162.558 105.013 162.724 105.013Z" fill="white"/>
<path d="M15.3383 79.634L14.7103 81.058H14.5363L13.9083 79.634H14.1243L14.6243 80.798L15.1263 79.634H15.3383ZM16.3015 80.706H15.5815L15.4295 81.058H15.2195L15.8535 79.634H16.0275L16.6635 81.058H16.4535L16.3015 80.706ZM16.2315 80.542L15.9415 79.864L15.6515 80.542H16.2315ZM16.8479 79.634H17.0539V80.886H17.7459V81.058H16.8479V79.634ZM17.9514 79.634H18.1574V81.058H17.9514V79.634ZM18.4885 79.634H18.9865C19.2172 79.634 19.3958 79.696 19.5225 79.82C19.6492 79.944 19.7125 80.1187 19.7125 80.344C19.7125 80.5707 19.6492 80.7467 19.5225 80.872C19.3958 80.996 19.2172 81.058 18.9865 81.058H18.4885V79.634ZM18.9745 80.886C19.3252 80.886 19.5005 80.7053 19.5005 80.344C19.5005 79.9853 19.3252 79.806 18.9745 79.806H18.6945V80.886H18.9745ZM14.4203 82.806H13.9383V82.634H15.1103V82.806H14.6283V84.058H14.4203V82.806ZM16.509 82.634V84.058H16.303V83.42H15.505V84.058H15.301V82.634H15.505V83.25H16.303V82.634H16.509ZM17.9821 84.058H17.7641L17.5861 83.584C17.5674 83.5333 17.5401 83.4987 17.5041 83.48C17.4681 83.46 17.4187 83.45 17.3561 83.45H17.0441V84.058H16.8401V82.634H17.4261C17.5821 82.634 17.7014 82.6687 17.7841 82.738C17.8681 82.8073 17.9101 82.9066 17.9101 83.036C17.9101 83.1293 17.8854 83.2087 17.8361 83.274C17.7867 83.3393 17.7167 83.3853 17.6261 83.412C17.7087 83.4267 17.7687 83.4853 17.8061 83.588L17.9821 84.058ZM17.4021 83.284C17.5061 83.284 17.5834 83.264 17.6341 83.224C17.6847 83.1827 17.7101 83.1213 17.7101 83.04C17.7101 82.9586 17.6847 82.8986 17.6341 82.86C17.5847 82.82 17.5074 82.8 17.4021 82.8H17.0441V83.284H17.4021ZM18.8046 84.074C18.6153 84.074 18.4713 84.0247 18.3726 83.926C18.2753 83.8273 18.2266 83.6827 18.2266 83.492V82.634H18.4286V83.506C18.4286 83.638 18.4599 83.738 18.5226 83.806C18.5866 83.8727 18.6806 83.906 18.8046 83.906C18.9273 83.906 19.0199 83.872 19.0826 83.804C19.1466 83.736 19.1786 83.6367 19.1786 83.506V82.634H19.3826V83.492C19.3826 83.6827 19.3333 83.8273 19.2346 83.926C19.1373 84.0247 18.9939 84.074 18.8046 84.074Z" fill="#FFFBFB"/>
<path d="M29.1125 83.633V84.058H27.0325V83.633H27.8125V81.113L27.0875 81.563V81.088L28.0325 80.498H28.3325V83.633H29.1125ZM32.1505 83.633V84.058H29.8155V83.673L31.0405 82.328C31.1972 82.1546 31.3105 81.998 31.3805 81.858C31.4539 81.7146 31.4905 81.573 31.4905 81.433C31.4905 81.253 31.4389 81.1163 31.3355 81.023C31.2322 80.9263 31.0822 80.878 30.8855 80.878C30.5555 80.878 30.2255 81.008 29.8955 81.268L29.7105 80.888C29.8505 80.758 30.0289 80.6546 30.2455 80.578C30.4622 80.498 30.6805 80.458 30.9005 80.458C31.2405 80.458 31.5089 80.543 31.7055 80.713C31.9055 80.883 32.0055 81.113 32.0055 81.403C32.0055 81.6096 31.9605 81.8063 31.8705 81.993C31.7805 82.1763 31.6305 82.3813 31.4205 82.608L30.4705 83.633H32.1505ZM32.3036 84.343L33.5936 80.303H34.0386L32.7436 84.343H32.3036ZM36.6427 83.633V84.058H34.3077V83.673L35.5327 82.328C35.6894 82.1546 35.8027 81.998 35.8727 81.858C35.9461 81.7146 35.9827 81.573 35.9827 81.433C35.9827 81.253 35.9311 81.1163 35.8277 81.023C35.7244 80.9263 35.5744 80.878 35.3777 80.878C35.0477 80.878 34.7177 81.008 34.3877 81.268L34.2027 80.888C34.3427 80.758 34.5211 80.6546 34.7377 80.578C34.9544 80.498 35.1727 80.458 35.3927 80.458C35.7327 80.458 36.0011 80.543 36.1977 80.713C36.3977 80.883 36.4977 81.113 36.4977 81.403C36.4977 81.6096 36.4527 81.8063 36.3627 81.993C36.2727 82.1763 36.1227 82.3813 35.9127 82.608L34.9627 83.633H36.6427ZM39.7708 83.318H39.2458V84.058H38.7358V83.318H37.1408V82.933L38.8308 80.498H39.2458V82.903H39.7708V83.318ZM38.7358 82.903V81.333L37.6458 82.903H38.7358Z" fill="#FFFBFB"/>
<path d="M17.2973 58.4312C17.7439 58.4312 18.1339 58.5278 18.4673 58.7212C18.8073 58.9078 19.0673 59.1745 19.2473 59.5212C19.4339 59.8612 19.5273 60.2545 19.5273 60.7012C19.5273 61.1612 19.4239 61.5645 19.2173 61.9112C19.0173 62.2578 18.7273 62.5278 18.3473 62.7212C17.9673 62.9145 17.5239 63.0112 17.0173 63.0112C16.5773 63.0112 16.1439 62.9345 15.7173 62.7812C15.2906 62.6278 14.9373 62.4178 14.6573 62.1512L15.0173 61.3912C15.6773 61.9112 16.3473 62.1712 17.0273 62.1712C17.5006 62.1712 17.8673 62.0445 18.1273 61.7912C18.3939 61.5312 18.5273 61.1745 18.5273 60.7212C18.5273 60.2878 18.3939 59.9378 18.1273 59.6712C17.8673 59.4045 17.5173 59.2712 17.0773 59.2712C16.4373 59.2712 15.9239 59.5145 15.5373 60.0012H14.8673V55.8212H19.2273V56.6512H15.8873V58.9112C16.2673 58.5912 16.7373 58.4312 17.2973 58.4312ZM24.5034 59.2812C24.9167 59.4012 25.2334 59.6078 25.4534 59.9012C25.6734 60.1945 25.7834 60.5645 25.7834 61.0112C25.7834 61.6312 25.5634 62.1212 25.1234 62.4812C24.69 62.8345 24.1 63.0112 23.3534 63.0112C22.88 63.0112 22.4267 62.9378 21.9934 62.7912C21.5667 62.6378 21.21 62.4245 20.9234 62.1512L21.2934 61.3912C21.9334 61.9112 22.61 62.1712 23.3234 62.1712C24.2967 62.1712 24.7834 61.7612 24.7834 60.9412C24.7834 60.5412 24.6567 60.2445 24.4034 60.0512C24.15 59.8512 23.7667 59.7512 23.2534 59.7512H22.3834V58.9112H23.0934C23.5867 58.9112 23.9634 58.8078 24.2234 58.6012C24.4834 58.3945 24.6134 58.0945 24.6134 57.7012C24.6134 57.3412 24.5034 57.0645 24.2834 56.8712C24.07 56.6778 23.7667 56.5812 23.3734 56.5812C22.7067 56.5812 22.0467 56.8412 21.3934 57.3612L21.0234 56.6012C21.3034 56.3345 21.6567 56.1245 22.0834 55.9712C22.5167 55.8178 22.9634 55.7412 23.4234 55.7412C24.09 55.7412 24.62 55.9078 25.0134 56.2412C25.4134 56.5678 25.6134 57.0112 25.6134 57.5712C25.6134 57.9778 25.5167 58.3312 25.3234 58.6312C25.13 58.9312 24.8567 59.1478 24.5034 59.2812ZM30.2895 58.4312C30.7361 58.4312 31.1261 58.5278 31.4595 58.7212C31.7995 58.9078 32.0595 59.1745 32.2395 59.5212C32.4261 59.8612 32.5195 60.2545 32.5195 60.7012C32.5195 61.1612 32.4161 61.5645 32.2095 61.9112C32.0095 62.2578 31.7195 62.5278 31.3395 62.7212C30.9595 62.9145 30.5161 63.0112 30.0095 63.0112C29.5695 63.0112 29.1361 62.9345 28.7095 62.7812C28.2828 62.6278 27.9295 62.4178 27.6495 62.1512L28.0095 61.3912C28.6695 61.9112 29.3395 62.1712 30.0195 62.1712C30.4928 62.1712 30.8595 62.0445 31.1195 61.7912C31.3861 61.5312 31.5195 61.1745 31.5195 60.7212C31.5195 60.2878 31.3861 59.9378 31.1195 59.6712C30.8595 59.4045 30.5095 59.2712 30.0695 59.2712C29.4295 59.2712 28.9161 59.5145 28.5295 60.0012H27.8595V55.8212H32.2195V56.6512H28.8795V58.9112C29.2595 58.5912 29.7295 58.4312 30.2895 58.4312ZM36.7856 58.4312C37.2322 58.4312 37.6222 58.5278 37.9556 58.7212C38.2956 58.9078 38.5556 59.1745 38.7356 59.5212C38.9222 59.8612 39.0156 60.2545 39.0156 60.7012C39.0156 61.1612 38.9122 61.5645 38.7056 61.9112C38.5056 62.2578 38.2156 62.5278 37.8356 62.7212C37.4556 62.9145 37.0122 63.0112 36.5056 63.0112C36.0656 63.0112 35.6322 62.9345 35.2056 62.7812C34.7789 62.6278 34.4256 62.4178 34.1456 62.1512L34.5056 61.3912C35.1656 61.9112 35.8356 62.1712 36.5156 62.1712C36.9889 62.1712 37.3556 62.0445 37.6156 61.7912C37.8822 61.5312 38.0156 61.1745 38.0156 60.7212C38.0156 60.2878 37.8822 59.9378 37.6156 59.6712C37.3556 59.4045 37.0056 59.2712 36.5656 59.2712C35.9256 59.2712 35.4122 59.5145 35.0256 60.0012H34.3556V55.8212H38.7156V56.6512H35.3756V58.9112C35.7556 58.5912 36.2256 58.4312 36.7856 58.4312ZM52.4397 63.0212C51.613 63.0212 50.983 62.7112 50.5497 62.0912C50.1164 61.4712 49.8997 60.5678 49.8997 59.3812C49.8997 58.1945 50.1164 57.2912 50.5497 56.6712C50.983 56.0512 51.613 55.7412 52.4397 55.7412C53.2664 55.7412 53.8964 56.0512 54.3297 56.6712C54.763 57.2845 54.9797 58.1845 54.9797 59.3712C54.9797 60.5645 54.763 61.4712 54.3297 62.0912C53.8964 62.7112 53.2664 63.0212 52.4397 63.0212ZM52.4397 62.1912C52.953 62.1912 53.3297 61.9645 53.5697 61.5112C53.8164 61.0512 53.9397 60.3378 53.9397 59.3712C53.9397 58.4045 53.8197 57.6978 53.5797 57.2512C53.3397 56.8045 52.9597 56.5812 52.4397 56.5812C51.9264 56.5812 51.5464 56.8078 51.2997 57.2612C51.0597 57.7078 50.9397 58.4112 50.9397 59.3712C50.9397 60.3378 51.0597 61.0512 51.2997 61.5112C51.5464 61.9645 51.9264 62.1912 52.4397 62.1912ZM59.9858 59.2812C60.3991 59.4012 60.7158 59.6078 60.9358 59.9012C61.1558 60.1945 61.2658 60.5645 61.2658 61.0112C61.2658 61.6312 61.0458 62.1212 60.6058 62.4812C60.1725 62.8345 59.5825 63.0112 58.8358 63.0112C58.3625 63.0112 57.9091 62.9378 57.4758 62.7912C57.0491 62.6378 56.6925 62.4245 56.4058 62.1512L56.7758 61.3912C57.4158 61.9112 58.0925 62.1712 58.8058 62.1712C59.7791 62.1712 60.2658 61.7612 60.2658 60.9412C60.2658 60.5412 60.1391 60.2445 59.8858 60.0512C59.6325 59.8512 59.2491 59.7512 58.7358 59.7512H57.8658V58.9112H58.5758C59.0691 58.9112 59.4458 58.8078 59.7058 58.6012C59.9658 58.3945 60.0958 58.0945 60.0958 57.7012C60.0958 57.3412 59.9858 57.0645 59.7658 56.8712C59.5525 56.6778 59.2491 56.5812 58.8558 56.5812C58.1891 56.5812 57.5291 56.8412 56.8758 57.3612L56.5058 56.6012C56.7858 56.3345 57.1391 56.1245 57.5658 55.9712C57.9991 55.8178 58.4458 55.7412 58.9058 55.7412C59.5725 55.7412 60.1025 55.9078 60.4958 56.2412C60.8958 56.5678 61.0958 57.0112 61.0958 57.5712C61.0958 57.9778 60.9991 58.3312 60.8058 58.6312C60.6125 58.9312 60.3391 59.1478 59.9858 59.2812ZM68.1419 61.4612H67.0919V62.9412H66.0719V61.4612H62.8819V60.6912L66.2619 55.8212H67.0919V60.6312H68.1419V61.4612ZM66.0719 60.6312V57.4912L63.8919 60.6312H66.0719ZM73.068 59.2812C73.528 59.4078 73.8846 59.6245 74.138 59.9312C74.398 60.2378 74.528 60.6078 74.528 61.0412C74.528 61.6545 74.2913 62.1378 73.818 62.4912C73.3513 62.8378 72.7213 63.0112 71.928 63.0112C71.1346 63.0112 70.5013 62.8378 70.028 62.4912C69.5613 62.1378 69.328 61.6545 69.328 61.0412C69.328 60.6012 69.458 60.2278 69.718 59.9212C69.978 59.6145 70.3413 59.4012 70.808 59.2812C70.3946 59.1478 70.0713 58.9378 69.838 58.6512C69.6113 58.3645 69.498 58.0278 69.498 57.6412C69.498 57.2612 69.6013 56.9278 69.808 56.6412C70.0146 56.3545 70.3013 56.1345 70.668 55.9812C71.0346 55.8212 71.4546 55.7412 71.928 55.7412C72.4013 55.7412 72.8213 55.8212 73.188 55.9812C73.5546 56.1345 73.8413 56.3545 74.048 56.6412C74.2546 56.9278 74.358 57.2612 74.358 57.6412C74.358 58.0278 74.2446 58.3678 74.018 58.6612C73.7913 58.9478 73.4746 59.1545 73.068 59.2812ZM70.488 57.7312C70.488 58.0778 70.618 58.3612 70.878 58.5812C71.138 58.7945 71.488 58.9312 71.928 58.9912C72.368 58.9312 72.718 58.7945 72.978 58.5812C73.238 58.3612 73.368 58.0778 73.368 57.7312C73.368 57.3645 73.238 57.0812 72.978 56.8812C72.7246 56.6745 72.3746 56.5712 71.928 56.5712C71.4813 56.5712 71.128 56.6745 70.868 56.8812C70.6146 57.0812 70.488 57.3645 70.488 57.7312ZM71.928 62.1812C72.4413 62.1812 72.838 62.0778 73.118 61.8712C73.398 61.6645 73.538 61.3645 73.538 60.9712C73.538 60.6045 73.3913 60.3145 73.098 60.1012C72.8113 59.8812 72.4213 59.7412 71.928 59.6812C71.4346 59.7412 71.0413 59.8812 70.748 60.1012C70.4613 60.3145 70.318 60.6045 70.318 60.9712C70.318 61.3645 70.458 61.6645 70.738 61.8712C71.018 62.0778 71.4146 62.1812 71.928 62.1812ZM88.2621 58.4312C88.7088 58.4312 89.0988 58.5278 89.4321 58.7212C89.7721 58.9078 90.0321 59.1745 90.2121 59.5212C90.3988 59.8612 90.4921 60.2545 90.4921 60.7012C90.4921 61.1612 90.3888 61.5645 90.1821 61.9112C89.9821 62.2578 89.6921 62.5278 89.3121 62.7212C88.9321 62.9145 88.4888 63.0112 87.9821 63.0112C87.5421 63.0112 87.1088 62.9345 86.6821 62.7812C86.2555 62.6278 85.9021 62.4178 85.6221 62.1512L85.9821 61.3912C86.6421 61.9112 87.3121 62.1712 87.9921 62.1712C88.4655 62.1712 88.8321 62.0445 89.0921 61.7912C89.3588 61.5312 89.4921 61.1745 89.4921 60.7212C89.4921 60.2878 89.3588 59.9378 89.0921 59.6712C88.8321 59.4045 88.4821 59.2712 88.0421 59.2712C87.4021 59.2712 86.8888 59.5145 86.5021 60.0012H85.8321V55.8212H90.1921V56.6512H86.8521V58.9112C87.2321 58.5912 87.7021 58.4312 88.2621 58.4312ZM94.1982 55.7412C95.0782 55.7412 95.7549 56.0412 96.2282 56.6412C96.7015 57.2412 96.9382 58.1012 96.9382 59.2212C96.9382 60.0145 96.8249 60.6978 96.5982 61.2712C96.3782 61.8378 96.0549 62.2712 95.6282 62.5712C95.2082 62.8712 94.7049 63.0212 94.1182 63.0212C93.6982 63.0212 93.2915 62.9478 92.8982 62.8012C92.5049 62.6478 92.1615 62.4345 91.8682 62.1612L92.2282 61.4012C92.5615 61.6745 92.8782 61.8745 93.1782 62.0012C93.4849 62.1212 93.7882 62.1812 94.0882 62.1812C94.6682 62.1812 95.1149 61.9278 95.4282 61.4212C95.7482 60.9078 95.9082 60.1812 95.9082 59.2412V59.2112C95.7615 59.5578 95.5215 59.8312 95.1882 60.0312C94.8615 60.2312 94.4849 60.3312 94.0582 60.3312C93.6315 60.3312 93.2515 60.2378 92.9182 60.0512C92.5849 59.8578 92.3249 59.5912 92.1382 59.2512C91.9515 58.9045 91.8582 58.5078 91.8582 58.0612C91.8582 57.6145 91.9582 57.2178 92.1582 56.8712C92.3582 56.5178 92.6349 56.2412 92.9882 56.0412C93.3482 55.8412 93.7515 55.7412 94.1982 55.7412ZM94.2482 59.4912C94.6749 59.4912 95.0215 59.3578 95.2882 59.0912C95.5549 58.8178 95.6882 58.4678 95.6882 58.0412C95.6882 57.6078 95.5549 57.2578 95.2882 56.9912C95.0215 56.7178 94.6749 56.5812 94.2482 56.5812C93.8282 56.5812 93.4915 56.7145 93.2382 56.9812C92.9849 57.2478 92.8582 57.6012 92.8582 58.0412C92.8582 58.4745 92.9849 58.8245 93.2382 59.0912C93.4982 59.3578 93.8349 59.4912 94.2482 59.4912ZM103.624 61.4612H102.574V62.9412H101.554V61.4612H98.3643V60.6912L101.744 55.8212H102.574V60.6312H103.624V61.4612ZM101.554 60.6312V57.4912L99.3743 60.6312H101.554ZM107.75 58.4312C108.197 58.4312 108.587 58.5278 108.92 58.7212C109.26 58.9078 109.52 59.1745 109.7 59.5212C109.887 59.8612 109.98 60.2545 109.98 60.7012C109.98 61.1612 109.877 61.5645 109.67 61.9112C109.47 62.2578 109.18 62.5278 108.8 62.7212C108.42 62.9145 107.977 63.0112 107.47 63.0112C107.03 63.0112 106.597 62.9345 106.17 62.7812C105.744 62.6278 105.39 62.4178 105.11 62.1512L105.47 61.3912C106.13 61.9112 106.8 62.1712 107.48 62.1712C107.954 62.1712 108.32 62.0445 108.58 61.7912C108.847 61.5312 108.98 61.1745 108.98 60.7212C108.98 60.2878 108.847 59.9378 108.58 59.6712C108.32 59.4045 107.97 59.2712 107.53 59.2712C106.89 59.2712 106.377 59.5145 105.99 60.0012H105.32V55.8212H109.68V56.6512H106.34V58.9112C106.72 58.5912 107.19 58.4312 107.75 58.4312ZM123.745 58.4312C124.191 58.4312 124.581 58.5278 124.915 58.7212C125.255 58.9078 125.515 59.1745 125.695 59.5212C125.881 59.8612 125.975 60.2545 125.975 60.7012C125.975 61.1612 125.871 61.5645 125.665 61.9112C125.465 62.2578 125.175 62.5278 124.795 62.7212C124.415 62.9145 123.971 63.0112 123.465 63.0112C123.025 63.0112 122.591 62.9345 122.165 62.7812C121.738 62.6278 121.385 62.4178 121.105 62.1512L121.465 61.3912C122.125 61.9112 122.795 62.1712 123.475 62.1712C123.948 62.1712 124.315 62.0445 124.575 61.7912C124.841 61.5312 124.975 61.1745 124.975 60.7212C124.975 60.2878 124.841 59.9378 124.575 59.6712C124.315 59.4045 123.965 59.2712 123.525 59.2712C122.885 59.2712 122.371 59.5145 121.985 60.0012H121.315V55.8212H125.675V56.6512H122.335V58.9112C122.715 58.5912 123.185 58.4312 123.745 58.4312ZM129.901 63.0212C129.074 63.0212 128.444 62.7112 128.011 62.0912C127.577 61.4712 127.361 60.5678 127.361 59.3812C127.361 58.1945 127.577 57.2912 128.011 56.6712C128.444 56.0512 129.074 55.7412 129.901 55.7412C130.727 55.7412 131.357 56.0512 131.791 56.6712C132.224 57.2845 132.441 58.1845 132.441 59.3712C132.441 60.5645 132.224 61.4712 131.791 62.0912C131.357 62.7112 130.727 63.0212 129.901 63.0212ZM129.901 62.1912C130.414 62.1912 130.791 61.9645 131.031 61.5112C131.277 61.0512 131.401 60.3378 131.401 59.3712C131.401 58.4045 131.281 57.6978 131.041 57.2512C130.801 56.8045 130.421 56.5812 129.901 56.5812C129.387 56.5812 129.007 56.8078 128.761 57.2612C128.521 57.7078 128.401 58.4112 128.401 59.3712C128.401 60.3378 128.521 61.0512 128.761 61.5112C129.007 61.9645 129.387 62.1912 129.901 62.1912ZM139.107 61.4612H138.057V62.9412H137.037V61.4612H133.847V60.6912L137.227 55.8212H138.057V60.6312H139.107V61.4612ZM137.037 60.6312V57.4912L134.857 60.6312H137.037ZM143.233 58.4312C143.679 58.4312 144.069 58.5278 144.403 58.7212C144.743 58.9078 145.003 59.1745 145.183 59.5212C145.369 59.8612 145.463 60.2545 145.463 60.7012C145.463 61.1612 145.359 61.5645 145.153 61.9112C144.953 62.2578 144.663 62.5278 144.283 62.7212C143.903 62.9145 143.459 63.0112 142.953 63.0112C142.513 63.0112 142.079 62.9345 141.653 62.7812C141.226 62.6278 140.873 62.4178 140.593 62.1512L140.953 61.3912C141.613 61.9112 142.283 62.1712 142.963 62.1712C143.436 62.1712 143.803 62.0445 144.063 61.7912C144.329 61.5312 144.463 61.1745 144.463 60.7212C144.463 60.2878 144.329 59.9378 144.063 59.6712C143.803 59.4045 143.453 59.2712 143.013 59.2712C142.373 59.2712 141.859 59.5145 141.473 60.0012H140.803V55.8212H145.163V56.6512H141.823V58.9112C142.203 58.5912 142.673 58.4312 143.233 58.4312Z" fill="#FFFBFB"/>
<defs>
<filter id="filter0_b" x="-17.444" y="-17.444" width="214.888" height="147.388" filterUnits="userSpaceOnUse" color-interpolation-filters="sRGB">
<feFlood flood-opacity="0" result="BackgroundImageFix"/>
<feGaussianBlur in="BackgroundImage" stdDeviation="8.72201"/>
<feComposite in2="SourceAlpha" operator="in" result="effect1_backgroundBlur"/>
<feBlend mode="normal" in="SourceGraphic" in2="effect1_backgroundBlur" result="shape"/>
</filter>
<radialGradient id="paint0_radial" cx="0" cy="0" r="1" gradientUnits="userSpaceOnUse" gradientTransform="translate(180 112.5) rotate(-148.278) scale(208.85 334.16)">
<stop stop-color="white" stop-opacity="0.55"/>
<stop offset="1" stop-color="white" stop-opacity="0"/>
</radialGradient>
<radialGradient id="paint1_radial" cx="0" cy="0" r="1" gradientUnits="userSpaceOnUse" gradientTransform="translate(-1.47417e-07 2.01493) rotate(31.5418) scale(211.204 337.926)">
<stop stop-color="white" stop-opacity="0.27"/>
</radialGradient>
<linearGradient id="paint2_linear" x1="29.3582" y1="36.5937" x2="13.4758" y2="49.1071" gradientUnits="userSpaceOnUse">
<stop stop-color="#E7BD61"/>
<stop offset="0.495738" stop-color="#FEE9BA"/>
<stop offset="1" stop-color="#E7BD61"/>
</linearGradient>
<radialGradient id="paint3_radial" cx="0" cy="0" r="1" gradientUnits="userSpaceOnUse" gradientTransform="translate(152.828 95.0142) rotate(-180) scale(8.41504)">
<stop stop-color="#EB001B" stop-opacity="0.92"/>
<stop offset="0.110299" stop-color="#EB001B" stop-opacity="0.803455"/>
<stop offset="1" stop-color="#EB001B"/>
</radialGradient>
</defs>
</svg>
