<svg width="120" height="75" viewBox="0 0 120 75" fill="none" xmlns="http://www.w3.org/2000/svg">
<g filter="url(#filter0_b)">
<rect y="-1.52588e-05" width="120" height="75" rx="5.58209" fill="#317B60" fill-opacity="0.99"/>
<rect x="0.17444" y="0.174425" width="119.651" height="74.6511" rx="5.40765" stroke="white" stroke-width="0.348881"/>
<rect x="0.17444" y="0.174425" width="119.651" height="74.6511" rx="5.40765" stroke="white" stroke-width="0.348881"/>
</g>
<ellipse cx="89.5188" cy="28.2353" rx="24.0642" ry="24.0642" fill="#317B60" fill-opacity="0.99"/>
<ellipse cx="54.8666" cy="36.5775" rx="26.3102" ry="26.3102" fill="#317B60" fill-opacity="0.99"/>
<ellipse cx="23.2621" cy="18.7701" rx="5.29412" ry="5.29412" fill="#317B60" fill-opacity="0.99"/>
<ellipse cx="41.23" cy="59.1978" rx="2.72727" ry="2.72727" fill="#317B60" fill-opacity="0.99"/>
<path d="M8.95508 25.4518V31.5756C8.95508 32.1647 9.43267 32.6423 10.0218 32.6423H16.7461C18.3782 32.6423 19.7013 31.3192 19.7013 29.6871V27.3403C19.7013 25.7081 18.3783 24.385 16.7461 24.385H10.0218C9.43267 24.385 8.95508 24.8626 8.95508 25.4518Z" fill="url(#paint0_linear)" stroke="#A7A0A0" stroke-width="0.246269"/>
<path d="M13.0637 24.4246C12.6291 25.6757 12.0207 29.0707 13.0637 32.6423" stroke="#8D731D" stroke-width="0.246269"/>
<path d="M15.75 24.4246C16.1846 25.6757 16.793 29.0707 15.75 32.6423" stroke="#8D731D" stroke-width="0.246269"/>
<path d="M8.99463 27.2691H12.5504" stroke="#8D731D" stroke-width="0.246269"/>
<path d="M16.3037 27.2296H19.7014" stroke="#8D731D" stroke-width="0.246269"/>
<path d="M8.99463 29.6396H12.5504" stroke="#8D731D" stroke-width="0.246269"/>
<path d="M16.3037 29.6002H19.7014" stroke="#8D731D" stroke-width="0.246269"/>
<path d="M9.4609 66.1619C9.26957 66.1619 9.0899 66.1362 8.9219 66.0849C8.75623 66.0336 8.61507 65.9601 8.4984 65.8644L8.6524 65.5354C8.77373 65.6264 8.89973 65.6941 9.0304 65.7384C9.1634 65.7804 9.30807 65.8014 9.4644 65.8014C9.63707 65.8014 9.77007 65.7711 9.8634 65.7104C9.95907 65.6497 10.0069 65.5646 10.0069 65.4549C10.0069 65.3616 9.96257 65.2904 9.8739 65.2414C9.78757 65.1901 9.64407 65.1422 9.4434 65.0979C9.13073 65.0302 8.90323 64.9427 8.7609 64.8354C8.61857 64.7281 8.5474 64.5717 8.5474 64.3664C8.5474 64.2194 8.58707 64.0887 8.6664 63.9744C8.74573 63.8601 8.85773 63.7702 9.0024 63.7049C9.1494 63.6396 9.31857 63.6069 9.5099 63.6069C9.6849 63.6069 9.85057 63.6337 10.0069 63.6874C10.1656 63.7387 10.2951 63.8111 10.3954 63.9044L10.2449 64.2334C10.0232 64.0561 9.77823 63.9674 9.5099 63.9674C9.3489 63.9674 9.22173 64.0012 9.1284 64.0689C9.03507 64.1342 8.9884 64.2241 8.9884 64.3384C8.9884 64.4364 9.02923 64.5111 9.1109 64.5624C9.1949 64.6137 9.33723 64.6616 9.5379 64.7059C9.74557 64.7549 9.91473 64.8086 10.0454 64.8669C10.1761 64.9229 10.2764 64.9964 10.3464 65.0874C10.4164 65.1761 10.4514 65.2881 10.4514 65.4234C10.4514 65.5727 10.4117 65.7034 10.3324 65.8154C10.2531 65.9251 10.1387 66.0102 9.9894 66.0709C9.84007 66.1316 9.6639 66.1619 9.4609 66.1619ZM11.8988 66.1619C11.5558 66.1619 11.2957 66.0744 11.1183 65.8994C10.9433 65.7221 10.8558 65.4631 10.8558 65.1224V63.6384H11.3003V65.1469C11.3003 65.3616 11.3505 65.5249 11.4508 65.6369C11.5512 65.7466 11.7005 65.8014 11.8988 65.8014C12.0925 65.8014 12.2395 65.7454 12.3398 65.6334C12.4425 65.5214 12.4938 65.3592 12.4938 65.1469V63.6384H12.9383V65.1224C12.9383 65.4607 12.8497 65.7186 12.6723 65.8959C12.495 66.0732 12.2372 66.1619 11.8988 66.1619ZM13.4607 63.6384H13.9122V65.7594H15.0777V66.1304H13.4607V63.6384ZM15.4192 63.6384H17.0852V63.9954H15.8602V64.6849H17.0117V65.0419H15.8602V65.7734H17.0852V66.1304H15.4192V63.6384ZM19.9297 63.6384V66.1304H19.5307V64.5834L18.8692 66.1304H18.5717L17.9067 64.6009V66.1304H17.5077V63.6384H17.8647L18.7222 65.5879L19.5727 63.6384H19.9297ZM22.1298 65.5459H20.9118L20.6598 66.1304H20.2048L21.3318 63.6384H21.6993L22.8298 66.1304H22.3783L22.1298 65.5459ZM21.9793 65.1959L21.5208 64.1284L21.0623 65.1959H21.9793ZM25.1993 63.6384V66.1304H24.8633L23.5193 64.3839V66.1304H23.0993V63.6384H23.4353L24.7758 65.3814V63.6384H25.1993ZM29.1309 63.6384V66.1304H28.7319V64.5834L28.0704 66.1304H27.7729L27.1079 64.6009V66.1304H26.7089V63.6384H27.0659L27.9234 65.5879L28.7739 63.6384H29.1309ZM30.7045 66.1619C30.3615 66.1619 30.1013 66.0744 29.924 65.8994C29.749 65.7221 29.6615 65.4631 29.6615 65.1224V63.6384H30.106V65.1469C30.106 65.3616 30.1562 65.5249 30.2565 65.6369C30.3568 65.7466 30.5062 65.8014 30.7045 65.8014C30.8982 65.8014 31.0452 65.7454 31.1455 65.6334C31.2482 65.5214 31.2995 65.3592 31.2995 65.1469V63.6384H31.744V65.1224C31.744 65.4607 31.6553 65.7186 31.478 65.8959C31.3007 66.0732 31.0428 66.1619 30.7045 66.1619ZM33.1098 66.1619C32.9185 66.1619 32.7388 66.1362 32.5708 66.0849C32.4052 66.0336 32.264 65.9601 32.1473 65.8644L32.3013 65.5354C32.4227 65.6264 32.5487 65.6941 32.6793 65.7384C32.8123 65.7804 32.957 65.8014 33.1133 65.8014C33.286 65.8014 33.419 65.7711 33.5123 65.7104C33.608 65.6497 33.6558 65.5646 33.6558 65.4549C33.6558 65.3616 33.6115 65.2904 33.5228 65.2414C33.4365 65.1901 33.293 65.1422 33.0923 65.0979C32.7797 65.0302 32.5522 64.9427 32.4098 64.8354C32.2675 64.7281 32.1963 64.5717 32.1963 64.3664C32.1963 64.2194 32.236 64.0887 32.3153 63.9744C32.3947 63.8601 32.5067 63.7702 32.6513 63.7049C32.7983 63.6396 32.9675 63.6069 33.1588 63.6069C33.3338 63.6069 33.4995 63.6337 33.6558 63.6874C33.8145 63.7387 33.944 63.8111 34.0443 63.9044L33.8938 64.2334C33.6722 64.0561 33.4272 63.9674 33.1588 63.9674C32.9978 63.9674 32.8707 64.0012 32.7773 64.0689C32.684 64.1342 32.6373 64.2241 32.6373 64.3384C32.6373 64.4364 32.6782 64.5111 32.7598 64.5624C32.8438 64.6137 32.9862 64.6616 33.1868 64.7059C33.3945 64.7549 33.5637 64.8086 33.6943 64.8669C33.825 64.9229 33.9253 64.9964 33.9953 65.0874C34.0653 65.1761 34.1003 65.2881 34.1003 65.4234C34.1003 65.5727 34.0607 65.7034 33.9813 65.8154C33.902 65.9251 33.7877 66.0102 33.6383 66.0709C33.489 66.1316 33.3128 66.1619 33.1098 66.1619ZM36.1503 65.5459H34.9323L34.6803 66.1304H34.2253L35.3523 63.6384H35.7198L36.8503 66.1304H36.3988L36.1503 65.5459ZM35.9998 65.1959L35.5413 64.1284L35.0828 65.1959H35.9998Z" fill="#FFFBFB"/>
<path d="M10.0231 53.5523L9.55208 54.6203H9.42158L8.95058 53.5523H9.11258L9.48758 54.4253L9.86408 53.5523H10.0231ZM10.7454 54.3563H10.2054L10.0914 54.6203H9.93395L10.4094 53.5523H10.5399L11.0169 54.6203H10.8594L10.7454 54.3563ZM10.6929 54.2333L10.4754 53.7248L10.2579 54.2333H10.6929ZM11.1553 53.5523H11.3098V54.4913H11.8288V54.6203H11.1553V53.5523ZM11.9829 53.5523H12.1374V54.6203H11.9829V53.5523ZM12.3857 53.5523H12.7592C12.9322 53.5523 13.0662 53.5988 13.1612 53.6918C13.2562 53.7848 13.3037 53.9158 13.3037 54.0848C13.3037 54.2548 13.2562 54.3868 13.1612 54.4808C13.0662 54.5738 12.9322 54.6203 12.7592 54.6203H12.3857V53.5523ZM12.7502 54.4913C13.0132 54.4913 13.1447 54.3558 13.1447 54.0848C13.1447 53.8158 13.0132 53.6813 12.7502 53.6813H12.5402V54.4913H12.7502ZM9.33458 55.6813H8.97308V55.5523H9.85208V55.6813H9.49058V56.6203H9.33458V55.6813ZM10.9011 55.5523V56.6203H10.7466V56.1418H10.1481V56.6203H9.99511V55.5523H10.1481V56.0143H10.7466V55.5523H10.9011ZM12.0059 56.6203H11.8424L11.7089 56.2648C11.6949 56.2268 11.6744 56.2008 11.6474 56.1868C11.6204 56.1718 11.5834 56.1643 11.5364 56.1643H11.3024V56.6203H11.1494V55.5523H11.5889C11.7059 55.5523 11.7954 55.5783 11.8574 55.6303C11.9204 55.6823 11.9519 55.7568 11.9519 55.8538C11.9519 55.9238 11.9334 55.9833 11.8964 56.0323C11.8594 56.0813 11.8069 56.1158 11.7389 56.1358C11.8009 56.1468 11.8459 56.1908 11.8739 56.2678L12.0059 56.6203ZM11.5709 56.0398C11.6489 56.0398 11.7069 56.0248 11.7449 55.9948C11.7829 55.9638 11.8019 55.9178 11.8019 55.8568C11.8019 55.7958 11.7829 55.7508 11.7449 55.7218C11.7079 55.6918 11.6499 55.6768 11.5709 55.6768H11.3024V56.0398H11.5709ZM12.6228 56.6323C12.4808 56.6323 12.3728 56.5953 12.2988 56.5213C12.2258 56.4473 12.1893 56.3388 12.1893 56.1958V55.5523H12.3408V56.2063C12.3408 56.3053 12.3643 56.3803 12.4113 56.4313C12.4593 56.4813 12.5298 56.5063 12.6228 56.5063C12.7148 56.5063 12.7843 56.4808 12.8313 56.4298C12.8793 56.3788 12.9033 56.3043 12.9033 56.2063V55.5523H13.0563V56.1958C13.0563 56.3388 13.0193 56.4473 12.9453 56.5213C12.8723 56.5953 12.7648 56.6323 12.6228 56.6323Z" fill="#FFFBFB"/>
<path d="M18.9086 55.3653V55.6203H17.6606V55.3653H18.1286V53.8533L17.6936 54.1233V53.8383L18.2606 53.4843H18.4406V55.3653H18.9086ZM20.7314 55.3653V55.6203H19.3304V55.3893L20.0654 54.5823C20.1594 54.4783 20.2274 54.3843 20.2694 54.3003C20.3134 54.2143 20.3354 54.1293 20.3354 54.0453C20.3354 53.9373 20.3044 53.8553 20.2424 53.7993C20.1804 53.7413 20.0904 53.7123 19.9724 53.7123C19.7744 53.7123 19.5764 53.7903 19.3784 53.9463L19.2674 53.7183C19.3514 53.6403 19.4584 53.5783 19.5884 53.5323C19.7184 53.4843 19.8494 53.4603 19.9814 53.4603C20.1854 53.4603 20.3464 53.5113 20.4644 53.6133C20.5844 53.7153 20.6444 53.8533 20.6444 54.0273C20.6444 54.1513 20.6174 54.2693 20.5634 54.3813C20.5094 54.4913 20.4194 54.6143 20.2934 54.7503L19.7234 55.3653H20.7314ZM20.8233 55.7913L21.5973 53.3673H21.8643L21.0873 55.7913H20.8233ZM23.4267 55.3653V55.6203H22.0257V55.3893L22.7607 54.5823C22.8547 54.4783 22.9227 54.3843 22.9647 54.3003C23.0087 54.2143 23.0307 54.1293 23.0307 54.0453C23.0307 53.9373 22.9997 53.8553 22.9377 53.7993C22.8757 53.7413 22.7857 53.7123 22.6677 53.7123C22.4697 53.7123 22.2717 53.7903 22.0737 53.9463L21.9627 53.7183C22.0467 53.6403 22.1537 53.5783 22.2837 53.5323C22.4137 53.4843 22.5447 53.4603 22.6767 53.4603C22.8807 53.4603 23.0417 53.5113 23.1597 53.6133C23.2797 53.7153 23.3397 53.8533 23.3397 54.0273C23.3397 54.1513 23.3127 54.2693 23.2587 54.3813C23.2047 54.4913 23.1147 54.6143 22.9887 54.7503L22.4187 55.3653H23.4267ZM25.3036 55.1763H24.9886V55.6203H24.6826V55.1763H23.7256V54.9453L24.7396 53.4843H24.9886V54.9273H25.3036V55.1763ZM24.6826 54.9273V53.9853L24.0286 54.9273H24.6826Z" fill="#FFFBFB"/>
<path d="M11.3219 39.0521C11.6346 39.0521 11.9076 39.1197 12.1409 39.2551C12.3789 39.3857 12.5609 39.5724 12.6869 39.8151C12.8176 40.0531 12.8829 40.3284 12.8829 40.6411C12.8829 40.9631 12.8106 41.2454 12.6659 41.4881C12.5259 41.7307 12.3229 41.9197 12.0569 42.0551C11.7909 42.1904 11.4806 42.2581 11.1259 42.2581C10.8179 42.2581 10.5146 42.2044 10.2159 42.0971C9.91722 41.9897 9.66989 41.8427 9.47389 41.6561L9.72589 41.1241C10.1879 41.4881 10.6569 41.6701 11.1329 41.6701C11.4642 41.6701 11.7209 41.5814 11.9029 41.4041C12.0896 41.2221 12.1829 40.9724 12.1829 40.6551C12.1829 40.3517 12.0896 40.1067 11.9029 39.9201C11.7209 39.7334 11.4759 39.6401 11.1679 39.6401C10.7199 39.6401 10.3606 39.8104 10.0899 40.1511H9.62089V37.2251H12.6729V37.8061H10.3349V39.3881C10.6009 39.1641 10.9299 39.0521 11.3219 39.0521ZM16.3662 39.6471C16.6555 39.7311 16.8772 39.8757 17.0312 40.0811C17.1852 40.2864 17.2622 40.5454 17.2622 40.8581C17.2622 41.2921 17.1082 41.6351 16.8002 41.8871C16.4968 42.1344 16.0838 42.2581 15.5612 42.2581C15.2298 42.2581 14.9125 42.2067 14.6092 42.1041C14.3105 41.9967 14.0608 41.8474 13.8602 41.6561L14.1192 41.1241C14.5672 41.4881 15.0408 41.6701 15.5402 41.6701C16.2215 41.6701 16.5622 41.3831 16.5622 40.8091C16.5622 40.5291 16.4735 40.3214 16.2962 40.1861C16.1188 40.0461 15.8505 39.9761 15.4912 39.9761H14.8822V39.3881H15.3792C15.7245 39.3881 15.9882 39.3157 16.1702 39.1711C16.3522 39.0264 16.4432 38.8164 16.4432 38.5411C16.4432 38.2891 16.3662 38.0954 16.2122 37.9601C16.0628 37.8247 15.8505 37.7571 15.5752 37.7571C15.1085 37.7571 14.6465 37.9391 14.1892 38.3031L13.9302 37.7711C14.1262 37.5844 14.3735 37.4374 14.6722 37.3301C14.9755 37.2227 15.2882 37.1691 15.6102 37.1691C16.0768 37.1691 16.4478 37.2857 16.7232 37.5191C17.0032 37.7477 17.1432 38.0581 17.1432 38.4501C17.1432 38.7347 17.0755 38.9821 16.9402 39.1921C16.8048 39.4021 16.6135 39.5537 16.3662 39.6471ZM20.4164 39.0521C20.7291 39.0521 21.0021 39.1197 21.2354 39.2551C21.4734 39.3857 21.6554 39.5724 21.7814 39.8151C21.9121 40.0531 21.9774 40.3284 21.9774 40.6411C21.9774 40.9631 21.9051 41.2454 21.7604 41.4881C21.6204 41.7307 21.4174 41.9197 21.1514 42.0551C20.8854 42.1904 20.5751 42.2581 20.2204 42.2581C19.9124 42.2581 19.6091 42.2044 19.3104 42.0971C19.0118 41.9897 18.7644 41.8427 18.5684 41.6561L18.8204 41.1241C19.2824 41.4881 19.7514 41.6701 20.2274 41.6701C20.5588 41.6701 20.8154 41.5814 20.9974 41.4041C21.1841 41.2221 21.2774 40.9724 21.2774 40.6551C21.2774 40.3517 21.1841 40.1067 20.9974 39.9201C20.8154 39.7334 20.5704 39.6401 20.2624 39.6401C19.8144 39.6401 19.4551 39.8104 19.1844 40.1511H18.7154V37.2251H21.7674V37.8061H19.4294V39.3881C19.6954 39.1641 20.0244 39.0521 20.4164 39.0521ZM24.9637 39.0521C25.2764 39.0521 25.5494 39.1197 25.7827 39.2551C26.0207 39.3857 26.2027 39.5724 26.3287 39.8151C26.4594 40.0531 26.5247 40.3284 26.5247 40.6411C26.5247 40.9631 26.4524 41.2454 26.3077 41.4881C26.1677 41.7307 25.9647 41.9197 25.6987 42.0551C25.4327 42.1904 25.1224 42.2581 24.7677 42.2581C24.4597 42.2581 24.1564 42.2044 23.8577 42.0971C23.559 41.9897 23.3117 41.8427 23.1157 41.6561L23.3677 41.1241C23.8297 41.4881 24.2987 41.6701 24.7747 41.6701C25.106 41.6701 25.3627 41.5814 25.5447 41.4041C25.7314 41.2221 25.8247 40.9724 25.8247 40.6551C25.8247 40.3517 25.7314 40.1067 25.5447 39.9201C25.3627 39.7334 25.1177 39.6401 24.8097 39.6401C24.3617 39.6401 24.0024 39.8104 23.7317 40.1511H23.2627V37.2251H26.3147V37.8061H23.9767V39.3881C24.2427 39.1641 24.5717 39.0521 24.9637 39.0521ZM35.9216 42.2651C35.3429 42.2651 34.9019 42.0481 34.5986 41.6141C34.2952 41.1801 34.1436 40.5477 34.1436 39.7171C34.1436 38.8864 34.2952 38.2541 34.5986 37.8201C34.9019 37.3861 35.3429 37.1691 35.9216 37.1691C36.5002 37.1691 36.9412 37.3861 37.2446 37.8201C37.5479 38.2494 37.6996 38.8794 37.6996 39.7101C37.6996 40.5454 37.5479 41.1801 37.2446 41.6141C36.9412 42.0481 36.5002 42.2651 35.9216 42.2651ZM35.9216 41.6841C36.2809 41.6841 36.5446 41.5254 36.7126 41.2081C36.8852 40.8861 36.9716 40.3867 36.9716 39.7101C36.9716 39.0334 36.8876 38.5387 36.7196 38.2261C36.5516 37.9134 36.2856 37.7571 35.9216 37.7571C35.5622 37.7571 35.2962 37.9157 35.1236 38.2331C34.9556 38.5457 34.8716 39.0381 34.8716 39.7101C34.8716 40.3867 34.9556 40.8861 35.1236 41.2081C35.2962 41.5254 35.5622 41.6841 35.9216 41.6841ZM41.2038 39.6471C41.4932 39.7311 41.7148 39.8757 41.8688 40.0811C42.0228 40.2864 42.0998 40.5454 42.0998 40.8581C42.0998 41.2921 41.9458 41.6351 41.6378 41.8871C41.3345 42.1344 40.9215 42.2581 40.3988 42.2581C40.0675 42.2581 39.7502 42.2067 39.4468 42.1041C39.1482 41.9967 38.8985 41.8474 38.6978 41.6561L38.9568 41.1241C39.4048 41.4881 39.8785 41.6701 40.3778 41.6701C41.0592 41.6701 41.3998 41.3831 41.3998 40.8091C41.3998 40.5291 41.3112 40.3214 41.1338 40.1861C40.9565 40.0461 40.6882 39.9761 40.3288 39.9761H39.7198V39.3881H40.2168C40.5622 39.3881 40.8258 39.3157 41.0078 39.1711C41.1898 39.0264 41.2808 38.8164 41.2808 38.5411C41.2808 38.2891 41.2038 38.0954 41.0498 37.9601C40.9005 37.8247 40.6882 37.7571 40.4128 37.7571C39.9462 37.7571 39.4842 37.9391 39.0268 38.3031L38.7678 37.7711C38.9638 37.5844 39.2112 37.4374 39.5098 37.3301C39.8132 37.2227 40.1258 37.1691 40.4478 37.1691C40.9145 37.1691 41.2855 37.2857 41.5608 37.5191C41.8408 37.7477 41.9808 38.0581 41.9808 38.4501C41.9808 38.7347 41.9132 38.9821 41.7778 39.1921C41.6425 39.4021 41.4512 39.5537 41.2038 39.6471ZM46.9131 41.1731H46.1781V42.2091H45.4641V41.1731H43.2311V40.6341L45.5971 37.2251H46.1781V40.5921H46.9131V41.1731ZM45.4641 40.5921V38.3941L43.9381 40.5921H45.4641ZM50.3614 39.6471C50.6834 39.7357 50.933 39.8874 51.1104 40.1021C51.2924 40.3167 51.3834 40.5757 51.3834 40.8791C51.3834 41.3084 51.2177 41.6467 50.8864 41.8941C50.5597 42.1367 50.1187 42.2581 49.5634 42.2581C49.008 42.2581 48.5647 42.1367 48.2334 41.8941C47.9067 41.6467 47.7434 41.3084 47.7434 40.8791C47.7434 40.5711 47.8344 40.3097 48.0164 40.0951C48.1984 39.8804 48.4527 39.7311 48.7794 39.6471C48.49 39.5537 48.2637 39.4067 48.1004 39.2061C47.9417 39.0054 47.8624 38.7697 47.8624 38.4991C47.8624 38.2331 47.9347 37.9997 48.0794 37.7991C48.224 37.5984 48.4247 37.4444 48.6814 37.3371C48.938 37.2251 49.232 37.1691 49.5634 37.1691C49.8947 37.1691 50.1887 37.2251 50.4454 37.3371C50.702 37.4444 50.9027 37.5984 51.0474 37.7991C51.192 37.9997 51.2644 38.2331 51.2644 38.4991C51.2644 38.7697 51.185 39.0077 51.0264 39.2131C50.8677 39.4137 50.646 39.5584 50.3614 39.6471ZM48.5554 38.5621C48.5554 38.8047 48.6464 39.0031 48.8284 39.1571C49.0104 39.3064 49.2554 39.4021 49.5634 39.4441C49.8714 39.4021 50.1164 39.3064 50.2984 39.1571C50.4804 39.0031 50.5714 38.8047 50.5714 38.5621C50.5714 38.3054 50.4804 38.1071 50.2984 37.9671C50.121 37.8224 49.876 37.7501 49.5634 37.7501C49.2507 37.7501 49.0034 37.8224 48.8214 37.9671C48.644 38.1071 48.5554 38.3054 48.5554 38.5621ZM49.5634 41.6771C49.9227 41.6771 50.2004 41.6047 50.3964 41.4601C50.5924 41.3154 50.6904 41.1054 50.6904 40.8301C50.6904 40.5734 50.5877 40.3704 50.3824 40.2211C50.1817 40.0671 49.9087 39.9691 49.5634 39.9271C49.218 39.9691 48.9427 40.0671 48.7374 40.2211C48.5367 40.3704 48.4364 40.5734 48.4364 40.8301C48.4364 41.1054 48.5344 41.3154 48.7304 41.4601C48.9264 41.6047 49.204 41.6771 49.5634 41.6771ZM60.9973 39.0521C61.3099 39.0521 61.5829 39.1197 61.8163 39.2551C62.0543 39.3857 62.2363 39.5724 62.3623 39.8151C62.4929 40.0531 62.5583 40.3284 62.5583 40.6411C62.5583 40.9631 62.4859 41.2454 62.3413 41.4881C62.2013 41.7307 61.9983 41.9197 61.7323 42.0551C61.4663 42.1904 61.1559 42.2581 60.8013 42.2581C60.4933 42.2581 60.1899 42.2044 59.8913 42.0971C59.5926 41.9897 59.3453 41.8427 59.1493 41.6561L59.4013 41.1241C59.8633 41.4881 60.3323 41.6701 60.8083 41.6701C61.1396 41.6701 61.3963 41.5814 61.5783 41.4041C61.7649 41.2221 61.8583 40.9724 61.8583 40.6551C61.8583 40.3517 61.7649 40.1067 61.5783 39.9201C61.3963 39.7334 61.1513 39.6401 60.8433 39.6401C60.3953 39.6401 60.0359 39.8104 59.7653 40.1511H59.2963V37.2251H62.3483V37.8061H60.0103V39.3881C60.2763 39.1641 60.6053 39.0521 60.9973 39.0521ZM65.1525 37.1691C65.7685 37.1691 66.2422 37.3791 66.5735 37.7991C66.9049 38.2191 67.0705 38.8211 67.0705 39.6051C67.0705 40.1604 66.9912 40.6387 66.8325 41.0401C66.6785 41.4367 66.4522 41.7401 66.1535 41.9501C65.8595 42.1601 65.5072 42.2651 65.0965 42.2651C64.8025 42.2651 64.5179 42.2137 64.2425 42.1111C63.9672 42.0037 63.7269 41.8544 63.5215 41.6631L63.7735 41.1311C64.0069 41.3224 64.2285 41.4624 64.4385 41.5511C64.6532 41.6351 64.8655 41.6771 65.0755 41.6771C65.4815 41.6771 65.7942 41.4997 66.0135 41.1451C66.2375 40.7857 66.3495 40.2771 66.3495 39.6191V39.5981C66.2469 39.8407 66.0789 40.0321 65.8455 40.1721C65.6169 40.3121 65.3532 40.3821 65.0545 40.3821C64.7559 40.3821 64.4899 40.3167 64.2565 40.1861C64.0232 40.0507 63.8412 39.8641 63.7105 39.6261C63.5799 39.3834 63.5145 39.1057 63.5145 38.7931C63.5145 38.4804 63.5845 38.2027 63.7245 37.9601C63.8645 37.7127 64.0582 37.5191 64.3055 37.3791C64.5575 37.2391 64.8399 37.1691 65.1525 37.1691ZM65.1875 39.7941C65.4862 39.7941 65.7289 39.7007 65.9155 39.5141C66.1022 39.3227 66.1955 39.0777 66.1955 38.7791C66.1955 38.4757 66.1022 38.2307 65.9155 38.0441C65.7289 37.8527 65.4862 37.7571 65.1875 37.7571C64.8935 37.7571 64.6579 37.8504 64.4805 38.0371C64.3032 38.2237 64.2145 38.4711 64.2145 38.7791C64.2145 39.0824 64.3032 39.3274 64.4805 39.5141C64.6625 39.7007 64.8982 39.7941 65.1875 39.7941ZM71.7508 41.1731H71.0158V42.2091H70.3018V41.1731H68.0688V40.6341L70.4348 37.2251H71.0158V40.5921H71.7508V41.1731ZM70.3018 40.5921V38.3941L68.7758 40.5921H70.3018ZM74.6391 39.0521C74.9517 39.0521 75.2247 39.1197 75.4581 39.2551C75.6961 39.3857 75.8781 39.5724 76.0041 39.8151C76.1347 40.0531 76.2001 40.3284 76.2001 40.6411C76.2001 40.9631 76.1277 41.2454 75.9831 41.4881C75.8431 41.7307 75.6401 41.9197 75.3741 42.0551C75.1081 42.1904 74.7977 42.2581 74.4431 42.2581C74.1351 42.2581 73.8317 42.2044 73.5331 42.0971C73.2344 41.9897 72.9871 41.8427 72.7911 41.6561L73.0431 41.1241C73.5051 41.4881 73.9741 41.6701 74.4501 41.6701C74.7814 41.6701 75.0381 41.5814 75.2201 41.4041C75.4067 41.2221 75.5001 40.9724 75.5001 40.6551C75.5001 40.3517 75.4067 40.1067 75.2201 39.9201C75.0381 39.7334 74.7931 39.6401 74.4851 39.6401C74.0371 39.6401 73.6777 39.8104 73.4071 40.1511H72.9381V37.2251H75.9901V37.8061H73.6521V39.3881C73.9181 39.1641 74.2471 39.0521 74.6391 39.0521ZM85.835 39.0521C86.1476 39.0521 86.4206 39.1197 86.654 39.2551C86.892 39.3857 87.074 39.5724 87.2 39.8151C87.3306 40.0531 87.396 40.3284 87.396 40.6411C87.396 40.9631 87.3236 41.2454 87.179 41.4881C87.039 41.7307 86.836 41.9197 86.57 42.0551C86.304 42.1904 85.9936 42.2581 85.639 42.2581C85.331 42.2581 85.0276 42.2044 84.729 42.0971C84.4303 41.9897 84.183 41.8427 83.987 41.6561L84.239 41.1241C84.701 41.4881 85.17 41.6701 85.646 41.6701C85.9773 41.6701 86.234 41.5814 86.416 41.4041C86.6026 41.2221 86.696 40.9724 86.696 40.6551C86.696 40.3517 86.6026 40.1067 86.416 39.9201C86.234 39.7334 85.989 39.6401 85.681 39.6401C85.233 39.6401 84.8736 39.8104 84.603 40.1511H84.134V37.2251H87.186V37.8061H84.848V39.3881C85.114 39.1641 85.443 39.0521 85.835 39.0521ZM90.1442 42.2651C89.5656 42.2651 89.1246 42.0481 88.8212 41.6141C88.5179 41.1801 88.3662 40.5477 88.3662 39.7171C88.3662 38.8864 88.5179 38.2541 88.8212 37.8201C89.1246 37.3861 89.5656 37.1691 90.1442 37.1691C90.7229 37.1691 91.1639 37.3861 91.4672 37.8201C91.7706 38.2494 91.9222 38.8794 91.9222 39.7101C91.9222 40.5454 91.7706 41.1801 91.4672 41.6141C91.1639 42.0481 90.7229 42.2651 90.1442 42.2651ZM90.1442 41.6841C90.5036 41.6841 90.7672 41.5254 90.9352 41.2081C91.1079 40.8861 91.1942 40.3867 91.1942 39.7101C91.1942 39.0334 91.1102 38.5387 90.9422 38.2261C90.7742 37.9134 90.5082 37.7571 90.1442 37.7571C89.7849 37.7571 89.5189 37.9157 89.3462 38.2331C89.1782 38.5457 89.0942 39.0381 89.0942 39.7101C89.0942 40.3867 89.1782 40.8861 89.3462 41.2081C89.5189 41.5254 89.7849 41.6841 90.1442 41.6841ZM96.5885 41.1731H95.8535V42.2091H95.1395V41.1731H92.9065V40.6341L95.2725 37.2251H95.8535V40.5921H96.5885V41.1731ZM95.1395 40.5921V38.3941L93.6135 40.5921H95.1395ZM99.4768 39.0521C99.7894 39.0521 100.062 39.1197 100.296 39.2551C100.534 39.3857 100.716 39.5724 100.842 39.8151C100.972 40.0531 101.038 40.3284 101.038 40.6411C101.038 40.9631 100.965 41.2454 100.821 41.4881C100.681 41.7307 100.478 41.9197 100.212 42.0551C99.9458 42.1904 99.6354 42.2581 99.2808 42.2581C98.9728 42.2581 98.6694 42.2044 98.3708 42.0971C98.0721 41.9897 97.8248 41.8427 97.6288 41.6561L97.8808 41.1241C98.3428 41.4881 98.8118 41.6701 99.2878 41.6701C99.6191 41.6701 99.8758 41.5814 100.058 41.4041C100.244 41.2221 100.338 40.9724 100.338 40.6551C100.338 40.3517 100.244 40.1067 100.058 39.9201C99.8758 39.7334 99.6308 39.6401 99.3228 39.6401C98.8748 39.6401 98.5154 39.8104 98.2448 40.1511H97.7758V37.2251H100.828V37.8061H98.4898V39.3881C98.7558 39.1641 99.0848 39.0521 99.4768 39.0521Z" fill="#FFFBFB"/>
<path d="M89.6539 9.31058C89.8192 9.35858 89.9472 9.44258 90.0379 9.56258C90.1285 9.68258 90.1739 9.82924 90.1739 10.0026C90.1739 10.2426 90.0845 10.4332 89.9059 10.5746C89.7272 10.7132 89.4845 10.7826 89.1779 10.7826H87.8259V7.93458H89.1379C89.4339 7.93458 89.6672 8.00124 89.8379 8.13458C90.0112 8.26524 90.0979 8.44524 90.0979 8.67458C90.0979 8.82391 90.0579 8.95458 89.9779 9.06658C89.9005 9.17858 89.7925 9.25991 89.6539 9.31058ZM88.4339 9.09458H89.0339C89.1939 9.09458 89.3125 9.06791 89.3899 9.01458C89.4699 8.95858 89.5099 8.87324 89.5099 8.75858C89.5099 8.64124 89.4699 8.55458 89.3899 8.49858C89.3125 8.44258 89.1939 8.41458 89.0339 8.41458H88.4339V9.09458ZM89.1059 10.3026C89.2739 10.3026 89.3952 10.2746 89.4699 10.2186C89.5472 10.1599 89.5859 10.0679 89.5859 9.94258C89.5859 9.81458 89.5472 9.72124 89.4699 9.66258C89.3952 9.60391 89.2739 9.57458 89.1059 9.57458H88.4339V10.3026H89.1059ZM92.603 8.75458V10.7826H92.007V10.4826C91.9457 10.5866 91.859 10.6679 91.747 10.7266C91.635 10.7852 91.5083 10.8146 91.367 10.8146C91.191 10.8146 91.035 10.7719 90.899 10.6866C90.7657 10.6012 90.6603 10.4799 90.583 10.3226C90.5083 10.1626 90.471 9.97858 90.471 9.77058C90.471 9.56258 90.5083 9.37724 90.583 9.21458C90.6603 9.05191 90.767 8.92658 90.903 8.83858C91.039 8.74791 91.1937 8.70258 91.367 8.70258C91.5083 8.70258 91.635 8.73324 91.747 8.79458C91.859 8.85591 91.9457 8.93858 92.007 9.04258V8.75458H92.603ZM91.543 10.3546C91.6923 10.3546 91.807 10.3039 91.887 10.2026C91.967 10.1012 92.007 9.95458 92.007 9.76258C92.007 9.57058 91.967 9.42391 91.887 9.32258C91.807 9.21858 91.6923 9.16658 91.543 9.16658C91.3937 9.16658 91.2777 9.21991 91.195 9.32658C91.1123 9.43324 91.071 9.58124 91.071 9.77058C91.071 9.95991 91.111 10.1052 91.191 10.2066C91.2737 10.3052 91.391 10.3546 91.543 10.3546ZM94.3425 8.70258C94.8225 8.70258 95.0625 8.98658 95.0625 9.55458V10.7826H94.4585V9.58258C94.4585 9.44124 94.4319 9.33858 94.3785 9.27458C94.3279 9.20791 94.2465 9.17458 94.1345 9.17458C94.0012 9.17458 93.8945 9.21724 93.8145 9.30258C93.7345 9.38791 93.6945 9.50258 93.6945 9.64658V10.7826H93.0905V9.33458C93.0905 9.11858 93.0799 8.92524 93.0585 8.75458H93.6265L93.6665 9.07458C93.7385 8.95458 93.8319 8.86258 93.9465 8.79858C94.0639 8.73458 94.1959 8.70258 94.3425 8.70258ZM96.9437 10.7826L96.1477 9.87458V10.7826H95.5437V7.83858H96.1477V9.62658L96.9077 8.75858H97.6317L96.7717 9.73058L97.6837 10.7826H96.9437ZM101.47 7.93458V10.7826H101.006L99.5856 8.96658V10.7826H99.0016V7.93458H99.4616L100.882 9.74658V7.93458H101.47ZM104.033 8.75458V10.7826H103.437V10.4826C103.375 10.5866 103.289 10.6679 103.177 10.7266C103.065 10.7852 102.938 10.8146 102.797 10.8146C102.621 10.8146 102.465 10.7719 102.329 10.6866C102.195 10.6012 102.09 10.4799 102.013 10.3226C101.938 10.1626 101.901 9.97858 101.901 9.77058C101.901 9.56258 101.938 9.37724 102.013 9.21458C102.09 9.05191 102.197 8.92658 102.333 8.83858C102.469 8.74791 102.623 8.70258 102.797 8.70258C102.938 8.70258 103.065 8.73324 103.177 8.79458C103.289 8.85591 103.375 8.93858 103.437 9.04258V8.75458H104.033ZM102.973 10.3546C103.122 10.3546 103.237 10.3039 103.317 10.2026C103.397 10.1012 103.437 9.95458 103.437 9.76258C103.437 9.57058 103.397 9.42391 103.317 9.32258C103.237 9.21858 103.122 9.16658 102.973 9.16658C102.823 9.16658 102.707 9.21991 102.625 9.32658C102.542 9.43324 102.501 9.58124 102.501 9.77058C102.501 9.95991 102.541 10.1052 102.621 10.2066C102.703 10.3052 102.821 10.3546 102.973 10.3546ZM107 8.70258C107.232 8.70258 107.404 8.77324 107.516 8.91458C107.631 9.05324 107.688 9.26658 107.688 9.55458V10.7826H107.084V9.57458C107.084 9.43324 107.062 9.33191 107.016 9.27058C106.971 9.20658 106.896 9.17458 106.792 9.17458C106.67 9.17458 106.575 9.21724 106.508 9.30258C106.442 9.38791 106.408 9.50791 106.408 9.66258V10.7826H105.804V9.57458C105.804 9.43591 105.78 9.33458 105.732 9.27058C105.687 9.20658 105.614 9.17458 105.512 9.17458C105.39 9.17458 105.294 9.21724 105.224 9.30258C105.158 9.38791 105.124 9.50791 105.124 9.66258V10.7826H104.52V9.33458C104.52 9.11858 104.51 8.92524 104.488 8.75458H105.056L105.092 9.05858C105.154 8.94391 105.239 8.85591 105.348 8.79458C105.46 8.73324 105.588 8.70258 105.732 8.70258C106.034 8.70258 106.234 8.82791 106.332 9.07858C106.399 8.96391 106.491 8.87324 106.608 8.80658C106.728 8.73724 106.859 8.70258 107 8.70258ZM109.985 9.81858H108.649C108.659 10.0079 108.709 10.1466 108.797 10.2346C108.885 10.3199 109.015 10.3626 109.189 10.3626C109.293 10.3626 109.397 10.3452 109.501 10.3106C109.605 10.2759 109.701 10.2252 109.789 10.1586L109.949 10.5666C109.853 10.6439 109.733 10.7052 109.589 10.7506C109.447 10.7932 109.305 10.8146 109.161 10.8146C108.819 10.8146 108.551 10.7212 108.357 10.5346C108.162 10.3452 108.065 10.0879 108.065 9.76258C108.065 9.55724 108.106 9.37458 108.189 9.21458C108.274 9.05191 108.393 8.92658 108.545 8.83858C108.697 8.74791 108.869 8.70258 109.061 8.70258C109.346 8.70258 109.571 8.79591 109.737 8.98258C109.902 9.16658 109.985 9.41591 109.985 9.73058V9.81858ZM109.077 9.12658C108.962 9.12658 108.869 9.15991 108.797 9.22658C108.727 9.29324 108.682 9.39058 108.661 9.51858H109.465C109.433 9.25724 109.303 9.12658 109.077 9.12658Z" fill="#FFFBFB"/>
<path d="M8.5789 7.64658H9.3649C9.7149 7.64658 9.9859 7.73958 10.1779 7.92558C10.3719 8.11158 10.4689 8.37358 10.4689 8.71158C10.4689 9.05158 10.3719 9.31558 10.1779 9.50358C9.9859 9.68958 9.7149 9.78258 9.3649 9.78258H8.5789V7.64658ZM9.3409 9.46758C9.8329 9.46758 10.0789 9.21558 10.0789 8.71158C10.0789 8.21158 9.8329 7.96158 9.3409 7.96158H8.9659V9.46758H9.3409ZM12.1631 9.04458H11.1191C11.1271 9.20658 11.1671 9.32658 11.2391 9.40458C11.3131 9.48058 11.4221 9.51858 11.5661 9.51858C11.7321 9.51858 11.8861 9.46458 12.0281 9.35658L12.1361 9.61458C12.0641 9.67258 11.9751 9.71958 11.8691 9.75558C11.7651 9.78958 11.6591 9.80658 11.5511 9.80658C11.3031 9.80658 11.1081 9.73658 10.9661 9.59658C10.8241 9.45658 10.7531 9.26458 10.7531 9.02058C10.7531 8.86658 10.7841 8.72958 10.8461 8.60958C10.9081 8.48958 10.9951 8.39658 11.1071 8.33058C11.2191 8.26258 11.3461 8.22858 11.4881 8.22858C11.6961 8.22858 11.8601 8.29658 11.9801 8.43258C12.1021 8.56658 12.1631 8.75158 12.1631 8.98758V9.04458ZM11.4971 8.49858C11.3971 8.49858 11.3151 8.52858 11.2511 8.58858C11.1891 8.64658 11.1491 8.73158 11.1311 8.84358H11.8361C11.8241 8.72958 11.7891 8.64358 11.7311 8.58558C11.6751 8.52758 11.5971 8.49858 11.4971 8.49858ZM13.3446 8.22858C13.4766 8.22858 13.5926 8.26158 13.6926 8.32758C13.7946 8.39158 13.8736 8.48258 13.9296 8.60058C13.9856 8.71858 14.0136 8.85558 14.0136 9.01158C14.0136 9.16758 13.9846 9.30658 13.9266 9.42858C13.8706 9.54858 13.7916 9.64158 13.6896 9.70758C13.5896 9.77358 13.4746 9.80658 13.3446 9.80658C13.2326 9.80658 13.1326 9.78258 13.0446 9.73458C12.9586 9.68658 12.8936 9.61958 12.8496 9.53358V9.78258H12.4806V7.57458H12.8526V8.49558C12.8986 8.41158 12.9646 8.34658 13.0506 8.30058C13.1366 8.25258 13.2346 8.22858 13.3446 8.22858ZM13.2456 9.51258C13.3696 9.51258 13.4656 9.46858 13.5336 9.38058C13.6016 9.29258 13.6356 9.16958 13.6356 9.01158C13.6356 8.85558 13.6016 8.73558 13.5336 8.65158C13.4656 8.56558 13.3686 8.52258 13.2426 8.52258C13.1166 8.52258 13.0196 8.56558 12.9516 8.65158C12.8836 8.73758 12.8496 8.85958 12.8496 9.01758C12.8496 9.17758 12.8836 9.30058 12.9516 9.38658C13.0196 9.47058 13.1176 9.51258 13.2456 9.51258ZM14.341 8.26758H14.713V9.78258H14.341V8.26758ZM14.734 7.58058V7.94958H14.317V7.58058H14.734ZM15.6002 8.54958V9.22758C15.6002 9.40558 15.6832 9.49458 15.8492 9.49458C15.8952 9.49458 15.9452 9.48658 15.9992 9.47058V9.76758C15.9332 9.79158 15.8532 9.80358 15.7592 9.80358C15.5872 9.80358 15.4552 9.75558 15.3632 9.65958C15.2712 9.56358 15.2252 9.42558 15.2252 9.24558V8.54958H14.9342V8.26758H15.2252V7.89858L15.6002 7.77258V8.26758H16.0022V8.54958H15.6002ZM16.7054 9.36258V9.78258H16.2854V9.36258H16.7054Z" fill="#FFFBFB"/>
<ellipse cx="103.956" cy="62.2025" rx="3.76777" ry="3.76777" fill="#F79E1B"/>
<circle cx="99.246" cy="62.2025" r="3.76777" fill="url(#paint1_radial)"/>
<path d="M96.701 68.1281C96.8157 68.1281 96.901 68.1628 96.957 68.2321C97.013 68.3001 97.041 68.4041 97.041 68.5441V69.1641H96.791V68.5521C96.791 68.4721 96.7777 68.4148 96.751 68.3801C96.7257 68.3441 96.683 68.3261 96.623 68.3261C96.5537 68.3261 96.499 68.3508 96.459 68.4001C96.4204 68.4481 96.401 68.5148 96.401 68.6001V69.1641H96.151V68.5521C96.151 68.4735 96.137 68.4161 96.109 68.3801C96.0824 68.3441 96.0397 68.3261 95.981 68.3261C95.9117 68.3261 95.857 68.3508 95.817 68.4001C95.777 68.4481 95.757 68.5148 95.757 68.6001V69.1641H95.509V68.4401C95.509 68.3335 95.5037 68.2381 95.493 68.1541H95.727L95.745 68.3141C95.7744 68.2541 95.8164 68.2081 95.871 68.1761C95.927 68.1441 95.991 68.1281 96.063 68.1281C96.2177 68.1281 96.3184 68.1921 96.365 68.3201C96.397 68.2601 96.4424 68.2135 96.501 68.1801C96.561 68.1455 96.6277 68.1281 96.701 68.1281ZM98.2739 68.1541V69.1641H98.0279V69.0021C97.9972 69.0581 97.9532 69.1021 97.8959 69.1341C97.8385 69.1648 97.7732 69.1801 97.6999 69.1801C97.6119 69.1801 97.5339 69.1588 97.4659 69.1161C97.3979 69.0735 97.3452 69.0128 97.3079 68.9341C97.2705 68.8555 97.2519 68.7641 97.2519 68.6601C97.2519 68.5561 97.2705 68.4641 97.3079 68.3841C97.3465 68.3028 97.3999 68.2401 97.4679 68.1961C97.5359 68.1508 97.6132 68.1281 97.6999 68.1281C97.7732 68.1281 97.8385 68.1441 97.8959 68.1761C97.9532 68.2068 97.9972 68.2501 98.0279 68.3061V68.1541H98.2739ZM97.7679 68.9841C97.8505 68.9841 97.9145 68.9555 97.9599 68.8981C98.0052 68.8408 98.0279 68.7601 98.0279 68.6561C98.0279 68.5495 98.0052 68.4675 97.9599 68.4101C97.9145 68.3528 97.8499 68.3241 97.7659 68.3241C97.6832 68.3241 97.6185 68.3541 97.5719 68.4141C97.5265 68.4728 97.5039 68.5548 97.5039 68.6601C97.5039 68.7641 97.5265 68.8441 97.5719 68.9001C97.6185 68.9561 97.6839 68.9841 97.7679 68.9841ZM98.9162 69.1801C98.7335 69.1801 98.5882 69.1375 98.4802 69.0521L98.5502 68.8761C98.6582 68.9561 98.7815 68.9961 98.9202 68.9961C98.9802 68.9961 99.0262 68.9861 99.0582 68.9661C99.0915 68.9461 99.1082 68.9181 99.1082 68.8821C99.1082 68.8515 99.0968 68.8275 99.0742 68.8101C99.0515 68.7915 99.0128 68.7755 98.9582 68.7621L98.7902 68.7241C98.6062 68.6841 98.5142 68.5901 98.5142 68.4421C98.5142 68.3808 98.5315 68.3268 98.5662 68.2801C98.6008 68.2321 98.6495 68.1948 98.7122 68.1681C98.7748 68.1415 98.8475 68.1281 98.9302 68.1281C99.0022 68.1281 99.0715 68.1395 99.1382 68.1621C99.2048 68.1835 99.2635 68.2148 99.3142 68.2561L99.2402 68.4261C99.1388 68.3515 99.0348 68.3141 98.9282 68.3141C98.8708 68.3141 98.8262 68.3248 98.7942 68.3461C98.7622 68.3675 98.7462 68.3968 98.7462 68.4341C98.7462 68.4635 98.7555 68.4868 98.7742 68.5041C98.7942 68.5215 98.8275 68.5361 98.8742 68.5481L99.0462 68.5861C99.1462 68.6088 99.2188 68.6441 99.2642 68.6921C99.3108 68.7388 99.3342 68.8001 99.3342 68.8761C99.3342 68.9695 99.2968 69.0435 99.2222 69.0981C99.1475 69.1528 99.0455 69.1801 98.9162 69.1801ZM99.8563 68.3421V68.7941C99.8563 68.9128 99.9117 68.9721 100.022 68.9721C100.053 68.9721 100.086 68.9668 100.122 68.9561V69.1541C100.078 69.1701 100.025 69.1781 99.9623 69.1781C99.8477 69.1781 99.7597 69.1461 99.6983 69.0821C99.637 69.0181 99.6063 68.9261 99.6063 68.8061V68.3421H99.4123V68.1541H99.6063V67.9081L99.8563 67.8241V68.1541H100.124V68.3421H99.8563ZM101.18 68.6721H100.484C100.489 68.7801 100.516 68.8601 100.564 68.9121C100.613 68.9628 100.686 68.9881 100.782 68.9881C100.893 68.9881 100.995 68.9521 101.09 68.8801L101.162 69.0521C101.114 69.0908 101.055 69.1221 100.984 69.1461C100.915 69.1688 100.844 69.1801 100.772 69.1801C100.607 69.1801 100.477 69.1335 100.382 69.0401C100.287 68.9468 100.24 68.8188 100.24 68.6561C100.24 68.5535 100.261 68.4621 100.302 68.3821C100.343 68.3021 100.401 68.2401 100.476 68.1961C100.551 68.1508 100.635 68.1281 100.73 68.1281C100.869 68.1281 100.978 68.1735 101.058 68.2641C101.139 68.3535 101.18 68.4768 101.18 68.6341V68.6721ZM100.736 68.3081C100.669 68.3081 100.615 68.3281 100.572 68.3681C100.531 68.4068 100.504 68.4635 100.492 68.5381H100.962C100.954 68.4621 100.931 68.4048 100.892 68.3661C100.855 68.3275 100.803 68.3081 100.736 68.3081ZM101.936 68.1301C101.975 68.1301 102.008 68.1355 102.036 68.1461L102.034 68.3741C101.991 68.3568 101.947 68.3481 101.902 68.3481C101.817 68.3481 101.751 68.3728 101.706 68.4221C101.662 68.4715 101.64 68.5368 101.64 68.6181V69.1641H101.392V68.4401C101.392 68.3335 101.387 68.2381 101.376 68.1541H101.61L101.63 68.3321C101.655 68.2668 101.695 68.2168 101.75 68.1821C101.805 68.1475 101.867 68.1301 101.936 68.1301ZM102.614 69.1801C102.508 69.1801 102.417 69.1588 102.34 69.1161C102.262 69.0735 102.203 69.0135 102.162 68.9361C102.12 68.8575 102.1 68.7655 102.1 68.6601C102.1 68.5548 102.121 68.4621 102.164 68.3821C102.208 68.3021 102.269 68.2401 102.348 68.1961C102.428 68.1508 102.52 68.1281 102.624 68.1281C102.696 68.1281 102.765 68.1395 102.832 68.1621C102.9 68.1848 102.954 68.2161 102.994 68.2561L102.924 68.4321C102.881 68.3975 102.836 68.3715 102.788 68.3541C102.74 68.3355 102.692 68.3261 102.646 68.3261C102.555 68.3261 102.484 68.3548 102.434 68.4121C102.383 68.4681 102.358 68.5495 102.358 68.6561C102.358 68.7628 102.382 68.8441 102.432 68.9001C102.482 68.9561 102.554 68.9841 102.646 68.9841C102.692 68.9841 102.74 68.9748 102.788 68.9561C102.836 68.9375 102.881 68.9108 102.924 68.8761L102.994 69.0521C102.951 69.0921 102.896 69.1235 102.828 69.1461C102.76 69.1688 102.688 69.1801 102.614 69.1801ZM104.127 68.1541V69.1641H103.881V69.0021C103.851 69.0581 103.807 69.1021 103.749 69.1341C103.692 69.1648 103.627 69.1801 103.553 69.1801C103.465 69.1801 103.387 69.1588 103.319 69.1161C103.251 69.0735 103.199 69.0128 103.161 68.9341C103.124 68.8555 103.105 68.7641 103.105 68.6601C103.105 68.5561 103.124 68.4641 103.161 68.3841C103.2 68.3028 103.253 68.2401 103.321 68.1961C103.389 68.1508 103.467 68.1281 103.553 68.1281C103.627 68.1281 103.692 68.1441 103.749 68.1761C103.807 68.2068 103.851 68.2501 103.881 68.3061V68.1541H104.127ZM103.621 68.9841C103.704 68.9841 103.768 68.9555 103.813 68.8981C103.859 68.8408 103.881 68.7601 103.881 68.6561C103.881 68.5495 103.859 68.4675 103.813 68.4101C103.768 68.3528 103.703 68.3241 103.619 68.3241C103.537 68.3241 103.472 68.3541 103.425 68.4141C103.38 68.4728 103.357 68.5548 103.357 68.6601C103.357 68.7641 103.38 68.8441 103.425 68.9001C103.472 68.9561 103.537 68.9841 103.621 68.9841ZM104.944 68.1301C104.982 68.1301 105.016 68.1355 105.044 68.1461L105.042 68.3741C104.999 68.3568 104.955 68.3481 104.91 68.3481C104.824 68.3481 104.759 68.3728 104.714 68.4221C104.67 68.4715 104.648 68.5368 104.648 68.6181V69.1641H104.4V68.4401C104.4 68.3335 104.394 68.2381 104.384 68.1541H104.618L104.638 68.3321C104.663 68.2668 104.703 68.2168 104.758 68.1821C104.812 68.1475 104.874 68.1301 104.944 68.1301ZM106.129 67.6921V69.1641H105.883V69.0021C105.853 69.0581 105.809 69.1021 105.751 69.1341C105.694 69.1648 105.629 69.1801 105.555 69.1801C105.469 69.1801 105.391 69.1581 105.323 69.1141C105.255 69.0701 105.202 69.0081 105.163 68.9281C105.126 68.8468 105.107 68.7541 105.107 68.6501C105.107 68.5461 105.126 68.4548 105.163 68.3761C105.201 68.2975 105.253 68.2368 105.321 68.1941C105.389 68.1501 105.467 68.1281 105.555 68.1281C105.627 68.1281 105.691 68.1435 105.747 68.1741C105.805 68.2035 105.849 68.2455 105.879 68.3001V67.6921H106.129ZM105.621 68.9841C105.704 68.9841 105.768 68.9555 105.813 68.8981C105.86 68.8408 105.883 68.7595 105.883 68.6541C105.883 68.5488 105.861 68.4675 105.815 68.4101C105.77 68.3528 105.706 68.3241 105.623 68.3241C105.539 68.3241 105.474 68.3528 105.427 68.4101C105.382 68.4661 105.359 68.5461 105.359 68.6501C105.359 68.7555 105.382 68.8375 105.427 68.8961C105.474 68.9548 105.539 68.9841 105.621 68.9841Z" fill="white"/>
<defs>
<filter id="filter0_b" x="-17.444" y="-17.444" width="154.888" height="109.888" filterUnits="userSpaceOnUse" color-interpolation-filters="sRGB">
<feFlood flood-opacity="0" result="BackgroundImageFix"/>
<feGaussianBlur in="BackgroundImage" stdDeviation="8.72201"/>
<feComposite in2="SourceAlpha" operator="in" result="effect1_backgroundBlur"/>
<feBlend mode="normal" in="SourceGraphic" in2="effect1_backgroundBlur" result="shape"/>
</filter>
<linearGradient id="paint0_linear" x1="19.572" y1="24.3958" x2="8.98381" y2="32.7381" gradientUnits="userSpaceOnUse">
<stop stop-color="#E7BD61"/>
<stop offset="0.495738" stop-color="#FEE9BA"/>
<stop offset="1" stop-color="#E7BD61"/>
</linearGradient>
<radialGradient id="paint1_radial" cx="0" cy="0" r="1" gradientUnits="userSpaceOnUse" gradientTransform="translate(103.014 62.2025) rotate(-180) scale(5.10219)">
<stop stop-color="#EB001B" stop-opacity="0.92"/>
<stop offset="0.110299" stop-color="#EB001B" stop-opacity="0.803455"/>
<stop offset="1" stop-color="#EB001B"/>
</radialGradient>
</defs>
</svg>
