<svg width="24" height="24" viewBox="0 0 24 24" fill="none" xmlns="http://www.w3.org/2000/svg">
<path d="M21.6737 18.5534C21.0308 17.9802 20.468 17.3232 20.0004 16.6C19.4898 15.6017 19.1839 14.5115 19.1004 13.3934V10.1C19.1048 8.34376 18.4677 6.64633 17.3089 5.32666C16.15 4.007 14.5491 3.15592 12.807 2.93335V2.07335C12.807 1.83731 12.7133 1.61093 12.5464 1.44402C12.3794 1.27712 12.1531 1.18335 11.917 1.18335C11.681 1.18335 11.4546 1.27712 11.2877 1.44402C11.1208 1.61093 11.027 1.83731 11.027 2.07335V2.94668C9.30053 3.1853 7.71901 4.04152 6.57538 5.35675C5.43175 6.67199 4.80351 8.35711 4.80702 10.1V13.3934C4.72353 14.5115 4.41754 15.6017 3.90703 16.6C3.44761 17.3216 2.89382 17.9785 2.26036 18.5534C2.18925 18.6158 2.13225 18.6927 2.09317 18.7789C2.05409 18.8651 2.03381 18.9587 2.03369 19.0534V19.96C2.03369 20.1368 2.10393 20.3064 2.22895 20.4314C2.35398 20.5564 2.52355 20.6267 2.70036 20.6267H21.2337C21.4105 20.6267 21.5801 20.5564 21.7051 20.4314C21.8301 20.3064 21.9004 20.1368 21.9004 19.96V19.0534C21.9002 18.9587 21.88 18.8651 21.8409 18.7789C21.8018 18.6927 21.7448 18.6158 21.6737 18.5534ZM3.42036 19.2934C4.04063 18.6942 4.58676 18.0227 5.04703 17.2934C5.6901 16.0877 6.06531 14.7574 6.14703 13.3934V10.1C6.12059 9.31871 6.25164 8.54007 6.53239 7.81046C6.81314 7.08086 7.23783 6.41521 7.78119 5.85315C8.32455 5.2911 8.97545 4.84413 9.69515 4.53887C10.4148 4.2336 11.1886 4.07629 11.9704 4.07629C12.7521 4.07629 13.5259 4.2336 14.2456 4.53887C14.9653 4.84413 15.6162 5.2911 16.1595 5.85315C16.7029 6.41521 17.1276 7.08086 17.4083 7.81046C17.6891 8.54007 17.8201 9.31871 17.7937 10.1V13.3934C17.8754 14.7574 18.2506 16.0877 18.8937 17.2934C19.354 18.0227 19.9001 18.6942 20.5204 19.2934H3.42036Z" fill="#303030" stroke="#858585"/>
<path d="M12 22.8534C12.42 22.8437 12.823 22.6858 13.1378 22.4076C13.4525 22.1295 13.6588 21.749 13.72 21.3334H10.2134C10.2764 21.7602 10.4923 22.1497 10.8209 22.4293C11.1496 22.7089 11.5686 22.8596 12 22.8534Z" fill="#303030"/>
</svg>
