<svg width="23" height="21" viewBox="0 0 23 21" fill="none" xmlns="http://www.w3.org/2000/svg">
<g clip-path="url(#clip0)">
<path d="M4.6001 3.60109V18.2426C4.6001 18.728 4.8002 19.1935 5.15637 19.5367C5.51255 19.8799 5.99563 20.0728 6.49934 20.0728H17.8948C18.3985 20.0728 18.8816 19.8799 19.2378 19.5367C19.5939 19.1935 19.794 18.728 19.794 18.2426V7.57442C19.794 7.33061 19.7434 7.08925 19.6452 6.86454C19.5471 6.63982 19.4033 6.43627 19.2224 6.26584L15.006 2.29251C14.6512 1.95819 14.1747 1.77096 13.6785 1.7709H6.49934C5.99563 1.7709 5.51255 1.96373 5.15637 2.30695C4.8002 2.65018 4.6001 3.11569 4.6001 3.60109V3.60109Z" stroke="#606060" stroke-width="1.5" stroke-linecap="round" stroke-linejoin="round"/>
<path d="M14.0964 1.7709V5.43128C14.0964 5.91667 14.2965 6.38219 14.6527 6.72541C15.0089 7.06864 15.492 7.26146 15.9957 7.26146H19.7942" stroke="#606060" stroke-width="1.5" stroke-linejoin="round"/>
</g>
<defs>
<clipPath id="clip0">
<rect width="21.7059" height="20.9167" fill="white" transform="translate(0.982422 0.027832)"/>
</clipPath>
</defs>
</svg>
