<svg width="22" height="21" viewBox="0 0 22 21" fill="none" xmlns="http://www.w3.org/2000/svg">
<path d="M16.2561 17.6065V1.96363C16.2552 1.67432 16.1356 1.39711 15.9233 1.19254C15.711 0.987965 15.4233 0.872666 15.1231 0.871826H2.28241C1.98219 0.872666 1.69451 0.987965 1.48223 1.19254C1.26994 1.39711 1.15029 1.67432 1.14941 1.96363V17.9768C1.15091 18.4589 1.35034 18.9209 1.70414 19.2619C2.05795 19.6028 2.53739 19.795 3.03775 19.7964H18.5221" stroke="#606060" stroke-width="1.3" stroke-linejoin="round"/>
<path d="M18.5223 19.7965C17.9214 19.7965 17.345 19.5664 16.92 19.1569C16.4951 18.7474 16.2563 18.192 16.2563 17.6129V4.51122H19.6553C19.9558 4.51122 20.244 4.62624 20.4565 4.831C20.669 5.03575 20.7883 5.31345 20.7883 5.60302V17.6129C20.7883 18.192 20.5496 18.7474 20.1246 19.1569C19.6997 19.5664 19.1233 19.7965 18.5223 19.7965Z" stroke="#606060" stroke-width="1.3" stroke-linejoin="round"/>
<path d="M10.2136 4.51122H13.235" stroke="#606060" stroke-width="1.3" stroke-linecap="round" stroke-linejoin="round"/>
<path d="M10.2136 7.42267H13.235" stroke="#606060" stroke-width="1.3" stroke-linecap="round" stroke-linejoin="round"/>
<path d="M4.1709 10.3341H13.2349" stroke="#606060" stroke-width="1.3" stroke-linecap="round" stroke-linejoin="round"/>
<path d="M4.1709 13.2456H13.2349" stroke="#606060" stroke-width="1.3" stroke-linecap="round" stroke-linejoin="round"/>
<path d="M4.1709 16.157H13.2349" stroke="#606060" stroke-width="1.3" stroke-linecap="round" stroke-linejoin="round"/>
<path d="M7.19195 8.1505H4.17062C3.97029 8.1505 3.77817 8.07381 3.63652 7.93731C3.49486 7.80081 3.41528 7.61567 3.41528 7.42263V4.51115C3.41528 4.31811 3.49486 4.13297 3.63652 3.99647C3.77817 3.85997 3.97029 3.78328 4.17062 3.78328H7.19195C7.39227 3.78328 7.5844 3.85997 7.72605 3.99647C7.8677 4.13297 7.94728 4.31811 7.94728 4.51115V7.42263C7.94728 7.61567 7.8677 7.80081 7.72605 7.93731C7.5844 8.07381 7.39227 8.1505 7.19195 8.1505Z" fill="#606060"/>
</svg>
