<svg width="20" height="20" viewBox="0 0 20 20" fill="none" xmlns="http://www.w3.org/2000/svg">
<path d="M18.8256 2.42807H14.8405V0.965153C14.8405 0.864577 14.7551 0.782288 14.6508 0.782288H13.3224C13.218 0.782288 13.1326 0.864577 13.1326 0.965153V2.42807H7.06016V0.965153C7.06016 0.864577 6.97477 0.782288 6.8704 0.782288H5.54204C5.43767 0.782288 5.35228 0.864577 5.35228 0.965153V2.42807H1.36721C0.947359 2.42807 0.608154 2.75495 0.608154 3.15954V18.3373C0.608154 18.7419 0.947359 19.0688 1.36721 19.0688H18.8256C19.2454 19.0688 19.5847 18.7419 19.5847 18.3373V3.15954C19.5847 2.75495 19.2454 2.42807 18.8256 2.42807ZM17.8768 17.423H2.31604V8.73692H17.8768V17.423ZM2.31604 7.18257V4.07386H5.35228V5.17105C5.35228 5.27163 5.43767 5.35392 5.54204 5.35392H6.8704C6.97477 5.35392 7.06016 5.27163 7.06016 5.17105V4.07386H13.1326V5.17105C13.1326 5.27163 13.218 5.35392 13.3224 5.35392H14.6508C14.7551 5.35392 14.8405 5.27163 14.8405 5.17105V4.07386H17.8768V7.18257H2.31604Z" fill="#767676"/>
</svg>
