<svg width="79" height="66" viewBox="0 0 79 66" fill="none" xmlns="http://www.w3.org/2000/svg">
<g clip-path="url(#clip0)">
<g opacity="0.8">
<path opacity="0.8" d="M72.0722 62.183H4.95264V15.7041C4.95264 15.3153 5.09688 14.9425 5.35363 14.6676C5.61038 14.3927 5.95861 14.2383 6.32172 14.2383H70.7031C71.0662 14.2383 71.4144 14.3927 71.6712 14.6676C71.9279 14.9425 72.0722 15.3153 72.0722 15.7041V62.183Z" fill="url(#paint0_linear)"/>
</g>
<path d="M7.24305 15.0825H69.7779C70.141 15.0825 70.4893 15.237 70.746 15.5118C71.0028 15.7867 71.147 16.1596 71.147 16.5483V62.183H5.87744V16.5492C5.87721 16.161 6.02088 15.7885 6.2769 15.5135C6.53293 15.2385 6.8804 15.0835 7.24305 15.0825Z" fill="white"/>
<path d="M69.0455 17.823H7.97852V60.7069H69.0455V17.823Z" fill="#F5F5F5"/>
<path opacity="0.8" d="M69.0203 19.9048H8.2124V58.4869H69.0203V19.9048Z" fill="#E0E0E0"/>
<path d="M69.0203 17.8545H8.2124V19.9048H69.0203V17.8545Z" fill="#F5F5F5"/>
<path d="M9.51669 19.3463C9.7732 19.3463 9.98114 19.1237 9.98114 18.8491C9.98114 18.5744 9.7732 18.3518 9.51669 18.3518C9.26019 18.3518 9.05225 18.5744 9.05225 18.8491C9.05225 19.1237 9.26019 19.3463 9.51669 19.3463Z" fill="#FF5252"/>
<path d="M10.7931 19.3463C11.0496 19.3463 11.2575 19.1237 11.2575 18.8491C11.2575 18.5744 11.0496 18.3518 10.7931 18.3518C10.5366 18.3518 10.3286 18.5744 10.3286 18.8491C10.3286 19.1237 10.5366 19.3463 10.7931 19.3463Z" fill="#FFFF00"/>
<path d="M12.0704 19.3463C12.3269 19.3463 12.5349 19.1237 12.5349 18.8491C12.5349 18.5744 12.3269 18.3518 12.0704 18.3518C11.8139 18.3518 11.606 18.5744 11.606 18.8491C11.606 19.1237 11.8139 19.3463 12.0704 19.3463Z" fill="#69F0AE"/>
<g opacity="0.8">
<path opacity="0.8" d="M73.9502 65.2648C70.2138 65.5681 6.04906 65.4503 3.80741 65.2648C0.868219 63.7479 0.921942 57.8625 0.921942 57.8625L30.3485 57.6519L30.4473 59.4433H43.0393L43.5315 57.8662H76.1416C76.1416 57.8662 76.7898 63.2618 73.9502 65.2648Z" fill="url(#paint1_linear)"/>
</g>
<path d="M75.6641 58.3364H43.6901C43.8132 58.489 43.8928 58.6762 43.9194 58.8758C43.9459 59.0754 43.9182 59.279 43.8397 59.4623C43.7611 59.6455 43.635 59.8007 43.4764 59.9094C43.3177 60.018 43.1332 60.0755 42.9449 60.075H30.7375C30.5492 60.0755 30.3647 60.018 30.2061 59.9094C30.0474 59.8007 29.9213 59.6455 29.8427 59.4623C29.7642 59.279 29.7365 59.0754 29.7631 58.8758C29.7896 58.6762 29.8692 58.489 29.9924 58.3364H1.36041C1.36041 58.3364 1.31101 63.4472 4.21468 64.7683C6.4286 64.926 69.8092 65.0318 73.4996 64.7683C76.308 63.0251 75.6641 58.3364 75.6641 58.3364Z" fill="#F5F5F5"/>
<path d="M8.00329 59.8636C8.2203 59.8636 8.39622 59.6753 8.39622 59.4429C8.39622 59.2106 8.2203 59.0222 8.00329 59.0222C7.78627 59.0222 7.61035 59.2106 7.61035 59.4429C7.61035 59.6753 7.78627 59.8636 8.00329 59.8636Z" fill="#E0E0E0"/>
<path d="M9.18444 59.8636C9.40145 59.8636 9.57738 59.6753 9.57738 59.4429C9.57738 59.2106 9.40145 59.0222 9.18444 59.0222C8.96743 59.0222 8.7915 59.2106 8.7915 59.4429C8.7915 59.6753 8.96743 59.8636 9.18444 59.8636Z" fill="#E0E0E0"/>
<path d="M10.3646 59.8636C10.5816 59.8636 10.7576 59.6753 10.7576 59.4429C10.7576 59.2106 10.5816 59.0222 10.3646 59.0222C10.1476 59.0222 9.97168 59.2106 9.97168 59.4429C9.97168 59.6753 10.1476 59.8636 10.3646 59.8636Z" fill="#E0E0E0"/>
<path d="M37.3006 35.6853H40.0899C43.2958 35.6853 46.3704 37.0488 48.6373 39.4758C50.9042 41.9029 52.1777 45.1947 52.1777 48.627V58.0351H25.2129V48.627C25.2129 45.1947 26.4864 41.9029 28.7533 39.4758C31.0202 37.0488 34.0948 35.6853 37.3006 35.6853Z" fill="#9C27B0"/>
<path d="M38.7214 30.6535C45.5274 30.6535 51.0448 24.7463 51.0448 17.4594C51.0448 10.1726 45.5274 4.26538 38.7214 4.26538C31.9153 4.26538 26.3979 10.1726 26.3979 17.4594C26.3979 24.7463 31.9153 30.6535 38.7214 30.6535Z" fill="#333333"/>
<path opacity="0.1" d="M36.907 31.8428H40.4709C41.1373 31.8428 41.7765 32.1262 42.2477 32.6308C42.719 33.1353 42.9837 33.8196 42.9837 34.5332V37.1549C42.9837 38.2459 42.579 39.2922 41.8584 40.0636C41.1379 40.835 40.1607 41.2684 39.1417 41.2684H38.2327C37.2137 41.2684 36.2365 40.835 35.5159 40.0636C34.7954 39.2922 34.3906 38.2459 34.3906 37.1549V34.5369C34.3906 33.8233 34.6554 33.139 35.1266 32.6345C35.5979 32.1299 36.237 31.8465 36.9035 31.8465L36.907 31.8428Z" fill="black"/>
<path d="M34.3906 31.5737H42.9881V36.8896C42.9881 37.9805 42.5833 39.0268 41.8628 39.7983C41.1423 40.5697 40.165 41.0031 39.146 41.0031H38.2327C37.2137 41.0031 36.2365 40.5697 35.516 39.7983C34.7954 39.0268 34.3906 37.9805 34.3906 36.8896V31.5737Z" fill="#FDB797"/>
<path opacity="0.1" d="M34.4062 32.9013C37.1772 34.0096 40.2272 34.0185 43.0037 32.9263V31.7964H34.4062V32.9013Z" fill="black"/>
<path d="M38.7214 33.5173C45.5274 33.5173 51.0448 27.6101 51.0448 20.3232C51.0448 13.0363 45.5274 7.12915 38.7214 7.12915C31.9153 7.12915 26.3979 13.0363 26.3979 20.3232C26.3979 27.6101 31.9153 33.5173 38.7214 33.5173Z" fill="#FDB797"/>
<path opacity="0.1" d="M26.9395 15.653H50.4391C50.4391 15.653 48.4331 5.49354 39.5488 6.13645C30.6646 6.77936 26.9395 15.653 26.9395 15.653Z" fill="black"/>
<path d="M26.9395 15.3116H50.4391C50.4391 15.3116 48.4331 5.15216 39.5488 5.79971C30.6646 6.44726 26.9395 15.3116 26.9395 15.3116Z" fill="#333333"/>
<path d="M26.6527 22.0626C27.2859 22.0626 27.7991 21.0321 27.7991 19.7609C27.7991 18.4897 27.2859 17.4592 26.6527 17.4592C26.0196 17.4592 25.5063 18.4897 25.5063 19.7609C25.5063 21.0321 26.0196 22.0626 26.6527 22.0626Z" fill="#FDB797"/>
<path d="M50.726 22.0626C51.3591 22.0626 51.8724 21.0321 51.8724 19.7609C51.8724 18.4897 51.3591 17.4592 50.726 17.4592C50.0928 17.4592 49.5796 18.4897 49.5796 19.7609C49.5796 21.0321 50.0928 22.0626 50.726 22.0626Z" fill="#FDB797"/>
<path d="M28.7635 8.58009C29.0451 7.59485 29.5572 6.65321 30.3475 6.06596C30.948 5.61973 31.6663 5.40543 32.3552 5.14381C33.3744 4.75712 34.3527 4.25615 35.2736 3.64925C36.3186 2.95995 37.3003 2.12964 38.451 1.67413C40.431 0.890205 42.6363 1.31417 44.6804 1.87637C45.1838 2.0146 45.6933 2.16489 46.137 2.4562C46.6508 2.79296 47.045 3.2995 47.4298 3.79583L50.674 7.98542C50.9712 8.36857 51.2701 8.75636 51.4798 9.20166C51.6754 9.633 51.8003 10.0971 51.849 10.5738C51.9356 11.3419 51.868 12.1565 51.5024 12.8253C50.9539 13.8282 49.8231 14.332 48.7391 14.3784C47.6551 14.4247 46.591 14.088 45.5495 13.7614C42.1909 12.7085 38.7907 11.7269 35.3074 11.29C33.5787 11.0616 31.8342 11.001 30.0953 11.1091C29.5494 11.1471 28.8285 11.4152 28.4966 10.8196C28.2098 10.3029 28.6153 9.09776 28.7635 8.58009Z" fill="#333333"/>
<path opacity="0.05" d="M30.4912 47.7913V58.0352" stroke="black" stroke-width="4" stroke-miterlimit="10"/>
<path opacity="0.05" d="M47.1143 47.7913V58.0352" stroke="black" stroke-width="4" stroke-miterlimit="10"/>
<g opacity="0.8">
<path opacity="0.8" d="M78.9116 19.2294H63.448L58.229 23.8884V19.2294H54.75V0.816895H78.9116V19.2294Z" fill="url(#paint2_linear)"/>
</g>
<path d="M78.5842 1.03589H55.0776V18.6431H78.5842V1.03589Z" fill="white"/>
<path d="M76.3501 3.62427H57.7246V4.1475H76.3501V3.62427Z" fill="#E0E0E0"/>
<path d="M70.5298 5.98071H57.7246V6.50395H70.5298V5.98071Z" fill="#E0E0E0"/>
<path d="M73.0912 8.33618H57.7246V8.85942H73.0912V8.33618Z" fill="#E0E0E0"/>
<path d="M70.0645 10.6924H57.7246V11.2156H70.0645V10.6924Z" fill="#9C27B0"/>
<path d="M76.3501 13.0481H57.7246V13.5713H76.3501V13.0481Z" fill="#9C27B0"/>
<path d="M76.3501 15.4043H57.7246V15.9275H76.3501V15.4043Z" fill="#E0E0E0"/>
<path d="M59.0991 18.3007V22.9578L63.8831 17.835L59.0991 18.3007Z" fill="white"/>
</g>
<defs>
<linearGradient id="paint0_linear" x1="38.5124" y1="62.183" x2="38.5124" y2="14.2401" gradientUnits="userSpaceOnUse">
<stop stop-color="#808080" stop-opacity="0.25"/>
<stop offset="0.54" stop-color="#808080" stop-opacity="0.12"/>
<stop offset="1" stop-color="#808080" stop-opacity="0.1"/>
</linearGradient>
<linearGradient id="paint1_linear" x1="43995" y1="6283.78" x2="43995" y2="5628.29" gradientUnits="userSpaceOnUse">
<stop stop-color="#808080" stop-opacity="0.25"/>
<stop offset="0.54" stop-color="#808080" stop-opacity="0.12"/>
<stop offset="1" stop-color="#808080" stop-opacity="0.1"/>
</linearGradient>
<linearGradient id="paint2_linear" x1="18434" y1="5738.47" x2="18434" y2="0.816895" gradientUnits="userSpaceOnUse">
<stop stop-color="#808080" stop-opacity="0.25"/>
<stop offset="0.54" stop-color="#808080" stop-opacity="0.12"/>
<stop offset="1" stop-color="#808080" stop-opacity="0.1"/>
</linearGradient>
<clipPath id="clip0">
<rect width="77.9942" height="64.6316" fill="white" transform="translate(0.91748 0.816895)"/>
</clipPath>
</defs>
</svg>
