<svg width="73" height="51" viewBox="0 0 73 51" fill="none" xmlns="http://www.w3.org/2000/svg">
<g clip-path="url(#clip0)">
<path opacity="0.2" d="M9.88134 25.8071C8.93186 26.081 8.04317 26.7441 7.80599 27.6642C7.53471 28.7215 8.16028 29.7874 8.25071 30.873C8.54274 34.43 3.24319 36.9396 3.99921 40.4337C4.29939 41.8229 5.51273 42.8449 6.70828 43.6892C8.62353 45.0374 10.7485 46.2285 13.1018 46.5647C16.6737 47.0757 20.4056 45.5739 23.8773 46.5229C26.6776 47.2887 28.8204 49.5329 31.6013 50.3609C33.7182 50.9915 35.9988 50.7431 38.198 50.4876C39.3839 50.3503 40.6261 50.1918 41.583 49.5124C43.3619 48.2477 43.4738 45.7501 44.6649 43.9603C46.5046 41.2001 50.5381 40.658 53.9202 41.1945C57.3023 41.7309 60.5865 43.0515 64.0131 42.944C64.7454 42.9206 65.4955 42.8258 66.1344 42.4825C66.9111 42.0657 67.4359 41.3311 67.8999 40.6042C70.7998 36.0442 72.3916 30.8357 72.5153 25.5021C72.5353 24.5856 72.5013 23.6294 72.0499 22.8205C71.4791 21.7971 70.3384 21.1849 69.2029 20.7731C66.4761 19.7822 63.4638 19.6202 60.7918 18.5027C58.2147 17.4248 56.1275 15.5345 53.8832 13.9145C49.4106 10.6924 44.2267 8.48794 38.7264 7.46923C37.4375 7.23144 36.0996 7.06158 34.8189 7.33618C33.3431 7.65253 32.0712 8.53082 30.9276 9.47634C27.885 11.9916 25.4464 15.095 22.6425 17.8516C20.7082 19.7526 18.602 21.4869 16.3483 23.0342C15.3106 23.7483 14.2077 24.5962 13.0514 25.1241C11.993 25.6068 11.0005 25.4851 9.88134 25.8071Z" fill="#9C27B0"/>
<path d="M23.4438 3.45288C23.4438 3.45288 20.5791 7.08563 22.6285 11.32C24.6779 15.5543 19.0566 22.3576 19.0566 22.3576" stroke="#535461" stroke-width="2" stroke-miterlimit="10"/>
<path d="M24.7283 2.09296C24.5007 3.02787 23.4119 3.58485 23.4119 3.58485C23.4119 3.58485 22.6929 2.62588 22.9205 1.69097C23.148 0.756068 23.7358 0.0879747 24.2368 0.199088C24.7379 0.310201 24.9558 1.15806 24.7283 2.09296Z" fill="#8ED16F"/>
<path d="M23.9965 1.9304C24.068 1.63688 24.0326 1.37819 23.9174 1.35259C23.8022 1.32698 23.6508 1.54417 23.5792 1.83768C23.5077 2.1312 23.5431 2.3899 23.6583 2.4155C23.7736 2.4411 23.925 2.22391 23.9965 1.9304Z" fill="#8ED16F"/>
<path opacity="0.3" d="M23.9965 1.9304C24.068 1.63688 24.0326 1.37819 23.9174 1.35259C23.8022 1.32698 23.6508 1.54417 23.5792 1.83768C23.5077 2.1312 23.5431 2.3899 23.6583 2.4155C23.7736 2.4411 23.925 2.22391 23.9965 1.9304Z" fill="black"/>
<path d="M24.2327 6.24697C23.287 6.57252 22.2056 6.00209 22.2056 6.00209C22.2056 6.00209 22.6577 4.90441 23.6042 4.57956C24.5507 4.25471 25.4572 4.36724 25.6314 4.82443C25.8055 5.28162 25.1785 5.92141 24.2327 6.24697Z" fill="#8ED16F"/>
<path d="M23.967 5.52615C24.2637 5.42369 24.4716 5.25455 24.4314 5.14836C24.3911 5.04218 24.118 5.03916 23.8214 5.14163C23.5247 5.24409 23.3168 5.41323 23.357 5.51941C23.3972 5.62559 23.6703 5.62861 23.967 5.52615Z" fill="#8ED16F"/>
<path opacity="0.3" d="M23.967 5.52615C24.2637 5.42369 24.4716 5.25455 24.4314 5.14836C24.3911 5.04218 24.118 5.03916 23.8214 5.14163C23.5247 5.24409 23.3168 5.41323 23.357 5.51941C23.3972 5.62559 23.6703 5.62861 23.967 5.52615Z" fill="black"/>
<path d="M24.013 9.55701C23.0672 9.88256 21.9858 9.31214 21.9858 9.31214C21.9858 9.31214 22.438 8.21446 23.3845 7.88962C24.331 7.56477 25.2375 7.6773 25.4116 8.13449C25.5858 8.59168 24.9588 9.23216 24.013 9.55701Z" fill="#8ED16F"/>
<path d="M23.758 8.88633C24.055 8.78425 24.2632 8.61533 24.2231 8.50905C24.1831 8.40277 23.9098 8.39936 23.6129 8.50144C23.3159 8.60353 23.1077 8.77244 23.1478 8.87872C23.1878 8.985 23.461 8.98841 23.758 8.88633Z" fill="#8ED16F"/>
<path opacity="0.3" d="M23.758 8.88633C24.055 8.78425 24.2632 8.61533 24.2231 8.50905C24.1831 8.40277 23.9098 8.39936 23.6129 8.50144C23.3159 8.60353 23.1077 8.77244 23.1478 8.87872C23.1878 8.985 23.461 8.98841 23.758 8.88633Z" fill="black"/>
<path d="M25.118 13.4403C24.1722 13.7659 23.0908 13.1954 23.0908 13.1954C23.0908 13.1954 23.5429 12.0978 24.4895 11.7729C25.436 11.4481 26.3424 11.5606 26.5166 12.0178C26.6908 12.475 26.0637 13.1169 25.118 13.4403Z" fill="#8ED16F"/>
<path d="M24.8635 12.7713C25.1604 12.6693 25.3687 12.5003 25.3286 12.3941C25.2885 12.2878 25.0153 12.2844 24.7183 12.3865C24.4214 12.4885 24.2132 12.6574 24.2532 12.7637C24.2933 12.87 24.5665 12.8734 24.8635 12.7713Z" fill="#8ED16F"/>
<path opacity="0.3" d="M24.8635 12.7713C25.1604 12.6693 25.3687 12.5003 25.3286 12.3941C25.2885 12.2878 25.0153 12.2844 24.7183 12.3865C24.4214 12.4885 24.2132 12.6574 24.2532 12.7637C24.2933 12.87 24.5665 12.8734 24.8635 12.7713Z" fill="black"/>
<path d="M24.3988 16.9916C23.453 17.3171 22.3716 16.7467 22.3716 16.7467C22.3716 16.7467 22.8237 15.649 23.7702 15.3242C24.7167 14.9993 25.6232 15.1119 25.7974 15.5691C25.9716 16.0263 25.3453 16.6667 24.3988 16.9916Z" fill="#8ED16F"/>
<path d="M24.1467 16.2622C24.4434 16.1598 24.6513 15.9906 24.611 15.8844C24.5708 15.7783 24.2977 15.7752 24.001 15.8777C23.7044 15.9802 23.4965 16.1493 23.5367 16.2555C23.5769 16.3617 23.85 16.3647 24.1467 16.2622Z" fill="#8ED16F"/>
<path opacity="0.3" d="M24.1467 16.2622C24.4434 16.1598 24.6513 15.9906 24.611 15.8844C24.5708 15.7783 24.2977 15.7752 24.001 15.8777C23.7044 15.9802 23.4965 16.1493 23.5367 16.2555C23.5769 16.3617 23.85 16.3647 24.1467 16.2622Z" fill="black"/>
<path d="M19.9628 7.18748C20.661 7.87822 21.8951 7.82443 21.8951 7.82443C21.8951 7.82443 21.9966 6.6489 21.2984 5.95816C20.6002 5.26742 19.7352 4.98291 19.3661 5.32121C18.997 5.6595 19.2646 6.49674 19.9628 7.18748Z" fill="#8ED16F"/>
<path d="M21.0544 6.94242C21.1395 6.86397 21.0308 6.6246 20.8116 6.40779C20.5924 6.19097 20.3457 6.07881 20.2606 6.15726C20.1754 6.23572 20.2841 6.47508 20.5033 6.6919C20.7226 6.90871 20.9692 7.02088 21.0544 6.94242Z" fill="#8ED16F"/>
<path opacity="0.3" d="M21.0544 6.94242C21.1395 6.86397 21.0308 6.6246 20.8116 6.40779C20.5924 6.19097 20.3457 6.07881 20.2606 6.15726C20.1754 6.23572 20.2841 6.47508 20.5033 6.6919C20.7226 6.90871 20.9692 7.02088 21.0544 6.94242Z" fill="black"/>
<path d="M19.5619 18.1567C20.2601 18.8475 21.4942 18.7937 21.4942 18.7937C21.4942 18.7937 21.5957 17.6181 20.8975 16.9274C20.1993 16.2367 19.3343 15.9522 18.9652 16.2904C18.5961 16.6287 18.8637 17.466 19.5619 18.1567Z" fill="#8ED16F"/>
<path d="M20.652 17.9124C20.7371 17.8339 20.6284 17.5946 20.4092 17.3778C20.19 17.1609 19.9433 17.0488 19.8582 17.1272C19.7731 17.2057 19.8818 17.445 20.101 17.6619C20.3202 17.8787 20.5669 17.9908 20.652 17.9124Z" fill="#8ED16F"/>
<path opacity="0.3" d="M20.652 17.9124C20.7371 17.8339 20.6284 17.5946 20.4092 17.3778C20.19 17.1609 19.9433 17.0488 19.8582 17.1272C19.7731 17.2057 19.8818 17.445 20.101 17.6619C20.3202 17.8787 20.5669 17.9908 20.652 17.9124Z" fill="black"/>
<path d="M20.4877 11.0644C21.3875 11.4933 22.5311 11.0474 22.5311 11.0474C22.5311 11.0474 22.2161 9.90728 21.3171 9.4784C20.418 9.04951 19.5026 9.05376 19.2736 9.49538C19.0445 9.937 19.5878 10.6355 20.4877 11.0644Z" fill="#8ED16F"/>
<path d="M21.4284 10.4837C21.4812 10.3826 21.2951 10.1916 21.0127 10.0571C20.7303 9.9225 20.4585 9.89536 20.4057 9.99643C20.3529 10.0975 20.539 10.2885 20.8214 10.4231C21.1038 10.5576 21.3755 10.5848 21.4284 10.4837Z" fill="#8ED16F"/>
<path opacity="0.3" d="M21.4284 10.4837C21.4812 10.3826 21.2951 10.1916 21.0127 10.0571C20.7303 9.9225 20.4585 9.89536 20.4057 9.99643C20.3529 10.0975 20.539 10.2885 20.8214 10.4231C21.1038 10.5576 21.3755 10.5848 21.4284 10.4837Z" fill="black"/>
<path d="M20.8649 14.9265C21.7647 15.3554 22.9083 14.9095 22.9083 14.9095C22.9083 14.9095 22.5933 13.7693 21.6943 13.3405C20.7952 12.9116 19.8798 12.9158 19.6508 13.3574C19.4218 13.7991 19.9688 14.5018 20.8649 14.9265Z" fill="#8ED16F"/>
<path d="M21.8058 14.3463C21.8586 14.2452 21.6725 14.0542 21.3901 13.9196C21.1077 13.7851 20.836 13.7579 20.7831 13.859C20.7303 13.9601 20.9164 14.1511 21.1988 14.2856C21.4812 14.4202 21.753 14.4473 21.8058 14.3463Z" fill="#8ED16F"/>
<path opacity="0.3" d="M21.8058 14.3463C21.8586 14.2452 21.6725 14.0542 21.3901 13.9196C21.1077 13.7851 20.836 13.7579 20.7831 13.859C20.7303 13.9601 20.9164 14.1511 21.1988 14.2856C21.4812 14.4202 21.753 14.4473 21.8058 14.3463Z" fill="black"/>
<path d="M9.646 11.2612C9.646 11.2612 14.8781 16.2571 11.9244 23.6705C8.97078 31.0839 16.9875 43.4118 16.9875 43.4118C16.9875 43.4118 16.9016 43.3997 16.7422 43.3728C5.99488 41.5618 0.658267 29.8263 6.6323 21.1085C8.8507 17.8671 10.6777 14.0652 9.646 11.2612Z" fill="#8ED16F"/>
<path d="M0.327148 31.4675C0.327148 31.4675 6.29748 30.5595 6.84152 35.6685C7.38555 40.7776 18.3219 41.486 18.3219 41.486C18.3219 41.486 18.2478 41.5327 18.1166 41.6162C9.0866 47.278 0.454634 45.2214 1.75543 37.7061C2.24017 34.9113 2.20015 32.1051 0.327148 31.4675Z" fill="#8ED16F"/>
<g opacity="0.3">
<path opacity="0.3" d="M0.327148 31.4675C0.327148 31.4675 6.29748 30.5595 6.84152 35.6685C7.38555 40.7776 18.3219 41.486 18.3219 41.486C18.3219 41.486 18.2478 41.5327 18.1166 41.6162C9.0866 47.278 0.454634 45.2214 1.75543 37.7061C2.24017 34.9113 2.20015 32.1051 0.327148 31.4675Z" fill="white"/>
</g>
<path d="M8.13491 31.4045C9.04163 31.4045 9.77666 29.5733 9.77666 27.3145C9.77666 25.0557 9.04163 23.2246 8.13491 23.2246C7.2282 23.2246 6.49316 25.0557 6.49316 27.3145C6.49316 29.5733 7.2282 31.4045 8.13491 31.4045Z" fill="#8ED16F"/>
<path opacity="0.3" d="M8.13491 31.4045C9.04163 31.4045 9.77666 29.5733 9.77666 27.3145C9.77666 25.0557 9.04163 23.2246 8.13491 23.2246C7.2282 23.2246 6.49316 25.0557 6.49316 27.3145C6.49316 29.5733 7.2282 31.4045 8.13491 31.4045Z" fill="black"/>
<path d="M7.98493 42.1684C8.41708 41.7557 7.98767 40.6767 7.02581 39.7582C6.06395 38.8398 4.93388 38.4298 4.50173 38.8424C4.06957 39.2551 4.49898 40.3341 5.46084 41.2526C6.4227 42.171 7.55277 42.581 7.98493 42.1684Z" fill="#8ED16F"/>
<path opacity="0.3" d="M7.98493 42.1684C8.41708 41.7557 7.98767 40.6767 7.02581 39.7582C6.06395 38.8398 4.93388 38.4298 4.50173 38.8424C4.06957 39.2551 4.49898 40.3341 5.46084 41.2526C6.4227 42.171 7.55277 42.581 7.98493 42.1684Z" fill="black"/>
<path d="M53.9817 18.9749H15.1179C14.6483 18.9749 14.1979 19.153 13.8658 19.4701C13.5337 19.7871 13.3472 20.2172 13.3472 20.6656V42.4161C13.3472 42.8646 13.5337 43.2946 13.8658 43.6117C14.1979 43.9288 14.6483 44.1069 15.1179 44.1069H53.9817C54.4514 44.1069 54.9018 43.9288 55.2338 43.6117C55.5659 43.2946 55.7525 42.8646 55.7525 42.4161V20.6656C55.7525 20.2172 55.5659 19.7871 55.2338 19.4701C54.9018 19.153 54.4514 18.9749 53.9817 18.9749Z" fill="url(#paint0_linear)"/>
<path d="M53.4137 19.2705H15.6846C14.669 19.2705 13.8457 20.0566 13.8457 21.0264V42.055C13.8457 43.0248 14.669 43.8109 15.6846 43.8109H53.4137C54.4293 43.8109 55.2526 43.0248 55.2526 42.055V21.0264C55.2526 20.0566 54.4293 19.2705 53.4137 19.2705Z" fill="#9C27B0"/>
<path d="M55.2526 23.5649H13.8457V28.0639H55.2526V23.5649Z" fill="#9C27B0"/>
<path opacity="0.3" d="M55.2526 23.5649H13.8457V28.0639H55.2526V23.5649Z" fill="black"/>
<path d="M51.3264 31.4045H17.7725V33.5857H51.3264V31.4045Z" fill="#D6D6E3"/>
<path d="M20.5567 42.1755C22.3705 42.1755 23.8409 40.7715 23.8409 39.0395C23.8409 37.3076 22.3705 35.9036 20.5567 35.9036C18.7429 35.9036 17.2725 37.3076 17.2725 39.0395C17.2725 40.7715 18.7429 42.1755 20.5567 42.1755Z" fill="#9C27B0"/>
<path opacity="0.3" d="M20.5567 42.1755C22.3705 42.1755 23.8409 40.7715 23.8409 39.0395C23.8409 37.3076 22.3705 35.9036 20.5567 35.9036C18.7429 35.9036 17.2725 37.3076 17.2725 39.0395C17.2725 40.7715 18.7429 42.1755 20.5567 42.1755Z" fill="black"/>
<path d="M52.8988 13.2195C52.9518 13.3795 53.0644 13.5155 53.2152 13.6016C53.8964 14.0312 55.3773 13.9399 55.5552 13.9399C55.593 13.9399 55.6427 14.0043 55.6975 14.1126C55.9592 14.6278 56.3646 16.1381 56.392 16.4778C56.4283 16.889 56.8286 18.8133 57.4838 19.5303C57.5038 19.5522 57.5238 19.5727 57.5431 19.5918C58.1857 20.2083 58.9395 19.5303 58.9395 19.5303L59.0477 19.1714C59.0173 19.313 58.9832 19.4779 58.9492 19.6626C58.9321 19.7553 58.9151 19.8537 58.8988 19.9549C58.8011 20.5252 58.7498 21.1018 58.7453 21.6796C58.7437 21.8894 58.7531 22.0992 58.7735 22.3081C58.7794 22.3661 58.7861 22.4234 58.7942 22.4793C58.8277 22.7338 58.844 22.9901 58.8432 23.2465C58.8372 24.7695 58.4303 26.6641 58.4303 26.6641L58.4459 26.6592C58.4362 26.7066 58.4303 26.7299 58.4303 26.7299L58.454 26.7229C58.4427 26.7932 58.4318 26.8651 58.4214 26.9387C58.2836 27.8942 58.2042 29.0831 58.1664 29.7696C58.1469 30.1317 58.1638 30.4948 58.2169 30.8539L58.9403 35.7166V37.9814C58.9378 38.3245 58.9817 38.6666 59.0707 38.9991C59.3064 39.8547 59.1122 42.8413 59.0033 44.2582C58.9729 44.6446 58.9492 44.915 58.9425 44.9928V45.0162L58.9632 45.0084C58.9632 45.0246 58.9632 45.0331 58.9632 45.0331C58.9941 45.0205 59.0265 45.0115 59.0596 45.0062C58.7728 45.4309 58.2532 46.1329 57.8537 46.2511C57.6182 46.3196 57.4088 46.4522 57.2511 46.6326L57.2407 46.646L57.2259 46.6659C57.1765 46.729 57.1465 46.804 57.1391 46.8824C57.1334 46.8689 57.1289 46.8549 57.1258 46.8407C57.0954 46.9985 57.1947 47.1429 57.5068 47.2129C57.6887 47.2461 57.8738 47.2603 58.059 47.2554C59.1411 47.2554 61.0616 46.9376 61.2736 46.5958V45.4167L61.3084 45.4273V45.438L61.4411 45.4797L61.805 44.3134C62.2416 44.0048 61.8791 38.4824 61.805 37.2135C61.7383 36.0571 62.4876 31.4568 62.6203 30.6465L62.6025 30.626L62.6225 30.5078C62.6492 30.5263 62.674 30.5471 62.6966 30.5701C62.7402 30.6195 62.7782 30.6731 62.8101 30.73C62.8727 30.8313 62.9265 30.9373 62.9709 31.0471C63.7032 32.7909 64.033 37.7775 64.033 38.2248V42.9142C64.0315 43.377 64.0989 43.8376 64.2332 44.2822C64.3004 44.5163 64.3524 44.754 64.3888 44.9942C64.4044 45.0883 64.4177 45.1818 64.4303 45.2709C64.4429 45.3601 64.4555 45.462 64.4651 45.5455C64.4651 45.5675 64.4703 45.5887 64.4726 45.6085C64.4748 45.6283 64.4726 45.6276 64.4726 45.6375C64.4926 45.8223 64.5029 45.9433 64.5029 45.9433C64.5057 45.9331 64.5108 45.9237 64.5178 45.9157L64.5215 45.9603C64.5267 45.9434 64.5367 45.9282 64.5504 45.9164C64.5805 45.8881 64.6133 45.8626 64.6482 45.8399V46.4359L64.6304 46.4231V46.5257C65.385 47.0693 66.6131 47.2335 67.5559 47.2271C68.1674 47.2271 68.6626 47.1563 68.8345 47.0742C69.0806 46.9589 68.9457 46.6899 68.7218 46.484C68.5484 46.324 68.3223 46.2009 68.1793 46.2165C67.9406 46.2412 67.1246 45.3587 66.6969 44.8753L66.7451 44.8548L66.8133 44.8265V37.0075C66.8133 37.0075 66.923 33.9204 67.2498 30.8673C67.4049 29.3283 67.2141 27.7754 66.6902 26.3124L66.6798 26.2834L66.7792 26.2982C66.8844 26.3138 66.9407 26.323 66.9407 26.323C66.9407 26.323 66.9407 26.2989 66.9341 26.2522H66.9407C66.9407 26.2522 66.8133 24.9281 66.8118 23.2649C66.8118 21.3795 66.9785 19.0809 67.6686 17.7801C68.0659 17.0313 68.1986 16.4354 68.1874 15.9654C68.2048 15.5519 68.0801 15.1444 67.8324 14.8048C67.7285 14.6681 67.5872 14.5613 67.424 14.4962L67.4099 14.4884H67.4025C67.2833 14.4424 67.156 14.4184 67.0275 14.4176H65.5369C65.3644 14.4178 65.1948 14.3751 65.0448 14.2938L64.4614 13.9782C64.2672 13.5726 64.2391 13.0701 64.2806 12.5988C64.2806 12.5613 64.288 12.5238 64.2917 12.487L64.334 12.4445C64.3666 12.4112 64.397 12.3737 64.4266 12.3419C64.4259 12.3698 64.4237 12.3977 64.4199 12.4254C64.4125 12.47 64.3999 12.4962 64.3799 12.5018C64.6986 12.4622 65.0544 12.402 65.2501 12.1671C65.2582 12.1579 65.2656 12.148 65.2731 12.1381C65.3309 12.0487 65.3788 11.9538 65.4161 11.855C65.4435 11.7874 65.4802 11.7237 65.5251 11.6653C65.574 11.6044 65.6377 11.5549 65.6903 11.4969L65.6992 11.487C65.8868 11.2746 65.8971 10.9703 65.8994 10.6929C65.9031 10.0191 65.8823 9.27744 65.4102 8.77212C65.0181 8.35173 64.3925 8.1925 63.7988 8.1741C63.2051 8.15569 62.6129 8.25761 62.0199 8.26044C61.6167 8.26044 61.1305 8.25407 60.9081 8.57255C60.7992 8.72895 60.7858 8.93349 60.6673 9.08352C60.5991 9.16987 60.4946 9.24418 60.4886 9.35175C60.4879 9.40139 60.5012 9.4503 60.5272 9.4933V9.49825C60.671 9.7686 60.9763 9.93704 61.295 9.99012C61.2412 10.052 61.1917 10.1173 61.1468 10.1855C60.9522 10.4825 60.8494 10.8259 60.8503 11.1763C60.8503 11.2173 60.8503 11.2577 60.8548 11.298C60.8879 11.7738 61.11 12.2197 61.4759 12.5443C61.47 12.5839 61.464 12.6236 61.4574 12.6625L61.4707 12.6738C61.5127 12.7101 61.5564 12.7446 61.6019 12.7771L61.6182 12.7892C61.6182 12.8139 61.6182 12.8387 61.6182 12.8599C61.6182 12.901 61.6182 12.9427 61.6138 12.9831C61.6093 13.0234 61.6138 13.0482 61.6093 13.0808L61.5997 13.073L60.8755 12.4955L59.7111 11.4664C59.7111 11.4664 56.7997 9.44305 56.6537 10.4048C56.636 10.5757 56.6854 10.7467 56.7923 10.8847C57.3267 11.6632 59.1641 12.3256 59.1641 12.3256C59.1641 12.3256 60.2596 13.4318 60.9926 14.6243C60.9667 14.6378 60.9408 14.6505 60.9133 14.6625C60.2611 14.952 59.3094 14.8295 59.3094 14.8295C58.2102 14.993 58.1109 16.1431 58.1168 16.6081C58.1168 16.63 58.1168 16.6512 58.1168 16.6703C58.1168 16.6894 58.1168 16.6937 58.1168 16.7043L56.6581 13.4339L56.6537 13.424C56.6061 13.3175 56.5311 13.2242 56.4358 13.1527C56.3404 13.0812 56.2278 13.0338 56.1081 13.0149C55.1327 12.8585 52.6949 12.5323 52.8988 13.2195ZM59.0055 44.9963C59.0268 44.9915 59.0483 44.9877 59.07 44.985L59.0633 44.9949L59.0055 44.9963Z" fill="url(#paint1_linear)"/>
<path d="M66.2935 44.3276C66.2935 44.3276 67.6751 45.9858 67.9946 45.9519C68.314 45.9179 69.0574 46.5945 68.6327 46.8011C68.208 47.0078 65.7628 47.1394 64.5562 46.2597V44.9342L66.2935 44.3276Z" fill="#ACA9C9"/>
<path d="M59.3121 44.4287C59.3121 44.4287 58.4968 45.8159 57.9305 45.9857C57.3642 46.1556 56.8676 46.7642 57.6118 46.9334C58.3559 47.1025 61.0138 46.7302 61.2614 46.324V44.5299L59.3121 44.4287Z" fill="#ACA9C9"/>
<path d="M58.2885 30.8015L58.9926 35.5984V37.8285C58.9904 38.1668 59.0333 38.504 59.1201 38.832C59.3498 39.6763 59.1608 42.6219 59.0541 44.0197C59.0193 44.4754 58.9926 44.767 58.9926 44.767C59.4529 44.5639 61.4022 45.2065 61.4022 45.2065L61.5994 44.566L61.7565 44.0565C62.182 43.7521 61.8306 38.3048 61.7565 37.05C61.7083 36.1929 62.1086 33.4144 62.365 31.7491C62.4392 31.2785 62.4992 30.8998 62.5355 30.6719C62.5585 30.5304 62.5711 30.4518 62.5711 30.4518C62.6492 30.5127 62.7141 30.5874 62.7623 30.6719C62.8233 30.772 62.8756 30.8766 62.9187 30.9848C63.6317 32.7052 63.9564 37.6239 63.9564 38.062V42.6877C63.9549 43.1441 64.0205 43.5984 64.1513 44.0373C64.2391 44.3575 64.3032 44.6832 64.3433 45.0119C64.3937 45.3792 64.4174 45.675 64.4174 45.675C64.453 45.4719 66.6499 44.5582 66.6499 44.5582V36.844C66.6499 36.844 66.7559 33.8008 67.0753 30.7873C67.2126 29.4166 67.0743 28.0334 66.6677 26.7122C66.5795 26.4242 66.4913 26.18 66.4149 25.9868C66.2852 25.6577 66.1926 25.4758 66.1926 25.4758H58.9555C58.834 25.4978 58.7332 25.7313 58.642 26.0859C58.5827 26.3237 58.5308 26.6153 58.4856 26.9352C58.3515 27.8771 58.2744 29.0498 58.2373 29.7278C58.2186 30.0865 58.2357 30.446 58.2885 30.8015Z" fill="#618FD8"/>
<g opacity="0.1">
<path opacity="0.1" d="M66.5229 44.5802V36.866C66.5229 36.866 66.6289 33.8228 66.9484 30.8093C67.2679 27.7958 66.059 25.4971 66.059 25.4971H66.2005C66.2005 25.4971 67.405 27.7979 67.09 30.8093C66.775 33.8206 66.6645 36.866 66.6645 36.866V44.5802C66.6645 44.5802 64.4676 45.4939 64.432 45.697C64.432 45.697 64.432 45.6517 64.4209 45.5738C64.8997 45.2561 66.5229 44.5802 66.5229 44.5802Z" fill="black"/>
<path opacity="0.1" d="M59.204 44.7459C59.1377 44.7472 59.0722 44.7601 59.0107 44.784V44.7501C59.075 44.744 59.1396 44.7426 59.204 44.7459Z" fill="black"/>
<path opacity="0.1" d="M61.6329 44.0734C62.0584 43.7691 61.7071 38.3217 61.6329 37.0669C61.5588 35.8121 62.4482 30.4695 62.4482 30.4695C62.4948 30.5038 62.536 30.5443 62.5705 30.5898C62.4401 31.3881 61.7108 35.9268 61.7752 37.0669C61.8494 38.3189 62.2007 43.7662 61.7752 44.0734L61.421 45.2234L61.292 45.1824L61.6329 44.0734Z" fill="black"/>
</g>
<path d="M59.7367 17.1241L58.9955 19.628C58.9955 19.628 58.2158 20.3358 57.5783 19.628C56.9409 18.9203 56.5481 17.0229 56.5095 16.6167C56.471 16.2104 55.9069 14.1127 55.6942 14.1127C55.4815 14.1127 53.3558 14.2479 53.1075 13.405C52.9088 12.727 55.2821 13.0511 56.2323 13.2033C56.3493 13.2223 56.4594 13.2693 56.5523 13.3398C56.6452 13.4103 56.718 13.5022 56.7638 13.6067L58.221 16.9295C58.221 16.9295 58.9925 16.0753 59.7367 17.1241Z" fill="#F7C4A7"/>
<path d="M64.5207 11.3044C64.5207 11.3044 63.5994 13.7744 64.769 14.6541C65.9386 15.5338 60.5864 15.7709 60.5864 15.7709L61.3128 15.1113C61.3128 15.1113 61.8264 13.1658 61.4722 11.5415L64.5207 11.3044Z" fill="#F7C4A7"/>
<path opacity="0.1" d="M63.3867 14.6542C63.3867 14.6542 64.3258 14.4341 64.3258 14.1978L65.1582 14.6542H67.2491C67.2491 14.6542 68.773 15.466 67.4974 17.9027C66.2218 20.3394 66.7888 26.3246 66.7888 26.3246C66.7888 26.3246 62.2534 25.5461 58.497 26.7308C58.497 26.7308 59.0641 24.0578 58.8513 22.5355C58.6386 21.0131 59.2056 18.8815 59.2056 18.8815L59.5243 17.5955C59.5243 17.5955 59.5065 16.3924 58.1954 17.0032C58.1954 17.0032 58.0004 15.2608 59.3472 15.0576C59.3472 15.0576 60.9037 15.2608 61.367 14.5162C61.367 14.5191 62.395 15.0944 63.3867 14.6542Z" fill="black"/>
<path d="M63.3867 14.5869C63.3867 14.5869 64.3258 14.3668 64.3258 14.1304L64.9358 14.4651C65.0816 14.5449 65.2466 14.5868 65.4146 14.5869H66.877C67.0299 14.5864 67.1806 14.6207 67.3169 14.687C67.4531 14.7532 67.5709 14.8494 67.6605 14.9676C67.9962 15.4184 68.2971 16.3073 67.4974 17.8353C66.2218 20.2713 66.7888 26.2573 66.7888 26.2573C66.7888 26.2573 62.2534 25.4788 58.4971 26.6635C58.4971 26.6635 59.0641 23.9904 58.8514 22.4681C58.6386 20.9458 59.2056 18.8191 59.2056 18.8191L59.5244 17.5331C59.5244 17.5331 59.5066 16.33 58.1954 16.9407C58.1954 16.9407 58.0057 15.2465 59.2916 15.0044C59.3274 14.9968 59.3641 14.9944 59.4006 14.9973C59.6756 15.0249 60.9571 15.1134 61.3677 14.4503C61.367 14.451 62.395 15.0264 63.3867 14.5869Z" fill="#E14B5A"/>
<path opacity="0.1" d="M66.966 17.6656C66.966 17.6656 65.832 18.3422 63.9894 17.6656C63.9894 17.6656 61.9696 16.9579 61.3314 15.5679C60.6933 14.1779 64.5556 15.805 64.5556 15.805C64.5556 15.805 65.3709 15.805 65.6185 15.6358C65.8661 15.4667 67.6034 16.9211 66.966 17.6656Z" fill="black"/>
<path d="M66.9657 17.5304C66.9657 17.5304 65.8316 18.207 63.989 17.5304C63.989 17.5304 61.9693 16.8226 61.3311 15.4327C60.693 14.0427 59.2054 12.5204 59.2054 12.5204C59.2054 12.5204 56.6186 11.5727 56.7595 10.6258C56.9003 9.67886 59.7361 11.6746 59.7361 11.6746L60.8701 12.6895L64.5553 15.6669C64.5553 15.6669 65.3706 15.6669 65.6182 15.4978C65.8657 15.3286 67.6031 16.7858 66.9657 17.5304Z" fill="#F7C4A7"/>
<path opacity="0.1" d="M61.438 11.6428L64.485 11.4058C64.3284 11.8531 64.2218 12.315 64.1671 12.7837C63.8128 13.1344 63.3285 13.3383 62.8184 13.3516C62.3083 13.3648 61.8131 13.1863 61.4395 12.8545C61.5171 12.454 61.5166 12.0432 61.438 11.6428Z" fill="black"/>
<path d="M62.8026 13.25C63.8788 13.25 64.7512 12.417 64.7512 11.3894C64.7512 10.3618 63.8788 9.52881 62.8026 9.52881C61.7264 9.52881 60.854 10.3618 60.854 11.3894C60.854 12.417 61.7264 13.25 62.8026 13.25Z" fill="#F7C4A7"/>
<path opacity="0.1" d="M63.8722 11.7934C63.7581 11.6137 63.9901 11.3794 63.9137 11.1827C63.8433 11.0015 63.5631 10.9703 63.469 10.8012C63.3949 10.6646 63.469 10.4969 63.4394 10.3461C63.3971 10.1515 63.1777 10.0305 62.9694 10.0206C62.7612 10.0107 62.5603 10.085 62.3624 10.1487C62.04 10.2527 61.7005 10.3327 61.3625 10.2959C61.0245 10.2591 60.6873 10.0836 60.5368 9.79552C60.5122 9.75356 60.4992 9.70631 60.499 9.65822C60.505 9.55206 60.6072 9.47917 60.6732 9.39424C60.7888 9.24633 60.8022 9.04463 60.9074 8.89034C61.1224 8.57611 61.5945 8.5839 61.9874 8.58248C62.5655 8.58248 63.1407 8.47916 63.7188 8.49756C64.2969 8.51596 64.9047 8.67236 65.2879 9.08709C65.7474 9.58604 65.7682 10.3164 65.7645 10.9817C65.7645 11.2556 65.7526 11.5535 65.5696 11.7651C65.5162 11.8267 65.451 11.8776 65.3998 11.9406C65.2886 12.0822 65.259 12.2634 65.1545 12.407C64.9692 12.6625 64.6075 12.7248 64.2851 12.7658C64.3799 12.7538 64.3014 12.1473 64.2851 12.0914C64.2228 11.8125 64.1554 11.8182 63.8722 11.7934Z" fill="black"/>
<path d="M63.8722 11.7263C63.7581 11.5465 63.9901 11.3123 63.9137 11.1155C63.8433 10.9343 63.5631 10.9032 63.469 10.7341C63.3949 10.5975 63.469 10.4297 63.4394 10.279C63.3971 10.0844 63.1777 9.96335 62.9694 9.95344C62.7612 9.94353 62.5603 10.0178 62.3624 10.0815C62.04 10.1856 61.7005 10.2655 61.3625 10.2287C61.0245 10.1919 60.6873 10.0164 60.5368 9.72838C60.5122 9.68643 60.4992 9.63917 60.499 9.59109C60.505 9.48493 60.6072 9.41203 60.6732 9.3271C60.7888 9.17919 60.8022 8.97749 60.9074 8.8232C61.1224 8.50897 61.5945 8.51676 61.9874 8.51534C62.5655 8.51534 63.1407 8.41202 63.7188 8.43042C64.2969 8.44882 64.9047 8.60522 65.2879 9.01995C65.7474 9.5189 65.7682 10.2493 65.7645 10.9145C65.7645 11.1884 65.7526 11.4864 65.5696 11.698C65.5162 11.7596 65.451 11.8105 65.3998 11.8735C65.2886 12.015 65.259 12.1962 65.1545 12.3399C64.9692 12.5954 64.6075 12.6577 64.2851 12.6987C64.3799 12.6867 64.3014 12.0802 64.2851 12.0242C64.2228 11.7419 64.1554 11.7504 63.8722 11.7263Z" fill="#281C1C"/>
<path opacity="0.1" d="M66.9483 17.7505C66.9483 17.7505 65.9914 15.3818 65.2472 15.3145C64.5031 15.2473 66.6644 15.3145 66.6644 15.3145L67.373 16.5325L66.9483 17.7505Z" fill="black"/>
<path d="M67.0191 17.7505C67.0191 17.7505 66.0622 15.3818 65.318 15.3145C64.5739 15.2473 66.7352 15.3145 66.7352 15.3145L67.4438 16.5325L67.0191 17.7505Z" fill="#E14B5A"/>
<path d="M64.3403 45.0176C64.3907 45.3849 64.4145 45.6808 64.4145 45.6808C64.45 45.4777 66.6469 44.564 66.6469 44.564V44.0141C66.591 44.0121 66.5349 44.0147 66.4794 44.0219C66.0532 44.0764 65.6582 44.2738 65.2935 44.4847C64.9855 44.6777 64.6674 44.8556 64.3403 45.0176Z" fill="#618FD8"/>
<path opacity="0.3" d="M64.3403 45.0176C64.3907 45.3849 64.4145 45.6808 64.4145 45.6808C64.45 45.4777 66.6469 44.564 66.6469 44.564V44.0141C66.591 44.0121 66.5349 44.0147 66.4794 44.0219C66.0532 44.0764 65.6582 44.2738 65.2935 44.4847C64.9855 44.6777 64.6674 44.8556 64.3403 45.0176Z" fill="black"/>
<path d="M58.9927 44.7671C59.453 44.564 61.4023 45.2066 61.4023 45.2066L61.5995 44.5661C61.2593 44.5003 60.9213 44.4182 60.5892 44.3205C60.4342 44.2777 60.2826 44.2242 60.1356 44.1606C60.0375 44.1105 59.9365 44.0656 59.8332 44.0261C59.579 43.9426 59.3144 43.978 59.0535 44.0197C59.0194 44.4755 58.9927 44.7671 58.9927 44.7671Z" fill="#618FD8"/>
<path opacity="0.3" d="M58.9927 44.7671C59.453 44.564 61.4023 45.2066 61.4023 45.2066L61.5995 44.5661C61.2593 44.5003 60.9213 44.4182 60.5892 44.3205C60.4342 44.2777 60.2826 44.2242 60.1356 44.1606C60.0375 44.1105 59.9365 44.0656 59.8332 44.0261C59.579 43.9426 59.3144 43.978 59.0535 44.0197C59.0194 44.4755 58.9927 44.7671 58.9927 44.7671Z" fill="black"/>
<path opacity="0.4" d="M68.6137 46.6957C68.6433 46.6836 68.6697 46.6652 68.6907 46.6419C68.7118 46.6186 68.727 46.591 68.7352 46.5612C68.7485 46.6079 68.7434 46.6576 68.721 46.701C68.6987 46.7444 68.6605 46.7785 68.6137 46.7969C68.1883 47 65.7438 47.1352 64.5371 46.2555V46.1543C65.7438 47.034 68.1883 46.8988 68.6137 46.6957Z" fill="white"/>
<path opacity="0.4" d="M57.5932 46.8308C58.3344 46.9999 60.9953 46.6277 61.2428 46.2214V46.3226C60.9945 46.7289 58.3373 47.1011 57.5932 46.932C57.2893 46.8612 57.1922 46.7197 57.2226 46.5647C57.2463 46.6793 57.3575 46.7742 57.5932 46.8308Z" fill="white"/>
<path opacity="0.1" d="M61.9159 22.1828C61.9159 22.1828 61.1362 21.9457 60.9234 22.1828C60.7107 22.4199 58.8926 22.9754 58.8926 22.9754" fill="black"/>
<path d="M53.0936 12.8862H56.8848V12.8089H53.0936V12.8862Z" fill="#8ED16F"/>
<path d="M53.0936 12.9626H56.8848V12.8853H53.0936V12.9626Z" fill="#8ED16F"/>
<path opacity="0.1" d="M53.0936 12.9626H56.8848V12.8853H53.0936V12.9626Z" fill="black"/>
<path d="M53.0936 13.0391H56.8848V12.9617H53.0936V13.0391Z" fill="#8ED16F"/>
<path d="M53.0936 13.1147H56.8848V13.0374H53.0936V13.1147Z" fill="#8ED16F"/>
<path opacity="0.1" d="M53.0936 13.1147H56.8848V13.0374H53.0936V13.1147Z" fill="black"/>
<path d="M53.0936 13.1912H56.8848V13.1138H53.0936V13.1912Z" fill="#8ED16F"/>
<path d="M53.0936 13.2671H56.8848V13.1897H53.0936V13.2671Z" fill="#8ED16F"/>
<path opacity="0.1" d="M53.0936 13.2671H56.8848V13.1897H53.0936V13.2671Z" fill="black"/>
<path d="M53.0936 13.3435H56.8848V13.2662H53.0936V13.3435Z" fill="#8ED16F"/>
<path d="M53.0936 13.4192H56.8848V13.3418H53.0936V13.4192Z" fill="#8ED16F"/>
<path opacity="0.1" d="M53.0936 13.4192H56.8848V13.3418H53.0936V13.4192Z" fill="black"/>
<path d="M53.0936 12.2776H56.8848V12.2002H53.0936V12.2776Z" fill="#8ED16F"/>
<path d="M55.7751 10.4679L58.6899 12.7827L58.7411 12.7239L55.8263 10.4092L55.7751 10.4679Z" fill="#8ED16F"/>
<path d="M53.1179 9.25017L56.0327 11.5649L56.0839 11.5062L53.1691 9.1914L53.1179 9.25017Z" fill="#8ED16F"/>
<path d="M53.0936 12.3533H56.8848V12.2759H53.0936V12.3533Z" fill="#8ED16F"/>
<path opacity="0.1" d="M53.0936 12.3533H56.8848V12.2759H53.0936V12.3533Z" fill="black"/>
<path d="M53.0936 12.4304H56.8848V12.3531H53.0936V12.4304Z" fill="#8ED16F"/>
<path d="M53.0936 12.5061H56.8848V12.4288H53.0936V12.5061Z" fill="#8ED16F"/>
<path opacity="0.1" d="M53.0936 12.5061H56.8848V12.4288H53.0936V12.5061Z" fill="black"/>
<path d="M53.0936 12.5818H56.8848V12.5044H53.0936V12.5818Z" fill="#8ED16F"/>
<path d="M53.0936 12.6584H56.8848V12.5811H53.0936V12.6584Z" fill="#8ED16F"/>
<path opacity="0.1" d="M53.0936 12.6584H56.8848V12.5811H53.0936V12.6584Z" fill="black"/>
<path d="M53.0936 12.7341H56.8848V12.6568H53.0936V12.7341Z" fill="#8ED16F"/>
<path d="M53.0936 12.8105H56.8848V12.7332H53.0936V12.8105Z" fill="#8ED16F"/>
<path opacity="0.1" d="M53.0936 12.8105H56.8848V12.7332H53.0936V12.8105Z" fill="black"/>
<path d="M52.6129 15.7782L53.9712 16.019L54.4628 13.4911L53.1045 13.2502L52.6129 15.7782Z" fill="#8ED16F"/>
<path d="M53.8356 14.6921C53.8928 14.3982 53.8145 14.1377 53.6607 14.1105C53.507 14.0832 53.336 14.2994 53.2788 14.5934C53.2216 14.8874 53.2999 15.1478 53.4537 15.1751C53.6074 15.2024 53.7784 14.9861 53.8356 14.6921Z" fill="#8ED16F"/>
<path opacity="0.1" d="M53.8356 14.6921C53.8928 14.3982 53.8145 14.1377 53.6607 14.1105C53.507 14.0832 53.336 14.2994 53.2788 14.5934C53.2216 14.8874 53.2999 15.1478 53.4537 15.1751C53.6074 15.2024 53.7784 14.9861 53.8356 14.6921Z" fill="black"/>
<path d="M52.8452 21.1139L54.2036 21.3547L54.6953 18.8268L53.3369 18.5859L52.8452 21.1139Z" fill="#8ED16F"/>
<path d="M54.067 20.0273C54.1242 19.7334 54.0459 19.4729 53.8922 19.4457C53.7384 19.4184 53.5674 19.6346 53.5103 19.9286C53.4531 20.2226 53.5314 20.483 53.6851 20.5103C53.8388 20.5376 54.0098 20.3213 54.067 20.0273Z" fill="#8ED16F"/>
<path opacity="0.1" d="M54.067 20.0273C54.1242 19.7334 54.0459 19.4729 53.8922 19.4457C53.7384 19.4184 53.5674 19.6346 53.5103 19.9286C53.4531 20.2226 53.5314 20.483 53.6851 20.5103C53.8388 20.5376 54.0098 20.3213 54.067 20.0273Z" fill="black"/>
<path d="M47.9324 7.99873L47.2749 9.15894L49.6432 10.3826L50.3007 9.22242L47.9324 7.99873Z" fill="#8ED16F"/>
<path d="M49.5171 9.50035C49.5922 9.36895 49.4296 9.14609 49.1541 9.00257C48.8785 8.85904 48.5943 8.84921 48.5192 8.9806C48.4441 9.11199 48.6067 9.33486 48.8823 9.47838C49.1578 9.6219 49.4421 9.63174 49.5171 9.50035Z" fill="#8ED16F"/>
<path opacity="0.1" d="M49.5171 9.50035C49.5922 9.36895 49.4296 9.14609 49.1541 9.00257C48.8785 8.85904 48.5943 8.84921 48.5192 8.9806C48.4441 9.11199 48.6067 9.33486 48.8823 9.47838C49.1578 9.6219 49.4421 9.63174 49.5171 9.50035Z" fill="black"/>
<path d="M42.7323 30.8955L42.0747 32.0557L44.443 33.2794L45.1005 32.1192L42.7323 30.8955Z" fill="#8ED16F"/>
<path d="M44.0789 32.3603C44.1533 32.229 43.9904 32.0072 43.715 31.8649C43.4396 31.7226 43.156 31.7137 43.0815 31.845C43.0071 31.9763 43.17 32.1981 43.4455 32.3404C43.7209 32.4828 44.0045 32.4917 44.0789 32.3603Z" fill="#8ED16F"/>
<path opacity="0.1" d="M44.0789 32.3603C44.1533 32.229 43.9904 32.0072 43.715 31.8649C43.4396 31.7226 43.156 31.7137 43.0815 31.845C43.0071 31.9763 43.17 32.1981 43.4455 32.3404C43.7209 32.4828 44.0045 32.4917 44.0789 32.3603Z" fill="black"/>
<path d="M39.5506 12.0002L38.8931 13.1604L41.2613 14.3841L41.9188 13.2239L39.5506 12.0002Z" fill="#8ED16F"/>
<path d="M40.8963 13.4643C40.9707 13.333 40.8078 13.1112 40.5324 12.9689C40.2569 12.8266 39.9733 12.8177 39.8989 12.949C39.8245 13.0803 39.9874 13.3021 40.2628 13.4444C40.5383 13.5867 40.8219 13.5957 40.8963 13.4643Z" fill="#8ED16F"/>
<path opacity="0.1" d="M40.8963 13.4643C40.9707 13.333 40.8078 13.1112 40.5324 12.9689C40.2569 12.8266 39.9733 12.8177 39.8989 12.949C39.8245 13.0803 39.9874 13.3021 40.2628 13.4444C40.5383 13.5867 40.8219 13.5957 40.8963 13.4643Z" fill="black"/>
<path d="M43.5384 7.99848L42.8809 9.15869L45.2491 10.3824L45.9066 9.22218L43.5384 7.99848Z" fill="#8ED16F"/>
<path d="M44.8841 9.46264C44.9585 9.33132 44.7955 9.1095 44.5201 8.96719C44.2447 8.82488 43.9611 8.81597 43.8867 8.94729C43.8123 9.07861 43.9752 9.30042 44.2506 9.44273C44.526 9.58504 44.8096 9.59395 44.8841 9.46264Z" fill="#8ED16F"/>
<path opacity="0.1" d="M44.8841 9.46264C44.9585 9.33132 44.7955 9.1095 44.5201 8.96719C44.2447 8.82488 43.9611 8.81597 43.8867 8.94729C43.8123 9.07861 43.9752 9.30042 44.2506 9.44273C44.526 9.58504 44.8096 9.59395 44.8841 9.46264Z" fill="black"/>
<path d="M47.5194 12.7204L46.146 12.8638L46.4387 15.4197L47.8121 15.2763L47.5194 12.7204Z" fill="#8ED16F"/>
<path d="M47.0229 14.6105C47.1783 14.5943 47.2768 14.3402 47.2427 14.0429C47.2087 13.7457 47.0551 13.5179 46.8996 13.5341C46.7442 13.5503 46.6458 13.8044 46.6798 14.1017C46.7138 14.3989 46.8674 14.6267 47.0229 14.6105Z" fill="#8ED16F"/>
<path opacity="0.1" d="M47.0229 14.6105C47.1783 14.5943 47.2768 14.3402 47.2427 14.0429C47.2087 13.7457 47.0551 13.5179 46.8996 13.5341C46.7442 13.5503 46.6458 13.8044 46.6798 14.1017C46.7138 14.3989 46.8674 14.6267 47.0229 14.6105Z" fill="black"/>
<path d="M56.9359 26.7162L55.5625 26.8596L55.8552 29.4155L57.2286 29.2722L56.9359 26.7162Z" fill="#8ED16F"/>
<path d="M56.4394 28.6061C56.5948 28.5899 56.6933 28.3358 56.6592 28.0385C56.6252 27.7413 56.4716 27.5135 56.3161 27.5297C56.1607 27.5459 56.0623 27.8 56.0963 28.0973C56.1303 28.3945 56.2839 28.6223 56.4394 28.6061Z" fill="#8ED16F"/>
<path opacity="0.1" d="M56.4394 28.6061C56.5948 28.5899 56.6933 28.3358 56.6592 28.0385C56.6252 27.7413 56.4716 27.5135 56.3161 27.5297C56.1607 27.5459 56.0623 27.8 56.0963 28.0973C56.1303 28.3945 56.2839 28.6223 56.4394 28.6061Z" fill="black"/>
<path d="M42.1419 18.1498L41.4844 19.3101L43.8526 20.5338L44.5102 19.3735L42.1419 18.1498Z" fill="#8ED16F"/>
<path d="M43.4871 19.615C43.5615 19.4837 43.3986 19.2618 43.1232 19.1195C42.8478 18.9772 42.5642 18.9683 42.4897 19.0996C42.4153 19.2309 42.5782 19.4528 42.8537 19.5951C43.1291 19.7374 43.4127 19.7463 43.4871 19.615Z" fill="#8ED16F"/>
<path opacity="0.1" d="M43.4871 19.615C43.5615 19.4837 43.3986 19.2618 43.1232 19.1195C42.8478 18.9772 42.5642 18.9683 42.4897 19.0996C42.4153 19.2309 42.5782 19.4528 42.8537 19.5951C43.1291 19.7374 43.4127 19.7463 43.4871 19.615Z" fill="black"/>
<path d="M36.1653 16.52L35.5078 17.6802L37.876 18.9039L38.5336 17.7437L36.1653 16.52Z" fill="#8ED16F"/>
<path d="M37.7081 18.0621C37.7831 17.9307 37.6206 17.7079 37.345 17.5643C37.0694 17.4208 36.7852 17.411 36.7101 17.5424C36.6351 17.6738 36.7976 17.8966 37.0732 18.0402C37.3488 18.1837 37.633 18.1935 37.7081 18.0621Z" fill="#8ED16F"/>
<path opacity="0.1" d="M37.7081 18.0621C37.7831 17.9307 37.6206 17.7079 37.345 17.5643C37.0694 17.4208 36.7852 17.411 36.7101 17.5424C36.6351 17.6738 36.7976 17.8966 37.0732 18.0402C37.3488 18.1837 37.633 18.1935 37.7081 18.0621Z" fill="black"/>
<path d="M34.2513 43.9592L33.5938 45.1194L35.962 46.3431L36.6195 45.1829L34.2513 43.9592Z" fill="#8ED16F"/>
<path d="M35.597 45.4236C35.6714 45.2923 35.5084 45.0704 35.233 44.9281C34.9576 44.7858 34.674 44.7769 34.5996 44.9082C34.5252 45.0395 34.6881 45.2614 34.9635 45.4037C35.2389 45.546 35.5225 45.5549 35.597 45.4236Z" fill="#8ED16F"/>
<path opacity="0.1" d="M35.597 45.4236C35.6714 45.2923 35.5084 45.0704 35.233 44.9281C34.9576 44.7858 34.674 44.7769 34.5996 44.9082C34.5252 45.0395 34.6881 45.2614 34.9635 45.4037C35.2389 45.546 35.5225 45.5549 35.597 45.4236Z" fill="black"/>
<path d="M32.5284 44.4063L32.2764 45.7034L34.924 46.1724L35.176 44.8753L32.5284 44.4063Z" fill="#8ED16F"/>
<path opacity="0.05" d="M32.5284 44.4063L32.2764 45.7034L34.924 46.1724L35.176 44.8753L32.5284 44.4063Z" fill="black"/>
<path d="M34.2809 45.4046C34.3094 45.2578 34.083 45.0946 33.7751 45.04C33.4672 44.9855 33.1944 45.0603 33.1659 45.2071C33.1374 45.3539 33.3639 45.5171 33.6718 45.5717C33.9797 45.6262 34.2524 45.5514 34.2809 45.4046Z" fill="#8ED16F"/>
<path opacity="0.1" d="M34.2809 45.4046C34.3094 45.2578 34.083 45.0946 33.7751 45.04C33.4672 44.9855 33.1944 45.0603 33.1659 45.2071C33.1374 45.3539 33.3639 45.5171 33.6718 45.5717C33.9797 45.6262 34.2524 45.5514 34.2809 45.4046Z" fill="black"/>
<path d="M32.7764 45.1841L32.5244 46.4812L35.172 46.9502L35.424 45.6531L32.7764 45.1841Z" fill="#8ED16F"/>
<path d="M34.5285 46.1822C34.557 46.0354 34.3305 45.8722 34.0226 45.8176C33.7147 45.7631 33.442 45.8379 33.4135 45.9847C33.3849 46.1315 33.6114 46.2947 33.9193 46.3492C34.2272 46.4038 34.4999 46.329 34.5285 46.1822Z" fill="#8ED16F"/>
<path opacity="0.1" d="M34.5285 46.1822C34.557 46.0354 34.3305 45.8722 34.0226 45.8176C33.7147 45.7631 33.442 45.8379 33.4135 45.9847C33.3849 46.1315 33.6114 46.2947 33.9193 46.3492C34.2272 46.4038 34.4999 46.329 34.5285 46.1822Z" fill="black"/>
<path d="M37.0447 47.2936L36.3872 48.4539L38.7554 49.6776L39.413 48.5173L37.0447 47.2936Z" fill="#8ED16F"/>
<path d="M38.3914 48.758C38.4658 48.6267 38.3029 48.4049 38.0275 48.2626C37.7521 48.1203 37.4685 48.1114 37.394 48.2427C37.3196 48.374 37.4825 48.5958 37.758 48.7381C38.0334 48.8804 38.317 48.8894 38.3914 48.758Z" fill="#8ED16F"/>
<path opacity="0.1" d="M38.3914 48.758C38.4658 48.6267 38.3029 48.4049 38.0275 48.2626C37.7521 48.1203 37.4685 48.1114 37.394 48.2427C37.3196 48.374 37.4825 48.5958 37.758 48.7381C38.0334 48.8804 38.317 48.8894 38.3914 48.758Z" fill="black"/>
<path d="M35.3223 47.74L35.0703 49.0371L37.7179 49.5061L37.9699 48.209L35.3223 47.74Z" fill="#8ED16F"/>
<path opacity="0.05" d="M35.3223 47.74L35.0703 49.0371L37.7179 49.5061L37.9699 48.209L35.3223 47.74Z" fill="black"/>
<path d="M37.0744 48.7383C37.1029 48.5915 36.8764 48.4283 36.5685 48.3738C36.2606 48.3192 35.9879 48.394 35.9594 48.5408C35.9308 48.6876 36.1573 48.8509 36.4652 48.9054C36.7731 48.9599 37.0458 48.8851 37.0744 48.7383Z" fill="#8ED16F"/>
<path opacity="0.1" d="M37.0744 48.7383C37.1029 48.5915 36.8764 48.4283 36.5685 48.3738C36.2606 48.3192 35.9879 48.394 35.9594 48.5408C35.9308 48.6876 36.1573 48.8509 36.4652 48.9054C36.7731 48.9599 37.0458 48.8851 37.0744 48.7383Z" fill="black"/>
<path d="M35.5704 48.5186L35.3184 49.8157L37.966 50.2847L38.218 48.9876L35.5704 48.5186Z" fill="#8ED16F"/>
<path d="M37.3229 49.5169C37.3514 49.3701 37.1249 49.2069 36.817 49.1523C36.5091 49.0978 36.2364 49.1726 36.2079 49.3194C36.1794 49.4662 36.4059 49.6294 36.7137 49.684C37.0216 49.7385 37.2944 49.6637 37.3229 49.5169Z" fill="#8ED16F"/>
<path opacity="0.1" d="M37.3229 49.5169C37.3514 49.3701 37.1249 49.2069 36.817 49.1523C36.5091 49.0978 36.2364 49.1726 36.2079 49.3194C36.1794 49.4662 36.4059 49.6294 36.7137 49.684C37.0216 49.7385 37.2944 49.6637 37.3229 49.5169Z" fill="black"/>
<path d="M41.2362 45.1447L40.5786 46.3049L42.9469 47.5286L43.6044 46.3684L41.2362 45.1447Z" fill="#8ED16F"/>
<path d="M42.5813 46.6089C42.6558 46.4776 42.4928 46.2557 42.2174 46.1134C41.942 45.9711 41.6584 45.9622 41.584 46.0935C41.5096 46.2248 41.6725 46.4467 41.9479 46.589C42.2233 46.7313 42.5069 46.7402 42.5813 46.6089Z" fill="#8ED16F"/>
<path opacity="0.1" d="M42.5813 46.6089C42.6558 46.4776 42.4928 46.2557 42.2174 46.1134C41.942 45.9711 41.6584 45.9622 41.584 46.0935C41.5096 46.2248 41.6725 46.4467 41.9479 46.589C42.2233 46.7313 42.5069 46.7402 42.5813 46.6089Z" fill="black"/>
<path d="M39.5132 45.5914L39.2612 46.8884L41.9088 47.3574L42.1608 46.0604L39.5132 45.5914Z" fill="#8ED16F"/>
<path opacity="0.05" d="M39.5132 45.5914L39.2612 46.8884L41.9088 47.3574L42.1608 46.0604L39.5132 45.5914Z" fill="black"/>
<path d="M41.2653 46.5897C41.2938 46.4429 41.0673 46.2796 40.7594 46.2251C40.4515 46.1705 40.1788 46.2453 40.1503 46.3921C40.1218 46.539 40.3482 46.7022 40.6561 46.7567C40.964 46.8113 41.2368 46.7365 41.2653 46.5897Z" fill="#8ED16F"/>
<path opacity="0.1" d="M41.2653 46.5897C41.2938 46.4429 41.0673 46.2796 40.7594 46.2251C40.4515 46.1705 40.1788 46.2453 40.1503 46.3921C40.1218 46.539 40.3482 46.7022 40.6561 46.7567C40.964 46.8113 41.2368 46.7365 41.2653 46.5897Z" fill="black"/>
<path d="M39.7613 46.3699L39.5093 47.667L42.1569 48.136L42.4089 46.8389L39.7613 46.3699Z" fill="#8ED16F"/>
<path d="M41.5138 47.3682C41.5423 47.2214 41.3159 47.0582 41.008 47.0036C40.7001 46.9491 40.4273 47.0239 40.3988 47.1707C40.3703 47.3175 40.5968 47.4807 40.9047 47.5353C41.2126 47.5898 41.4853 47.515 41.5138 47.3682Z" fill="#8ED16F"/>
<path opacity="0.1" d="M41.5138 47.3682C41.5423 47.2214 41.3159 47.0582 41.008 47.0036C40.7001 46.9491 40.4273 47.0239 40.3988 47.1707C40.3703 47.3175 40.5968 47.4807 40.9047 47.5353C41.2126 47.5898 41.4853 47.515 41.5138 47.3682Z" fill="black"/>
</g>
<defs>
<linearGradient id="paint0_linear" x1="34.5498" y1="44.1069" x2="34.5498" y2="18.9749" gradientUnits="userSpaceOnUse">
<stop stop-color="#808080" stop-opacity="0.25"/>
<stop offset="0.54" stop-color="#808080" stop-opacity="0.12"/>
<stop offset="1" stop-color="#808080" stop-opacity="0.1"/>
</linearGradient>
<linearGradient id="paint1_linear" x1="-47621.5" y1="29625.6" x2="-47621.5" y2="8043.94" gradientUnits="userSpaceOnUse">
<stop stop-color="#808080" stop-opacity="0.25"/>
<stop offset="0.54" stop-color="#808080" stop-opacity="0.12"/>
<stop offset="1" stop-color="#808080" stop-opacity="0.1"/>
</linearGradient>
<clipPath id="clip0">
<rect width="72.1924" height="50.5684" fill="white" transform="translate(0.327148 0.1875)"/>
</clipPath>
</defs>
</svg>
