<svg width="73" height="63" viewBox="0 0 73 63" fill="none" xmlns="http://www.w3.org/2000/svg">
<g clip-path="url(#clip0)">
<path d="M31.1344 58.591C44.6665 58.591 55.6365 45.5612 55.6365 29.4881C55.6365 13.415 44.6665 0.385254 31.1344 0.385254C17.6023 0.385254 6.63232 13.415 6.63232 29.4881C6.63232 45.5612 17.6023 58.591 31.1344 58.591Z" fill="#F2F2F2"/>
<path d="M9.91682 62.6232C15.2861 62.6232 19.6388 61.796 19.6388 60.7756C19.6388 59.7552 15.2861 58.928 9.91682 58.928C4.54751 58.928 0.194824 59.7552 0.194824 60.7756C0.194824 61.796 4.54751 62.6232 9.91682 62.6232Z" fill="#F2F2F2"/>
<path d="M57.3446 60.7452C65.6525 60.7452 72.3874 59.4652 72.3874 57.8864C72.3874 56.3075 65.6525 55.0276 57.3446 55.0276C49.0367 55.0276 42.3018 56.3075 42.3018 57.8864C42.3018 59.4652 49.0367 60.7452 57.3446 60.7452Z" fill="#F2F2F2"/>
<path d="M54.0021 30.4075C54.0021 30.4075 54.1301 30.9145 53.4044 31.3709C52.6787 31.8272 52.4652 33.5512 53.319 34.0583C54.1728 34.5654 54.429 35.2245 54.0021 35.6809C53.5752 36.1372 52.8068 37.3542 53.8313 37.6584C54.8559 37.9626 54.9839 38.5711 54.6851 38.8246C54.3863 39.0782 55.3681 38.3683 55.3681 38.3683C55.3681 38.3683 55.5389 39.5852 56.4354 39.281C57.3319 38.9768 59.8506 33.1963 58.5699 32.385C57.2892 31.5737 54.0021 30.4075 54.0021 30.4075Z" fill="#2F2E41"/>
<path d="M55.5493 35.3037C55.5493 35.3037 55.9921 37.1446 55.2171 37.2761C54.7362 37.3651 54.2805 37.5906 53.8887 37.9335L55.3278 40.1689H57.9848L59.6454 38.1965C59.6454 38.1965 57.4313 36.2241 57.8741 35.0407C58.3169 33.8573 55.5493 35.3037 55.5493 35.3037Z" fill="#FFB9B9"/>
<path opacity="0.1" d="M55.5493 35.3037C55.5493 35.3037 55.9921 37.1446 55.2171 37.2761C54.7362 37.3651 54.2805 37.5906 53.8887 37.9335L55.3278 40.1689H57.9848L59.6454 38.1965C59.6454 38.1965 57.4313 36.2241 57.8741 35.0407C58.3169 33.8573 55.5493 35.3037 55.5493 35.3037Z" fill="black"/>
<path d="M56.2139 58.1835L58.7601 59.2354L60.5313 59.3669L60.4207 57.526L56.7674 56.2427L56.2139 58.1835Z" fill="#FFB9B9"/>
<path d="M59.4795 57.789C59.4795 57.789 59.4795 59.6299 59.7009 59.6299C59.9223 59.6299 62.9114 59.2355 63.797 59.6299C64.6827 60.0244 66.0111 58.578 65.3469 57.789C64.6827 57.0001 63.5992 55.8166 62.9232 56.0796C62.2471 56.3426 59.4795 57.0001 59.4795 57.0001V57.789Z" fill="#575A89"/>
<path d="M51.3425 56.0796C51.3425 56.0796 50.014 59.2354 50.8997 59.4984C51.7853 59.7614 52.7817 59.3669 52.8924 59.2354C53.0031 59.1039 54.553 58.578 54.7744 58.841C54.9958 59.1039 54.9958 57.789 54.9958 57.789L51.3425 56.0796Z" fill="#575A89"/>
<path d="M52.4499 51.7405C52.4499 51.7405 50.3465 55.1593 51.8964 56.0798C53.4463 57.0002 60.8636 57.0002 61.4171 56.0798C61.9706 55.1593 62.192 52.2665 61.4171 52.0035C60.6422 51.7405 52.4499 51.7405 52.4499 51.7405Z" fill="#2F2E41"/>
<path opacity="0.2" d="M52.4499 51.7405C52.4499 51.7405 50.3465 55.1593 51.8964 56.0798C53.4463 57.0002 60.8636 57.0002 61.4171 56.0798C61.9706 55.1593 62.192 52.2665 61.4171 52.0035C60.6422 51.7405 52.4499 51.7405 52.4499 51.7405Z" fill="black"/>
<path d="M56.4349 36.2242C57.8411 36.2242 58.9811 34.8702 58.9811 33.1999C58.9811 31.5296 57.8411 30.1755 56.4349 30.1755C55.0287 30.1755 53.8887 31.5296 53.8887 33.1999C53.8887 34.8702 55.0287 36.2242 56.4349 36.2242Z" fill="#FFB9B9"/>
<path d="M52.4497 37.9337L54.6638 37.4077C54.6638 37.4077 55.2174 39.5116 56.9886 39.1171C58.7599 38.7226 59.2028 37.4077 59.2028 37.4077C59.2028 37.4077 60.5312 38.0652 60.6419 38.0652C60.7526 38.0652 62.1918 38.7226 62.1918 39.1171C62.1918 39.5116 60.5312 43.4564 60.5312 43.4564L60.7526 50.557L52.5604 50.294L53.1139 43.3249L52.4497 37.9337Z" fill="#9C27B0"/>
<path d="M51.232 41.3525C51.232 41.3525 50.5678 48.3217 51.0106 48.8476C51.4534 49.3736 53.2248 50.82 53.2248 50.82V49.2421L52.3391 47.2697L53.2248 42.6675L51.232 41.3525Z" fill="#FFB9B9"/>
<path d="M62.6899 41.1553C62.6899 41.1553 62.3024 48.3217 62.3024 48.5846C62.3024 48.8476 61.3061 49.7681 60.9739 49.7681C60.6418 49.7681 60.4204 49.1106 60.4204 49.1106L61.1954 48.0587L60.6418 42.6674L62.6899 41.1553Z" fill="#FFB9B9"/>
<path d="M61.6383 51.2145C61.6383 51.2145 66.6201 47.9271 66.7308 51.2145C66.8415 54.5018 64.1846 55.8167 64.1846 55.8167C64.1846 55.8167 57.3208 58.2614 57.044 57.3678C56.7673 56.4742 56.2137 55.0278 56.6566 54.8963C57.0994 54.7648 57.6529 54.5018 57.8743 54.7648C58.0958 55.0278 60.8634 52.7924 60.8634 52.7924L61.6383 51.2145Z" fill="#2F2E41"/>
<path opacity="0.2" d="M63.963 50.8201C63.963 50.8201 62.9667 51.346 62.6346 51.7405C62.3025 52.135 60.8633 52.7925 60.8633 52.7925" stroke="black" stroke-width="2" stroke-miterlimit="10"/>
<path d="M53.1138 38.1966L52.4496 37.9336C52.4496 37.9336 50.014 40.9579 50.789 41.7469C51.5639 42.5358 52.0067 42.7988 52.2281 43.0618C52.4496 43.3248 53.5566 43.4563 53.5566 43.4563L53.1138 38.1966Z" fill="#9C27B0"/>
<path d="M61.1954 38.854L62.1917 39.117C62.1917 39.117 62.9667 41.0894 63.1881 41.3524C63.4095 41.6153 62.856 41.4838 62.5239 42.0098C62.1917 42.5358 61.8596 43.4562 61.1954 43.4562C60.5312 43.4562 59.6455 42.1413 59.6455 42.1413L61.1954 38.854Z" fill="#9C27B0"/>
<path d="M52.671 52.3979C52.671 52.3979 48.4642 48.8476 47.025 51.4774C45.5859 54.1073 53.2246 57.6576 54.3316 58.1836C55.4387 58.7096 56.435 59.2355 56.435 59.2355C56.435 59.2355 57.4314 56.3427 57.4314 55.8167C57.4314 55.2907 56.6564 55.2907 56.435 55.2907C56.2136 55.2907 55.2173 55.0278 54.9959 54.6333C54.7744 54.2388 52.671 52.3979 52.671 52.3979Z" fill="#2F2E41"/>
<path opacity="0.2" d="M50.3462 51.4773C50.3462 51.4773 51.4533 52.5292 52.4496 52.7922C53.446 53.0552 53.7781 53.7127 53.7781 53.7127" stroke="black" stroke-width="2" stroke-miterlimit="10"/>
<path d="M51.9073 46.5334L51.9958 52.1008C51.9987 52.2847 52.0627 52.4598 52.1738 52.5879C52.285 52.716 52.4342 52.7867 52.589 52.7846L61.3119 52.6682C61.4605 52.6662 61.603 52.5973 61.7105 52.4754C61.818 52.3535 61.8826 52.1877 61.8911 52.0114L62.1559 46.5604C62.1605 46.4656 62.1487 46.3707 62.1214 46.2816C62.094 46.1924 62.0516 46.1108 61.9968 46.0418C61.9419 45.9728 61.8758 45.9178 61.8024 45.8802C61.729 45.8426 61.65 45.8232 61.5701 45.8232H52.494C52.416 45.8232 52.3388 45.8417 52.2669 45.8776C52.195 45.9134 52.1298 45.9659 52.0752 46.0321C52.0206 46.0982 51.9776 46.1766 51.9488 46.2626C51.9199 46.3487 51.9059 46.4407 51.9073 46.5334Z" fill="#575A89"/>
<path d="M56.5711 29.4006C56.5711 29.4006 56.7129 29.9624 55.909 30.4679C55.105 30.9734 54.8686 32.8833 55.8144 33.445C56.7602 34.0067 57.044 34.737 56.5711 35.2425C56.0981 35.7481 55.2469 37.0962 56.3819 37.4332C57.5169 37.7703 57.6588 38.4443 57.3277 38.7252C56.9967 39.006 58.0844 38.2196 58.0844 38.2196C58.0844 38.2196 58.2736 39.5678 59.2667 39.2307C60.2598 38.8937 61.2507 32.7672 60.1437 31.1893C59.1143 29.7221 56.5711 29.4006 56.5711 29.4006Z" fill="#2F2E41"/>
<path d="M56.269 28.8226C56.2693 27.9997 58.3421 28.591 59.2308 29.74C59.8463 30.5357 60.781 31.7328 59.9977 32.5766C59.2144 33.4204 61.3404 34.5266 61.9105 34.8619C62.4807 35.1973 63.6064 36.2229 62.59 36.9109C61.5735 37.599 61.5899 38.2935 61.9724 38.4579C62.355 38.6224 61.129 38.2134 61.129 38.2134C61.129 38.2134 61.2529 39.5722 60.22 39.5657C59.1872 39.5592 56.224 32.8171 56.9319 30.9431C57.5901 29.2006 56.269 28.8226 56.269 28.8226Z" fill="#2F2E41"/>
<path d="M56.7181 28.6422C53.9462 28.4439 53.668 30.9222 53.668 30.9222C53.6871 32.3565 55.6047 31.6576 56.1373 31.8714C56.7798 31.3224 58.0183 30.2836 58.9041 29.5423C58.261 29.0045 57.5035 28.6925 56.7181 28.6422Z" fill="#2F2E41"/>
<path d="M55.9285 44.4569C55.9285 44.4569 53.4421 30.6155 37.8789 20.5747" stroke="#3F3D56" stroke-width="2" stroke-miterlimit="10"/>
<path d="M38.5201 20.2729L38.5512 20.4247L37.9217 20.606L38.12 21.3386L37.9948 21.3863L37.7534 20.494L38.5201 20.2729Z" fill="#3F3D56"/>
<path d="M4.69297 58.5997C4.69297 60.3528 3.81559 60.9649 2.7332 60.9649C2.70813 60.9649 2.68309 60.9646 2.6581 60.9639C2.60795 60.9626 2.55828 60.9598 2.5092 60.9558C1.53236 60.8737 0.773438 60.2301 0.773438 58.5997C0.773438 56.9124 2.58872 54.7834 2.72508 54.6258L2.72532 54.6255C2.73058 54.6194 2.7332 54.6165 2.7332 54.6165C2.7332 54.6165 4.69297 56.8466 4.69297 58.5997Z" fill="#9C27B0"/>
<path d="M2.66173 60.6967L3.3785 59.5071L2.65994 60.8273L2.65803 60.9639C2.60788 60.9626 2.5582 60.9598 2.50913 60.9558L2.58638 59.2019L2.58579 59.1883L2.5871 59.1857L2.59438 59.0201L1.87402 57.6966L2.59665 58.8958L2.59832 58.931L2.65671 57.6058L2.04 56.2382L2.66423 57.3732L2.72501 54.6258L2.72525 54.6165V54.6255L2.7151 56.792L3.32907 55.9332L2.71259 56.9787L2.69635 58.1652L3.26961 57.0265L2.69397 58.3398L2.68489 58.9994L3.51713 57.4145L2.68179 59.2296L2.66173 60.6967Z" fill="#3F3D56"/>
<path d="M14.0405 58.1456L14.4597 57.7756C14.4597 57.7756 14.7372 59.6167 14.4275 59.8926C14.1179 60.1684 12.9567 60.6282 12.9567 61.1799C12.9567 61.7315 10.3247 62.4671 10.2473 61.6396C10.1699 60.8121 10.4795 60.3523 10.4795 60.3523C10.4795 60.3523 11.7181 58.8811 11.8729 58.6053C12.0278 58.3295 12.4148 57.7778 12.4148 57.7778L14.0405 58.1456Z" fill="#2F2E41"/>
<path d="M7.84717 35.2504C7.84717 35.2504 7.85878 35.3314 7.8789 35.4794C7.89749 35.6109 7.92303 35.7966 7.954 36.0256C8.27913 38.3822 9.22743 45.3197 9.16317 45.5486C9.08576 45.8245 8.54388 46.8359 9.16317 47.1117C9.22278 47.1384 9.28703 47.2248 9.35593 47.3609C9.48891 47.654 9.59854 47.9612 9.68338 48.2786C10.0526 49.5511 10.4474 51.5878 10.6758 52.9982C10.7757 53.618 10.8438 54.1163 10.8639 54.3775C10.8709 54.4378 10.8717 54.499 10.8662 54.5595C10.7888 54.9273 11.3307 56.2146 11.563 56.5824C11.7952 56.9502 12.1822 57.318 12.1048 57.6858C12.0274 58.0536 14.0401 59.065 14.2724 58.4213C14.5046 57.7777 14.5046 57.4099 14.582 57.226C14.6594 57.0421 14.7368 55.7549 14.3498 55.571C13.9627 55.3871 14.195 52.1689 13.8079 51.5252C13.6786 51.311 13.4812 50.5855 13.2745 49.7129C13.1933 49.3709 13.1112 49.0068 13.0307 48.6418C12.704 47.1458 12.4145 45.6406 12.4145 45.6406L12.4919 34.8826L8.23423 34.239L8.12508 34.525L7.90755 35.0923L7.84717 35.2504Z" fill="#2F2E41"/>
<path d="M7.61501 52.9046C7.61501 52.9046 6.99571 52.169 6.68606 52.9046C6.37641 53.6401 6.06677 56.4905 5.52488 57.1342C4.98299 57.7778 4.28629 60.996 5.06041 61.1799C5.83453 61.3638 6.68606 60.904 6.76347 60.3524C6.84089 59.8007 8.46654 56.9503 8.46654 56.6744C8.46654 56.3986 7.38277 55.3872 7.38277 55.3872L7.61501 52.9046Z" fill="#2F2E41"/>
<path d="M17.1369 30.1932C17.1369 30.1932 16.1306 40.9511 15.8983 41.9626C15.6661 42.974 14.4275 46.8358 14.0404 47.4794C13.6534 48.1231 11.1762 53.3641 10.8665 53.64C10.5569 53.9158 9.93759 54.6514 9.93759 54.6514C9.93759 54.6514 8.77641 56.0306 8.62159 56.3064C8.46676 56.5823 7.15076 55.7548 7.07334 55.2031C6.99593 54.6514 7.15076 53.7319 7.22817 53.3641C7.30558 52.9963 7.07334 52.4446 7.30558 52.1688C7.53782 51.8929 8.699 50.5137 8.699 49.8701C8.699 49.2265 10.7117 45.4566 11.4858 44.6291C12.26 43.8015 12.1051 42.4223 12.1051 42.4223V36.8135L7.84747 35.2504C7.84747 35.2504 8.0797 30.8369 8.62159 30.8369C9.16347 30.8369 16.2854 29.3657 17.1369 30.1932Z" fill="#2F2E41"/>
<path d="M10.8666 14.8379C12.2775 14.8379 13.4212 13.4794 13.4212 11.8036C13.4212 10.1278 12.2775 8.76929 10.8666 8.76929C9.45575 8.76929 8.31201 10.1278 8.31201 11.8036C8.31201 13.4794 9.45575 14.8379 10.8666 14.8379Z" fill="#9F616A"/>
<path d="M11.7181 14.1945C11.7181 14.1945 12.0278 15.5737 12.4149 15.9415C12.8019 16.3093 11.4085 17.8724 11.4085 17.8724L8.77648 18.0563L8.31201 16.3093C8.31201 16.3093 9.16354 14.2864 8.93131 12.9992C8.69907 11.7119 11.7181 14.1945 11.7181 14.1945Z" fill="#9F616A"/>
<path d="M12.8015 15.7576C12.8015 15.7576 12.1048 15.8495 11.95 16.1254C11.7952 16.4012 10.7114 17.2287 9.85988 17.0448C9.00835 16.8609 8.46647 16.5851 8.31164 16.677C8.15682 16.769 7.84717 18.6999 7.84717 18.6999L8.6987 21.6422L8.54388 29.7337L8.31164 31.9404C8.31164 31.9404 7.84717 31.2048 9.70506 31.6646C11.563 32.1243 13.9627 31.2968 14.7369 31.2048C15.511 31.1129 16.827 30.837 16.9044 30.2853C16.9818 29.7337 16.6722 27.7108 16.6722 27.7108L15.4336 21.5503L14.6594 18.2402L12.8015 15.7576Z" fill="#9C27B0"/>
<path d="M12.0693 15.3424C12.0693 15.3424 12.7242 14.9298 12.9564 15.2976C13.1886 15.6654 16.1303 16.2171 16.1303 16.493C16.1303 16.7688 16.7496 24.2166 16.5948 24.8602C16.4399 25.5039 16.9044 26.2395 16.9044 26.2395L17.4463 28.9979C17.4463 28.9979 18.9171 34.2389 18.2978 34.4228C17.6785 34.6067 17.1367 34.4228 16.9044 34.4228C16.6722 34.4228 16.7496 30.9288 16.1303 30.0093C15.511 29.0898 14.6595 26.7911 14.5046 26.3314C14.3498 25.8717 12.4145 19.5272 12.4919 18.7917C12.5693 18.0561 12.0693 15.3424 12.0693 15.3424Z" fill="#D0CDE1"/>
<path d="M8.85385 15.7576C8.85385 15.7576 8.23455 15.7576 8.15714 15.9415C8.07973 16.1254 7.30561 17.3207 6.99596 17.5965C6.68631 17.8724 5.60254 19.0677 5.60254 19.3435C5.60254 19.6194 7.84749 21.6422 7.84749 21.6422C7.84749 21.6422 8.77644 27.0672 8.31196 28.9061C7.84749 30.7451 7.15078 35.1586 7.46043 35.4344C7.77008 35.7103 8.46679 35.8022 8.46679 35.4344C8.46679 35.0666 8.93126 31.1129 9.31832 30.2853C9.70538 29.4578 10.8666 24.2168 10.4021 22.7456C9.93762 21.2744 8.85385 15.7576 8.85385 15.7576Z" fill="#D0CDE1"/>
<path d="M19.0719 24.8604C19.0719 24.8604 19.1494 27.7107 18.2978 29.1819C17.4463 30.6531 16.9044 32.3081 16.9044 32.3081C16.9044 32.3081 15.511 31.8484 15.2788 31.2967C15.0465 30.745 13.5757 31.2047 13.5757 31.0208C13.5757 30.8369 15.3562 29.9175 15.511 29.7336C15.6658 29.5497 16.2077 29.5497 16.5173 29.1819C16.827 28.8141 16.9044 27.9866 16.9044 27.9866L17.2141 25.5959L19.0719 24.8604Z" fill="#9F616A"/>
<path d="M12.6259 9.93274C12.8224 9.91154 13.0251 9.88821 13.1988 9.77695C13.588 9.52766 13.6912 8.81774 13.3949 8.42787C13.3132 8.32867 13.2219 8.2414 13.1228 8.16794L12.5343 7.69221C12.2741 7.48181 12.0077 7.26796 11.7041 7.16877C11.4296 7.07906 11.1396 7.08828 10.8554 7.10926C10.3037 7.14999 9.74863 7.23412 9.22973 7.46037C8.71082 7.68661 8.22677 8.06512 7.9125 8.60524C7.41428 9.46148 7.40743 10.6163 7.68183 11.6048C7.95624 12.5933 8.47749 13.4541 8.99109 14.2974L9.25759 12.7529C9.28132 12.6154 9.31202 12.4646 9.40834 12.3832C9.64775 12.1808 9.9406 12.5963 10.2344 12.5936C10.4232 12.5919 10.5817 12.4074 10.6533 12.1999C10.7248 11.9924 10.7295 11.7625 10.7461 11.5392C10.7812 11.066 10.9204 10.4077 11.2976 10.1467C11.6492 9.90355 12.2308 9.97537 12.6259 9.93274Z" fill="#2F2E41"/>
<path opacity="0.1" d="M12.4826 35.3246C12.4826 35.3246 12.2212 44.3073 12.0664 44.5831C11.9115 44.859 12.0664 35.2964 12.0664 35.2964L12.4826 35.3246Z" fill="black"/>
<path d="M15.5112 16.4932H16.1305C16.1305 16.4932 18.7625 20.7228 18.4529 20.9986C18.1432 21.2745 18.4529 22.01 18.4529 22.01L19.0722 23.3893C19.0722 23.3893 19.8463 24.2168 19.6141 24.4007C19.3818 24.5846 19.0722 25.3202 19.0722 25.3202C19.0722 25.3202 17.5239 25.0443 17.0595 26.1477L16.0555 24.6422L15.5112 16.4932Z" fill="#D0CDE1"/>
<path d="M15.7301 17.8534L13.605 18.8958L15.2403 23.5995L17.3654 22.5572L15.7301 17.8534Z" fill="#2F2E41"/>
<path d="M15.4809 20.6124C15.7156 20.4972 15.8337 20.1963 15.7446 19.9401C15.6556 19.684 15.3931 19.5697 15.1584 19.6848C14.9237 19.8 14.8056 20.1009 14.8946 20.3571C14.9837 20.6132 15.2461 20.7275 15.4809 20.6124Z" fill="#9C27B0"/>
<path d="M13.9629 23.8488C13.9629 23.8488 8.38925 29.3656 7.4603 27.6186C6.53136 25.8716 8.46666 24.4004 8.46666 24.4004C8.46666 24.4004 10.1697 24.4924 12.105 23.0212L14.0403 22.0098C14.0403 22.0098 15.8071 19.0138 16.4092 20.1546C17.0112 21.2955 15.3815 23.2811 13.9629 23.8488Z" fill="#9F616A"/>
<path d="M6.45415 18.9756L5.60262 19.3434V22.1018L5.29297 22.6535C5.29297 22.6535 5.37038 23.7569 5.60262 24.0327C5.83485 24.3086 6.29933 24.2166 6.1445 24.8603C6.05145 25.2799 6.0252 25.7165 6.06709 26.1475C6.06709 26.1475 7.46051 28.2623 7.53792 27.9865C7.61533 27.7106 8.6991 24.3086 8.85393 24.3086C9.00875 24.3086 7.30568 18.9756 7.30568 18.9756H6.45415Z" fill="#D0CDE1"/>
<path d="M16.6335 32.9057C16.6335 32.9057 17.434 31.9862 17.0338 31.9402C16.6335 31.8943 15.2401 30.9748 15.0079 31.4345C14.7756 31.8943 16.6335 32.9057 16.6335 32.9057Z" fill="#2F2E41"/>
<path d="M31.857 15.3659C32.4737 15.3659 32.9737 15.0515 32.9737 14.6636C32.9737 14.2758 32.4737 13.9614 31.857 13.9614C31.2402 13.9614 30.7402 14.2758 30.7402 14.6636C30.7402 15.0515 31.2402 15.3659 31.857 15.3659Z" fill="#57B894"/>
<path d="M36.127 17.0043C33.6089 15.8747 31.0908 15.8747 28.5728 17.0043V13.3372C31.036 12.4543 33.6638 12.4543 36.127 13.3372V17.0043Z" stroke="#3F3D56" stroke-width="2" stroke-miterlimit="10"/>
<path d="M35.0757 16.2459C33.2583 15.4307 31.4409 15.4307 29.6235 16.2459V13.5992C31.4013 12.962 33.2979 12.962 35.0757 13.5992V16.2459Z" stroke="#3F3D56" stroke-width="2" stroke-miterlimit="10"/>
<path d="M32.251 15.0536C32.8677 15.0536 33.3677 14.7392 33.3677 14.3514C33.3677 13.9636 32.8677 13.6492 32.251 13.6492C31.6342 13.6492 31.1343 13.9636 31.1343 14.3514C31.1343 14.7392 31.6342 15.0536 32.251 15.0536Z" stroke="#3F3D56" stroke-width="2" stroke-miterlimit="10"/>
<path d="M32.6783 19.7636C33.2825 19.6171 33.7195 19.1904 33.6542 18.8104C33.5889 18.4304 33.0461 18.2411 32.4418 18.3876C31.8375 18.5341 31.4006 18.9609 31.4659 19.3409C31.5312 19.7208 32.074 19.9101 32.6783 19.7636Z" fill="#57B894"/>
<path d="M37.1377 20.3549C34.4803 19.8462 32.0131 20.4443 29.7361 22.1492L29.1187 18.5562C31.3835 17.106 33.9582 16.4819 36.5203 16.7618L37.1377 20.3549Z" stroke="#3F3D56" stroke-width="2" stroke-miterlimit="10"/>
<path d="M35.9801 19.8613C34.0621 19.4942 32.2814 19.9259 30.638 21.1563L30.1924 18.5631C31.827 17.5165 33.6853 17.066 35.5345 17.2681L35.9801 19.8613Z" stroke="#3F3D56" stroke-width="2" stroke-miterlimit="10"/>
<path d="M33.0118 19.3642C33.6161 19.2177 34.053 18.7909 33.9877 18.411C33.9224 18.031 33.3796 17.8417 32.7753 17.9882C32.171 18.1347 31.7341 18.5615 31.7994 18.9415C31.8647 19.3214 32.4075 19.5107 33.0118 19.3642Z" stroke="#3F3D56" stroke-width="2" stroke-miterlimit="10"/>
<path d="M33.4424 23.5322C33.4651 23.1453 32.9847 22.7905 32.3694 22.7396C31.7542 22.6888 31.237 22.9612 31.2144 23.3481C31.1917 23.7349 31.6721 24.0898 32.2874 24.1407C32.9026 24.1915 33.4198 23.9191 33.4424 23.5322Z" fill="#57B894"/>
<path d="M36.4511 26.1272C34.0051 24.7927 31.4931 24.5851 28.915 25.5043L29.1294 21.8461C31.6383 21.1684 34.2597 21.3851 36.6654 22.4689L36.4511 26.1272Z" stroke="#3F3D56" stroke-width="2" stroke-miterlimit="10"/>
<path d="M35.4469 25.2842C33.6815 24.321 31.8685 24.1712 30.0078 24.8346L30.1625 22.1943C31.9733 21.7052 33.8653 21.8616 35.6015 22.6438L35.4469 25.2842Z" stroke="#3F3D56" stroke-width="2" stroke-miterlimit="10"/>
<path d="M33.8536 23.2534C33.8762 22.8665 33.3958 22.5117 32.7806 22.4608C32.1653 22.41 31.6482 22.6824 31.6255 23.0693C31.6028 23.4561 32.0832 23.811 32.6985 23.8619C33.3137 23.9127 33.8309 23.6403 33.8536 23.2534Z" stroke="#3F3D56" stroke-width="2" stroke-miterlimit="10"/>
<path d="M27.4509 17.0894C27.4509 17.0894 22.623 16.3049 19.1753 18.7048" stroke="#3F3D56" stroke-width="2" stroke-miterlimit="10"/>
<path d="M19.2913 17.8984L19.4167 17.9456L19.2206 18.6789L19.8509 18.8575L19.8202 19.0094L19.0527 18.7916L19.2913 17.8984Z" fill="#3F3D56"/>
</g>
<defs>
<clipPath id="clip0">
<rect width="72.1924" height="62.238" fill="white" transform="translate(0.194824 0.385254)"/>
</clipPath>
</defs>
</svg>
