<svg width="73" height="63" viewBox="0 0 73 63" fill="none" xmlns="http://www.w3.org/2000/svg">
<g clip-path="url(#clip0)">
<path d="M72.5396 61.8347H0.347168V62.5382H72.5396V61.8347Z" fill="#85848B"/>
<path d="M57.5424 49.4134C57.5424 49.9545 55.177 51.5321 52.3673 51.5321C49.5575 51.5321 47.3682 49.9545 47.3682 49.4134C47.3682 48.8723 49.6455 49.0465 52.458 49.0465C55.2705 49.0465 57.5424 48.8714 57.5424 49.4134Z" fill="#504F60"/>
<path opacity="0.2" d="M57.5424 49.4133C57.5424 49.9545 55.177 51.532 52.3673 51.532C49.5575 51.532 47.3682 49.9545 47.3682 49.4133" fill="black"/>
<path d="M29.2458 39.4841C29.7019 39.5621 30.1751 39.6116 30.6118 39.4227C30.6806 39.3943 30.7563 39.331 30.7494 39.2393C30.7445 39.2059 30.7339 39.1746 30.7185 39.1475C30.5538 38.8183 30.4155 38.4669 30.3058 38.0992C30.3014 38.08 30.2925 38.0633 30.2803 38.0515C30.2661 38.0447 30.2505 38.0447 30.2363 38.0515C30.0348 38.1222 29.8607 38.2955 29.6606 38.3698C29.5585 38.4071 29.452 38.4177 29.3469 38.401C29.2561 38.3872 29.1323 38.2872 29.0498 38.3001C29.0966 38.7009 29.2108 39.0751 29.2458 39.4841Z" fill="#9C27B0"/>
<path d="M37.8704 38.4688C38.1709 38.1937 38.4825 37.9048 38.66 37.4801C38.6727 37.4547 38.68 37.4253 38.6813 37.3948C38.6783 37.3648 38.6695 37.3364 38.6559 37.3123C38.4868 36.9539 38.2692 36.6407 38.0141 36.3887C37.881 36.514 37.7608 36.662 37.6565 36.8289C37.5808 36.9353 37.3717 37.1041 37.3696 37.2664C37.3696 37.3581 37.4494 37.4645 37.4866 37.5416C37.5368 37.6406 37.5842 37.7415 37.6296 37.8442C37.6558 37.8947 37.8944 38.4486 37.8704 38.4688Z" fill="#9C27B0"/>
<path d="M31.0335 40.7122C31.0388 40.8067 31.0194 40.9007 30.9784 40.9782C30.9463 41.0212 30.9066 41.0528 30.8629 41.0699C30.2253 41.3744 29.4872 40.9947 28.851 41.2946C28.7203 41.356 28.5965 41.445 28.4651 41.5037C28.3085 41.5665 28.1469 41.6047 27.9837 41.6174C27.7587 41.6459 27.5324 41.6642 27.3068 41.6725C27.1354 41.6886 26.9632 41.6685 26.7965 41.6128C26.7131 41.5844 26.6352 41.5329 26.5678 41.4616C26.5003 41.3903 26.4449 41.3009 26.4051 41.1992C26.3705 41.108 26.3636 41.0026 26.3858 40.9048C26.3958 40.8713 26.41 40.8402 26.4278 40.8131C26.4709 40.7486 26.5216 40.6938 26.5777 40.6507L26.8123 40.449C26.9223 40.3453 27.0418 40.2608 27.1679 40.1977C27.2608 40.1573 27.3591 40.1399 27.4533 40.1059C27.7828 39.9775 28.0346 39.629 28.2684 39.2942L28.5876 38.8403C28.6174 38.7903 28.6552 38.7499 28.6983 38.7219C28.7426 38.7023 28.7896 38.6963 28.8359 38.7045C29.1459 38.734 29.4452 38.8678 29.706 39.0934C29.7726 39.16 29.8446 39.2166 29.9206 39.2621C30.1076 39.3594 30.3477 39.286 30.5203 39.1631C30.6022 39.1044 30.5843 39.0714 30.6187 38.9668C30.6531 38.8623 30.737 38.7953 30.8099 38.8907C30.8319 38.9237 30.8475 38.9634 30.8553 39.0063C30.9241 39.3089 30.898 39.6345 30.898 39.9519C30.8959 40.0015 30.9006 40.0512 30.9117 40.0986C30.9293 40.1464 30.9502 40.1919 30.9743 40.2343C30.9792 40.2456 30.9836 40.2572 30.9874 40.2692C31.0294 40.4097 31.0453 40.5617 31.0335 40.7122Z" fill="#514E7F"/>
<path d="M31.0335 40.7123C31.0388 40.8068 31.0194 40.9009 30.9784 40.9783C30.9463 41.0214 30.9066 41.0529 30.8629 41.07C30.2253 41.3745 29.4872 40.9948 28.851 41.2947C28.7203 41.3562 28.5965 41.4452 28.4651 41.5039C28.3085 41.5666 28.1469 41.6048 27.9837 41.6176C27.7587 41.646 27.5324 41.6644 27.3068 41.6726C27.1354 41.6888 26.9632 41.6687 26.7965 41.613C26.7131 41.5846 26.6352 41.533 26.5678 41.4617C26.5003 41.3905 26.4449 41.3011 26.4051 41.1994C26.3705 41.1082 26.3636 41.0027 26.3858 40.905C26.3958 40.8714 26.41 40.8404 26.4278 40.8132C26.4649 40.9169 26.4918 41.0544 26.5152 41.104C26.5468 41.1774 26.5897 41.2409 26.6412 41.2904C26.6927 41.3399 26.7515 41.3742 26.8137 41.391C26.9068 41.3987 27.0001 41.3828 27.0888 41.3443C27.6666 41.1535 28.2808 41.1507 28.8359 40.8618C29.0264 40.7619 29.208 40.6289 29.4081 40.5684C29.6083 40.5078 29.8208 40.5243 30.0272 40.5014C30.3532 40.4665 30.6689 40.3354 30.9901 40.2666C31.0316 40.4083 31.0465 40.5613 31.0335 40.7123Z" fill="#464353"/>
<path d="M39.3309 38.4129C39.3006 38.7357 39.1472 39.0136 38.9787 39.2493C38.8102 39.4851 38.6197 39.6969 38.4855 39.9684C38.3205 40.305 38.2462 40.7223 38.0316 41.0066C37.9492 41.11 37.8566 41.198 37.7564 41.268C37.6442 41.3563 37.5255 41.4292 37.4022 41.4854C37.0817 41.6221 36.7364 41.5909 36.4014 41.5579C36.2927 41.5565 36.185 41.5288 36.0837 41.4762C36.0375 41.445 35.9934 41.4088 35.9516 41.368C35.8676 41.2991 35.797 41.2048 35.7452 41.0928C35.7199 41.032 35.7127 40.9605 35.7253 40.8929C35.7444 40.8184 35.7773 40.7516 35.8209 40.6985C35.8963 40.5939 35.9772 40.4968 36.063 40.4077C36.1808 40.3064 36.2869 40.1828 36.378 40.0409C36.434 39.9287 36.4751 39.8046 36.4998 39.674C36.5485 39.4451 36.5783 39.2099 36.5885 38.9724C36.5881 38.8145 36.6004 38.6571 36.625 38.5028C36.6759 38.2606 36.8107 38.0442 36.7956 37.7938C36.7894 37.7579 36.7918 37.7204 36.8024 37.6865C36.8184 37.66 36.8408 37.6415 36.8657 37.6342C36.9708 37.5783 37.0817 37.544 37.1945 37.5324C37.2511 37.5272 37.3078 37.5388 37.3606 37.5664C37.4135 37.594 37.461 37.6369 37.4999 37.692C37.5467 37.7672 37.5776 37.8754 37.6464 37.9048C37.6805 37.9172 37.7162 37.9191 37.7509 37.9103C37.9202 37.8873 38.099 37.8589 38.2324 37.7131C38.2941 37.6393 38.3437 37.5493 38.378 37.4488C38.4123 37.3482 38.4307 37.2393 38.4319 37.1289C38.4319 37.0454 38.4037 36.9583 38.5007 36.9454C38.5736 36.9326 38.6314 37.0371 38.6685 37.1013C38.8026 37.3407 38.9402 37.5911 38.9904 37.8828C39.0099 37.8727 39.0307 37.8674 39.0516 37.8672C39.0945 37.8667 39.1369 37.88 39.1751 37.906C39.2133 37.9321 39.2462 37.97 39.271 38.0167C39.3258 38.135 39.347 38.2755 39.3309 38.4129Z" fill="#514E7F"/>
<path d="M39.3307 38.413C39.3005 38.7358 39.1471 39.0137 38.9786 39.2495C38.81 39.4852 38.6195 39.697 38.4854 39.9685C38.3203 40.3051 38.246 40.7224 38.0314 41.0067C37.9491 41.1101 37.8565 41.1981 37.7563 41.2681C37.6441 41.3564 37.5254 41.4293 37.4021 41.4855C37.0816 41.6222 36.7363 41.591 36.4013 41.558C36.2925 41.5566 36.1849 41.5289 36.0835 41.4763C36.0374 41.4451 35.9932 41.4089 35.9515 41.3681C35.8675 41.2992 35.7968 41.2049 35.7451 41.093C35.8096 41.0516 35.8799 41.0291 35.9515 41.0269C36.1 41.0379 36.2087 41.225 36.3511 41.2828C36.554 41.3644 36.7562 41.1737 36.9619 41.1085C37.096 41.0664 37.237 41.0774 37.3697 41.0168C37.4804 40.9598 37.5826 40.8772 37.6717 40.7729C37.7938 40.6564 37.9025 40.5168 37.9943 40.3583C38.0705 40.1998 38.1339 40.0311 38.1834 39.8548C38.2921 39.517 38.4199 39.1907 38.5659 38.8789C38.5875 38.8296 38.6136 38.784 38.6436 38.7432C38.6759 38.7037 38.7124 38.6762 38.7488 38.6414C38.8864 38.5029 38.9435 38.2745 38.9916 38.0507C39.0047 37.9827 39.0229 37.9166 39.046 37.8535C39.0889 37.853 39.1312 37.8664 39.1694 37.8924C39.2076 37.9184 39.2406 37.9564 39.2654 38.003C39.3246 38.1241 39.3479 38.2703 39.3307 38.413Z" fill="#464353"/>
<path d="M24.9079 9.81759C25.0791 9.98865 25.22 10.2078 25.3206 10.4596C25.4169 10.7109 25.972 12.6608 25.9397 12.9442C26.1206 12.7012 26.8338 12.6617 27.0168 12.4187C27.0931 12.3169 27.5051 11.8088 27.5671 11.6904C27.629 11.5721 28.0884 11.3236 28.1386 11.1988C28.3264 10.7503 26.807 9.05084 27.0017 8.60785C27.0124 8.58749 27.018 8.56304 27.0175 8.53814C27.013 8.51723 27.0042 8.49845 26.992 8.48403C26.8675 8.31435 26.7025 8.20888 26.5525 8.08323C26.4026 7.95757 26.2581 7.7824 26.2175 7.55127C26.0746 7.63904 25.9433 7.75739 25.8289 7.90163C25.5501 8.22019 25.2761 8.54517 25.007 8.87658C24.9017 9.00681 24.6981 9.18016 24.6493 9.36634C24.5915 9.56628 24.8075 9.70844 24.9079 9.81759Z" fill="#A1616A"/>
<path d="M27.3674 9.0957C27.1343 9.30459 26.9164 9.54226 26.7167 9.80559C26.5282 10.0541 26.3494 10.3421 26.304 10.6897C26.2848 10.8264 26.2875 10.9649 26.2717 11.1034C26.2029 11.7041 25.8136 12.1444 25.6416 12.7066C25.5918 12.8801 25.5552 13.0599 25.5323 13.2431C25.484 13.5905 25.4575 13.9427 25.4532 14.296C25.449 14.6381 25.7008 14.8738 25.793 15.193C25.8851 15.5122 25.9099 15.8405 25.9567 16.168C26.0447 16.7861 26.2063 17.3823 26.3694 17.9748C26.7085 19.224 27.8076 22.6771 28.1467 23.9272C29.186 23.5796 31.9524 22.7807 32.8727 22.0479C33.1795 21.804 30.7439 19.0515 31.072 18.8617C31.0907 18.8578 31.1086 18.8481 31.124 18.8335C31.1395 18.8188 31.1522 18.7996 31.1612 18.7773C31.1701 18.7549 31.175 18.7301 31.1756 18.7048C31.1761 18.6795 31.1722 18.6544 31.1642 18.6315C30.8361 16.7183 29.8098 15.1463 29.3442 13.2835C29.1825 12.6369 28.8923 12.0847 28.6722 11.4702C28.4727 10.9135 28.3661 10.2981 28.1274 9.7689C28.0824 9.65987 28.0235 9.56211 27.9534 9.48C27.8939 9.41913 27.8295 9.36715 27.7615 9.32499C27.6253 9.23695 27.4988 9.18467 27.3674 9.0957Z" fill="#514E7F"/>
<path d="M24.9631 9.60016C25.8615 9.60016 26.5898 8.62902 26.5898 7.43106C26.5898 6.2331 25.8615 5.26196 24.9631 5.26196C24.0647 5.26196 23.3364 6.2331 23.3364 7.43106C23.3364 8.62902 24.0647 9.60016 24.9631 9.60016Z" fill="#A1616A"/>
<path d="M26.6177 8.45001C26.6987 8.3503 26.8006 8.28571 26.9097 8.26475C27.0189 8.24379 27.1303 8.26745 27.2292 8.33261C27.3392 8.40874 27.4355 8.56282 27.4107 8.72424L28.2175 8.74075C28.346 8.73607 28.4743 8.75177 28.6 8.78753C28.7264 8.82424 28.8393 8.91863 28.9191 9.05442C28.9288 9.07185 28.9398 9.09294 28.9563 9.0957C28.9697 9.09597 28.9828 9.09015 28.9934 9.07919C29.1175 8.99618 29.2573 8.96426 29.3951 8.98747C29.8312 9.02507 30.2342 9.31582 30.5761 9.67901C30.6377 9.73552 30.6856 9.81493 30.7137 9.90739C30.7419 10.0294 30.7082 10.1825 30.7824 10.2697C30.7824 11.2786 31.0424 12.2214 31.2158 13.2046C31.2467 13.3798 31.3726 13.5348 31.4599 13.6724C31.5679 13.8249 31.656 14.0003 31.7206 14.1915C31.8678 14.7014 31.6649 15.3012 31.808 15.813C31.8685 16.0295 31.9854 16.2074 32.0831 16.3954C32.2119 16.6125 32.2933 16.8727 32.3183 17.1475C32.3245 17.2704 32.3128 17.3942 32.3183 17.5144C32.3276 17.6796 32.3506 17.843 32.3871 18.0014C32.4458 18.2973 32.5073 18.593 32.5715 18.8883C32.676 19.3652 32.8122 19.8797 33.1327 20.1338C32.3589 20.309 31.5432 20.4805 30.8058 20.1219C30.703 20.0751 30.6053 20.01 30.5156 19.9283C30.2494 19.6752 30.1207 19.2423 30.0059 18.8333C29.8779 18.3747 29.748 17.9078 29.7218 17.4199C29.7221 17.2647 29.7056 17.1103 29.673 16.9613C29.598 16.6953 29.3979 16.5348 29.2163 16.3872C29.0112 16.2373 28.8254 16.0448 28.666 15.8167C28.5869 15.7018 28.5263 15.5665 28.488 15.4192C28.4496 15.2718 28.4344 15.1156 28.4432 14.9601C28.4569 14.8087 28.5016 14.6629 28.5057 14.5106C28.5099 14.3584 28.459 14.1841 28.3496 14.1438C27.7863 13.9163 27.5173 13.0267 27.3922 12.2599C27.3381 11.8636 27.314 11.4611 27.3199 11.0584L27.3124 10.2761C27.2346 10.1818 27.1721 10.0674 27.1286 9.9398C27.0851 9.81224 27.0615 9.67421 27.0593 9.5341C27.0667 9.45236 27.0656 9.36962 27.0558 9.2883C27.0286 9.1889 26.9843 9.09939 26.9265 9.02691C26.8021 8.8567 26.698 8.66216 26.6177 8.45001Z" fill="#464353"/>
<path d="M24.8852 10.9299C24.8667 11.172 24.9079 11.4206 24.8674 11.6581C24.8515 11.7498 24.824 11.8415 24.8041 11.9268C24.7431 12.2688 24.7695 12.628 24.879 12.9477C24.9885 13.2641 25.1195 13.5666 25.2704 13.8511C25.3215 13.9482 25.3635 14.0532 25.3956 14.1638C25.4216 14.28 25.4378 14.3996 25.4438 14.5206C25.4836 15.0063 25.5475 15.4879 25.635 15.9624C25.712 16.3733 26.5869 19.886 26.7905 20.2116C26.8274 20.2837 26.8835 20.3345 26.9473 20.3538C26.9934 20.3561 27.0392 20.3435 27.0808 20.3171L27.4935 20.1061C27.5286 20.0918 27.5611 20.0681 27.5891 20.0364C27.6277 19.9762 27.6488 19.8993 27.6482 19.82C27.6778 19.3724 26.8008 15.8349 26.6894 15.4121C26.3524 14.1354 25.9039 12.9045 25.6845 11.5829C25.6233 11.216 25.5909 10.6511 25.3894 10.3585C25.3062 10.2374 25.3344 10.2888 25.2347 10.3521C25.1843 10.3812 25.1355 10.4153 25.0888 10.4539C25.0305 10.508 24.9819 10.5788 24.9467 10.6612C24.9114 10.7435 24.8904 10.8353 24.8852 10.9299Z" fill="#464353"/>
<path d="M26.1376 13.3521C26.2483 14.1326 26.3625 14.9113 26.476 15.6918L28.091 15.1277C28.1041 14.9021 28.014 14.693 27.9534 14.4857C27.8062 13.9932 27.8028 13.4447 27.6838 12.9385C27.5937 12.5533 27.4369 12.1992 27.3523 11.8113C27.3034 11.5856 27.2787 11.3527 27.2305 11.1243C27.1789 10.9 27.1155 10.6809 27.0407 10.4685C26.95 10.1605 26.8318 9.86829 26.6885 9.59814C26.4822 9.70087 26.2621 9.8201 26.1445 10.0687C26.0841 10.2087 26.0497 10.3659 26.044 10.5272C26.0158 11.0106 26.1472 11.4967 26.1039 11.9773C26.0593 12.435 26.0706 12.8993 26.1376 13.3521Z" fill="#9C27B0"/>
<path d="M28.1181 23.7345C28.2089 24.1931 28.0775 24.6756 27.9702 25.1296C27.8087 25.8134 27.6985 26.517 27.6414 27.2299C27.6344 27.4113 27.6071 27.5903 27.5603 27.7609C27.5094 27.9141 27.4227 28.0434 27.3636 28.1892C27.2012 28.5726 27.2054 29.0404 27.2405 29.4788C27.2638 29.7677 27.2989 30.0557 27.3422 30.34C27.3952 30.6876 27.4606 31.0508 27.3842 31.3901C27.5121 31.3525 27.5988 31.5736 27.5906 31.7469C27.5823 31.9203 27.5403 32.1138 27.6029 32.2633C27.7611 32.3403 27.7625 32.6301 27.7577 32.8548C27.7603 33.2445 27.7973 33.6323 27.8677 34.0105C28.1071 35.5452 28.3611 37.0757 28.6298 38.6018C29.2111 38.8421 29.8899 39.0925 30.4443 38.7596C30.5475 38.6981 30.6507 38.6 30.6741 38.4514C30.6801 38.3713 30.6726 38.2905 30.652 38.2148L30.3893 36.9399C30.3253 36.6317 30.2614 36.3135 30.2951 35.9971C30.3205 35.7614 30.3976 35.5073 30.3109 35.2991C30.2813 35.2276 30.2345 35.1716 30.2001 35.1037C30.0626 34.835 30.1348 34.4755 30.1458 34.1499C30.1501 34.0768 30.1464 34.0033 30.1348 33.9316C30.116 33.8479 30.0896 33.7675 30.0564 33.6922C29.8392 33.1301 29.735 32.5026 29.7537 31.8707C29.762 31.7901 29.7536 31.708 29.7297 31.6332C29.713 31.6023 29.698 31.5698 29.685 31.536C29.6747 31.4771 29.6798 31.4153 29.6994 31.3608C29.6206 31.281 29.5494 31.1886 29.4876 31.0856C29.5257 31.054 29.558 31.0112 29.5819 30.9606C29.6058 30.9099 29.6208 30.8526 29.6257 30.7931C29.6306 30.7335 29.6253 30.6733 29.6102 30.6169C29.5951 30.5605 29.5706 30.5094 29.5385 30.4675C29.5665 30.4599 29.5924 30.4422 29.6134 30.4162C29.6343 30.3902 29.6494 30.3569 29.6571 30.3202C29.6647 30.2834 29.6645 30.2445 29.6566 30.2079C29.6486 30.1712 29.6332 30.1382 29.6121 30.1125C29.5784 30.0813 29.5336 30.0676 29.5096 30.0208C29.4724 29.9529 29.5027 29.8585 29.533 29.786L29.6932 29.3999C29.8129 29.1128 29.8397 28.7579 29.9683 28.4827C30.1527 28.0819 30.2731 27.6353 30.392 27.1932L30.855 25.49L31.1665 25.8505C31.2703 25.9562 31.3573 26.0884 31.4224 26.2393C31.4667 26.3885 31.4947 26.5454 31.5056 26.7053C31.6198 27.6298 32.0559 28.4314 32.2175 29.3421C32.2533 29.5448 32.2774 29.7576 32.3647 29.9309C32.396 29.9841 32.424 30.0406 32.4486 30.0997C32.4714 30.1899 32.4832 30.2843 32.4837 30.3794C32.4981 30.5657 32.5425 30.7457 32.6137 30.9071C32.6849 31.0685 32.7813 31.2076 32.8964 31.3149C33.0498 31.4553 33.2403 31.5516 33.3235 31.7735C33.3402 31.8422 33.3633 31.9079 33.3923 31.9689C33.4666 32.0881 33.6269 32.1019 33.6585 32.2514C33.6764 32.3348 33.6434 32.4348 33.6785 32.5082C33.6984 32.5421 33.7247 32.5684 33.7548 32.5843L34.2026 32.8824C34.7033 33.2162 34.9592 33.983 35.3285 34.5415C35.4561 34.7234 35.5691 34.9226 35.6656 35.1358C35.8251 35.5165 35.8987 35.9943 36.1684 36.2364C36.2409 36.2866 36.3068 36.3519 36.3637 36.43C36.4483 36.5785 36.4174 36.7867 36.4249 36.9738C36.4325 37.1609 36.5398 37.3838 36.6732 37.327C36.6265 37.5536 36.6265 37.7928 36.6732 38.0194C37.259 37.9793 37.8177 37.6776 38.2593 37.1628C38.39 37.0105 38.5159 36.8161 38.5173 36.585C38.5193 36.5451 38.5126 36.5053 38.498 36.4703C38.4716 36.4252 38.4367 36.3901 38.3969 36.3685C37.978 36.0658 37.8522 35.3642 37.6403 34.7947C37.4553 34.292 37.1815 33.8591 36.9525 33.3923C36.4545 32.388 36.1147 31.1728 35.3616 30.5097C35.1958 30.3638 35.0032 30.2345 34.92 29.9933C34.8739 29.8585 34.8684 29.7044 34.8319 29.565C34.7955 29.4256 34.7081 29.2898 34.5967 29.2898C34.6586 29.088 34.6462 28.8422 34.6503 28.624C34.6546 28.5271 34.6462 28.43 34.6256 28.3369C34.597 28.2368 34.5598 28.1414 34.5149 28.0526C34.3183 27.6089 34.2201 27.1001 34.2315 26.5851C34.237 26.32 34.272 26.0467 34.2122 25.7936C34.1819 25.6661 34.129 25.5496 34.0925 25.4267C34.0376 25.204 34.0086 24.9714 34.0065 24.737L33.9653 23.8556C33.959 23.5621 33.9305 23.2701 33.88 22.9843C33.7424 22.3001 33.6049 19.434 33.1337 19.1111C32.6625 18.7883 31.853 20.9941 31.3227 21.0372C31.0881 21.0502 30.8562 21.1098 30.6348 21.2142C30.282 21.3903 29.9862 21.7186 29.698 22.0396L28.7227 23.132C28.5164 23.3585 28.3458 23.575 28.1181 23.7345Z" fill="#464353"/>
<path d="M23.4367 5.02254C23.6513 4.63183 24.0199 4.42454 24.3831 4.40712C24.7463 4.38969 25.1039 4.54194 25.4293 4.75748C25.5253 4.83029 25.6279 4.88639 25.7347 4.9244C25.9066 4.97118 26.0979 4.90881 26.2533 5.01612C26.4596 5.16195 26.4995 5.5334 26.4817 5.84157C26.4638 6.14973 26.4204 6.49184 26.5436 6.75873C26.5872 6.83485 26.627 6.91483 26.6626 6.99811C26.7155 7.15678 26.6846 7.34022 26.6529 7.50806C26.5724 7.41634 26.5271 7.27785 26.4555 7.17146C26.384 7.06507 26.2595 6.99353 26.1708 7.07332C26.082 7.15312 26.0834 7.29803 26.0786 7.42827C26.0738 7.5585 26.049 7.71442 25.9568 7.75661C25.9183 7.76829 25.8781 7.76431 25.8413 7.74518C25.8045 7.72605 25.7729 7.69265 25.7505 7.6493C25.593 7.3925 25.6563 6.98252 25.5001 6.72388C25.4114 6.57714 25.2635 6.5056 25.1817 6.35151C25.117 6.23045 25.1005 6.07636 25.0441 5.94612C24.9877 5.81589 24.8563 5.7205 24.769 5.81038C24.7392 5.84836 24.7143 5.89269 24.6954 5.94154C24.6409 6.04558 24.5617 6.12208 24.4706 6.1587C24.3795 6.19531 24.2818 6.18989 24.1933 6.14332C24.1256 6.08795 24.0525 6.04564 23.9759 6.01766C23.9258 6.01432 23.876 6.02972 23.8321 6.06214C23.7883 6.09455 23.7521 6.14269 23.7276 6.2011C23.6782 6.3178 23.6544 6.45062 23.6588 6.58447C23.6588 6.76791 23.6836 6.96326 23.6052 7.11001C23.5754 7.16525 23.538 7.21254 23.4951 7.24942C23.3803 7.34755 23.22 7.41359 23.1141 7.3017C23.0782 7.25711 23.0515 7.20096 23.0365 7.13864C23.0216 7.07632 23.0189 7.00993 23.0288 6.94584C23.0494 6.81818 23.0765 6.69254 23.1099 6.5698C23.1705 6.28548 23.0914 5.96539 23.1574 5.69757C23.2266 5.45638 23.3206 5.2292 23.4367 5.02254Z" fill="#464353"/>
<path d="M24.3079 11.493C24.2976 11.5598 24.3028 11.6293 24.323 11.692C24.3435 11.7347 24.3713 11.7703 24.4042 11.7957C24.6355 11.9878 24.8986 12.1015 25.1704 12.1268C25.2074 12.1276 25.2437 12.1402 25.2763 12.1635C25.341 12.2203 25.3451 12.3469 25.321 12.4478C25.289 12.5429 25.2723 12.6461 25.2722 12.7504C25.2922 12.9421 25.4627 13.0256 25.6065 13.054C25.808 13.088 26.0288 13.0705 26.1884 12.9027C26.2965 12.7712 26.3789 12.6066 26.4284 12.423C26.8233 11.2133 26.9615 9.87604 27.3611 8.66997C27.3914 8.59122 27.4116 8.50628 27.421 8.41866C27.4252 8.3748 27.4205 8.33023 27.4075 8.28959C27.3944 8.24895 27.3734 8.21371 27.3467 8.18754C27.2724 8.12609 27.1569 8.16094 27.1066 8.06464C27.0819 8.01603 27.0846 7.94999 27.0626 7.89863C27.0165 7.78949 26.8955 7.80691 26.8129 7.74363C26.7483 7.69777 26.7036 7.6033 26.6314 7.58496C26.5959 7.58229 26.5605 7.59068 26.5279 7.60947C26.4953 7.62825 26.4664 7.65692 26.4436 7.69318C26.209 7.98484 26.0859 8.39848 25.9552 8.7892C25.7557 9.3881 25.522 9.96577 25.2564 10.5171C25.2873 10.4529 25.1078 9.96684 25.0377 9.94574C24.9145 9.91273 24.757 10.2007 24.6903 10.308C24.4809 10.6465 24.3483 11.0576 24.3079 11.493Z" fill="#9C27B0"/>
<path opacity="0.1" d="M26.807 7.8291C26.7576 7.8302 26.709 7.8461 26.6648 7.87563C26.6206 7.90516 26.582 7.94756 26.5518 7.99969C26.4782 8.12718 26.4637 8.29594 26.4452 8.45828C26.3826 8.9726 26.2449 9.46555 26.04 9.90924" fill="black"/>
<path opacity="0.1" d="M27.1578 8.19507C27.0896 8.19709 27.023 8.22277 26.9645 8.26957C26.906 8.31637 26.8577 8.38268 26.8242 8.46196C26.7787 8.60623 26.7504 8.7591 26.7403 8.91504C26.6814 9.26077 26.5676 9.58568 26.4067 9.86798" fill="black"/>
<path d="M43.5046 26.1255V24.9864C43.5044 24.1479 43.2545 23.3437 42.8097 22.7509C42.365 22.158 41.7619 21.825 41.133 21.825H7.39602C6.76715 21.825 6.16403 22.158 5.71929 22.7509C5.27454 23.3437 5.0246 24.1479 5.02441 24.9864V27.0867L43.5046 26.1255Z" fill="#33323D"/>
<path d="M16.7811 20.4897C16.7811 20.4897 16.6848 28.4562 17.744 31.0775C18.8033 33.6988 19.2572 45.1019 19.2572 45.1019C19.2572 45.1019 30.3614 46.6336 38.0994 43.2676C45.8374 39.9016 62.3025 38.5249 62.3025 38.5249L59.5278 13.5881C59.5278 13.5881 45.8202 12.4159 38.0224 17.375C30.2246 22.3342 16.7811 20.4897 16.7811 20.4897Z" fill="#8DD070"/>
<path opacity="0.1" d="M16.7811 20.4897C16.7811 20.4897 16.6848 28.4562 17.744 31.0775C18.8033 33.6988 19.2572 45.1019 19.2572 45.1019C19.2572 45.1019 30.3614 46.6336 38.0994 43.2676C45.8374 39.9016 62.3025 38.5249 62.3025 38.5249L59.5278 13.5881C59.5278 13.5881 45.8202 12.4159 38.0224 17.375C30.2246 22.3342 16.7811 20.4897 16.7811 20.4897Z" fill="black"/>
<path d="M19.2388 23.3999C19.2388 23.3999 18.8914 29.9732 19.7629 32.0735C20.6343 34.1738 20.6749 43.55 20.6749 43.55C20.6749 43.55 30.6683 44.1682 37.7769 40.9416C44.8856 37.715 59.8237 35.622 59.8237 35.622L58.1262 15.2288C58.1262 15.2288 45.766 15.0592 38.5521 19.601C31.3382 24.1428 19.2388 23.3999 19.2388 23.3999Z" fill="#8DD070"/>
<path opacity="0.1" d="M38.4423 37.2078C39.8642 36.9716 40.709 33.4837 40.3291 29.4172C39.9493 25.3507 38.4887 22.2457 37.0668 22.4818C35.6449 22.718 34.8001 26.2059 35.18 30.2724C35.5598 34.3389 37.0204 37.4439 38.4423 37.2078Z" fill="black"/>
<path opacity="0.2" d="M52.013 1.44019C52.013 1.44019 38.6961 5.9343 32.4163 13.8449C26.1364 21.7554 12.9165 25.5011 12.9165 25.5011C12.9165 25.5011 14.6581 33.1219 16.2689 35.1837C17.8798 37.2455 20.9351 47.9139 20.9351 47.9139C20.9351 47.9139 31.8557 44.8268 38.445 38.4543C45.0343 32.0818 60.3913 24.0337 60.3913 24.0337L52.013 1.44019Z" fill="black"/>
<path d="M12.7163 24.3601C12.7163 24.3601 14.4572 31.9817 16.0667 34.0435C17.6762 36.1053 20.7329 46.7729 20.7329 46.7729C20.7329 46.7729 31.6548 43.6866 38.2448 37.3141C44.8348 30.9417 60.1904 22.8963 60.1904 22.8963L51.8121 0.300049C51.8121 0.300049 38.4959 4.79416 32.2161 12.7047C25.9362 20.6153 12.7163 24.3601 12.7163 24.3601Z" fill="#8DD070"/>
<path opacity="0.1" d="M12.7163 24.3601C12.7163 24.3601 14.4572 31.9817 16.0667 34.0435C17.6762 36.1053 20.7329 46.7729 20.7329 46.7729C20.7329 46.7729 31.6548 43.6866 38.2448 37.3141C44.8348 30.9417 60.1904 22.8963 60.1904 22.8963L51.8121 0.300049C51.8121 0.300049 38.4959 4.79416 32.2161 12.7047C25.9362 20.6153 12.7163 24.3601 12.7163 24.3601Z" fill="black"/>
<path d="M15.7227 26.1247C15.7227 26.1247 16.905 32.5238 18.2181 34.1655C19.5311 35.8073 21.726 44.7129 21.726 44.7129C21.726 44.7129 31.3789 41.2112 37.4021 35.2313C43.4254 29.2514 57.1625 21.1555 57.1625 21.1555L50.8545 2.43433C50.8545 2.43433 39.0522 7.32924 33.2312 14.6042C27.4101 21.8792 15.7227 26.1247 15.7227 26.1247Z" fill="#8DD070"/>
<path opacity="0.1" d="M37.1794 31.4083C38.4783 30.6017 38.4796 26.9363 37.1823 23.2215C35.885 19.5066 33.7803 17.149 32.4813 17.9556C31.1824 18.7622 31.1811 22.4275 32.4784 26.1423C33.7757 29.8572 35.8804 32.2148 37.1794 31.4083Z" fill="black"/>
<path opacity="0.1" d="M44.4152 27.2436V58.8859C44.4152 59.2452 44.3621 59.6011 44.2589 59.9331C44.1558 60.2651 44.0046 60.5667 43.814 60.8208C43.6234 61.0748 43.3971 61.2763 43.1481 61.4138C42.8991 61.5512 42.6322 61.6219 42.3627 61.6218H7.07745C6.53341 61.6215 6.01171 61.3332 5.62707 60.8201C5.24244 60.3071 5.02637 59.6113 5.02637 58.8859V24.0537C6.03747 24.5545 6.03746 24.5545 7.07745 24.5123H42.3627C42.9064 24.5123 43.4278 24.7999 43.8126 25.3119C44.1974 25.824 44.4141 26.5187 44.4152 27.2436Z" fill="black"/>
<path d="M44.4152 27.6464V59.2886C44.415 60.0143 44.1987 60.7102 43.8138 61.2232C43.4289 61.7363 42.9069 62.0245 42.3627 62.0245H7.07745C6.53341 62.0243 6.01171 61.7359 5.62707 61.2229C5.24244 60.7098 5.02637 60.0141 5.02637 59.2886V24.4556C6.03747 24.9554 6.03746 24.9554 7.07745 24.9141H42.3627C42.9065 24.9141 43.428 25.2019 43.8128 25.7141C44.1976 26.2264 44.4143 26.9213 44.4152 27.6464Z" fill="#504F60"/>
<path opacity="0.1" d="M44.3147 39.3447V49.4638H36.955C35.9576 49.4459 35.0055 48.905 34.3049 47.9581C33.6042 47.0112 33.2114 45.7345 33.2114 44.4043C33.2114 43.0741 33.6042 41.7974 34.3049 40.8505C35.0055 39.9036 35.9576 39.3626 36.955 39.3447H44.3147Z" fill="black"/>
<path d="M44.4153 39.0752V49.1961H37.0556C36.0582 49.1782 35.1061 48.6373 34.4055 47.6904C33.7048 46.7435 33.312 45.4668 33.312 44.1366C33.312 42.8064 33.7048 41.5297 34.4055 40.5828C35.1061 39.6359 36.0582 39.0949 37.0556 39.077L44.4153 39.0752Z" fill="#33323D"/>
<path opacity="0.1" d="M37.4082 46.3775C38.2253 46.3775 38.8877 45.4943 38.8877 44.4047C38.8877 43.3151 38.2253 42.4319 37.4082 42.4319C36.5911 42.4319 35.9287 43.3151 35.9287 44.4047C35.9287 45.4943 36.5911 46.3775 37.4082 46.3775Z" fill="black"/>
<path d="M37.5088 46.1097C38.3259 46.1097 38.9883 45.2264 38.9883 44.1369C38.9883 43.0473 38.3259 42.1641 37.5088 42.1641C36.6917 42.1641 36.0293 43.0473 36.0293 44.1369C36.0293 45.2264 36.6917 46.1097 37.5088 46.1097Z" fill="#9C27B0"/>
<path d="M57.1901 38.988C57.2486 39.8327 56.7691 40.6526 56.9088 41.4799C56.939 41.6569 56.9961 41.8239 57.0168 42.0027C57.0745 42.4943 56.8551 42.9593 56.6453 43.3702L54.8432 46.8958C54.7711 47.0508 54.6846 47.1931 54.586 47.3195C54.2421 47.7286 53.7248 47.6864 53.2723 47.8084C52.9541 47.8945 52.6537 48.0716 52.3918 48.3275C52.3809 48.34 52.3739 48.3576 52.3724 48.3767C52.3709 48.3958 52.3749 48.4149 52.3836 48.4302C52.4584 48.566 52.5575 48.6747 52.6719 48.7463C52.7862 48.8179 52.9123 48.8502 53.0384 48.8402C53.0859 48.9236 53.0384 49.0456 52.9696 49.1052C52.8726 49.197 52.7399 49.219 52.7206 49.4373C52.7138 49.5134 52.7253 49.5906 52.7536 49.6574C52.8262 49.8057 52.9392 49.9105 53.0687 49.95C53.6925 50.204 54.3666 49.7574 54.8336 49.1493C55.3006 48.5412 55.6356 47.7735 56.0937 47.1544C56.3475 46.8123 56.6357 46.5188 56.8971 46.1868C57.4184 45.5246 57.8236 44.7194 58.215 43.9132C58.3326 43.6701 58.4509 43.4207 58.5004 43.1391C58.5499 42.8575 58.5265 42.5732 58.5822 42.3008C58.6552 41.9431 58.8512 41.6588 59.0142 41.3589C59.334 40.7719 59.5473 40.0537 59.5053 39.331C59.4633 38.6083 59.127 37.8938 58.6153 37.648C58.4567 37.5631 58.2817 37.5489 58.1166 37.6077C57.9068 37.6939 57.752 37.925 57.609 38.146L57.2651 38.6734C57.1793 38.7891 57.1115 38.9263 57.0656 39.077C57.0436 39.1526 57.0383 39.2352 57.0505 39.3147C57.0627 39.3942 57.0918 39.4674 57.1344 39.5254" fill="#FBBEBE"/>
<path opacity="0.05" d="M57.1901 38.988C57.2486 39.8327 56.7691 40.6526 56.9088 41.4799C56.939 41.6569 56.9961 41.8239 57.0168 42.0027C57.0745 42.4943 56.8551 42.9593 56.6453 43.3702L54.8432 46.8958C54.7711 47.0508 54.6846 47.1931 54.586 47.3195C54.2421 47.7286 53.7248 47.6864 53.2723 47.8084C52.9541 47.8945 52.6537 48.0716 52.3918 48.3275C52.3809 48.34 52.3739 48.3576 52.3724 48.3767C52.3709 48.3958 52.3749 48.4149 52.3836 48.4302C52.4584 48.566 52.5575 48.6747 52.6719 48.7463C52.7862 48.8179 52.9123 48.8502 53.0384 48.8402C53.0859 48.9236 53.0384 49.0456 52.9696 49.1052C52.8726 49.197 52.7399 49.219 52.7206 49.4373C52.7138 49.5134 52.7253 49.5906 52.7536 49.6574C52.8262 49.8057 52.9392 49.9105 53.0687 49.95C53.6925 50.204 54.3666 49.7574 54.8336 49.1493C55.3006 48.5412 55.6356 47.7735 56.0937 47.1544C56.3475 46.8123 56.6357 46.5188 56.8971 46.1868C57.4184 45.5246 57.8236 44.7194 58.215 43.9132C58.3326 43.6701 58.4509 43.4207 58.5004 43.1391C58.5499 42.8575 58.5265 42.5732 58.5822 42.3008C58.6552 41.9431 58.8512 41.6588 59.0142 41.3589C59.334 40.7719 59.5473 40.0537 59.5053 39.331C59.4633 38.6083 59.127 37.8938 58.6153 37.648C58.4567 37.5631 58.2817 37.5489 58.1166 37.6077C57.9068 37.6939 57.752 37.925 57.609 38.146L57.2651 38.6734C57.1793 38.7891 57.1115 38.9263 57.0656 39.077C57.0436 39.1526 57.0383 39.2352 57.0505 39.3147C57.0627 39.3942 57.0918 39.4674 57.1344 39.5254" fill="black"/>
<path d="M58.5539 60.734C58.1605 61.0541 57.67 61.0733 57.2126 60.999C57.1391 60.9871 57.0517 60.9798 57.0063 61.0559C56.9375 61.166 57.0187 61.331 57.1026 61.4163C57.3724 61.6865 57.6894 61.8604 58.0236 61.9217C58.322 61.9781 58.6232 62.0048 58.9246 62.0015C59.75 62.0208 60.5754 62.0391 61.3877 61.8813C61.4358 61.8765 61.4827 61.8584 61.5253 61.8282C61.5776 61.7791 61.6141 61.7053 61.6271 61.6218C61.6828 61.3393 61.5755 61.0366 61.4132 60.8404C61.2508 60.6441 61.0424 60.535 60.8388 60.4295L60.1235 60.058C59.9557 59.9709 59.6867 59.7398 59.5045 59.7581C59.1619 59.7911 58.838 60.512 58.5539 60.734Z" fill="#3F3D56"/>
<path opacity="0.05" d="M58.5539 60.734C58.1605 61.0541 57.67 61.0733 57.2126 60.999C57.1391 60.9871 57.0517 60.9798 57.0063 61.0559C56.9375 61.166 57.0187 61.331 57.1026 61.4163C57.3724 61.6865 57.6894 61.8604 58.0236 61.9217C58.322 61.9781 58.6232 62.0048 58.9246 62.0015C59.75 62.0208 60.5754 62.0391 61.3877 61.8813C61.4358 61.8765 61.4827 61.8584 61.5253 61.8282C61.5776 61.7791 61.6141 61.7053 61.6271 61.6218C61.6828 61.3393 61.5755 61.0366 61.4132 60.8404C61.2508 60.6441 61.0424 60.535 60.8388 60.4295L60.1235 60.058C59.9557 59.9709 59.6867 59.7398 59.5045 59.7581C59.1619 59.7911 58.838 60.512 58.5539 60.734Z" fill="black"/>
<path d="M59.0556 48.0716C58.7578 48.5998 58.4496 49.2098 58.5232 49.8637C58.5631 50.2159 58.711 50.5268 58.8197 50.8524C58.9669 51.2945 59.0439 51.7696 59.1196 52.2428C59.231 52.9344 59.3431 53.6278 59.4112 54.3303C59.4889 55.1236 59.1237 57.4193 59.09 58.2182C59.0817 58.4108 59.0645 58.619 58.9641 58.7575C58.9249 58.8125 58.8726 58.8565 58.8548 58.9281C58.8443 58.997 58.8528 59.0686 58.8788 59.1298C59.0467 59.6343 59.3899 60.0103 59.773 60.2249C60.1561 60.4395 61.0799 60.8101 61.4974 60.8293C61.5524 60.8374 61.6081 60.8277 61.6597 60.8009C61.7152 60.7557 61.759 60.6888 61.7849 60.6092C62.0841 59.8461 61.7966 57.1332 61.8007 56.2719C61.8048 55.5538 61.9321 54.8402 61.9087 54.123C61.8894 53.547 61.7711 52.9839 61.7319 52.4098C61.6631 51.4687 61.7924 50.5231 61.9224 49.5931C62.0215 48.8796 62.1212 48.166 62.2485 47.4616C62.3262 47.0315 62.4163 46.5977 62.5924 46.2244C62.7299 45.9281 62.9232 45.6805 63.0835 45.3989C63.5283 44.6213 63.7259 43.6416 63.6337 42.6713C63.6241 42.5796 62.602 43.0171 62.5119 43.0693C62.1442 43.2769 61.806 43.567 61.5118 43.9269C61.2752 44.2277 61.0888 44.6294 60.8818 44.966C60.5888 45.4423 60.2994 45.922 60.0137 46.4051C59.6877 46.9572 59.3683 47.5127 59.0556 48.0716Z" fill="#464353"/>
<path opacity="0.05" d="M59.0556 48.0394C58.7578 48.5677 58.4496 49.1785 58.5232 49.8315C58.5631 50.1846 58.711 50.4956 58.8197 50.8212C58.9669 51.2623 59.0439 51.7383 59.1196 52.2107C59.231 52.9031 59.3431 53.5965 59.4112 54.2981C59.4889 55.0924 59.1237 57.3872 59.09 58.186C59.0817 58.3786 59.0645 58.5877 58.9641 58.7262C58.9249 58.7803 58.8726 58.8244 58.8548 58.8959C58.8442 58.9648 58.8528 59.0365 58.8788 59.0977C59.0467 59.603 59.3899 59.9782 59.773 60.1983C60.1561 60.4184 61.0799 60.6101 61.4974 60.6284C61.5524 60.6365 61.6081 60.6268 61.6597 60.6C61.7153 60.5554 61.7591 60.4887 61.7849 60.4092C62.0841 59.6461 61.7966 57.1074 61.8007 56.2453C61.8048 55.5262 61.9321 54.8136 61.9087 54.0954C61.8894 53.5195 61.7711 52.9563 61.7319 52.3831C61.6631 51.4412 61.7924 50.4956 61.9224 49.5656C62.0215 48.8529 62.1212 48.1394 62.2485 47.4341C62.3262 47.0039 62.4163 46.5701 62.5924 46.1968C62.73 45.9006 62.9232 45.6529 63.0835 45.3714C63.5284 44.5938 63.7261 43.614 63.6338 42.6437C63.6241 42.552 62.602 42.9895 62.5119 43.0418C62.1444 43.25 61.8061 43.5403 61.5118 43.9002C61.2752 44.2001 61.0888 44.6019 60.8818 44.9385C60.5888 45.4148 60.2994 45.8948 60.0137 46.3784C59.6877 46.9263 59.3683 47.4799 59.0556 48.0394Z" fill="black"/>
<path d="M55.7416 36.4363C56.6636 36.4363 57.411 35.4397 57.411 34.2103C57.411 32.981 56.6636 31.9844 55.7416 31.9844C54.8197 31.9844 54.0723 32.981 54.0723 34.2103C54.0723 35.4397 54.8197 36.4363 55.7416 36.4363Z" fill="#FBBEBE"/>
<path d="M57.2453 34.1169C57.3996 34.445 57.6018 34.7282 57.8399 34.9498C58.078 35.1713 58.3472 35.3266 58.6313 35.4065L58.5054 36.0164C58.2881 37.0638 58.0439 38.1717 57.4372 38.8981C57.506 38.5432 57.418 38.1644 57.268 37.8562C57.1181 37.548 56.9076 37.3059 56.7013 37.0665L55.7404 35.9568C55.7126 35.9267 55.6893 35.89 55.6716 35.8485C55.6479 35.7703 55.6479 35.6828 55.6716 35.6046C55.794 35.0965 56.1434 34.7791 56.4282 34.4361C56.5711 34.2587 56.6987 34.0606 56.8086 33.8454C57.0005 33.4804 57.1195 33.8473 57.2453 34.1169Z" fill="#FBBEBE"/>
<path d="M53.5426 31.9727L53.5048 31.5544C53.7682 31.6461 54.0186 31.3471 54.1871 31.0381C54.3556 30.729 54.5117 30.3649 54.7683 30.2355C55.0799 30.0796 55.41 30.3273 55.7079 30.5364C56.0413 30.7831 56.4072 30.9419 56.7857 31.0041C56.8461 31.0068 56.9059 31.0197 56.9638 31.0426C57.1578 31.1344 57.25 31.459 57.2782 31.7535C57.3064 32.0479 57.2988 32.3606 57.3944 32.6229C57.4632 32.8219 57.5911 32.9696 57.6695 33.1659C57.8759 33.6923 57.6764 34.4123 57.8917 34.9287L57.3566 34.2747C57.3077 34.2151 57.239 34.1528 57.1846 34.2032C57.142 34.2436 57.1385 34.3307 57.1213 34.4004C57.0698 34.604 56.8785 34.6645 56.7403 34.5838C56.602 34.5031 56.5009 34.3279 56.3964 34.1683C56.1598 33.796 55.8778 33.4685 55.5476 33.3099C55.4029 33.2377 55.2483 33.2075 55.0942 33.2211C54.94 33.2347 54.7898 33.2918 54.6534 33.3888C54.4038 33.5768 54.2208 34.0152 53.9147 34.0308C53.4951 34.0519 53.3204 33.01 53.1265 32.5982C53.1974 32.5269 53.2474 32.4247 53.2675 32.3093C53.2876 32.194 53.2767 32.0728 53.2365 31.9671C53.2647 31.9516 53.5364 31.9084 53.5426 31.9727Z" fill="#464353"/>
<path d="M32.8949 18.9588C32.7608 19.1179 32.6368 19.2915 32.5242 19.4779C32.4109 19.6669 32.3505 19.9028 32.3536 20.1447C32.3542 20.2149 32.371 20.2831 32.4018 20.3401C32.4175 20.3673 32.4392 20.3874 32.4638 20.3974C32.4885 20.4074 32.5149 20.407 32.5393 20.396C32.567 20.3772 32.5906 20.3495 32.6081 20.3153C32.6808 20.1988 32.758 20.0874 32.8392 19.9815C32.8688 19.942 32.908 19.9008 32.9479 19.9154C32.9658 19.9239 32.9819 19.9381 32.9947 19.9567C33.041 20.01 33.0746 20.0801 33.0917 20.1585C33.1157 20.2988 33.0545 20.4391 32.9851 20.5492C32.9156 20.6593 32.8337 20.7647 32.8055 20.9032C32.7949 20.9398 32.7949 20.9804 32.8055 21.0169C32.8188 21.0434 32.8374 21.0644 32.8592 21.0775C32.9577 21.1498 33.0669 21.1924 33.1791 21.2022C33.2913 21.212 33.4037 21.1889 33.5085 21.1343C33.6461 21.0601 33.7685 20.9326 33.9102 20.8665C33.9715 20.8441 34.031 20.8134 34.0876 20.7748C34.1282 20.7388 34.163 20.6925 34.19 20.6385C34.217 20.5845 34.2358 20.5239 34.2451 20.4602C34.263 20.3329 34.2665 20.2028 34.2555 20.0741C34.2383 19.5759 34.1583 19.085 34.0189 18.6222C34.0108 18.5924 33.997 18.5658 33.979 18.5452C33.9583 18.5284 33.9344 18.5198 33.9102 18.5204C33.7341 18.4957 33.4452 18.3755 33.2753 18.4626C33.2159 18.5061 33.1646 18.5669 33.1254 18.6406C33.0937 18.6873 32.8949 18.8974 32.8949 18.9588Z" fill="#A1616A"/>
<path d="M32.8393 18.7517C32.8393 18.5279 32.6329 17.9877 32.961 17.9519C32.961 17.7125 32.7072 17.564 32.7546 17.3099C32.7698 17.2255 32.8234 17.1567 32.8296 17.0705C32.8503 16.8256 32.5187 16.6926 32.5738 16.4579C32.5944 16.3661 32.6673 16.3129 32.6831 16.2221C32.7203 16.0103 32.4362 15.9158 32.4307 15.6984C32.4307 15.6251 32.4616 15.5563 32.4589 15.4829C32.4589 15.3912 32.399 15.3215 32.366 15.2417C32.2801 15.0372 32.322 14.7207 32.1652 14.6153C32.269 14.6272 32.3028 14.4217 32.2601 14.2961C32.2175 14.1704 32.1301 14.0613 32.1294 13.9219C32.1346 13.8714 32.1346 13.8202 32.1294 13.7696C32.1005 13.6357 31.9361 13.6247 31.9086 13.4945C31.9051 13.4445 31.9039 13.3943 31.9052 13.3441C31.8942 13.2404 31.8144 13.1744 31.7394 13.145C31.6615 13.1274 31.5866 13.0917 31.5179 13.0396C31.4698 12.991 31.4141 12.9103 31.3625 12.9479C31.3432 12.9634 31.3336 12.9928 31.3192 13.0148C31.2573 13.1111 31.139 13.0689 31.0612 12.9983C30.8315 12.7901 30.7173 12.4168 30.6685 12.0527C30.6196 11.6886 30.621 11.3125 30.5598 10.9521C30.5411 10.8398 30.5163 10.7294 30.4855 10.6219C30.4594 10.5302 30.3755 10.3862 30.37 10.2936C30.3576 10.0826 30.685 10.2266 30.8095 10.2477C30.9304 10.2635 31.0499 10.2942 31.1665 10.3394C31.2909 10.4021 31.4128 10.4735 31.5317 10.5531C32.0283 10.8457 32.6281 10.8815 33.027 11.3731C33.1584 11.5345 33.2691 11.7464 33.4397 11.8197C33.518 11.8397 33.5951 11.8664 33.6708 11.8995C33.86 12.0179 33.8896 12.3526 33.9927 12.5947C34.0252 12.6587 34.0535 12.7262 34.0773 12.7965C34.0972 12.8795 34.1065 12.9663 34.1048 13.0533L34.1193 13.6889C34.1427 14.7538 34.1661 15.8213 34.0808 16.8798C34.0533 17.2292 34.012 17.5887 34.0897 17.9244C34.1103 18.0161 34.1392 18.1023 34.1585 18.195C34.1755 18.3036 34.1843 18.4142 34.1846 18.5251L34.1956 18.937C34.1995 18.969 34.1941 19.0017 34.1805 19.0287C34.169 19.0411 34.1556 19.05 34.1412 19.0546C34.1268 19.0592 34.1118 19.0594 34.0973 19.0553C33.6674 19.0039 33.2327 18.6811 32.8269 18.8764" fill="#464353"/>
<path d="M52.4572 50.3938C55.2668 50.3938 57.5444 49.9548 57.5444 49.4133C57.5444 48.8718 55.2668 48.4329 52.4572 48.4329C49.6477 48.4329 47.3701 48.8718 47.3701 49.4133C47.3701 49.9548 49.6477 50.3938 52.4572 50.3938Z" fill="#504F60"/>
<path d="M56.834 49.461C56.7445 48.9502 56.6888 48.5017 56.6888 48.5017C56.6888 48.5017 56.7095 47.9459 56.5224 47.5286V47.3892V46.3619C56.5756 46.1754 56.6408 45.9953 56.717 45.8236C56.8546 45.5007 56.717 44.3176 56.717 44.3176C56.717 44.3176 56.2032 42.6492 56.3277 41.5908C56.4522 40.5324 55.2726 36.8913 55.2726 36.8913C55.2799 36.5401 55.317 36.1912 55.3833 35.8512C55.3959 35.7797 55.401 35.7063 55.3985 35.6329C55.3985 35.6238 55.3985 35.6155 55.3985 35.6063C55.3985 35.5972 55.3985 35.6118 55.3985 35.6146C55.3806 34.9166 54.9665 33.6087 54.9665 33.6087L55.0222 31.1159C55.0222 31.1159 55.2864 29.6484 54.8558 27.6719C54.7051 26.9831 54.6089 26.4319 54.5476 26.0063C54.5408 25.9587 54.5339 25.9146 54.5284 25.8679C55.415 25.6844 56.0925 25.5377 56.0925 25.5377C56.0925 25.5377 55.578 22.6679 55.2306 22.1653C54.8833 21.6626 54.6054 20.0842 54.6054 20.0842C54.6054 20.0842 54.4245 18.0582 54.7168 17.4657C55.0092 16.8732 55.0504 15.8515 55.0504 15.8515C55.0504 15.8515 55.7169 15.2095 55.8008 14.9187C55.8848 14.628 56.023 13.986 56.023 13.6457C56.023 13.3054 55.9398 13.0037 55.9673 12.8202C55.9948 12.6368 55.7726 11.959 55.8841 11.6362C55.9129 11.537 55.9278 11.4316 55.9281 11.3253C55.9284 11.3222 55.9284 11.3191 55.9281 11.3161C55.9291 11.0336 55.9095 10.7516 55.8696 10.4741C55.6768 10.257 55.4518 10.0967 55.2093 10.0036L55.1949 9.92658L55.157 9.72481C55.1359 9.7062 55.1141 9.68905 55.0917 9.67344V9.60007L55.0855 9.30841L55.1901 8.65356C55.3964 7.51444 54.2553 7.34476 54.2553 7.34476C54.1861 7.17003 54.071 7.03548 53.932 6.96689C53.703 6.85958 53.8942 8.68015 54.0008 8.80122C54.0813 8.89294 54.3303 9.45975 54.4507 9.7404L54.4699 9.78626C54.4511 9.80884 54.4336 9.83338 54.4176 9.85963L54.461 10.2549L54.4678 10.3155C54.3922 10.4407 54.3308 10.5801 54.2856 10.7291C54.2856 10.7291 54.4919 11.0336 54.4527 11.3711C54.4135 11.7086 54.5167 12.137 54.5215 12.1599C54.5091 12.1406 54.3626 11.9297 54.2161 11.981C54.0696 12.0324 53.6603 12.1966 53.6603 12.1966C53.6603 12.1966 53.355 12.2681 53.3852 12.358C53.4155 12.4479 53.1789 12.8423 53.1789 12.8423L52.3576 11.804C52.3494 11.7728 52.3404 11.7417 52.3335 11.7123C52.3 11.5626 52.277 11.4091 52.2648 11.2537C52.3543 11.2254 52.4421 11.1883 52.5275 11.1427C52.6138 11.1032 52.6917 11.0365 52.7545 10.9483C52.8377 10.8172 52.8535 10.6392 52.8872 10.476C52.9519 10.1568 53.0936 9.87339 53.1919 9.56981C53.3585 9.05682 53.4122 8.49123 53.3467 7.93908C53.3341 7.76893 53.2909 7.60534 53.2208 7.46216C53.0867 7.21636 52.8432 7.11639 52.6664 6.92011C52.4897 6.72384 52.3755 6.42392 52.1691 6.2781C51.9827 6.14511 51.7565 6.1607 51.546 6.20656C51.1349 6.29694 50.74 6.48853 50.3815 6.77153C50.2618 6.86325 50.1298 6.97606 49.9922 6.94212C49.8739 6.91369 49.7858 6.78804 49.7116 6.66697C49.7124 6.66196 49.7135 6.65705 49.715 6.6523C49.7116 6.64783 49.7087 6.64291 49.7061 6.63762C49.619 6.8952 49.5754 7.17508 49.5781 7.45757C49.5781 7.5016 49.5781 7.54929 49.5823 7.58873V7.63458C49.5823 7.64742 49.5823 7.66026 49.5823 7.67219C49.5822 7.69174 49.5801 7.71119 49.5761 7.72997C49.5587 7.78607 49.5324 7.83647 49.499 7.87763C49.4738 7.91587 49.4508 7.95665 49.4302 7.99962C49.4302 7.98494 49.4371 7.97027 49.4412 7.95468C49.3888 8.0568 49.3592 8.17673 49.356 8.30045C49.3521 8.39051 49.3743 8.47911 49.4179 8.54808C49.459 8.6014 49.5039 8.64932 49.552 8.69116C49.5356 8.81224 49.5274 8.935 49.5272 9.05803C49.5288 9.42274 49.6009 9.78075 49.7366 10.0974C49.8722 10.4141 50.0669 10.6788 50.3017 10.8658C50.3113 10.896 50.3203 10.9272 50.3292 10.9575C50.4345 11.3243 50.5136 11.7554 50.4785 12.1498C50.4785 12.1782 50.4723 12.2076 50.4689 12.236C50.4654 12.2644 50.4482 12.2663 50.4393 12.2819C50.4393 12.2819 49.0822 12.3002 48.7631 11.915C48.4439 11.5298 47.9569 12.8569 47.9569 12.8569C47.9569 12.8569 47.4706 12.9826 47.373 12.8569C47.2753 12.7313 46.7065 12.8395 46.7065 12.8395C46.4734 12.5631 46.1702 12.4156 45.8584 12.4268C45.6695 12.2354 45.461 12.0809 45.2393 11.9682L45.2242 11.9609C45.1264 11.9133 45.0218 11.8957 44.9181 11.9095C44.9181 11.9095 44.2509 11.1758 44.0563 10.7795C43.8616 10.3833 42.9351 8.92045 42.931 8.91403V8.84341L42.9207 8.63063C42.8932 8.63639 42.8653 8.63945 42.8375 8.6398C42.8327 8.6187 42.8258 8.59394 42.8189 8.56551C42.7655 8.35796 42.6997 8.15645 42.6222 7.96293C42.6222 7.96293 42.6222 7.6942 42.6806 7.62633C42.7391 7.55846 42.6566 6.57251 42.6566 6.57251C42.6566 6.57251 42.0554 4.69873 41.5169 6.09741C41.5169 6.09741 40.4989 7.00266 41.3532 8.0574C41.3532 8.0574 41.6971 8.27752 41.7425 8.45178C41.7741 8.56459 41.8897 8.88101 41.9674 9.0938L42.0025 9.18551L41.9928 9.19652L42.0052 9.37261L42.0107 9.44049C41.8498 9.56247 41.7404 9.68353 41.7672 9.77433C41.8146 9.92971 41.8472 10.0924 41.8642 10.2586C41.8642 10.2586 43.0459 12.2323 43.1986 13.0752C43.1986 13.0752 46.3674 15.5864 47.4094 15.7653L47.2251 17.0172C47.1982 17.3569 47.1845 17.6982 47.1838 18.0398C47.1976 18.3086 47.0586 19.5284 47.0586 19.5284C47.0586 19.5284 46.8777 21.3224 46.725 21.5737C46.5723 21.825 46.5999 22.9008 46.5999 22.9008C46.5638 23.4158 46.4948 23.9258 46.3935 24.4251C46.2408 25.1066 46.3516 25.9504 46.3516 25.9504C46.3516 25.9504 45.824 27.5646 47.0882 26.4704C47.0882 26.4704 47.7072 26.4191 48.424 26.3861C48.424 26.4172 48.424 26.4493 48.424 26.4778C48.424 26.6007 48.424 26.7337 48.4191 26.8731C48.4095 27.7976 48.4054 29.0743 48.437 30.0355C48.4927 31.7396 48.8821 35.112 48.8821 35.112V36.8096C48.8569 36.9689 48.8445 37.1312 48.8449 37.2939C48.8367 37.8912 48.9559 38.4794 49.1888 38.9898L49.2865 40.1197C49.2865 40.1197 49.5148 40.8644 49.519 41.312C49.5181 41.3481 49.5149 41.384 49.5093 41.4193C49.5004 41.4763 49.4967 41.5345 49.4983 41.5927C49.4853 42.1063 49.7171 43.3353 49.7171 43.3353C49.7171 43.3353 49.7308 44.5725 49.8698 44.645C49.9888 44.7064 49.7109 45.3576 49.6283 45.5447C49.6261 45.5333 49.6245 45.5216 49.6235 45.5099L49.6063 45.5466C49.5777 45.6467 49.563 45.753 49.563 45.8602C49.5552 45.9447 49.5655 46.0304 49.5928 46.1074C49.62 46.1844 49.6631 46.2494 49.7171 46.295C49.9812 46.5105 50.1229 46.6894 49.8986 46.7609C49.8162 46.778 49.7344 46.8009 49.6538 46.8297C49.6538 46.8159 49.6455 46.8013 49.6421 46.7884C49.6105 46.8049 49.5841 46.8354 49.5674 46.8749C49.5507 46.9143 49.5448 46.9603 49.5506 47.0049C49.5527 47.1504 49.5808 47.2931 49.6325 47.4213C49.8546 48.0853 50.0087 48.3384 50.0087 48.3384L50.1153 48.3228C50.0996 48.3772 50.0788 48.4286 50.0534 48.476C50.0128 48.5529 49.9591 48.6158 49.8966 48.6594C49.8383 48.7059 49.7734 48.7356 49.7061 48.7466C49.6307 48.7498 49.5568 48.7742 49.489 48.8182C49.4212 48.8621 49.3611 48.9246 49.3126 49.0015C49.1751 49.2409 49.087 49.5665 49.3608 49.8527L50.3547 50.3113C50.3547 50.3113 52.0646 50.6075 51.9738 50.0957C51.883 49.5839 51.828 49.1364 51.828 49.1364C51.8353 48.8239 51.7882 48.5134 51.6904 48.2293C51.6725 48.1829 51.6523 48.1382 51.6299 48.0954L51.6904 48.0871C51.6904 48.0871 51.8156 46.9563 51.9821 46.7416C52.0206 46.6921 52.0295 46.6499 52.0206 46.6242C52.0378 46.5628 51.9938 46.527 51.938 46.5059L51.9257 46.5509C51.8712 46.535 51.8156 46.5267 51.7599 46.5261C51.7599 46.5261 51.7042 45.9345 51.8851 45.719C51.8997 45.6944 51.9103 45.6661 51.9164 45.6358C51.9224 45.6055 51.9237 45.5739 51.9202 45.5429C51.9215 45.4617 51.915 45.3807 51.9009 45.3017C51.8991 45.3068 51.897 45.3117 51.8947 45.3164C51.8039 44.7789 51.4958 43.925 51.4958 43.925C51.4958 43.925 51.482 43.3876 51.5934 43.172C51.7049 42.9565 51.579 40.2481 51.579 40.2481C51.579 40.2481 51.621 38.9393 51.4958 38.3294C51.3706 37.7195 51.6485 37.0013 51.6485 37.0013C51.6485 37.0013 51.6485 36.9876 51.6485 36.9628V36.9536L51.6326 36.7473C51.6323 36.7515 51.6323 36.7559 51.6326 36.7601C51.6044 36.4134 51.5515 35.7852 51.5123 35.4953C51.4566 35.0826 51.5267 33.1107 51.5267 33.1107L51.7764 32.2669L52.2214 33.7206L52.694 35.6577C52.694 35.6577 52.9278 36.0667 52.9333 36.4831C52.9333 36.5033 52.9333 36.5235 52.9333 36.5437C52.9295 36.5866 52.9277 36.6298 52.9278 36.673C52.9194 36.9177 52.9698 37.1597 53.0716 37.3636C53.0716 37.3636 53.1968 38.2808 53.3914 38.511C53.5861 38.7412 53.5861 39.1924 53.5861 39.1924C53.5861 39.1924 53.822 40.5205 53.93 40.7516C54.0235 40.9479 54.0283 41.4854 54.0276 41.6532C54.0276 41.6835 54.0276 41.7009 54.0276 41.7009C54.0276 41.7009 54.0607 42.176 54.0593 42.574C54.0593 42.6236 54.0593 42.6713 54.0593 42.7162C54.0596 42.7129 54.0596 42.7095 54.0593 42.7061C54.0592 42.8149 54.0495 42.9232 54.0304 43.029L54.0263 43.0473C54.0263 43.0244 54.0263 43.0024 54.0311 42.9803C53.9827 43.2507 53.9596 43.5279 53.9623 43.8058C53.9561 44.2827 54.0104 44.8477 54.2271 45.1815C54.6027 45.7557 54.8386 45.6842 54.8386 45.6842C54.8386 45.6842 54.6584 46.4014 54.4355 46.5454C54.4271 46.5507 54.4192 46.5575 54.4121 46.5655C54.4121 46.5509 54.408 46.5371 54.4066 46.5234C54.3818 46.5591 54.3628 46.6014 54.351 46.6476C54.3391 46.6937 54.3347 46.7426 54.3378 46.7912C54.322 47.1067 54.4713 47.6166 54.613 47.8542C54.6656 47.9229 54.7301 47.9733 54.8008 48.0009C54.7896 48.0115 54.7778 48.021 54.7657 48.0293C54.7409 48.0475 54.7154 48.0637 54.6893 48.078C54.6532 48.0984 54.6149 48.1117 54.5758 48.1174C54.5004 48.1201 54.4263 48.1442 54.3585 48.1882C54.2906 48.2322 54.2306 48.295 54.1824 48.3724C54.0448 48.6108 53.9568 48.9364 54.2305 49.2226L55.2245 49.6812C55.2245 49.6812 56.9234 49.9719 56.834 49.461Z" fill="url(#paint0_linear)"/>
<path d="M50.306 50.3086L49.343 49.85C49.0775 49.5638 49.1621 49.2382 49.2962 48.9989C49.3424 48.9225 49.4003 48.8602 49.466 48.8163C49.5318 48.7723 49.6038 48.7476 49.6773 48.7439C49.7425 48.7328 49.8051 48.7031 49.8609 48.6568C49.922 48.6125 49.9743 48.5497 50.0136 48.4733C50.0839 48.3246 50.1218 48.1529 50.123 47.9771C50.123 47.9771 51.1795 47.5644 51.4684 47.9771C51.5199 48.0518 51.563 48.1362 51.5963 48.2275C51.6923 48.5124 51.7393 48.8223 51.7339 49.1346C51.7339 49.1346 51.7875 49.5822 51.8749 50.094C51.9622 50.6057 50.306 50.3086 50.306 50.3086Z" fill="#2D293D"/>
<path d="M55.013 49.6756L54.05 49.2171C53.7845 48.9309 53.8691 48.6053 54.0033 48.3668C54.0491 48.2902 54.1068 48.2277 54.1725 48.1837C54.2381 48.1397 54.3102 48.1152 54.3836 48.1119C54.4217 48.1067 54.4588 48.0933 54.4937 48.0724C54.5191 48.0581 54.5439 48.0419 54.568 48.0238C54.8369 47.8266 54.83 47.3424 54.83 47.3424C54.83 47.3424 55.8859 46.9296 56.1754 47.3424C56.2142 47.3983 56.2481 47.4598 56.2765 47.5258C56.4574 47.9431 56.4375 48.4998 56.4375 48.4998C56.4375 48.4998 56.4911 48.9483 56.5751 49.4592C56.659 49.97 55.013 49.6756 55.013 49.6756Z" fill="#2D293D"/>
<path opacity="0.1" d="M51.4687 47.9762C51.5203 48.0509 51.5634 48.1352 51.5966 48.2265L50.0146 48.4714C50.0849 48.3227 50.1228 48.1509 50.124 47.9752C50.124 47.9752 51.1798 47.5634 51.4687 47.9762Z" fill="black"/>
<path opacity="0.1" d="M56.278 47.5278V47.923C56.0317 48.4633 54.8411 48.3449 54.4951 48.0744C54.5205 48.0601 54.5454 48.0438 54.5694 48.0258C54.8383 47.8286 54.8315 47.3443 54.8315 47.3443C54.8315 47.3443 55.8873 46.9316 56.1768 47.3443C56.2156 47.4002 56.2495 47.4618 56.278 47.5278Z" fill="black"/>
<path d="M56.4658 45.8237C56.3922 45.9959 56.3294 46.176 56.278 46.362V47.7791C56.0084 48.3706 54.6101 48.1734 54.4209 47.8506C54.2318 47.5278 54.0344 46.6876 54.2469 46.5418C54.4594 46.396 54.6369 45.6806 54.6369 45.6806C54.6369 45.6806 54.4078 45.7521 54.0447 45.178C53.6815 44.6038 53.7895 43.3308 53.8569 43.0263C53.9243 42.7218 53.8569 41.6992 53.8569 41.6992C53.8569 41.6992 53.8706 40.981 53.7633 40.7481C53.656 40.5151 53.427 39.1889 53.427 39.1889C53.427 39.1889 53.427 38.7404 53.2385 38.5074C53.0501 38.2745 52.929 37.3591 52.929 37.3591C52.8188 37.1304 52.7714 36.8579 52.7949 36.5878C52.8348 36.1393 52.5659 35.655 52.5659 35.655L52.1084 33.7171L51.6779 32.2643L51.4358 33.1072C51.4358 33.1072 51.367 35.08 51.4227 35.4918C51.4784 35.9036 51.5603 36.9987 51.5603 36.9987C51.5603 36.9987 51.2913 37.7159 51.4124 38.3258C51.5334 38.9357 51.4894 40.2464 51.4894 40.2464C51.4894 40.2464 51.6105 42.9539 51.5025 43.1694C51.3945 43.3849 51.4082 43.9233 51.4082 43.9233C51.4082 43.9233 51.9585 45.5008 51.7852 45.7164C51.6118 45.9319 51.6641 46.5235 51.6641 46.5235C51.6641 46.5235 52.0404 46.5235 51.8794 46.739C51.7185 46.9545 51.5967 48.0845 51.5967 48.0845L49.97 48.3385C49.97 48.3385 49.8214 48.0882 49.6061 47.4214C49.3909 46.7546 49.646 46.8298 49.8627 46.7573C50.0794 46.6849 49.9425 46.507 49.6866 46.2914C49.4308 46.0759 49.5793 45.5916 49.5793 45.5916C49.5793 45.5916 49.9693 44.713 49.8345 44.6414C49.6997 44.5699 49.6866 43.3317 49.6866 43.3317C49.6866 43.3317 49.4177 41.8643 49.4851 41.4662C49.5525 41.0682 49.2698 40.1216 49.2698 40.1216L49.1756 38.9917C48.8878 38.3505 48.7828 37.5925 48.8798 36.8565V35.1139C48.8798 35.1139 48.5029 31.7424 48.4492 30.0383C48.4148 28.9469 48.4245 27.4574 48.4355 26.5283C48.4424 26.0074 48.4492 25.6616 48.4492 25.6616L54.26 24.8545C54.26 24.8545 54.2545 25.2122 54.3652 26.0055C54.425 26.4311 54.5179 26.9823 54.6637 27.6711C55.0805 29.6439 54.8253 31.1142 54.8253 31.1142L54.771 33.6079C54.771 33.6079 55.2821 35.2753 55.1748 35.8495C55.1099 36.1904 55.0735 36.5398 55.0661 36.8914C55.0661 36.8914 56.2092 40.5325 56.0882 41.5909C55.9671 42.6494 56.4644 44.3177 56.4644 44.3177C56.4644 44.3177 56.6006 45.5008 56.4658 45.8237Z" fill="#464353"/>
<path opacity="0.05" d="M53.1436 36.4794L54.9126 36.1648C54.9126 36.1648 53.9105 37.5286 53.1436 36.4794Z" fill="black"/>
<path opacity="0.1" d="M54.6571 33.8601C54.6571 33.8601 54.7176 34.6947 54.3345 35.0084C54.3345 35.0084 55.0202 34.8653 54.6571 33.8601Z" fill="black"/>
<path opacity="0.1" d="M54.5481 31.2058C54.5481 31.2058 53.0693 32.8292 52.5314 32.6944C51.9936 32.5595 54.5481 31.2058 54.5481 31.2058Z" fill="black"/>
<path opacity="0.1" d="M50.9511 37.2407C50.9511 37.2407 49.8279 37.581 49.7942 38.1827C49.7605 38.7843 50.9511 37.2407 50.9511 37.2407Z" fill="black"/>
<path opacity="0.05" d="M51.1978 44.7212C51.1978 44.7212 49.611 45.1156 50.0615 45.3843C50.512 45.653 51.2521 45.8686 51.2521 45.8686C51.2521 45.8686 51.7645 45.9043 51.1978 44.7212Z" fill="black"/>
<g opacity="0.05">
<path opacity="0.05" d="M49.741 45.8114C49.7012 45.7782 49.6674 45.7334 49.6423 45.6804C49.6172 45.6275 49.6014 45.5676 49.5961 45.5054L49.5796 45.5429C49.5796 45.5429 49.4319 46.0266 49.6874 46.241C49.7163 46.2657 49.7445 46.2905 49.7699 46.3143C49.8173 46.3024 49.8681 46.2932 49.9169 46.2767C50.1333 46.2053 49.9966 46.0266 49.741 45.8114Z" fill="black"/>
<path opacity="0.05" d="M51.7848 45.6675C51.8286 45.6143 51.8272 45.4769 51.8006 45.301C51.7321 45.4394 51.7123 45.6555 51.7109 45.8195C51.7275 45.7626 51.7527 45.7109 51.7848 45.6675Z" fill="black"/>
<path opacity="0.05" d="M51.5408 36.7446C51.4827 36.9565 51.4468 37.1782 51.4341 37.4033C51.4646 37.2478 51.5056 37.0963 51.5565 36.9508L51.5408 36.7446Z" fill="black"/>
<path opacity="0.05" d="M55.1754 35.8035C55.1859 35.7391 55.1907 35.6733 55.1898 35.6074C55.1699 35.7412 55.1563 35.8648 55.146 35.9739C55.1549 35.918 55.1645 35.8648 55.1754 35.8035Z" fill="black"/>
<path opacity="0.05" d="M51.5034 43.1214C51.5253 43.0774 51.5377 42.929 51.5431 42.7229C51.4936 42.8824 51.4674 43.0531 51.4658 43.2258C51.4752 43.1891 51.4878 43.154 51.5034 43.1214Z" fill="black"/>
<path opacity="0.05" d="M51.8338 46.5044C51.7504 46.8642 51.6885 47.2322 51.6488 47.605L50.0221 47.8554C50.0221 47.8554 49.8735 47.605 49.6582 46.9382C49.6409 46.8867 49.6255 46.8341 49.6122 46.7805C49.5145 46.8401 49.4746 46.9749 49.6039 47.3684C49.8192 48.0324 49.9684 48.2855 49.9684 48.2855L51.5951 48.0342C51.5951 48.0342 51.7162 46.9043 51.8772 46.6887C51.9597 46.5851 51.9088 46.531 51.8338 46.5044Z" fill="black"/>
<path opacity="0.05" d="M49.6876 43.2832C49.6876 43.2832 49.7006 44.5204 49.8355 44.592C49.9042 44.3875 49.9489 44.193 49.8884 44.1609C49.7508 44.0894 49.7405 42.8512 49.7405 42.8512C49.7405 42.8512 49.4716 41.3837 49.539 40.9857C49.6064 40.5876 49.3237 39.6411 49.3237 39.6411L49.2295 38.5112C48.9417 37.87 48.8367 37.112 48.9337 36.376V34.6334C48.9337 34.6334 48.5568 31.2619 48.5031 29.5578C48.4687 28.4664 48.4784 26.9769 48.4894 26.0478C48.4894 25.8799 48.4935 25.7314 48.4956 25.6057L48.4495 25.6121C48.4495 25.6121 48.4419 25.957 48.4357 26.4789C48.4247 27.4079 48.4144 28.8974 48.4495 29.9879C48.5031 31.692 48.8794 35.0644 48.8794 35.0644V36.8071C48.7828 37.5429 48.8881 38.3004 49.1758 38.9413L49.2694 40.0713C49.2694 40.0713 49.5521 41.0214 49.4847 41.4167C49.4173 41.812 49.6876 43.2832 49.6876 43.2832Z" fill="black"/>
<path opacity="0.05" d="M54.4763 47.3718C54.3441 47.1167 54.256 46.8257 54.2183 46.5198C54.0526 46.7197 54.2431 47.4956 54.4247 47.8038C54.6124 48.1267 56.0115 48.3239 56.2818 47.7314V47.3902C55.9152 47.8699 54.6537 47.6773 54.4763 47.3718Z" fill="black"/>
<path opacity="0.05" d="M56.5195 45.3449C56.4461 45.517 56.3834 45.6969 56.332 45.8827V46.1365C56.3628 46.0448 56.4059 45.9221 56.4688 45.7773C56.5112 45.6363 56.5312 45.485 56.5277 45.333C56.5277 45.333 56.5215 45.3413 56.5195 45.3449Z" fill="black"/>
<path opacity="0.05" d="M54.5586 45.6284C54.6097 45.4902 54.6541 45.3478 54.6913 45.2019C54.6913 45.2019 54.4623 45.2735 54.0991 44.6993C53.835 44.282 53.8198 43.4932 53.8577 42.9778C53.7889 43.2832 53.6823 44.5562 54.0454 45.1304C54.2827 45.5055 54.4623 45.6046 54.5586 45.6284Z" fill="black"/>
<path opacity="0.05" d="M53.8572 41.6506C53.8809 42.004 53.8899 42.3589 53.884 42.7136C53.8907 42.6576 53.8999 42.6022 53.9115 42.5476C53.9803 42.2422 53.9115 41.2205 53.9115 41.2205C53.9115 41.2205 53.9253 40.5023 53.8173 40.2694C53.7093 40.0364 53.4844 38.7084 53.4844 38.7084C53.4844 38.7084 53.4844 38.2599 53.2959 38.0269C53.1075 37.7939 52.9864 36.8786 52.9864 36.8786C52.8752 36.6503 52.8266 36.3778 52.8488 36.1073C52.8894 35.6588 52.6205 35.1745 52.6205 35.1745L52.1631 33.2375L51.7325 31.7847L51.4897 32.6285C51.4897 32.6285 51.4897 32.7349 51.4814 32.9036L51.6782 32.2185L52.1087 33.6685L52.5661 35.6056C52.5661 35.6056 52.8351 36.0899 52.7945 36.5383C52.7723 36.8089 52.8209 37.0814 52.9321 37.3097C52.9321 37.3097 53.0531 38.2269 53.2416 38.458C53.43 38.6891 53.4294 39.1394 53.4294 39.1394C53.4294 39.1394 53.6584 40.4666 53.7657 40.6986C53.873 40.9307 53.8572 41.6506 53.8572 41.6506Z" fill="black"/>
</g>
<path d="M54.9865 8.65089L54.8854 9.30575L54.8916 9.59741L54.8957 9.81203L54.3344 9.88907L54.2718 9.73407C54.1556 9.45341 53.9142 8.88294 53.8365 8.79489C53.7326 8.67933 53.5476 6.85784 53.7677 6.96606C53.9032 7.03584 54.0144 7.17015 54.0799 7.34302C54.0799 7.34302 55.1853 7.51177 54.9865 8.65089Z" fill="#FFCDD3"/>
<path opacity="0.1" d="M54.8946 9.81162L54.334 9.88858L54.2715 9.73375C54.3469 9.61929 54.4497 9.54322 54.5625 9.5185C54.6752 9.49377 54.7909 9.52193 54.8898 9.59817L54.8946 9.81162Z" fill="black"/>
<path d="M55.0362 10.1662L54.297 10.3943L54.2812 10.2477L54.2393 9.85286C54.2393 9.85286 54.5319 9.33252 54.9551 9.72277L54.9922 9.9234L55.0362 10.1662Z" fill="#9C27B0"/>
<path d="M43.0484 8.72229L42.2581 9.28726L42.1893 9.08916C42.1143 8.87912 42.0022 8.5627 41.9713 8.44714C41.9245 8.27288 41.595 8.05276 41.595 8.05276C40.7696 6.99893 41.7532 6.09277 41.7532 6.09277C42.2746 4.6941 42.8537 6.56787 42.8537 6.56787C42.8537 6.56787 42.9349 7.55565 42.8778 7.62169C42.8207 7.68773 42.8207 7.95829 42.8207 7.95829C42.896 8.15214 42.9597 8.35362 43.0112 8.56087C43.0353 8.66084 43.0484 8.72229 43.0484 8.72229Z" fill="#FFCDD3"/>
<path opacity="0.1" d="M43.0475 8.72224L42.2582 9.28656L42.1895 9.08868C42.3008 8.96409 42.6958 8.53902 42.8256 8.55643C42.8876 8.56674 42.9502 8.56889 43.0125 8.56284C43.0345 8.66086 43.0475 8.72224 43.0475 8.72224Z" fill="black"/>
<path d="M43.1292 9.04064L42.2412 9.62395L42.2233 9.3699L42.2109 9.1938C42.2109 9.1938 42.7254 8.6059 42.8774 8.62883C42.9543 8.64368 43.0324 8.64368 43.1092 8.62883L43.1195 8.84161L43.1292 9.04064Z" fill="#9C27B0"/>
<path d="M52.8343 13.0009C52.8343 13.0009 48.9632 13.5833 49.6868 13.2697C50.1903 13.0505 50.3905 12.6276 50.4324 12.1507C50.4668 11.7536 50.3898 11.3253 50.2887 10.9584C50.1977 10.6329 50.0825 10.3205 49.9447 10.0256C49.9447 10.0256 52.9024 7.85563 52.3115 9.82845C52.2204 10.1269 52.1638 10.442 52.1437 10.763C52.1259 11.0821 52.1518 11.4028 52.2201 11.7096C52.3316 12.2073 52.5442 12.6542 52.8343 13.0009Z" fill="#FFCDD3"/>
<path opacity="0.1" d="M52.3095 9.82577C52.2184 10.1242 52.1618 10.4393 52.1417 10.7604C51.8632 11.0731 51.5578 11.052 51.165 11.052C50.8638 11.052 50.5295 11.1492 50.2887 10.9557C50.1978 10.6303 50.0825 10.3178 49.9448 10.023C49.9448 10.023 52.9018 7.85294 52.3095 9.82577Z" fill="black"/>
<path d="M51.1128 11.1896C51.9967 11.1896 52.7133 10.2341 52.7133 9.05539C52.7133 7.87668 51.9967 6.92114 51.1128 6.92114C50.2288 6.92114 49.5122 7.87668 49.5122 9.05539C49.5122 10.2341 50.2288 11.1896 51.1128 11.1896Z" fill="#FFCDD3"/>
<path opacity="0.1" d="M52.8343 13.001C52.8343 13.001 48.9632 13.5834 49.6868 13.2697C50.1903 13.0505 50.3905 12.6277 50.4324 12.1508C50.625 11.8756 51.0122 11.6711 51.2578 11.5647C51.4848 11.4629 51.7299 11.4574 51.9594 11.5491C52.0496 11.5853 52.1355 11.6385 52.2146 11.7068C52.3273 12.2064 52.5419 12.6544 52.8343 13.001Z" fill="black"/>
<path opacity="0.1" d="M55.0363 10.1665L54.2971 10.3946L54.2812 10.248C54.3604 10.103 54.4711 9.99412 54.5984 9.93609C54.7256 9.87806 54.8632 9.87374 54.9923 9.92372L55.0363 10.1665Z" fill="black"/>
<path opacity="0.1" d="M43.129 9.04076L42.241 9.62408L42.2231 9.37003C42.5108 9.16382 42.8097 8.98691 43.1173 8.84082L43.129 9.04076Z" fill="black"/>
<path opacity="0.1" d="M54.3653 26.0072C52.8651 26.3264 50.7329 26.7336 50.3945 26.5961C50.1131 26.4823 49.2162 26.4943 48.4355 26.53C48.4424 26.0091 48.4493 25.6633 48.4493 25.6633L54.26 24.8562C54.26 24.8562 54.2545 25.2139 54.3653 26.0072Z" fill="black"/>
<path d="M55.8606 25.5378C55.8606 25.5378 50.9241 26.6677 50.3944 26.4549C49.8648 26.2422 47.1445 26.4724 47.1445 26.4724C45.9202 27.5665 46.4312 25.9523 46.4312 25.9523C46.4312 25.9523 46.3239 25.1095 46.4718 24.428C46.5711 23.9277 46.639 23.4172 46.6747 22.9018C46.6747 22.9018 46.6479 21.8251 46.7958 21.5738C46.9436 21.3225 47.119 19.5294 47.119 19.5294C47.119 19.5294 47.2532 18.3096 47.2401 18.0409C47.227 17.7721 47.28 17.0182 47.28 17.0182L47.4554 15.7626C46.4463 15.5838 43.3794 13.0726 43.3794 13.0726C43.2315 12.2297 42.0883 10.2569 42.0883 10.2569C42.0717 10.091 42.04 9.92836 41.9941 9.7726C41.9136 9.48552 43.1242 8.91138 43.1242 8.91138C43.1242 8.91138 44.0252 10.3788 44.2137 10.7769C44.4021 11.1749 45.0473 11.9068 45.0473 11.9068C45.1476 11.8931 45.2488 11.9107 45.3431 11.9582L45.3589 11.9646C45.5751 12.0778 45.7778 12.2323 45.9607 12.4232C46.2641 12.4136 46.5583 12.5616 46.7813 12.8359C46.7813 12.8359 47.3316 12.7277 47.4272 12.8534C47.5228 12.979 47.9919 12.8534 47.9919 12.8534C47.9919 12.8534 48.4624 11.5262 48.7719 11.9114C49.0814 12.2966 50.3944 12.2783 50.3944 12.2783C50.5692 11.9683 50.9949 11.7463 51.2611 11.6363C51.4882 11.5349 51.7332 11.5295 51.9627 11.6207C52.0617 11.6601 52.1548 11.7221 52.2378 11.8041L53.0364 12.8442C53.0364 12.8442 53.2647 12.4489 53.2379 12.3599C53.2111 12.271 53.5068 12.1985 53.5068 12.1985C53.5068 12.1985 53.8968 12.0371 54.0447 11.983C54.1926 11.9289 54.3281 12.1426 54.3405 12.1618C54.3357 12.1389 54.2346 11.7032 54.2717 11.3731C54.3088 11.0429 54.1101 10.731 54.1101 10.731C54.5805 9.18836 55.6432 10.4797 55.6432 10.4797C55.6432 10.4797 55.7643 11.3226 55.657 11.6455C55.5497 11.9683 55.7643 12.6497 55.7375 12.8295C55.7106 13.0093 55.7918 13.3138 55.7918 13.655C55.7918 13.9961 55.6542 14.6409 55.5765 14.928C55.4988 15.2151 54.8502 15.8608 54.8502 15.8608C54.8502 15.8608 54.8096 16.8834 54.5269 17.475C54.2442 18.0665 54.4216 20.0898 54.4216 20.0898C54.4216 20.0898 54.6906 21.6682 55.0269 22.1709C55.3633 22.6735 55.8606 25.5378 55.8606 25.5378Z" fill="#3F3D56"/>
<path opacity="0.1" d="M48.6644 13.7357C48.6644 13.7357 48.5165 13.1441 48.3817 13.0936C48.2478 13.028 48.1175 12.9502 47.9917 12.8607L48.0784 12.6396C48.0784 12.6396 48.5832 12.8231 48.6644 13.0221C48.7455 13.2211 48.6644 13.7357 48.6644 13.7357Z" fill="black"/>
<path opacity="0.1" d="M45.9607 12.4269C45.9338 12.6104 44.7363 12.7672 44.7363 12.7672L45.3416 11.9583L45.3567 11.9656C45.5738 12.0794 45.7773 12.2348 45.9607 12.4269Z" fill="black"/>
<path d="M42.4965 10.1082C42.5555 10.1082 42.6033 10.0441 42.6033 9.9651C42.6033 9.88608 42.5555 9.82202 42.4965 9.82202C42.4375 9.82202 42.3896 9.88608 42.3896 9.9651C42.3896 10.0441 42.4375 10.1082 42.4965 10.1082Z" fill="#575988"/>
<path d="M42.6342 10.3953C42.6932 10.3953 42.741 10.3312 42.741 10.2522C42.741 10.1732 42.6932 10.1091 42.6342 10.1091C42.5752 10.1091 42.5273 10.1732 42.5273 10.2522C42.5273 10.3312 42.5752 10.3953 42.6342 10.3953Z" fill="#575988"/>
<path d="M42.769 10.6604C42.828 10.6604 42.8758 10.5964 42.8758 10.5173C42.8758 10.4383 42.828 10.3743 42.769 10.3743C42.7099 10.3743 42.6621 10.4383 42.6621 10.5173C42.6621 10.5964 42.7099 10.6604 42.769 10.6604Z" fill="#575988"/>
<path d="M42.9096 10.9466C42.9686 10.9466 43.0164 10.8825 43.0164 10.8035C43.0164 10.7245 42.9686 10.6604 42.9096 10.6604C42.8506 10.6604 42.8027 10.7245 42.8027 10.8035C42.8027 10.8825 42.8506 10.9466 42.9096 10.9466Z" fill="#575988"/>
<path d="M55.5891 10.9034C55.6369 10.9034 55.6757 10.8514 55.6757 10.7874C55.6757 10.7233 55.6369 10.6714 55.5891 10.6714C55.5412 10.6714 55.5024 10.7233 55.5024 10.7874C55.5024 10.8514 55.5412 10.9034 55.5891 10.9034Z" fill="#575988"/>
<path d="M55.6027 11.1685C55.6506 11.1685 55.6893 11.1166 55.6893 11.0525C55.6893 10.9885 55.6506 10.9365 55.6027 10.9365C55.5549 10.9365 55.5161 10.9885 55.5161 11.0525C55.5161 11.1166 55.5549 11.1685 55.6027 11.1685Z" fill="#575988"/>
<path d="M55.6144 11.4324C55.6623 11.4324 55.7011 11.3805 55.7011 11.3164C55.7011 11.2524 55.6623 11.2004 55.6144 11.2004C55.5666 11.2004 55.5278 11.2524 55.5278 11.3164C55.5278 11.3805 55.5666 11.4324 55.6144 11.4324Z" fill="#575988"/>
<path opacity="0.1" d="M48.6695 18.5967C48.6564 18.5757 51.689 23.6815 54.0427 20.731C54.0448 20.7319 50.3258 21.4042 48.6695 18.5967Z" fill="black"/>
<path opacity="0.1" d="M46.9292 21.251C46.9292 21.251 48.7437 21.317 48.9335 22.0131V22.7377C48.8818 22.7759 48.8237 22.796 48.7646 22.796C48.7056 22.796 48.6475 22.7759 48.5958 22.7377C48.4128 22.6056 47.3158 21.8627 46.9292 22.2204V21.251Z" fill="black"/>
<path d="M46.9629 21.251C46.9629 21.251 48.6983 21.3143 48.8798 21.9783V22.668C48.8304 22.7046 48.7748 22.7238 48.7182 22.7238C48.6617 22.7238 48.606 22.7046 48.5566 22.668C48.3819 22.5433 47.3329 21.8343 46.9629 22.1755V21.251Z" fill="#3F3D56"/>
<path opacity="0.1" d="M47.9199 15.9973C48.1053 16.5695 48.3415 17.1099 48.6236 17.6069C48.9303 18.1563 49.302 18.6355 49.7241 19.0258C49.7241 19.0258 47.9502 16.3293 47.9199 15.9973Z" fill="black"/>
<path opacity="0.1" d="M47.3262 13.1863C47.3262 13.1863 47.6288 14.9289 48.4088 15.5205L47.3262 13.1863Z" fill="black"/>
<path opacity="0.1" d="M46.862 13.3624C46.8544 13.3303 46.593 14.7381 47.8676 15.5204C47.8676 15.5204 47.3263 15.2756 46.862 13.3624Z" fill="black"/>
<path opacity="0.1" d="M54.7846 12.1938C54.7647 12.1938 55.4126 12.7434 55.5891 13C55.5891 13 55.1673 12.1571 54.7846 12.1938Z" fill="black"/>
<path d="M50.6798 10.9896C50.68 11.0361 50.6875 11.0821 50.7017 11.1246C50.716 11.1671 50.7367 11.2053 50.7626 11.2365C50.7884 11.2678 50.8189 11.2916 50.852 11.3064C50.8851 11.3212 50.9201 11.3267 50.9549 11.3225C51.4426 11.3629 51.9509 11.3913 52.3993 11.1391C52.4834 11.0991 52.559 11.0323 52.6194 10.9446C52.6992 10.8135 52.715 10.6356 52.7474 10.4723C52.8106 10.1531 52.9455 9.86972 53.0424 9.56614C53.2065 9.05324 53.2615 8.48999 53.2013 7.93817C53.1886 7.76902 53.1467 7.6061 53.0789 7.46216C52.9496 7.21545 52.7137 7.11547 52.5424 6.9192C52.3711 6.72293 52.2611 6.42301 52.0609 6.27718C51.8807 6.14328 51.6599 6.15979 51.457 6.20564C51.0579 6.29602 50.6755 6.48749 50.3304 6.7697C50.2141 6.86142 50.0869 6.97423 49.9534 6.9403C49.8365 6.91095 49.7512 6.77979 49.6783 6.65689C49.5845 6.9504 49.5451 7.26971 49.5634 7.58781C49.5685 7.63449 49.5673 7.682 49.56 7.72814C49.5432 7.78392 49.5176 7.83427 49.485 7.87581C49.3647 8.05924 49.2897 8.35732 49.4087 8.54625C49.4603 8.62788 49.54 8.67282 49.5903 8.75628C49.6804 8.90578 49.6501 9.12315 49.648 9.31392C49.6431 9.38053 49.6557 9.44737 49.6838 9.50286C49.7098 9.5352 49.7417 9.55803 49.7763 9.56912C49.8109 9.5802 49.847 9.57918 49.8812 9.56614C49.9494 9.53877 50.0209 9.52973 50.0917 9.53955C50.1663 9.57188 50.2306 9.63642 50.2746 9.72298C50.4968 10.1091 50.5848 10.5292 50.6798 10.9896Z" fill="#2D293D"/>
<g opacity="0.1">
<path opacity="0.1" d="M52.6765 10.7823C52.6161 10.8699 52.5405 10.9367 52.4564 10.9767C52.0052 11.2271 51.4976 11.1987 51.012 11.1601C50.9598 11.1608 50.9083 11.1455 50.8613 11.1152C50.7871 11.0574 50.7589 10.9364 50.7362 10.8263C50.6412 10.3677 50.5539 9.94674 50.3283 9.56428C50.2848 9.47606 50.2204 9.40985 50.1453 9.37626C50.0745 9.36735 50.0031 9.37638 49.9348 9.40285C49.9007 9.41601 49.8646 9.41718 49.83 9.40625C49.7954 9.39533 49.7635 9.37267 49.7374 9.34049C49.7094 9.285 49.6967 9.21817 49.7017 9.15155C49.7017 8.95895 49.734 8.74341 49.6439 8.59391C49.5937 8.51045 49.5139 8.46551 49.4623 8.38297C49.4287 8.32211 49.408 8.25023 49.4026 8.17497C49.3971 8.09971 49.4071 8.02388 49.4313 7.95557C49.3454 8.139 49.3089 8.36921 49.4087 8.52696C49.4602 8.60859 49.54 8.65353 49.5902 8.73699C49.6803 8.88741 49.6501 9.10386 49.648 9.29463C49.6427 9.36114 49.6551 9.42802 49.6831 9.48357C49.7092 9.51607 49.7412 9.53898 49.7759 9.55007C49.8106 9.56117 49.8469 9.56006 49.8812 9.54685C49.9493 9.51948 50.0209 9.51044 50.0917 9.52025C50.1662 9.55259 50.2306 9.61713 50.2746 9.70369C50.4995 10.0861 50.5876 10.5062 50.6825 10.9666C50.6936 11.0799 50.7361 11.1836 50.8015 11.2574C50.8486 11.2877 50.9005 11.3027 50.9528 11.3014C51.4405 11.3417 51.9488 11.3711 52.3973 11.118C52.4815 11.0782 52.5571 11.0114 52.6174 10.9235C52.6477 10.8719 52.671 10.8135 52.6861 10.7511C52.6868 10.763 52.682 10.7731 52.6765 10.7823Z" fill="black"/>
<path opacity="0.1" d="M49.5616 7.67226C49.5831 7.64097 49.5997 7.60415 49.6102 7.56403C49.6164 7.51762 49.6164 7.47012 49.6102 7.42371C49.5969 7.16222 49.6223 6.89977 49.6849 6.65145L49.676 6.6377C49.5823 6.93076 49.543 7.24988 49.5616 7.5677C49.5637 7.6025 49.5637 7.63746 49.5616 7.67226Z" fill="black"/>
</g>
<path opacity="0.1" d="M50.3945 12.2829C50.3945 12.2829 52.394 12.6369 52.5735 12.2361L50.3945 12.2829Z" fill="black"/>
<path opacity="0.1" d="M54.2812 11.1794C54.2812 11.1794 55.3928 11.1794 55.6369 11.7371L54.2812 11.1794Z" fill="black"/>
<path d="M60.5001 60.7202C60.1705 61.1132 59.7421 61.3267 59.2999 61.3182C59.1871 61.3182 59.031 61.3467 59.0303 61.4971C59.033 61.5412 59.0444 61.5836 59.0633 61.62C59.2029 61.9302 59.4232 62.161 59.6823 62.2684C59.9231 62.3656 60.1803 62.3491 60.4314 62.3317L61.1639 62.2813C61.3015 62.2712 61.439 62.262 61.5766 62.2391C61.7142 62.2161 61.8641 62.1785 62.0079 62.1473C62.3611 62.0804 62.7183 62.0583 63.0747 62.0813C63.1696 62.0859 63.281 62.0813 63.3374 61.9896C63.3938 61.8979 63.3649 61.7227 63.3436 61.5851C63.2996 61.3017 63.3436 61.0046 63.303 60.7202C63.2342 60.2213 62.9103 59.8388 62.5554 59.6582C62.2252 59.4912 61.6406 59.2995 61.3283 59.5784C60.9988 59.8709 60.7973 60.3598 60.5001 60.7202Z" fill="#3F3D56"/>
<path d="M61.2277 44.0039C61.2924 44.4138 61.5902 44.7275 61.5985 45.1457C61.606 45.4814 61.4265 45.763 61.2972 46.0501C61.1753 46.3474 61.0725 46.6579 60.9897 46.9782C60.7463 47.8124 60.4441 48.6139 60.0873 49.372C59.9154 49.7389 59.7228 50.1305 59.762 50.557C59.7894 50.7565 59.8422 50.9482 59.9181 51.1238L60.434 52.4904C60.547 52.7633 60.6354 53.053 60.6974 53.3535C60.7421 53.613 60.7462 53.8818 60.7724 54.1459C60.8535 54.9842 61.1486 55.828 60.9739 56.6406C60.9588 56.7103 60.9051 56.7947 60.8632 56.7461C61.0338 57.1707 61.1706 57.5981 61.1576 58.0796C61.1507 58.3319 61.0929 58.5951 61.1624 58.8299C61.192 58.928 61.2435 59.0197 61.2429 59.1252C61.2429 59.1949 61.2188 59.26 61.2133 59.3279C61.1988 59.5214 61.3323 59.6828 61.4705 59.7443C61.6088 59.8057 61.7594 59.8012 61.899 59.8571C62.1673 59.9644 62.3592 60.2726 62.5869 60.4863C62.8204 60.7008 63.0957 60.8203 63.3792 60.8302C63.4197 60.836 63.4605 60.8251 63.4962 60.799C63.5164 60.7755 63.5326 60.7464 63.5437 60.7138C63.5549 60.6813 63.5607 60.6459 63.5608 60.6101C63.5733 60.4388 63.5539 60.266 63.5045 60.1071C63.4551 59.9481 63.3771 59.8077 63.2774 59.6984C63.2337 59.662 63.1976 59.6115 63.1722 59.5517C63.1593 59.4987 63.1561 59.4425 63.1626 59.3875C63.2041 58.6358 63.194 57.8805 63.1323 57.1313C63.1045 56.8938 63.0955 56.6531 63.1055 56.4131C63.1199 56.2132 63.1653 56.0151 63.1488 55.8161C63.1323 55.617 63.056 55.4354 63.0112 55.2437C62.9315 54.9026 62.9535 54.5357 62.9425 54.1789C62.9287 53.5589 62.8221 52.9499 62.7162 52.3446C62.6742 52.107 62.6281 51.8585 62.5023 51.6824C62.395 51.5329 62.2216 51.3898 62.2622 51.1908C62.2847 51.1174 62.3182 51.0509 62.3606 50.9954C62.4104 50.9121 62.4469 50.8161 62.468 50.7133C62.489 50.6104 62.4941 50.503 62.483 50.3974C62.5282 50.4128 62.5761 50.4068 62.6184 50.3804C62.6606 50.3539 62.6947 50.3087 62.7148 50.2525C63.5526 49.7252 64.228 48.6704 64.5293 47.501C64.547 47.4142 64.5744 47.3313 64.6104 47.2552C64.6882 47.1103 64.823 47.0479 64.9426 46.9682C65.3182 46.7159 65.5775 46.2436 65.8155 45.7813C65.9531 45.5135 66.0906 45.2365 66.1525 44.921C66.1851 44.717 66.2005 44.5087 66.1986 44.3001L66.2199 43.2224C66.2246 43.1515 66.2195 43.08 66.2048 43.0115C66.1844 42.9475 66.1547 42.8895 66.1174 42.8409C65.8887 42.5183 65.5882 42.3023 65.2604 42.2246C65.0403 42.1723 64.8154 42.1824 64.5925 42.1576C64.1606 42.1099 63.7341 41.9311 63.3022 41.9742C62.6233 42.0411 62.0187 42.6685 61.6989 43.4701C61.5868 43.7526 61.4685 43.9984 61.2277 44.0039Z" fill="#464353"/>
<path d="M57.4586 36.9969C57.4678 37.1632 57.4509 37.3303 57.4091 37.4875C57.3562 37.6379 57.2234 37.7553 57.1072 37.6939C57.1422 37.5884 57.0494 37.4683 56.9627 37.4811C56.9201 37.4942 56.8805 37.5209 56.8473 37.559C56.8141 37.597 56.7883 37.6452 56.7722 37.6994C56.7147 37.8534 56.6955 38.0278 56.7172 38.1974C56.7447 38.4084 56.8362 38.6111 56.8121 38.8229C56.7928 38.999 56.6958 39.1742 56.7474 39.3375C56.7809 39.412 56.8229 39.4792 56.8719 39.5365C56.9399 39.6481 56.9731 39.7902 56.9648 39.9336C56.9565 40.0769 56.9073 40.2106 56.8272 40.3069L58.1286 40.3418C58.0811 40.6316 58.1788 40.9278 58.2902 41.1855C58.6023 41.8941 59.0333 42.4966 59.5493 42.9458C60.0653 43.3951 60.6523 43.6788 61.2644 43.7747C61.2313 43.8005 61.2029 43.8357 61.1813 43.8779C61.1596 43.9201 61.1453 43.9681 61.1393 44.0186C61.1333 44.0691 61.1358 44.1207 61.1466 44.1697C61.1574 44.2187 61.1763 44.2639 61.2018 44.3021C61.3077 44.4424 61.4872 44.425 61.62 44.3342C61.7527 44.2434 61.8566 44.093 61.9776 43.9765C62.1913 43.7746 62.4521 43.6809 62.7129 43.7123C62.8759 43.7334 63.0341 43.8041 63.1978 43.8151C63.6793 43.849 64.092 43.3867 64.5556 43.1978C64.8933 43.0593 65.2764 43.0593 65.5598 42.7777C65.6823 42.6567 65.7827 42.4577 65.7469 42.2614C65.7173 42.1486 65.6705 42.0452 65.6093 41.9578C65.4463 41.6762 65.35 41.3378 65.2331 41.0177C65.0014 40.384 64.6825 39.814 64.2928 39.3375C63.9987 38.9947 63.6871 38.6796 63.3602 38.3946C63.2811 38.3168 63.1968 38.249 63.1084 38.1919C62.9942 38.125 62.8677 38.0929 62.7645 38.0085C62.6118 37.8801 62.5238 37.6535 62.4061 37.471C62.1482 37.0693 61.752 36.885 61.4343 36.5694C61.221 36.3576 61.0326 36.0788 60.7781 35.977C60.6543 35.9265 60.5229 35.9228 60.3991 35.8733C60.1178 35.7596 59.9128 35.4267 59.637 35.2918C59.4189 35.1854 59.1782 35.213 58.9492 35.1754C58.691 35.1329 58.4443 35.0076 58.2304 34.8103C58.1615 34.7355 58.0842 34.6754 58.0013 34.6324C57.6526 34.4911 57.6244 35.357 57.5886 35.6569C57.5426 36.1026 57.4586 36.5456 57.4586 36.9969Z" fill="#9C27B0"/>
<path d="M57.798 39.9006C57.8564 40.7462 57.3777 41.5652 57.5173 42.3934C57.5469 42.5695 57.604 42.7374 57.6246 42.9162C57.6831 43.4069 57.463 43.8719 57.2532 44.2828L55.4511 47.8093C55.3788 47.9641 55.2924 48.1064 55.1939 48.233C54.85 48.6412 54.3327 48.5999 53.8801 48.721C53.5622 48.8081 53.262 48.9851 52.9997 49.2401C52.9879 49.2523 52.9801 49.2701 52.9781 49.2898C52.976 49.3095 52.9798 49.3295 52.9887 49.3456C53.0634 49.4812 53.1624 49.5898 53.2767 49.6614C53.3909 49.733 53.5168 49.7654 53.6428 49.7555C53.6903 49.8381 53.6428 49.961 53.5775 50.0206C53.4812 50.1123 53.3478 50.1334 53.3285 50.3526C53.322 50.4288 53.3335 50.5058 53.3615 50.5727C53.4344 50.7205 53.5472 50.825 53.6765 50.8644C54.3004 51.1194 54.9745 50.6718 55.4415 50.0637C55.9085 49.4556 56.2435 48.688 56.7016 48.0698C56.9554 47.7268 57.2436 47.4342 57.505 47.1022C58.0263 46.4391 58.4321 45.6347 58.8228 44.8285C58.9404 44.5855 59.0594 44.336 59.1083 44.0544C59.1571 43.7729 59.1344 43.4876 59.1901 43.2152C59.263 42.8584 59.4591 42.5732 59.6221 42.2742C59.9419 41.6872 60.1558 40.9691 60.1132 40.2454C60.0705 39.5218 59.7349 38.8082 59.2231 38.5624C59.0644 38.4783 58.8897 38.4642 58.7245 38.5221C58.5147 38.6083 58.3599 38.8394 58.2169 39.0614L57.8729 39.5878C57.7892 39.7044 57.7235 39.8419 57.6797 39.9923C57.6575 40.0681 57.6522 40.1508 57.6644 40.2305C57.6766 40.3102 57.7058 40.3836 57.7484 40.4417" fill="#FBBEBE"/>
<path d="M58.7116 36.4319C58.475 36.4502 58.2143 36.4814 58.0472 36.707C57.9771 36.8106 57.9204 36.929 57.8794 37.0574C57.717 37.4985 57.5588 37.9599 57.5471 38.4515C57.5375 38.844 57.6228 39.2283 57.6675 39.6163C57.7046 39.9391 57.6104 40.2684 57.5925 40.5949C57.8862 40.4747 58.2742 40.3115 58.5403 40.1088C58.7219 39.9703 58.8973 39.8125 59.0954 39.7245C59.3781 39.5988 59.852 39.8162 60.121 39.9905C60.1354 39.7392 59.9937 39.3008 60.0088 39.0485C60.0109 38.9424 60.0251 38.8372 60.0508 38.7367C60.091 38.6304 60.1387 38.5293 60.1932 38.435C60.2955 38.213 60.3426 37.9536 60.3277 37.6938C60.3127 37.4339 60.2365 37.1871 60.1099 36.9886C59.8713 36.6309 59.4978 36.497 59.1415 36.4383C58.9171 36.4036 58.691 36.3932 58.4654 36.4071" fill="#9C27B0"/>
</g>
<defs>
<linearGradient id="paint0_linear" x1="48.9226" y1="50.3938" x2="48.9226" y2="5.57554" gradientUnits="userSpaceOnUse">
<stop stop-color="#808080" stop-opacity="0.25"/>
<stop offset="0.54" stop-color="#808080" stop-opacity="0.12"/>
<stop offset="1" stop-color="#808080" stop-opacity="0.1"/>
</linearGradient>
<clipPath id="clip0">
<rect width="72.1924" height="62.238" fill="white" transform="translate(0.347168 0.300049)"/>
</clipPath>
</defs>
</svg>
